G04 #@! TF.GenerationSoftware,KiCad,Pcbnew,(5.1.4-0-10_14)*
G04 #@! TF.CreationDate,2019-11-02T18:26:44-07:00*
G04 #@! TF.ProjectId,SoftButtonBoardMux555,536f6674-4275-4747-946f-6e426f617264,rev?*
G04 #@! TF.SameCoordinates,Original*
G04 #@! TF.FileFunction,Soldermask,Bot*
G04 #@! TF.FilePolarity,Negative*
%FSLAX46Y46*%
G04 Gerber Fmt 4.6, Leading zero omitted, Abs format (unit mm)*
G04 Created by KiCad (PCBNEW (5.1.4-0-10_14)) date 2019-11-02 18:26:44*
%MOMM*%
%LPD*%
G04 APERTURE LIST*
%ADD10C,0.100000*%
G04 APERTURE END LIST*
D10*
G36*
X102160564Y-62997389D02*
G01*
X102351833Y-63076615D01*
X102351835Y-63076616D01*
X102523973Y-63191635D01*
X102670365Y-63338027D01*
X102736163Y-63436500D01*
X102785385Y-63510167D01*
X102864611Y-63701436D01*
X102905000Y-63904484D01*
X102905000Y-64111516D01*
X102864611Y-64314564D01*
X102785385Y-64505833D01*
X102785384Y-64505835D01*
X102670365Y-64677973D01*
X102523973Y-64824365D01*
X102351835Y-64939384D01*
X102351834Y-64939385D01*
X102351833Y-64939385D01*
X102160564Y-65018611D01*
X101957516Y-65059000D01*
X101750484Y-65059000D01*
X101547436Y-65018611D01*
X101356167Y-64939385D01*
X101356166Y-64939385D01*
X101356165Y-64939384D01*
X101184027Y-64824365D01*
X101037635Y-64677973D01*
X100922616Y-64505835D01*
X100922615Y-64505833D01*
X100843389Y-64314564D01*
X100803000Y-64111516D01*
X100803000Y-63904484D01*
X100843389Y-63701436D01*
X100922615Y-63510167D01*
X100971838Y-63436500D01*
X101037635Y-63338027D01*
X101184027Y-63191635D01*
X101356165Y-63076616D01*
X101356167Y-63076615D01*
X101547436Y-62997389D01*
X101750484Y-62957000D01*
X101957516Y-62957000D01*
X102160564Y-62997389D01*
X102160564Y-62997389D01*
G37*
G36*
X79808564Y-62997389D02*
G01*
X79999833Y-63076615D01*
X79999835Y-63076616D01*
X80171973Y-63191635D01*
X80318365Y-63338027D01*
X80384163Y-63436500D01*
X80433385Y-63510167D01*
X80512611Y-63701436D01*
X80553000Y-63904484D01*
X80553000Y-64111516D01*
X80512611Y-64314564D01*
X80433385Y-64505833D01*
X80433384Y-64505835D01*
X80318365Y-64677973D01*
X80171973Y-64824365D01*
X79999835Y-64939384D01*
X79999834Y-64939385D01*
X79999833Y-64939385D01*
X79808564Y-65018611D01*
X79605516Y-65059000D01*
X79398484Y-65059000D01*
X79195436Y-65018611D01*
X79004167Y-64939385D01*
X79004166Y-64939385D01*
X79004165Y-64939384D01*
X78832027Y-64824365D01*
X78685635Y-64677973D01*
X78570616Y-64505835D01*
X78570615Y-64505833D01*
X78491389Y-64314564D01*
X78451000Y-64111516D01*
X78451000Y-63904484D01*
X78491389Y-63701436D01*
X78570615Y-63510167D01*
X78619838Y-63436500D01*
X78685635Y-63338027D01*
X78832027Y-63191635D01*
X79004165Y-63076616D01*
X79004167Y-63076615D01*
X79195436Y-62997389D01*
X79398484Y-62957000D01*
X79605516Y-62957000D01*
X79808564Y-62997389D01*
X79808564Y-62997389D01*
G37*
G36*
X84247943Y-62542019D02*
G01*
X84314127Y-62548537D01*
X84483966Y-62600057D01*
X84640491Y-62683722D01*
X84676229Y-62713052D01*
X84777686Y-62796314D01*
X84860948Y-62897771D01*
X84890278Y-62933509D01*
X84973943Y-63090034D01*
X85025463Y-63259873D01*
X85042859Y-63436500D01*
X85025463Y-63613127D01*
X84973943Y-63782966D01*
X84890278Y-63939491D01*
X84860948Y-63975229D01*
X84777686Y-64076686D01*
X84676229Y-64159948D01*
X84640491Y-64189278D01*
X84483966Y-64272943D01*
X84314127Y-64324463D01*
X84247942Y-64330982D01*
X84181760Y-64337500D01*
X84093240Y-64337500D01*
X84027058Y-64330982D01*
X83960873Y-64324463D01*
X83791034Y-64272943D01*
X83634509Y-64189278D01*
X83598771Y-64159948D01*
X83497314Y-64076686D01*
X83414052Y-63975229D01*
X83384722Y-63939491D01*
X83301057Y-63782966D01*
X83249537Y-63613127D01*
X83232141Y-63436500D01*
X83249537Y-63259873D01*
X83301057Y-63090034D01*
X83384722Y-62933509D01*
X83414052Y-62897771D01*
X83497314Y-62796314D01*
X83598771Y-62713052D01*
X83634509Y-62683722D01*
X83791034Y-62600057D01*
X83960873Y-62548537D01*
X84027057Y-62542019D01*
X84093240Y-62535500D01*
X84181760Y-62535500D01*
X84247943Y-62542019D01*
X84247943Y-62542019D01*
G37*
G36*
X96820943Y-62478519D02*
G01*
X96887127Y-62485037D01*
X97056966Y-62536557D01*
X97213491Y-62620222D01*
X97249229Y-62649552D01*
X97350686Y-62732814D01*
X97433948Y-62834271D01*
X97463278Y-62870009D01*
X97546943Y-63026534D01*
X97598463Y-63196373D01*
X97615859Y-63373000D01*
X97598463Y-63549627D01*
X97546943Y-63719466D01*
X97463278Y-63875991D01*
X97433948Y-63911729D01*
X97350686Y-64013186D01*
X97249229Y-64096448D01*
X97213491Y-64125778D01*
X97056966Y-64209443D01*
X96887127Y-64260963D01*
X96820943Y-64267481D01*
X96754760Y-64274000D01*
X96666240Y-64274000D01*
X96600057Y-64267481D01*
X96533873Y-64260963D01*
X96364034Y-64209443D01*
X96207509Y-64125778D01*
X96171771Y-64096448D01*
X96070314Y-64013186D01*
X95987052Y-63911729D01*
X95957722Y-63875991D01*
X95874057Y-63719466D01*
X95822537Y-63549627D01*
X95805141Y-63373000D01*
X95822537Y-63196373D01*
X95874057Y-63026534D01*
X95957722Y-62870009D01*
X95987052Y-62834271D01*
X96070314Y-62732814D01*
X96171771Y-62649552D01*
X96207509Y-62620222D01*
X96364034Y-62536557D01*
X96533873Y-62485037D01*
X96600057Y-62478519D01*
X96666240Y-62472000D01*
X96754760Y-62472000D01*
X96820943Y-62478519D01*
X96820943Y-62478519D01*
G37*
G36*
X85038500Y-61797500D02*
G01*
X83236500Y-61797500D01*
X83236500Y-59995500D01*
X85038500Y-59995500D01*
X85038500Y-61797500D01*
X85038500Y-61797500D01*
G37*
G36*
X97611500Y-61734000D02*
G01*
X95809500Y-61734000D01*
X95809500Y-59932000D01*
X97611500Y-59932000D01*
X97611500Y-61734000D01*
X97611500Y-61734000D01*
G37*
G36*
X83832000Y-53606000D02*
G01*
X82030000Y-53606000D01*
X82030000Y-51804000D01*
X83832000Y-51804000D01*
X83832000Y-53606000D01*
X83832000Y-53606000D01*
G37*
G36*
X80501442Y-51810518D02*
G01*
X80567627Y-51817037D01*
X80737466Y-51868557D01*
X80893991Y-51952222D01*
X80929729Y-51981552D01*
X81031186Y-52064814D01*
X81114448Y-52166271D01*
X81143778Y-52202009D01*
X81227443Y-52358534D01*
X81278963Y-52528373D01*
X81296359Y-52705000D01*
X81278963Y-52881627D01*
X81227443Y-53051466D01*
X81143778Y-53207991D01*
X81114448Y-53243729D01*
X81031186Y-53345186D01*
X80929729Y-53428448D01*
X80893991Y-53457778D01*
X80737466Y-53541443D01*
X80567627Y-53592963D01*
X80501442Y-53599482D01*
X80435260Y-53606000D01*
X80346740Y-53606000D01*
X80280558Y-53599482D01*
X80214373Y-53592963D01*
X80044534Y-53541443D01*
X79888009Y-53457778D01*
X79852271Y-53428448D01*
X79750814Y-53345186D01*
X79667552Y-53243729D01*
X79638222Y-53207991D01*
X79554557Y-53051466D01*
X79503037Y-52881627D01*
X79485641Y-52705000D01*
X79503037Y-52528373D01*
X79554557Y-52358534D01*
X79638222Y-52202009D01*
X79667552Y-52166271D01*
X79750814Y-52064814D01*
X79852271Y-51981552D01*
X79888009Y-51952222D01*
X80044534Y-51868557D01*
X80214373Y-51817037D01*
X80280558Y-51810518D01*
X80346740Y-51804000D01*
X80435260Y-51804000D01*
X80501442Y-51810518D01*
X80501442Y-51810518D01*
G37*
G36*
X81165000Y-49288000D02*
G01*
X79363000Y-49288000D01*
X79363000Y-47486000D01*
X81165000Y-47486000D01*
X81165000Y-49288000D01*
X81165000Y-49288000D01*
G37*
G36*
X80374442Y-44952518D02*
G01*
X80440627Y-44959037D01*
X80610466Y-45010557D01*
X80766991Y-45094222D01*
X80802729Y-45123552D01*
X80904186Y-45206814D01*
X80987448Y-45308271D01*
X81016778Y-45344009D01*
X81100443Y-45500534D01*
X81151963Y-45670373D01*
X81169359Y-45847000D01*
X81151963Y-46023627D01*
X81100443Y-46193466D01*
X81016778Y-46349991D01*
X80987448Y-46385729D01*
X80904186Y-46487186D01*
X80802729Y-46570448D01*
X80766991Y-46599778D01*
X80610466Y-46683443D01*
X80440627Y-46734963D01*
X80374443Y-46741481D01*
X80308260Y-46748000D01*
X80219740Y-46748000D01*
X80153557Y-46741481D01*
X80087373Y-46734963D01*
X79917534Y-46683443D01*
X79761009Y-46599778D01*
X79725271Y-46570448D01*
X79623814Y-46487186D01*
X79540552Y-46385729D01*
X79511222Y-46349991D01*
X79427557Y-46193466D01*
X79376037Y-46023627D01*
X79358641Y-45847000D01*
X79376037Y-45670373D01*
X79427557Y-45500534D01*
X79511222Y-45344009D01*
X79540552Y-45308271D01*
X79623814Y-45206814D01*
X79725271Y-45123552D01*
X79761009Y-45094222D01*
X79917534Y-45010557D01*
X80087373Y-44959037D01*
X80153558Y-44952518D01*
X80219740Y-44946000D01*
X80308260Y-44946000D01*
X80374442Y-44952518D01*
X80374442Y-44952518D01*
G37*
M02*
