G04 #@! TF.GenerationSoftware,KiCad,Pcbnew,(5.1.4-0-10_14)*
G04 #@! TF.CreationDate,2019-11-02T18:26:44-07:00*
G04 #@! TF.ProjectId,SoftButtonBoardMux555,536f6674-4275-4747-946f-6e426f617264,rev?*
G04 #@! TF.SameCoordinates,Original*
G04 #@! TF.FileFunction,Copper,L1,Top*
G04 #@! TF.FilePolarity,Positive*
%FSLAX46Y46*%
G04 Gerber Fmt 4.6, Leading zero omitted, Abs format (unit mm)*
G04 Created by KiCad (PCBNEW (5.1.4-0-10_14)) date 2019-11-02 18:26:44*
%MOMM*%
%LPD*%
G04 APERTURE LIST*
%ADD10R,1.498600X0.330200*%
%ADD11C,0.100000*%
%ADD12C,0.975000*%
%ADD13C,1.600000*%
%ADD14C,0.600000*%
%ADD15O,1.700000X1.700000*%
%ADD16R,1.700000X1.700000*%
%ADD17R,2.098396X2.260397*%
%ADD18C,1.250000*%
%ADD19R,1.060000X0.650000*%
%ADD20C,0.800000*%
%ADD21C,0.508000*%
%ADD22C,0.203200*%
%ADD23C,0.250000*%
%ADD24C,0.254000*%
G04 APERTURE END LIST*
D10*
X92608400Y-53467000D03*
X92608400Y-53949600D03*
X92608400Y-54457600D03*
X92608400Y-54965600D03*
X92608400Y-55448200D03*
X88239600Y-55448200D03*
X88239600Y-54965600D03*
X88239600Y-54457600D03*
X88239600Y-53949600D03*
X88239600Y-53467000D03*
D11*
G36*
X102566142Y-52514174D02*
G01*
X102589803Y-52517684D01*
X102613007Y-52523496D01*
X102635529Y-52531554D01*
X102657153Y-52541782D01*
X102677670Y-52554079D01*
X102696883Y-52568329D01*
X102714607Y-52584393D01*
X102730671Y-52602117D01*
X102744921Y-52621330D01*
X102757218Y-52641847D01*
X102767446Y-52663471D01*
X102775504Y-52685993D01*
X102781316Y-52709197D01*
X102784826Y-52732858D01*
X102786000Y-52756750D01*
X102786000Y-53669250D01*
X102784826Y-53693142D01*
X102781316Y-53716803D01*
X102775504Y-53740007D01*
X102767446Y-53762529D01*
X102757218Y-53784153D01*
X102744921Y-53804670D01*
X102730671Y-53823883D01*
X102714607Y-53841607D01*
X102696883Y-53857671D01*
X102677670Y-53871921D01*
X102657153Y-53884218D01*
X102635529Y-53894446D01*
X102613007Y-53902504D01*
X102589803Y-53908316D01*
X102566142Y-53911826D01*
X102542250Y-53913000D01*
X102054750Y-53913000D01*
X102030858Y-53911826D01*
X102007197Y-53908316D01*
X101983993Y-53902504D01*
X101961471Y-53894446D01*
X101939847Y-53884218D01*
X101919330Y-53871921D01*
X101900117Y-53857671D01*
X101882393Y-53841607D01*
X101866329Y-53823883D01*
X101852079Y-53804670D01*
X101839782Y-53784153D01*
X101829554Y-53762529D01*
X101821496Y-53740007D01*
X101815684Y-53716803D01*
X101812174Y-53693142D01*
X101811000Y-53669250D01*
X101811000Y-52756750D01*
X101812174Y-52732858D01*
X101815684Y-52709197D01*
X101821496Y-52685993D01*
X101829554Y-52663471D01*
X101839782Y-52641847D01*
X101852079Y-52621330D01*
X101866329Y-52602117D01*
X101882393Y-52584393D01*
X101900117Y-52568329D01*
X101919330Y-52554079D01*
X101939847Y-52541782D01*
X101961471Y-52531554D01*
X101983993Y-52523496D01*
X102007197Y-52517684D01*
X102030858Y-52514174D01*
X102054750Y-52513000D01*
X102542250Y-52513000D01*
X102566142Y-52514174D01*
X102566142Y-52514174D01*
G37*
D12*
X102298500Y-53213000D03*
D11*
G36*
X100691142Y-52514174D02*
G01*
X100714803Y-52517684D01*
X100738007Y-52523496D01*
X100760529Y-52531554D01*
X100782153Y-52541782D01*
X100802670Y-52554079D01*
X100821883Y-52568329D01*
X100839607Y-52584393D01*
X100855671Y-52602117D01*
X100869921Y-52621330D01*
X100882218Y-52641847D01*
X100892446Y-52663471D01*
X100900504Y-52685993D01*
X100906316Y-52709197D01*
X100909826Y-52732858D01*
X100911000Y-52756750D01*
X100911000Y-53669250D01*
X100909826Y-53693142D01*
X100906316Y-53716803D01*
X100900504Y-53740007D01*
X100892446Y-53762529D01*
X100882218Y-53784153D01*
X100869921Y-53804670D01*
X100855671Y-53823883D01*
X100839607Y-53841607D01*
X100821883Y-53857671D01*
X100802670Y-53871921D01*
X100782153Y-53884218D01*
X100760529Y-53894446D01*
X100738007Y-53902504D01*
X100714803Y-53908316D01*
X100691142Y-53911826D01*
X100667250Y-53913000D01*
X100179750Y-53913000D01*
X100155858Y-53911826D01*
X100132197Y-53908316D01*
X100108993Y-53902504D01*
X100086471Y-53894446D01*
X100064847Y-53884218D01*
X100044330Y-53871921D01*
X100025117Y-53857671D01*
X100007393Y-53841607D01*
X99991329Y-53823883D01*
X99977079Y-53804670D01*
X99964782Y-53784153D01*
X99954554Y-53762529D01*
X99946496Y-53740007D01*
X99940684Y-53716803D01*
X99937174Y-53693142D01*
X99936000Y-53669250D01*
X99936000Y-52756750D01*
X99937174Y-52732858D01*
X99940684Y-52709197D01*
X99946496Y-52685993D01*
X99954554Y-52663471D01*
X99964782Y-52641847D01*
X99977079Y-52621330D01*
X99991329Y-52602117D01*
X100007393Y-52584393D01*
X100025117Y-52568329D01*
X100044330Y-52554079D01*
X100064847Y-52541782D01*
X100086471Y-52531554D01*
X100108993Y-52523496D01*
X100132197Y-52517684D01*
X100155858Y-52514174D01*
X100179750Y-52513000D01*
X100667250Y-52513000D01*
X100691142Y-52514174D01*
X100691142Y-52514174D01*
G37*
D12*
X100423500Y-53213000D03*
D11*
G36*
X96040642Y-52577674D02*
G01*
X96064303Y-52581184D01*
X96087507Y-52586996D01*
X96110029Y-52595054D01*
X96131653Y-52605282D01*
X96152170Y-52617579D01*
X96171383Y-52631829D01*
X96189107Y-52647893D01*
X96205171Y-52665617D01*
X96219421Y-52684830D01*
X96231718Y-52705347D01*
X96241946Y-52726971D01*
X96250004Y-52749493D01*
X96255816Y-52772697D01*
X96259326Y-52796358D01*
X96260500Y-52820250D01*
X96260500Y-53732750D01*
X96259326Y-53756642D01*
X96255816Y-53780303D01*
X96250004Y-53803507D01*
X96241946Y-53826029D01*
X96231718Y-53847653D01*
X96219421Y-53868170D01*
X96205171Y-53887383D01*
X96189107Y-53905107D01*
X96171383Y-53921171D01*
X96152170Y-53935421D01*
X96131653Y-53947718D01*
X96110029Y-53957946D01*
X96087507Y-53966004D01*
X96064303Y-53971816D01*
X96040642Y-53975326D01*
X96016750Y-53976500D01*
X95529250Y-53976500D01*
X95505358Y-53975326D01*
X95481697Y-53971816D01*
X95458493Y-53966004D01*
X95435971Y-53957946D01*
X95414347Y-53947718D01*
X95393830Y-53935421D01*
X95374617Y-53921171D01*
X95356893Y-53905107D01*
X95340829Y-53887383D01*
X95326579Y-53868170D01*
X95314282Y-53847653D01*
X95304054Y-53826029D01*
X95295996Y-53803507D01*
X95290184Y-53780303D01*
X95286674Y-53756642D01*
X95285500Y-53732750D01*
X95285500Y-52820250D01*
X95286674Y-52796358D01*
X95290184Y-52772697D01*
X95295996Y-52749493D01*
X95304054Y-52726971D01*
X95314282Y-52705347D01*
X95326579Y-52684830D01*
X95340829Y-52665617D01*
X95356893Y-52647893D01*
X95374617Y-52631829D01*
X95393830Y-52617579D01*
X95414347Y-52605282D01*
X95435971Y-52595054D01*
X95458493Y-52586996D01*
X95481697Y-52581184D01*
X95505358Y-52577674D01*
X95529250Y-52576500D01*
X96016750Y-52576500D01*
X96040642Y-52577674D01*
X96040642Y-52577674D01*
G37*
D12*
X95773000Y-53276500D03*
D11*
G36*
X97915642Y-52577674D02*
G01*
X97939303Y-52581184D01*
X97962507Y-52586996D01*
X97985029Y-52595054D01*
X98006653Y-52605282D01*
X98027170Y-52617579D01*
X98046383Y-52631829D01*
X98064107Y-52647893D01*
X98080171Y-52665617D01*
X98094421Y-52684830D01*
X98106718Y-52705347D01*
X98116946Y-52726971D01*
X98125004Y-52749493D01*
X98130816Y-52772697D01*
X98134326Y-52796358D01*
X98135500Y-52820250D01*
X98135500Y-53732750D01*
X98134326Y-53756642D01*
X98130816Y-53780303D01*
X98125004Y-53803507D01*
X98116946Y-53826029D01*
X98106718Y-53847653D01*
X98094421Y-53868170D01*
X98080171Y-53887383D01*
X98064107Y-53905107D01*
X98046383Y-53921171D01*
X98027170Y-53935421D01*
X98006653Y-53947718D01*
X97985029Y-53957946D01*
X97962507Y-53966004D01*
X97939303Y-53971816D01*
X97915642Y-53975326D01*
X97891750Y-53976500D01*
X97404250Y-53976500D01*
X97380358Y-53975326D01*
X97356697Y-53971816D01*
X97333493Y-53966004D01*
X97310971Y-53957946D01*
X97289347Y-53947718D01*
X97268830Y-53935421D01*
X97249617Y-53921171D01*
X97231893Y-53905107D01*
X97215829Y-53887383D01*
X97201579Y-53868170D01*
X97189282Y-53847653D01*
X97179054Y-53826029D01*
X97170996Y-53803507D01*
X97165184Y-53780303D01*
X97161674Y-53756642D01*
X97160500Y-53732750D01*
X97160500Y-52820250D01*
X97161674Y-52796358D01*
X97165184Y-52772697D01*
X97170996Y-52749493D01*
X97179054Y-52726971D01*
X97189282Y-52705347D01*
X97201579Y-52684830D01*
X97215829Y-52665617D01*
X97231893Y-52647893D01*
X97249617Y-52631829D01*
X97268830Y-52617579D01*
X97289347Y-52605282D01*
X97310971Y-52595054D01*
X97333493Y-52586996D01*
X97356697Y-52581184D01*
X97380358Y-52577674D01*
X97404250Y-52576500D01*
X97891750Y-52576500D01*
X97915642Y-52577674D01*
X97915642Y-52577674D01*
G37*
D12*
X97648000Y-53276500D03*
D11*
G36*
X101920504Y-58667204D02*
G01*
X101944773Y-58670804D01*
X101968571Y-58676765D01*
X101991671Y-58685030D01*
X102013849Y-58695520D01*
X102034893Y-58708133D01*
X102054598Y-58722747D01*
X102072777Y-58739223D01*
X102089253Y-58757402D01*
X102103867Y-58777107D01*
X102116480Y-58798151D01*
X102126970Y-58820329D01*
X102135235Y-58843429D01*
X102141196Y-58867227D01*
X102144796Y-58891496D01*
X102146000Y-58916000D01*
X102146000Y-61016000D01*
X102144796Y-61040504D01*
X102141196Y-61064773D01*
X102135235Y-61088571D01*
X102126970Y-61111671D01*
X102116480Y-61133849D01*
X102103867Y-61154893D01*
X102089253Y-61174598D01*
X102072777Y-61192777D01*
X102054598Y-61209253D01*
X102034893Y-61223867D01*
X102013849Y-61236480D01*
X101991671Y-61246970D01*
X101968571Y-61255235D01*
X101944773Y-61261196D01*
X101920504Y-61264796D01*
X101896000Y-61266000D01*
X100796000Y-61266000D01*
X100771496Y-61264796D01*
X100747227Y-61261196D01*
X100723429Y-61255235D01*
X100700329Y-61246970D01*
X100678151Y-61236480D01*
X100657107Y-61223867D01*
X100637402Y-61209253D01*
X100619223Y-61192777D01*
X100602747Y-61174598D01*
X100588133Y-61154893D01*
X100575520Y-61133849D01*
X100565030Y-61111671D01*
X100556765Y-61088571D01*
X100550804Y-61064773D01*
X100547204Y-61040504D01*
X100546000Y-61016000D01*
X100546000Y-58916000D01*
X100547204Y-58891496D01*
X100550804Y-58867227D01*
X100556765Y-58843429D01*
X100565030Y-58820329D01*
X100575520Y-58798151D01*
X100588133Y-58777107D01*
X100602747Y-58757402D01*
X100619223Y-58739223D01*
X100637402Y-58722747D01*
X100657107Y-58708133D01*
X100678151Y-58695520D01*
X100700329Y-58685030D01*
X100723429Y-58676765D01*
X100747227Y-58670804D01*
X100771496Y-58667204D01*
X100796000Y-58666000D01*
X101896000Y-58666000D01*
X101920504Y-58667204D01*
X101920504Y-58667204D01*
G37*
D13*
X101346000Y-59966000D03*
D11*
G36*
X101920504Y-55067204D02*
G01*
X101944773Y-55070804D01*
X101968571Y-55076765D01*
X101991671Y-55085030D01*
X102013849Y-55095520D01*
X102034893Y-55108133D01*
X102054598Y-55122747D01*
X102072777Y-55139223D01*
X102089253Y-55157402D01*
X102103867Y-55177107D01*
X102116480Y-55198151D01*
X102126970Y-55220329D01*
X102135235Y-55243429D01*
X102141196Y-55267227D01*
X102144796Y-55291496D01*
X102146000Y-55316000D01*
X102146000Y-57416000D01*
X102144796Y-57440504D01*
X102141196Y-57464773D01*
X102135235Y-57488571D01*
X102126970Y-57511671D01*
X102116480Y-57533849D01*
X102103867Y-57554893D01*
X102089253Y-57574598D01*
X102072777Y-57592777D01*
X102054598Y-57609253D01*
X102034893Y-57623867D01*
X102013849Y-57636480D01*
X101991671Y-57646970D01*
X101968571Y-57655235D01*
X101944773Y-57661196D01*
X101920504Y-57664796D01*
X101896000Y-57666000D01*
X100796000Y-57666000D01*
X100771496Y-57664796D01*
X100747227Y-57661196D01*
X100723429Y-57655235D01*
X100700329Y-57646970D01*
X100678151Y-57636480D01*
X100657107Y-57623867D01*
X100637402Y-57609253D01*
X100619223Y-57592777D01*
X100602747Y-57574598D01*
X100588133Y-57554893D01*
X100575520Y-57533849D01*
X100565030Y-57511671D01*
X100556765Y-57488571D01*
X100550804Y-57464773D01*
X100547204Y-57440504D01*
X100546000Y-57416000D01*
X100546000Y-55316000D01*
X100547204Y-55291496D01*
X100550804Y-55267227D01*
X100556765Y-55243429D01*
X100565030Y-55220329D01*
X100575520Y-55198151D01*
X100588133Y-55177107D01*
X100602747Y-55157402D01*
X100619223Y-55139223D01*
X100637402Y-55122747D01*
X100657107Y-55108133D01*
X100678151Y-55095520D01*
X100700329Y-55085030D01*
X100723429Y-55076765D01*
X100747227Y-55070804D01*
X100771496Y-55067204D01*
X100796000Y-55066000D01*
X101896000Y-55066000D01*
X101920504Y-55067204D01*
X101920504Y-55067204D01*
G37*
D13*
X101346000Y-56366000D03*
D11*
G36*
X98589703Y-44493222D02*
G01*
X98604264Y-44495382D01*
X98618543Y-44498959D01*
X98632403Y-44503918D01*
X98645710Y-44510212D01*
X98658336Y-44517780D01*
X98670159Y-44526548D01*
X98681066Y-44536434D01*
X98690952Y-44547341D01*
X98699720Y-44559164D01*
X98707288Y-44571790D01*
X98713582Y-44585097D01*
X98718541Y-44598957D01*
X98722118Y-44613236D01*
X98724278Y-44627797D01*
X98725000Y-44642500D01*
X98725000Y-46292500D01*
X98724278Y-46307203D01*
X98722118Y-46321764D01*
X98718541Y-46336043D01*
X98713582Y-46349903D01*
X98707288Y-46363210D01*
X98699720Y-46375836D01*
X98690952Y-46387659D01*
X98681066Y-46398566D01*
X98670159Y-46408452D01*
X98658336Y-46417220D01*
X98645710Y-46424788D01*
X98632403Y-46431082D01*
X98618543Y-46436041D01*
X98604264Y-46439618D01*
X98589703Y-46441778D01*
X98575000Y-46442500D01*
X98275000Y-46442500D01*
X98260297Y-46441778D01*
X98245736Y-46439618D01*
X98231457Y-46436041D01*
X98217597Y-46431082D01*
X98204290Y-46424788D01*
X98191664Y-46417220D01*
X98179841Y-46408452D01*
X98168934Y-46398566D01*
X98159048Y-46387659D01*
X98150280Y-46375836D01*
X98142712Y-46363210D01*
X98136418Y-46349903D01*
X98131459Y-46336043D01*
X98127882Y-46321764D01*
X98125722Y-46307203D01*
X98125000Y-46292500D01*
X98125000Y-44642500D01*
X98125722Y-44627797D01*
X98127882Y-44613236D01*
X98131459Y-44598957D01*
X98136418Y-44585097D01*
X98142712Y-44571790D01*
X98150280Y-44559164D01*
X98159048Y-44547341D01*
X98168934Y-44536434D01*
X98179841Y-44526548D01*
X98191664Y-44517780D01*
X98204290Y-44510212D01*
X98217597Y-44503918D01*
X98231457Y-44498959D01*
X98245736Y-44495382D01*
X98260297Y-44493222D01*
X98275000Y-44492500D01*
X98575000Y-44492500D01*
X98589703Y-44493222D01*
X98589703Y-44493222D01*
G37*
D14*
X98425000Y-45467500D03*
D11*
G36*
X99859703Y-44493222D02*
G01*
X99874264Y-44495382D01*
X99888543Y-44498959D01*
X99902403Y-44503918D01*
X99915710Y-44510212D01*
X99928336Y-44517780D01*
X99940159Y-44526548D01*
X99951066Y-44536434D01*
X99960952Y-44547341D01*
X99969720Y-44559164D01*
X99977288Y-44571790D01*
X99983582Y-44585097D01*
X99988541Y-44598957D01*
X99992118Y-44613236D01*
X99994278Y-44627797D01*
X99995000Y-44642500D01*
X99995000Y-46292500D01*
X99994278Y-46307203D01*
X99992118Y-46321764D01*
X99988541Y-46336043D01*
X99983582Y-46349903D01*
X99977288Y-46363210D01*
X99969720Y-46375836D01*
X99960952Y-46387659D01*
X99951066Y-46398566D01*
X99940159Y-46408452D01*
X99928336Y-46417220D01*
X99915710Y-46424788D01*
X99902403Y-46431082D01*
X99888543Y-46436041D01*
X99874264Y-46439618D01*
X99859703Y-46441778D01*
X99845000Y-46442500D01*
X99545000Y-46442500D01*
X99530297Y-46441778D01*
X99515736Y-46439618D01*
X99501457Y-46436041D01*
X99487597Y-46431082D01*
X99474290Y-46424788D01*
X99461664Y-46417220D01*
X99449841Y-46408452D01*
X99438934Y-46398566D01*
X99429048Y-46387659D01*
X99420280Y-46375836D01*
X99412712Y-46363210D01*
X99406418Y-46349903D01*
X99401459Y-46336043D01*
X99397882Y-46321764D01*
X99395722Y-46307203D01*
X99395000Y-46292500D01*
X99395000Y-44642500D01*
X99395722Y-44627797D01*
X99397882Y-44613236D01*
X99401459Y-44598957D01*
X99406418Y-44585097D01*
X99412712Y-44571790D01*
X99420280Y-44559164D01*
X99429048Y-44547341D01*
X99438934Y-44536434D01*
X99449841Y-44526548D01*
X99461664Y-44517780D01*
X99474290Y-44510212D01*
X99487597Y-44503918D01*
X99501457Y-44498959D01*
X99515736Y-44495382D01*
X99530297Y-44493222D01*
X99545000Y-44492500D01*
X99845000Y-44492500D01*
X99859703Y-44493222D01*
X99859703Y-44493222D01*
G37*
D14*
X99695000Y-45467500D03*
D11*
G36*
X101129703Y-44493222D02*
G01*
X101144264Y-44495382D01*
X101158543Y-44498959D01*
X101172403Y-44503918D01*
X101185710Y-44510212D01*
X101198336Y-44517780D01*
X101210159Y-44526548D01*
X101221066Y-44536434D01*
X101230952Y-44547341D01*
X101239720Y-44559164D01*
X101247288Y-44571790D01*
X101253582Y-44585097D01*
X101258541Y-44598957D01*
X101262118Y-44613236D01*
X101264278Y-44627797D01*
X101265000Y-44642500D01*
X101265000Y-46292500D01*
X101264278Y-46307203D01*
X101262118Y-46321764D01*
X101258541Y-46336043D01*
X101253582Y-46349903D01*
X101247288Y-46363210D01*
X101239720Y-46375836D01*
X101230952Y-46387659D01*
X101221066Y-46398566D01*
X101210159Y-46408452D01*
X101198336Y-46417220D01*
X101185710Y-46424788D01*
X101172403Y-46431082D01*
X101158543Y-46436041D01*
X101144264Y-46439618D01*
X101129703Y-46441778D01*
X101115000Y-46442500D01*
X100815000Y-46442500D01*
X100800297Y-46441778D01*
X100785736Y-46439618D01*
X100771457Y-46436041D01*
X100757597Y-46431082D01*
X100744290Y-46424788D01*
X100731664Y-46417220D01*
X100719841Y-46408452D01*
X100708934Y-46398566D01*
X100699048Y-46387659D01*
X100690280Y-46375836D01*
X100682712Y-46363210D01*
X100676418Y-46349903D01*
X100671459Y-46336043D01*
X100667882Y-46321764D01*
X100665722Y-46307203D01*
X100665000Y-46292500D01*
X100665000Y-44642500D01*
X100665722Y-44627797D01*
X100667882Y-44613236D01*
X100671459Y-44598957D01*
X100676418Y-44585097D01*
X100682712Y-44571790D01*
X100690280Y-44559164D01*
X100699048Y-44547341D01*
X100708934Y-44536434D01*
X100719841Y-44526548D01*
X100731664Y-44517780D01*
X100744290Y-44510212D01*
X100757597Y-44503918D01*
X100771457Y-44498959D01*
X100785736Y-44495382D01*
X100800297Y-44493222D01*
X100815000Y-44492500D01*
X101115000Y-44492500D01*
X101129703Y-44493222D01*
X101129703Y-44493222D01*
G37*
D14*
X100965000Y-45467500D03*
D11*
G36*
X102399703Y-44493222D02*
G01*
X102414264Y-44495382D01*
X102428543Y-44498959D01*
X102442403Y-44503918D01*
X102455710Y-44510212D01*
X102468336Y-44517780D01*
X102480159Y-44526548D01*
X102491066Y-44536434D01*
X102500952Y-44547341D01*
X102509720Y-44559164D01*
X102517288Y-44571790D01*
X102523582Y-44585097D01*
X102528541Y-44598957D01*
X102532118Y-44613236D01*
X102534278Y-44627797D01*
X102535000Y-44642500D01*
X102535000Y-46292500D01*
X102534278Y-46307203D01*
X102532118Y-46321764D01*
X102528541Y-46336043D01*
X102523582Y-46349903D01*
X102517288Y-46363210D01*
X102509720Y-46375836D01*
X102500952Y-46387659D01*
X102491066Y-46398566D01*
X102480159Y-46408452D01*
X102468336Y-46417220D01*
X102455710Y-46424788D01*
X102442403Y-46431082D01*
X102428543Y-46436041D01*
X102414264Y-46439618D01*
X102399703Y-46441778D01*
X102385000Y-46442500D01*
X102085000Y-46442500D01*
X102070297Y-46441778D01*
X102055736Y-46439618D01*
X102041457Y-46436041D01*
X102027597Y-46431082D01*
X102014290Y-46424788D01*
X102001664Y-46417220D01*
X101989841Y-46408452D01*
X101978934Y-46398566D01*
X101969048Y-46387659D01*
X101960280Y-46375836D01*
X101952712Y-46363210D01*
X101946418Y-46349903D01*
X101941459Y-46336043D01*
X101937882Y-46321764D01*
X101935722Y-46307203D01*
X101935000Y-46292500D01*
X101935000Y-44642500D01*
X101935722Y-44627797D01*
X101937882Y-44613236D01*
X101941459Y-44598957D01*
X101946418Y-44585097D01*
X101952712Y-44571790D01*
X101960280Y-44559164D01*
X101969048Y-44547341D01*
X101978934Y-44536434D01*
X101989841Y-44526548D01*
X102001664Y-44517780D01*
X102014290Y-44510212D01*
X102027597Y-44503918D01*
X102041457Y-44498959D01*
X102055736Y-44495382D01*
X102070297Y-44493222D01*
X102085000Y-44492500D01*
X102385000Y-44492500D01*
X102399703Y-44493222D01*
X102399703Y-44493222D01*
G37*
D14*
X102235000Y-45467500D03*
D11*
G36*
X102399703Y-49443222D02*
G01*
X102414264Y-49445382D01*
X102428543Y-49448959D01*
X102442403Y-49453918D01*
X102455710Y-49460212D01*
X102468336Y-49467780D01*
X102480159Y-49476548D01*
X102491066Y-49486434D01*
X102500952Y-49497341D01*
X102509720Y-49509164D01*
X102517288Y-49521790D01*
X102523582Y-49535097D01*
X102528541Y-49548957D01*
X102532118Y-49563236D01*
X102534278Y-49577797D01*
X102535000Y-49592500D01*
X102535000Y-51242500D01*
X102534278Y-51257203D01*
X102532118Y-51271764D01*
X102528541Y-51286043D01*
X102523582Y-51299903D01*
X102517288Y-51313210D01*
X102509720Y-51325836D01*
X102500952Y-51337659D01*
X102491066Y-51348566D01*
X102480159Y-51358452D01*
X102468336Y-51367220D01*
X102455710Y-51374788D01*
X102442403Y-51381082D01*
X102428543Y-51386041D01*
X102414264Y-51389618D01*
X102399703Y-51391778D01*
X102385000Y-51392500D01*
X102085000Y-51392500D01*
X102070297Y-51391778D01*
X102055736Y-51389618D01*
X102041457Y-51386041D01*
X102027597Y-51381082D01*
X102014290Y-51374788D01*
X102001664Y-51367220D01*
X101989841Y-51358452D01*
X101978934Y-51348566D01*
X101969048Y-51337659D01*
X101960280Y-51325836D01*
X101952712Y-51313210D01*
X101946418Y-51299903D01*
X101941459Y-51286043D01*
X101937882Y-51271764D01*
X101935722Y-51257203D01*
X101935000Y-51242500D01*
X101935000Y-49592500D01*
X101935722Y-49577797D01*
X101937882Y-49563236D01*
X101941459Y-49548957D01*
X101946418Y-49535097D01*
X101952712Y-49521790D01*
X101960280Y-49509164D01*
X101969048Y-49497341D01*
X101978934Y-49486434D01*
X101989841Y-49476548D01*
X102001664Y-49467780D01*
X102014290Y-49460212D01*
X102027597Y-49453918D01*
X102041457Y-49448959D01*
X102055736Y-49445382D01*
X102070297Y-49443222D01*
X102085000Y-49442500D01*
X102385000Y-49442500D01*
X102399703Y-49443222D01*
X102399703Y-49443222D01*
G37*
D14*
X102235000Y-50417500D03*
D11*
G36*
X101129703Y-49443222D02*
G01*
X101144264Y-49445382D01*
X101158543Y-49448959D01*
X101172403Y-49453918D01*
X101185710Y-49460212D01*
X101198336Y-49467780D01*
X101210159Y-49476548D01*
X101221066Y-49486434D01*
X101230952Y-49497341D01*
X101239720Y-49509164D01*
X101247288Y-49521790D01*
X101253582Y-49535097D01*
X101258541Y-49548957D01*
X101262118Y-49563236D01*
X101264278Y-49577797D01*
X101265000Y-49592500D01*
X101265000Y-51242500D01*
X101264278Y-51257203D01*
X101262118Y-51271764D01*
X101258541Y-51286043D01*
X101253582Y-51299903D01*
X101247288Y-51313210D01*
X101239720Y-51325836D01*
X101230952Y-51337659D01*
X101221066Y-51348566D01*
X101210159Y-51358452D01*
X101198336Y-51367220D01*
X101185710Y-51374788D01*
X101172403Y-51381082D01*
X101158543Y-51386041D01*
X101144264Y-51389618D01*
X101129703Y-51391778D01*
X101115000Y-51392500D01*
X100815000Y-51392500D01*
X100800297Y-51391778D01*
X100785736Y-51389618D01*
X100771457Y-51386041D01*
X100757597Y-51381082D01*
X100744290Y-51374788D01*
X100731664Y-51367220D01*
X100719841Y-51358452D01*
X100708934Y-51348566D01*
X100699048Y-51337659D01*
X100690280Y-51325836D01*
X100682712Y-51313210D01*
X100676418Y-51299903D01*
X100671459Y-51286043D01*
X100667882Y-51271764D01*
X100665722Y-51257203D01*
X100665000Y-51242500D01*
X100665000Y-49592500D01*
X100665722Y-49577797D01*
X100667882Y-49563236D01*
X100671459Y-49548957D01*
X100676418Y-49535097D01*
X100682712Y-49521790D01*
X100690280Y-49509164D01*
X100699048Y-49497341D01*
X100708934Y-49486434D01*
X100719841Y-49476548D01*
X100731664Y-49467780D01*
X100744290Y-49460212D01*
X100757597Y-49453918D01*
X100771457Y-49448959D01*
X100785736Y-49445382D01*
X100800297Y-49443222D01*
X100815000Y-49442500D01*
X101115000Y-49442500D01*
X101129703Y-49443222D01*
X101129703Y-49443222D01*
G37*
D14*
X100965000Y-50417500D03*
D11*
G36*
X99859703Y-49443222D02*
G01*
X99874264Y-49445382D01*
X99888543Y-49448959D01*
X99902403Y-49453918D01*
X99915710Y-49460212D01*
X99928336Y-49467780D01*
X99940159Y-49476548D01*
X99951066Y-49486434D01*
X99960952Y-49497341D01*
X99969720Y-49509164D01*
X99977288Y-49521790D01*
X99983582Y-49535097D01*
X99988541Y-49548957D01*
X99992118Y-49563236D01*
X99994278Y-49577797D01*
X99995000Y-49592500D01*
X99995000Y-51242500D01*
X99994278Y-51257203D01*
X99992118Y-51271764D01*
X99988541Y-51286043D01*
X99983582Y-51299903D01*
X99977288Y-51313210D01*
X99969720Y-51325836D01*
X99960952Y-51337659D01*
X99951066Y-51348566D01*
X99940159Y-51358452D01*
X99928336Y-51367220D01*
X99915710Y-51374788D01*
X99902403Y-51381082D01*
X99888543Y-51386041D01*
X99874264Y-51389618D01*
X99859703Y-51391778D01*
X99845000Y-51392500D01*
X99545000Y-51392500D01*
X99530297Y-51391778D01*
X99515736Y-51389618D01*
X99501457Y-51386041D01*
X99487597Y-51381082D01*
X99474290Y-51374788D01*
X99461664Y-51367220D01*
X99449841Y-51358452D01*
X99438934Y-51348566D01*
X99429048Y-51337659D01*
X99420280Y-51325836D01*
X99412712Y-51313210D01*
X99406418Y-51299903D01*
X99401459Y-51286043D01*
X99397882Y-51271764D01*
X99395722Y-51257203D01*
X99395000Y-51242500D01*
X99395000Y-49592500D01*
X99395722Y-49577797D01*
X99397882Y-49563236D01*
X99401459Y-49548957D01*
X99406418Y-49535097D01*
X99412712Y-49521790D01*
X99420280Y-49509164D01*
X99429048Y-49497341D01*
X99438934Y-49486434D01*
X99449841Y-49476548D01*
X99461664Y-49467780D01*
X99474290Y-49460212D01*
X99487597Y-49453918D01*
X99501457Y-49448959D01*
X99515736Y-49445382D01*
X99530297Y-49443222D01*
X99545000Y-49442500D01*
X99845000Y-49442500D01*
X99859703Y-49443222D01*
X99859703Y-49443222D01*
G37*
D14*
X99695000Y-50417500D03*
D11*
G36*
X98589703Y-49443222D02*
G01*
X98604264Y-49445382D01*
X98618543Y-49448959D01*
X98632403Y-49453918D01*
X98645710Y-49460212D01*
X98658336Y-49467780D01*
X98670159Y-49476548D01*
X98681066Y-49486434D01*
X98690952Y-49497341D01*
X98699720Y-49509164D01*
X98707288Y-49521790D01*
X98713582Y-49535097D01*
X98718541Y-49548957D01*
X98722118Y-49563236D01*
X98724278Y-49577797D01*
X98725000Y-49592500D01*
X98725000Y-51242500D01*
X98724278Y-51257203D01*
X98722118Y-51271764D01*
X98718541Y-51286043D01*
X98713582Y-51299903D01*
X98707288Y-51313210D01*
X98699720Y-51325836D01*
X98690952Y-51337659D01*
X98681066Y-51348566D01*
X98670159Y-51358452D01*
X98658336Y-51367220D01*
X98645710Y-51374788D01*
X98632403Y-51381082D01*
X98618543Y-51386041D01*
X98604264Y-51389618D01*
X98589703Y-51391778D01*
X98575000Y-51392500D01*
X98275000Y-51392500D01*
X98260297Y-51391778D01*
X98245736Y-51389618D01*
X98231457Y-51386041D01*
X98217597Y-51381082D01*
X98204290Y-51374788D01*
X98191664Y-51367220D01*
X98179841Y-51358452D01*
X98168934Y-51348566D01*
X98159048Y-51337659D01*
X98150280Y-51325836D01*
X98142712Y-51313210D01*
X98136418Y-51299903D01*
X98131459Y-51286043D01*
X98127882Y-51271764D01*
X98125722Y-51257203D01*
X98125000Y-51242500D01*
X98125000Y-49592500D01*
X98125722Y-49577797D01*
X98127882Y-49563236D01*
X98131459Y-49548957D01*
X98136418Y-49535097D01*
X98142712Y-49521790D01*
X98150280Y-49509164D01*
X98159048Y-49497341D01*
X98168934Y-49486434D01*
X98179841Y-49476548D01*
X98191664Y-49467780D01*
X98204290Y-49460212D01*
X98217597Y-49453918D01*
X98231457Y-49448959D01*
X98245736Y-49445382D01*
X98260297Y-49443222D01*
X98275000Y-49442500D01*
X98575000Y-49442500D01*
X98589703Y-49443222D01*
X98589703Y-49443222D01*
G37*
D14*
X98425000Y-50417500D03*
D15*
X96710500Y-63373000D03*
D16*
X96710500Y-60833000D03*
D15*
X84137500Y-63436500D03*
D16*
X84137500Y-60896500D03*
D17*
X94297500Y-49784000D03*
X94297500Y-45739608D03*
D15*
X80264000Y-45847000D03*
D16*
X80264000Y-48387000D03*
D15*
X80391000Y-52705000D03*
D16*
X82931000Y-52705000D03*
D11*
G36*
X93232504Y-59831204D02*
G01*
X93256773Y-59834804D01*
X93280571Y-59840765D01*
X93303671Y-59849030D01*
X93325849Y-59859520D01*
X93346893Y-59872133D01*
X93366598Y-59886747D01*
X93384777Y-59903223D01*
X93401253Y-59921402D01*
X93415867Y-59941107D01*
X93428480Y-59962151D01*
X93438970Y-59984329D01*
X93447235Y-60007429D01*
X93453196Y-60031227D01*
X93456796Y-60055496D01*
X93458000Y-60080000D01*
X93458000Y-60830000D01*
X93456796Y-60854504D01*
X93453196Y-60878773D01*
X93447235Y-60902571D01*
X93438970Y-60925671D01*
X93428480Y-60947849D01*
X93415867Y-60968893D01*
X93401253Y-60988598D01*
X93384777Y-61006777D01*
X93366598Y-61023253D01*
X93346893Y-61037867D01*
X93325849Y-61050480D01*
X93303671Y-61060970D01*
X93280571Y-61069235D01*
X93256773Y-61075196D01*
X93232504Y-61078796D01*
X93208000Y-61080000D01*
X91958000Y-61080000D01*
X91933496Y-61078796D01*
X91909227Y-61075196D01*
X91885429Y-61069235D01*
X91862329Y-61060970D01*
X91840151Y-61050480D01*
X91819107Y-61037867D01*
X91799402Y-61023253D01*
X91781223Y-61006777D01*
X91764747Y-60988598D01*
X91750133Y-60968893D01*
X91737520Y-60947849D01*
X91727030Y-60925671D01*
X91718765Y-60902571D01*
X91712804Y-60878773D01*
X91709204Y-60854504D01*
X91708000Y-60830000D01*
X91708000Y-60080000D01*
X91709204Y-60055496D01*
X91712804Y-60031227D01*
X91718765Y-60007429D01*
X91727030Y-59984329D01*
X91737520Y-59962151D01*
X91750133Y-59941107D01*
X91764747Y-59921402D01*
X91781223Y-59903223D01*
X91799402Y-59886747D01*
X91819107Y-59872133D01*
X91840151Y-59859520D01*
X91862329Y-59849030D01*
X91885429Y-59840765D01*
X91909227Y-59834804D01*
X91933496Y-59831204D01*
X91958000Y-59830000D01*
X93208000Y-59830000D01*
X93232504Y-59831204D01*
X93232504Y-59831204D01*
G37*
D18*
X92583000Y-60455000D03*
D11*
G36*
X93232504Y-57031204D02*
G01*
X93256773Y-57034804D01*
X93280571Y-57040765D01*
X93303671Y-57049030D01*
X93325849Y-57059520D01*
X93346893Y-57072133D01*
X93366598Y-57086747D01*
X93384777Y-57103223D01*
X93401253Y-57121402D01*
X93415867Y-57141107D01*
X93428480Y-57162151D01*
X93438970Y-57184329D01*
X93447235Y-57207429D01*
X93453196Y-57231227D01*
X93456796Y-57255496D01*
X93458000Y-57280000D01*
X93458000Y-58030000D01*
X93456796Y-58054504D01*
X93453196Y-58078773D01*
X93447235Y-58102571D01*
X93438970Y-58125671D01*
X93428480Y-58147849D01*
X93415867Y-58168893D01*
X93401253Y-58188598D01*
X93384777Y-58206777D01*
X93366598Y-58223253D01*
X93346893Y-58237867D01*
X93325849Y-58250480D01*
X93303671Y-58260970D01*
X93280571Y-58269235D01*
X93256773Y-58275196D01*
X93232504Y-58278796D01*
X93208000Y-58280000D01*
X91958000Y-58280000D01*
X91933496Y-58278796D01*
X91909227Y-58275196D01*
X91885429Y-58269235D01*
X91862329Y-58260970D01*
X91840151Y-58250480D01*
X91819107Y-58237867D01*
X91799402Y-58223253D01*
X91781223Y-58206777D01*
X91764747Y-58188598D01*
X91750133Y-58168893D01*
X91737520Y-58147849D01*
X91727030Y-58125671D01*
X91718765Y-58102571D01*
X91712804Y-58078773D01*
X91709204Y-58054504D01*
X91708000Y-58030000D01*
X91708000Y-57280000D01*
X91709204Y-57255496D01*
X91712804Y-57231227D01*
X91718765Y-57207429D01*
X91727030Y-57184329D01*
X91737520Y-57162151D01*
X91750133Y-57141107D01*
X91764747Y-57121402D01*
X91781223Y-57103223D01*
X91799402Y-57086747D01*
X91819107Y-57072133D01*
X91840151Y-57059520D01*
X91862329Y-57049030D01*
X91885429Y-57040765D01*
X91909227Y-57034804D01*
X91933496Y-57031204D01*
X91958000Y-57030000D01*
X93208000Y-57030000D01*
X93232504Y-57031204D01*
X93232504Y-57031204D01*
G37*
D18*
X92583000Y-57655000D03*
D11*
G36*
X88889104Y-59856604D02*
G01*
X88913373Y-59860204D01*
X88937171Y-59866165D01*
X88960271Y-59874430D01*
X88982449Y-59884920D01*
X89003493Y-59897533D01*
X89023198Y-59912147D01*
X89041377Y-59928623D01*
X89057853Y-59946802D01*
X89072467Y-59966507D01*
X89085080Y-59987551D01*
X89095570Y-60009729D01*
X89103835Y-60032829D01*
X89109796Y-60056627D01*
X89113396Y-60080896D01*
X89114600Y-60105400D01*
X89114600Y-60855400D01*
X89113396Y-60879904D01*
X89109796Y-60904173D01*
X89103835Y-60927971D01*
X89095570Y-60951071D01*
X89085080Y-60973249D01*
X89072467Y-60994293D01*
X89057853Y-61013998D01*
X89041377Y-61032177D01*
X89023198Y-61048653D01*
X89003493Y-61063267D01*
X88982449Y-61075880D01*
X88960271Y-61086370D01*
X88937171Y-61094635D01*
X88913373Y-61100596D01*
X88889104Y-61104196D01*
X88864600Y-61105400D01*
X87614600Y-61105400D01*
X87590096Y-61104196D01*
X87565827Y-61100596D01*
X87542029Y-61094635D01*
X87518929Y-61086370D01*
X87496751Y-61075880D01*
X87475707Y-61063267D01*
X87456002Y-61048653D01*
X87437823Y-61032177D01*
X87421347Y-61013998D01*
X87406733Y-60994293D01*
X87394120Y-60973249D01*
X87383630Y-60951071D01*
X87375365Y-60927971D01*
X87369404Y-60904173D01*
X87365804Y-60879904D01*
X87364600Y-60855400D01*
X87364600Y-60105400D01*
X87365804Y-60080896D01*
X87369404Y-60056627D01*
X87375365Y-60032829D01*
X87383630Y-60009729D01*
X87394120Y-59987551D01*
X87406733Y-59966507D01*
X87421347Y-59946802D01*
X87437823Y-59928623D01*
X87456002Y-59912147D01*
X87475707Y-59897533D01*
X87496751Y-59884920D01*
X87518929Y-59874430D01*
X87542029Y-59866165D01*
X87565827Y-59860204D01*
X87590096Y-59856604D01*
X87614600Y-59855400D01*
X88864600Y-59855400D01*
X88889104Y-59856604D01*
X88889104Y-59856604D01*
G37*
D18*
X88239600Y-60480400D03*
D11*
G36*
X88889104Y-57056604D02*
G01*
X88913373Y-57060204D01*
X88937171Y-57066165D01*
X88960271Y-57074430D01*
X88982449Y-57084920D01*
X89003493Y-57097533D01*
X89023198Y-57112147D01*
X89041377Y-57128623D01*
X89057853Y-57146802D01*
X89072467Y-57166507D01*
X89085080Y-57187551D01*
X89095570Y-57209729D01*
X89103835Y-57232829D01*
X89109796Y-57256627D01*
X89113396Y-57280896D01*
X89114600Y-57305400D01*
X89114600Y-58055400D01*
X89113396Y-58079904D01*
X89109796Y-58104173D01*
X89103835Y-58127971D01*
X89095570Y-58151071D01*
X89085080Y-58173249D01*
X89072467Y-58194293D01*
X89057853Y-58213998D01*
X89041377Y-58232177D01*
X89023198Y-58248653D01*
X89003493Y-58263267D01*
X88982449Y-58275880D01*
X88960271Y-58286370D01*
X88937171Y-58294635D01*
X88913373Y-58300596D01*
X88889104Y-58304196D01*
X88864600Y-58305400D01*
X87614600Y-58305400D01*
X87590096Y-58304196D01*
X87565827Y-58300596D01*
X87542029Y-58294635D01*
X87518929Y-58286370D01*
X87496751Y-58275880D01*
X87475707Y-58263267D01*
X87456002Y-58248653D01*
X87437823Y-58232177D01*
X87421347Y-58213998D01*
X87406733Y-58194293D01*
X87394120Y-58173249D01*
X87383630Y-58151071D01*
X87375365Y-58127971D01*
X87369404Y-58104173D01*
X87365804Y-58079904D01*
X87364600Y-58055400D01*
X87364600Y-57305400D01*
X87365804Y-57280896D01*
X87369404Y-57256627D01*
X87375365Y-57232829D01*
X87383630Y-57209729D01*
X87394120Y-57187551D01*
X87406733Y-57166507D01*
X87421347Y-57146802D01*
X87437823Y-57128623D01*
X87456002Y-57112147D01*
X87475707Y-57097533D01*
X87496751Y-57084920D01*
X87518929Y-57074430D01*
X87542029Y-57066165D01*
X87565827Y-57060204D01*
X87590096Y-57056604D01*
X87614600Y-57055400D01*
X88864600Y-57055400D01*
X88889104Y-57056604D01*
X88889104Y-57056604D01*
G37*
D18*
X88239600Y-57680400D03*
D11*
G36*
X93063142Y-63839174D02*
G01*
X93086803Y-63842684D01*
X93110007Y-63848496D01*
X93132529Y-63856554D01*
X93154153Y-63866782D01*
X93174670Y-63879079D01*
X93193883Y-63893329D01*
X93211607Y-63909393D01*
X93227671Y-63927117D01*
X93241921Y-63946330D01*
X93254218Y-63966847D01*
X93264446Y-63988471D01*
X93272504Y-64010993D01*
X93278316Y-64034197D01*
X93281826Y-64057858D01*
X93283000Y-64081750D01*
X93283000Y-64569250D01*
X93281826Y-64593142D01*
X93278316Y-64616803D01*
X93272504Y-64640007D01*
X93264446Y-64662529D01*
X93254218Y-64684153D01*
X93241921Y-64704670D01*
X93227671Y-64723883D01*
X93211607Y-64741607D01*
X93193883Y-64757671D01*
X93174670Y-64771921D01*
X93154153Y-64784218D01*
X93132529Y-64794446D01*
X93110007Y-64802504D01*
X93086803Y-64808316D01*
X93063142Y-64811826D01*
X93039250Y-64813000D01*
X92126750Y-64813000D01*
X92102858Y-64811826D01*
X92079197Y-64808316D01*
X92055993Y-64802504D01*
X92033471Y-64794446D01*
X92011847Y-64784218D01*
X91991330Y-64771921D01*
X91972117Y-64757671D01*
X91954393Y-64741607D01*
X91938329Y-64723883D01*
X91924079Y-64704670D01*
X91911782Y-64684153D01*
X91901554Y-64662529D01*
X91893496Y-64640007D01*
X91887684Y-64616803D01*
X91884174Y-64593142D01*
X91883000Y-64569250D01*
X91883000Y-64081750D01*
X91884174Y-64057858D01*
X91887684Y-64034197D01*
X91893496Y-64010993D01*
X91901554Y-63988471D01*
X91911782Y-63966847D01*
X91924079Y-63946330D01*
X91938329Y-63927117D01*
X91954393Y-63909393D01*
X91972117Y-63893329D01*
X91991330Y-63879079D01*
X92011847Y-63866782D01*
X92033471Y-63856554D01*
X92055993Y-63848496D01*
X92079197Y-63842684D01*
X92102858Y-63839174D01*
X92126750Y-63838000D01*
X93039250Y-63838000D01*
X93063142Y-63839174D01*
X93063142Y-63839174D01*
G37*
D12*
X92583000Y-64325500D03*
D11*
G36*
X93063142Y-61964174D02*
G01*
X93086803Y-61967684D01*
X93110007Y-61973496D01*
X93132529Y-61981554D01*
X93154153Y-61991782D01*
X93174670Y-62004079D01*
X93193883Y-62018329D01*
X93211607Y-62034393D01*
X93227671Y-62052117D01*
X93241921Y-62071330D01*
X93254218Y-62091847D01*
X93264446Y-62113471D01*
X93272504Y-62135993D01*
X93278316Y-62159197D01*
X93281826Y-62182858D01*
X93283000Y-62206750D01*
X93283000Y-62694250D01*
X93281826Y-62718142D01*
X93278316Y-62741803D01*
X93272504Y-62765007D01*
X93264446Y-62787529D01*
X93254218Y-62809153D01*
X93241921Y-62829670D01*
X93227671Y-62848883D01*
X93211607Y-62866607D01*
X93193883Y-62882671D01*
X93174670Y-62896921D01*
X93154153Y-62909218D01*
X93132529Y-62919446D01*
X93110007Y-62927504D01*
X93086803Y-62933316D01*
X93063142Y-62936826D01*
X93039250Y-62938000D01*
X92126750Y-62938000D01*
X92102858Y-62936826D01*
X92079197Y-62933316D01*
X92055993Y-62927504D01*
X92033471Y-62919446D01*
X92011847Y-62909218D01*
X91991330Y-62896921D01*
X91972117Y-62882671D01*
X91954393Y-62866607D01*
X91938329Y-62848883D01*
X91924079Y-62829670D01*
X91911782Y-62809153D01*
X91901554Y-62787529D01*
X91893496Y-62765007D01*
X91887684Y-62741803D01*
X91884174Y-62718142D01*
X91883000Y-62694250D01*
X91883000Y-62206750D01*
X91884174Y-62182858D01*
X91887684Y-62159197D01*
X91893496Y-62135993D01*
X91901554Y-62113471D01*
X91911782Y-62091847D01*
X91924079Y-62071330D01*
X91938329Y-62052117D01*
X91954393Y-62034393D01*
X91972117Y-62018329D01*
X91991330Y-62004079D01*
X92011847Y-61991782D01*
X92033471Y-61981554D01*
X92055993Y-61973496D01*
X92079197Y-61967684D01*
X92102858Y-61964174D01*
X92126750Y-61963000D01*
X93039250Y-61963000D01*
X93063142Y-61964174D01*
X93063142Y-61964174D01*
G37*
D12*
X92583000Y-62450500D03*
D11*
G36*
X88681642Y-63872674D02*
G01*
X88705303Y-63876184D01*
X88728507Y-63881996D01*
X88751029Y-63890054D01*
X88772653Y-63900282D01*
X88793170Y-63912579D01*
X88812383Y-63926829D01*
X88830107Y-63942893D01*
X88846171Y-63960617D01*
X88860421Y-63979830D01*
X88872718Y-64000347D01*
X88882946Y-64021971D01*
X88891004Y-64044493D01*
X88896816Y-64067697D01*
X88900326Y-64091358D01*
X88901500Y-64115250D01*
X88901500Y-64602750D01*
X88900326Y-64626642D01*
X88896816Y-64650303D01*
X88891004Y-64673507D01*
X88882946Y-64696029D01*
X88872718Y-64717653D01*
X88860421Y-64738170D01*
X88846171Y-64757383D01*
X88830107Y-64775107D01*
X88812383Y-64791171D01*
X88793170Y-64805421D01*
X88772653Y-64817718D01*
X88751029Y-64827946D01*
X88728507Y-64836004D01*
X88705303Y-64841816D01*
X88681642Y-64845326D01*
X88657750Y-64846500D01*
X87745250Y-64846500D01*
X87721358Y-64845326D01*
X87697697Y-64841816D01*
X87674493Y-64836004D01*
X87651971Y-64827946D01*
X87630347Y-64817718D01*
X87609830Y-64805421D01*
X87590617Y-64791171D01*
X87572893Y-64775107D01*
X87556829Y-64757383D01*
X87542579Y-64738170D01*
X87530282Y-64717653D01*
X87520054Y-64696029D01*
X87511996Y-64673507D01*
X87506184Y-64650303D01*
X87502674Y-64626642D01*
X87501500Y-64602750D01*
X87501500Y-64115250D01*
X87502674Y-64091358D01*
X87506184Y-64067697D01*
X87511996Y-64044493D01*
X87520054Y-64021971D01*
X87530282Y-64000347D01*
X87542579Y-63979830D01*
X87556829Y-63960617D01*
X87572893Y-63942893D01*
X87590617Y-63926829D01*
X87609830Y-63912579D01*
X87630347Y-63900282D01*
X87651971Y-63890054D01*
X87674493Y-63881996D01*
X87697697Y-63876184D01*
X87721358Y-63872674D01*
X87745250Y-63871500D01*
X88657750Y-63871500D01*
X88681642Y-63872674D01*
X88681642Y-63872674D01*
G37*
D12*
X88201500Y-64359000D03*
D11*
G36*
X88681642Y-61997674D02*
G01*
X88705303Y-62001184D01*
X88728507Y-62006996D01*
X88751029Y-62015054D01*
X88772653Y-62025282D01*
X88793170Y-62037579D01*
X88812383Y-62051829D01*
X88830107Y-62067893D01*
X88846171Y-62085617D01*
X88860421Y-62104830D01*
X88872718Y-62125347D01*
X88882946Y-62146971D01*
X88891004Y-62169493D01*
X88896816Y-62192697D01*
X88900326Y-62216358D01*
X88901500Y-62240250D01*
X88901500Y-62727750D01*
X88900326Y-62751642D01*
X88896816Y-62775303D01*
X88891004Y-62798507D01*
X88882946Y-62821029D01*
X88872718Y-62842653D01*
X88860421Y-62863170D01*
X88846171Y-62882383D01*
X88830107Y-62900107D01*
X88812383Y-62916171D01*
X88793170Y-62930421D01*
X88772653Y-62942718D01*
X88751029Y-62952946D01*
X88728507Y-62961004D01*
X88705303Y-62966816D01*
X88681642Y-62970326D01*
X88657750Y-62971500D01*
X87745250Y-62971500D01*
X87721358Y-62970326D01*
X87697697Y-62966816D01*
X87674493Y-62961004D01*
X87651971Y-62952946D01*
X87630347Y-62942718D01*
X87609830Y-62930421D01*
X87590617Y-62916171D01*
X87572893Y-62900107D01*
X87556829Y-62882383D01*
X87542579Y-62863170D01*
X87530282Y-62842653D01*
X87520054Y-62821029D01*
X87511996Y-62798507D01*
X87506184Y-62775303D01*
X87502674Y-62751642D01*
X87501500Y-62727750D01*
X87501500Y-62240250D01*
X87502674Y-62216358D01*
X87506184Y-62192697D01*
X87511996Y-62169493D01*
X87520054Y-62146971D01*
X87530282Y-62125347D01*
X87542579Y-62104830D01*
X87556829Y-62085617D01*
X87572893Y-62067893D01*
X87590617Y-62051829D01*
X87609830Y-62037579D01*
X87630347Y-62025282D01*
X87651971Y-62015054D01*
X87674493Y-62006996D01*
X87697697Y-62001184D01*
X87721358Y-61997674D01*
X87745250Y-61996500D01*
X88657750Y-61996500D01*
X88681642Y-61997674D01*
X88681642Y-61997674D01*
G37*
D12*
X88201500Y-62484000D03*
D11*
G36*
X96040642Y-55689174D02*
G01*
X96064303Y-55692684D01*
X96087507Y-55698496D01*
X96110029Y-55706554D01*
X96131653Y-55716782D01*
X96152170Y-55729079D01*
X96171383Y-55743329D01*
X96189107Y-55759393D01*
X96205171Y-55777117D01*
X96219421Y-55796330D01*
X96231718Y-55816847D01*
X96241946Y-55838471D01*
X96250004Y-55860993D01*
X96255816Y-55884197D01*
X96259326Y-55907858D01*
X96260500Y-55931750D01*
X96260500Y-56844250D01*
X96259326Y-56868142D01*
X96255816Y-56891803D01*
X96250004Y-56915007D01*
X96241946Y-56937529D01*
X96231718Y-56959153D01*
X96219421Y-56979670D01*
X96205171Y-56998883D01*
X96189107Y-57016607D01*
X96171383Y-57032671D01*
X96152170Y-57046921D01*
X96131653Y-57059218D01*
X96110029Y-57069446D01*
X96087507Y-57077504D01*
X96064303Y-57083316D01*
X96040642Y-57086826D01*
X96016750Y-57088000D01*
X95529250Y-57088000D01*
X95505358Y-57086826D01*
X95481697Y-57083316D01*
X95458493Y-57077504D01*
X95435971Y-57069446D01*
X95414347Y-57059218D01*
X95393830Y-57046921D01*
X95374617Y-57032671D01*
X95356893Y-57016607D01*
X95340829Y-56998883D01*
X95326579Y-56979670D01*
X95314282Y-56959153D01*
X95304054Y-56937529D01*
X95295996Y-56915007D01*
X95290184Y-56891803D01*
X95286674Y-56868142D01*
X95285500Y-56844250D01*
X95285500Y-55931750D01*
X95286674Y-55907858D01*
X95290184Y-55884197D01*
X95295996Y-55860993D01*
X95304054Y-55838471D01*
X95314282Y-55816847D01*
X95326579Y-55796330D01*
X95340829Y-55777117D01*
X95356893Y-55759393D01*
X95374617Y-55743329D01*
X95393830Y-55729079D01*
X95414347Y-55716782D01*
X95435971Y-55706554D01*
X95458493Y-55698496D01*
X95481697Y-55692684D01*
X95505358Y-55689174D01*
X95529250Y-55688000D01*
X96016750Y-55688000D01*
X96040642Y-55689174D01*
X96040642Y-55689174D01*
G37*
D12*
X95773000Y-56388000D03*
D11*
G36*
X97915642Y-55689174D02*
G01*
X97939303Y-55692684D01*
X97962507Y-55698496D01*
X97985029Y-55706554D01*
X98006653Y-55716782D01*
X98027170Y-55729079D01*
X98046383Y-55743329D01*
X98064107Y-55759393D01*
X98080171Y-55777117D01*
X98094421Y-55796330D01*
X98106718Y-55816847D01*
X98116946Y-55838471D01*
X98125004Y-55860993D01*
X98130816Y-55884197D01*
X98134326Y-55907858D01*
X98135500Y-55931750D01*
X98135500Y-56844250D01*
X98134326Y-56868142D01*
X98130816Y-56891803D01*
X98125004Y-56915007D01*
X98116946Y-56937529D01*
X98106718Y-56959153D01*
X98094421Y-56979670D01*
X98080171Y-56998883D01*
X98064107Y-57016607D01*
X98046383Y-57032671D01*
X98027170Y-57046921D01*
X98006653Y-57059218D01*
X97985029Y-57069446D01*
X97962507Y-57077504D01*
X97939303Y-57083316D01*
X97915642Y-57086826D01*
X97891750Y-57088000D01*
X97404250Y-57088000D01*
X97380358Y-57086826D01*
X97356697Y-57083316D01*
X97333493Y-57077504D01*
X97310971Y-57069446D01*
X97289347Y-57059218D01*
X97268830Y-57046921D01*
X97249617Y-57032671D01*
X97231893Y-57016607D01*
X97215829Y-56998883D01*
X97201579Y-56979670D01*
X97189282Y-56959153D01*
X97179054Y-56937529D01*
X97170996Y-56915007D01*
X97165184Y-56891803D01*
X97161674Y-56868142D01*
X97160500Y-56844250D01*
X97160500Y-55931750D01*
X97161674Y-55907858D01*
X97165184Y-55884197D01*
X97170996Y-55860993D01*
X97179054Y-55838471D01*
X97189282Y-55816847D01*
X97201579Y-55796330D01*
X97215829Y-55777117D01*
X97231893Y-55759393D01*
X97249617Y-55743329D01*
X97268830Y-55729079D01*
X97289347Y-55716782D01*
X97310971Y-55706554D01*
X97333493Y-55698496D01*
X97356697Y-55692684D01*
X97380358Y-55689174D01*
X97404250Y-55688000D01*
X97891750Y-55688000D01*
X97915642Y-55689174D01*
X97915642Y-55689174D01*
G37*
D12*
X97648000Y-56388000D03*
D11*
G36*
X85664504Y-47745204D02*
G01*
X85688773Y-47748804D01*
X85712571Y-47754765D01*
X85735671Y-47763030D01*
X85757849Y-47773520D01*
X85778893Y-47786133D01*
X85798598Y-47800747D01*
X85816777Y-47817223D01*
X85833253Y-47835402D01*
X85847867Y-47855107D01*
X85860480Y-47876151D01*
X85870970Y-47898329D01*
X85879235Y-47921429D01*
X85885196Y-47945227D01*
X85888796Y-47969496D01*
X85890000Y-47994000D01*
X85890000Y-50094000D01*
X85888796Y-50118504D01*
X85885196Y-50142773D01*
X85879235Y-50166571D01*
X85870970Y-50189671D01*
X85860480Y-50211849D01*
X85847867Y-50232893D01*
X85833253Y-50252598D01*
X85816777Y-50270777D01*
X85798598Y-50287253D01*
X85778893Y-50301867D01*
X85757849Y-50314480D01*
X85735671Y-50324970D01*
X85712571Y-50333235D01*
X85688773Y-50339196D01*
X85664504Y-50342796D01*
X85640000Y-50344000D01*
X84540000Y-50344000D01*
X84515496Y-50342796D01*
X84491227Y-50339196D01*
X84467429Y-50333235D01*
X84444329Y-50324970D01*
X84422151Y-50314480D01*
X84401107Y-50301867D01*
X84381402Y-50287253D01*
X84363223Y-50270777D01*
X84346747Y-50252598D01*
X84332133Y-50232893D01*
X84319520Y-50211849D01*
X84309030Y-50189671D01*
X84300765Y-50166571D01*
X84294804Y-50142773D01*
X84291204Y-50118504D01*
X84290000Y-50094000D01*
X84290000Y-47994000D01*
X84291204Y-47969496D01*
X84294804Y-47945227D01*
X84300765Y-47921429D01*
X84309030Y-47898329D01*
X84319520Y-47876151D01*
X84332133Y-47855107D01*
X84346747Y-47835402D01*
X84363223Y-47817223D01*
X84381402Y-47800747D01*
X84401107Y-47786133D01*
X84422151Y-47773520D01*
X84444329Y-47763030D01*
X84467429Y-47754765D01*
X84491227Y-47748804D01*
X84515496Y-47745204D01*
X84540000Y-47744000D01*
X85640000Y-47744000D01*
X85664504Y-47745204D01*
X85664504Y-47745204D01*
G37*
D13*
X85090000Y-49044000D03*
D11*
G36*
X85664504Y-44145204D02*
G01*
X85688773Y-44148804D01*
X85712571Y-44154765D01*
X85735671Y-44163030D01*
X85757849Y-44173520D01*
X85778893Y-44186133D01*
X85798598Y-44200747D01*
X85816777Y-44217223D01*
X85833253Y-44235402D01*
X85847867Y-44255107D01*
X85860480Y-44276151D01*
X85870970Y-44298329D01*
X85879235Y-44321429D01*
X85885196Y-44345227D01*
X85888796Y-44369496D01*
X85890000Y-44394000D01*
X85890000Y-46494000D01*
X85888796Y-46518504D01*
X85885196Y-46542773D01*
X85879235Y-46566571D01*
X85870970Y-46589671D01*
X85860480Y-46611849D01*
X85847867Y-46632893D01*
X85833253Y-46652598D01*
X85816777Y-46670777D01*
X85798598Y-46687253D01*
X85778893Y-46701867D01*
X85757849Y-46714480D01*
X85735671Y-46724970D01*
X85712571Y-46733235D01*
X85688773Y-46739196D01*
X85664504Y-46742796D01*
X85640000Y-46744000D01*
X84540000Y-46744000D01*
X84515496Y-46742796D01*
X84491227Y-46739196D01*
X84467429Y-46733235D01*
X84444329Y-46724970D01*
X84422151Y-46714480D01*
X84401107Y-46701867D01*
X84381402Y-46687253D01*
X84363223Y-46670777D01*
X84346747Y-46652598D01*
X84332133Y-46632893D01*
X84319520Y-46611849D01*
X84309030Y-46589671D01*
X84300765Y-46566571D01*
X84294804Y-46542773D01*
X84291204Y-46518504D01*
X84290000Y-46494000D01*
X84290000Y-44394000D01*
X84291204Y-44369496D01*
X84294804Y-44345227D01*
X84300765Y-44321429D01*
X84309030Y-44298329D01*
X84319520Y-44276151D01*
X84332133Y-44255107D01*
X84346747Y-44235402D01*
X84363223Y-44217223D01*
X84381402Y-44200747D01*
X84401107Y-44186133D01*
X84422151Y-44173520D01*
X84444329Y-44163030D01*
X84467429Y-44154765D01*
X84491227Y-44148804D01*
X84515496Y-44145204D01*
X84540000Y-44144000D01*
X85640000Y-44144000D01*
X85664504Y-44145204D01*
X85664504Y-44145204D01*
G37*
D13*
X85090000Y-45444000D03*
D10*
X83820000Y-56388000D03*
X83820000Y-56870600D03*
X83820000Y-57378600D03*
X83820000Y-57886600D03*
X83820000Y-58369200D03*
X79451200Y-58369200D03*
X79451200Y-57886600D03*
X79451200Y-57378600D03*
X79451200Y-56870600D03*
X79451200Y-56388000D03*
D19*
X90762000Y-45532000D03*
X90762000Y-47432000D03*
X88562000Y-47432000D03*
X88562000Y-46482000D03*
X88562000Y-45532000D03*
D20*
X79476600Y-55473600D03*
X96837500Y-45466000D03*
X102362000Y-48006000D03*
X92110600Y-45405000D03*
X86664800Y-52374800D03*
X90487500Y-64389000D03*
X96647000Y-57785000D03*
X81407000Y-57886600D03*
X100901500Y-48006000D03*
X90424000Y-54660800D03*
D21*
X88216500Y-60503500D02*
X88239600Y-60480400D01*
X88265000Y-60505800D02*
X88239600Y-60480400D01*
X88265000Y-62484000D02*
X88265000Y-60505800D01*
D22*
X88239600Y-55816500D02*
X88239600Y-57680400D01*
X88239600Y-55448200D02*
X88239600Y-55816500D01*
X80403700Y-58369200D02*
X80518000Y-58483500D01*
X79451200Y-58369200D02*
X80403700Y-58369200D01*
X80518000Y-59478519D02*
X80518000Y-58483500D01*
D23*
X80518000Y-59817000D02*
X81978500Y-61277500D01*
X80518000Y-59478519D02*
X80518000Y-59817000D01*
X81978500Y-61277500D02*
X81978500Y-62738000D01*
X82677000Y-63436500D02*
X84137500Y-63436500D01*
X81978500Y-62738000D02*
X82677000Y-63436500D01*
D22*
X86874350Y-54362350D02*
X86874350Y-63239650D01*
X86874350Y-63239650D02*
X86677500Y-63436500D01*
X87287100Y-53949600D02*
X86874350Y-54362350D01*
X86677500Y-63436500D02*
X84137500Y-63436500D01*
X88239600Y-53949600D02*
X87287100Y-53949600D01*
X78498700Y-57378600D02*
X78206600Y-57086500D01*
X79451200Y-57378600D02*
X78498700Y-57378600D01*
X78206600Y-55092600D02*
X80111600Y-53187600D01*
X78206600Y-57086500D02*
X78206600Y-55092600D01*
X82867500Y-57886600D02*
X83820000Y-57886600D01*
X82651600Y-58102500D02*
X82867500Y-57886600D01*
X83084300Y-60896500D02*
X82651600Y-60463800D01*
X82651600Y-60463800D02*
X82651600Y-58102500D01*
X84137500Y-60896500D02*
X83084300Y-60896500D01*
D21*
X88562000Y-47434500D02*
X88562000Y-46484500D01*
D22*
X83820000Y-58369200D02*
X83820000Y-58737500D01*
X83820000Y-58737500D02*
X83820000Y-58877200D01*
X84785200Y-58369200D02*
X85140800Y-58369200D01*
X83820000Y-58369200D02*
X84785200Y-58369200D01*
X91655900Y-53949600D02*
X92608400Y-53949600D01*
X89192100Y-54457600D02*
X89700100Y-53949600D01*
X88239600Y-54457600D02*
X89192100Y-54457600D01*
X92608400Y-55816500D02*
X92290900Y-56134000D01*
X92608400Y-55448200D02*
X92608400Y-55816500D01*
X92290900Y-56134000D02*
X90932000Y-56134000D01*
X89700100Y-53949600D02*
X90068400Y-53949600D01*
X90068400Y-53949600D02*
X90170000Y-53848000D01*
X90805000Y-53848000D02*
X90906600Y-53949600D01*
X90170000Y-53848000D02*
X90805000Y-53848000D01*
X90906600Y-53949600D02*
X91655900Y-53949600D01*
X92608400Y-55448200D02*
X91363800Y-55448200D01*
X83820000Y-56870600D02*
X84772500Y-56870600D01*
X82651600Y-53187600D02*
X83704800Y-53187600D01*
X84794682Y-56870600D02*
X84870901Y-56794381D01*
X83820000Y-56870600D02*
X84794682Y-56870600D01*
X82931000Y-53187600D02*
X82931000Y-54240800D01*
X84870901Y-55972099D02*
X84397802Y-55499000D01*
X84870901Y-56794381D02*
X84870901Y-55972099D01*
X84397802Y-55499000D02*
X83566000Y-55499000D01*
X82931000Y-54864000D02*
X82931000Y-54240800D01*
X83566000Y-55499000D02*
X82931000Y-54864000D01*
D21*
X84494000Y-45405000D02*
X84455000Y-45444000D01*
X88562000Y-45529500D02*
X84494000Y-45529500D01*
X80540000Y-45444000D02*
X80137000Y-45847000D01*
X84455000Y-45444000D02*
X80540000Y-45444000D01*
D22*
X79451200Y-56388000D02*
X79451200Y-55499000D01*
D21*
X94036196Y-45405000D02*
X94488000Y-45856804D01*
D22*
X94297500Y-45820608D02*
X94297500Y-45739608D01*
D21*
X92110600Y-45405000D02*
X94036196Y-45405000D01*
D22*
X87515700Y-52374800D02*
X87230485Y-52374800D01*
X87230485Y-52374800D02*
X86664800Y-52374800D01*
X88239600Y-53098700D02*
X87515700Y-52374800D01*
X88239600Y-53467000D02*
X88239600Y-53098700D01*
D21*
X94409645Y-45851753D02*
X94297500Y-45739608D01*
X96316800Y-45851753D02*
X94409645Y-45851753D01*
X96701053Y-45467500D02*
X96316800Y-45851753D01*
X98425000Y-45467500D02*
X96701053Y-45467500D01*
X90551000Y-64325500D02*
X90487500Y-64389000D01*
X92583000Y-64325500D02*
X90551000Y-64325500D01*
X90457500Y-64359000D02*
X90487500Y-64389000D01*
X88265000Y-64359000D02*
X90457500Y-64359000D01*
D23*
X102235000Y-48260000D02*
X102552500Y-47942500D01*
X102235000Y-50417500D02*
X102235000Y-48260000D01*
D21*
X95773000Y-57476685D02*
X95773000Y-56388000D01*
X96081315Y-57785000D02*
X95773000Y-57476685D01*
X96647000Y-57785000D02*
X96081315Y-57785000D01*
X91983600Y-45532000D02*
X92110600Y-45405000D01*
X90762000Y-45532000D02*
X91983600Y-45532000D01*
X92583000Y-62450500D02*
X92583000Y-60455000D01*
D22*
X93560900Y-53467000D02*
X92608400Y-53467000D01*
X93659301Y-53565401D02*
X93560900Y-53467000D01*
X93659301Y-56578699D02*
X93659301Y-53565401D01*
X92583000Y-57655000D02*
X93659301Y-56578699D01*
X82867500Y-57378600D02*
X83820000Y-57378600D01*
X82783093Y-57378600D02*
X82867500Y-57378600D01*
X82275093Y-57886600D02*
X82783093Y-57378600D01*
X79451200Y-57886600D02*
X81407000Y-57886600D01*
X81407000Y-57886600D02*
X82275093Y-57886600D01*
X90119200Y-54965600D02*
X90424000Y-54660800D01*
X88239600Y-54965600D02*
X90119200Y-54965600D01*
X90627200Y-54457600D02*
X90424000Y-54660800D01*
X92608400Y-54457600D02*
X90627200Y-54457600D01*
D23*
X100901500Y-50354000D02*
X100965000Y-50417500D01*
X100901500Y-48006000D02*
X100901500Y-50354000D01*
X100965000Y-52671500D02*
X100423500Y-53213000D01*
X100965000Y-50417500D02*
X100965000Y-52671500D01*
D22*
X83857200Y-56388000D02*
X82804000Y-56388000D01*
X83820000Y-56388000D02*
X82118200Y-56388000D01*
X81635600Y-56870600D02*
X82118200Y-56388000D01*
X79451200Y-56870600D02*
X81635600Y-56870600D01*
D23*
X99695000Y-47815500D02*
X99695000Y-49342500D01*
X100965000Y-46545500D02*
X99695000Y-47815500D01*
X99695000Y-49342500D02*
X99695000Y-50417500D01*
X100965000Y-45467500D02*
X100965000Y-46545500D01*
X97267000Y-52959000D02*
X97854500Y-52959000D01*
X99695000Y-50417500D02*
X99695000Y-51498500D01*
X99695000Y-51498500D02*
X99695000Y-51562000D01*
X99695000Y-51817000D02*
X99695000Y-51492500D01*
X98235500Y-53276500D02*
X99695000Y-51817000D01*
X99695000Y-51492500D02*
X99695000Y-50417500D01*
X97648000Y-53276500D02*
X98235500Y-53276500D01*
D21*
X97648000Y-56388000D02*
X97648000Y-53276500D01*
X97648000Y-59895500D02*
X96710500Y-60833000D01*
X97648000Y-56388000D02*
X97648000Y-59895500D01*
X102298500Y-53213000D02*
X102298500Y-54038500D01*
X101536500Y-54800500D02*
X101536500Y-56366000D01*
X102298500Y-54038500D02*
X101536500Y-54800500D01*
D24*
G36*
X79434986Y-44606294D02*
G01*
X79208866Y-44791866D01*
X79023294Y-45017986D01*
X78885401Y-45275966D01*
X78800487Y-45555889D01*
X78771815Y-45847000D01*
X78800487Y-46138111D01*
X78885401Y-46418034D01*
X79023294Y-46676014D01*
X79208866Y-46902134D01*
X79238687Y-46926607D01*
X79169820Y-46947498D01*
X79059506Y-47006463D01*
X78962815Y-47085815D01*
X78883463Y-47182506D01*
X78824498Y-47292820D01*
X78788188Y-47412518D01*
X78775928Y-47537000D01*
X78779000Y-48101250D01*
X78937750Y-48260000D01*
X80137000Y-48260000D01*
X80137000Y-48240000D01*
X80391000Y-48240000D01*
X80391000Y-48260000D01*
X81590250Y-48260000D01*
X81749000Y-48101250D01*
X81752072Y-47537000D01*
X81739812Y-47412518D01*
X81703502Y-47292820D01*
X81644537Y-47182506D01*
X81565185Y-47085815D01*
X81468494Y-47006463D01*
X81358180Y-46947498D01*
X81289313Y-46926607D01*
X81319134Y-46902134D01*
X81504706Y-46676014D01*
X81642599Y-46418034D01*
X81668394Y-46333000D01*
X83651928Y-46333000D01*
X83651928Y-46494000D01*
X83668992Y-46667254D01*
X83719528Y-46833850D01*
X83801595Y-46987386D01*
X83912038Y-47121962D01*
X83988813Y-47184969D01*
X83935506Y-47213463D01*
X83838815Y-47292815D01*
X83759463Y-47389506D01*
X83700498Y-47499820D01*
X83664188Y-47619518D01*
X83651928Y-47744000D01*
X83655000Y-48758250D01*
X83813750Y-48917000D01*
X84963000Y-48917000D01*
X84963000Y-48897000D01*
X85217000Y-48897000D01*
X85217000Y-48917000D01*
X86366250Y-48917000D01*
X86525000Y-48758250D01*
X86525316Y-48653802D01*
X92610230Y-48653802D01*
X92613302Y-49498250D01*
X92772052Y-49657000D01*
X94170500Y-49657000D01*
X94170500Y-48177552D01*
X94424500Y-48177552D01*
X94424500Y-49657000D01*
X95822948Y-49657000D01*
X95981698Y-49498250D01*
X95981900Y-49442500D01*
X97486928Y-49442500D01*
X97490000Y-50131750D01*
X97648750Y-50290500D01*
X98298000Y-50290500D01*
X98298000Y-48966250D01*
X98139250Y-48807500D01*
X98125000Y-48804428D01*
X98000518Y-48816688D01*
X97880820Y-48852998D01*
X97770506Y-48911963D01*
X97673815Y-48991315D01*
X97594463Y-49088006D01*
X97535498Y-49198320D01*
X97499188Y-49318018D01*
X97486928Y-49442500D01*
X95981900Y-49442500D01*
X95984770Y-48653802D01*
X95972510Y-48529320D01*
X95936200Y-48409622D01*
X95877235Y-48299308D01*
X95797883Y-48202617D01*
X95701192Y-48123265D01*
X95590878Y-48064300D01*
X95471180Y-48027990D01*
X95346698Y-48015730D01*
X94583250Y-48018802D01*
X94424500Y-48177552D01*
X94170500Y-48177552D01*
X94011750Y-48018802D01*
X93248302Y-48015730D01*
X93123820Y-48027990D01*
X93004122Y-48064300D01*
X92893808Y-48123265D01*
X92797117Y-48202617D01*
X92717765Y-48299308D01*
X92658800Y-48409622D01*
X92622490Y-48529320D01*
X92610230Y-48653802D01*
X86525316Y-48653802D01*
X86528032Y-47757000D01*
X87393928Y-47757000D01*
X87406188Y-47881482D01*
X87442498Y-48001180D01*
X87501463Y-48111494D01*
X87580815Y-48208185D01*
X87677506Y-48287537D01*
X87787820Y-48346502D01*
X87907518Y-48382812D01*
X88032000Y-48395072D01*
X88276250Y-48392000D01*
X88435000Y-48233250D01*
X88435000Y-47559000D01*
X87555750Y-47559000D01*
X87397000Y-47717750D01*
X87393928Y-47757000D01*
X86528032Y-47757000D01*
X86528072Y-47744000D01*
X86515812Y-47619518D01*
X86479502Y-47499820D01*
X86420537Y-47389506D01*
X86341185Y-47292815D01*
X86244494Y-47213463D01*
X86191187Y-47184969D01*
X86267962Y-47121962D01*
X86378405Y-46987386D01*
X86460472Y-46833850D01*
X86511008Y-46667254D01*
X86528072Y-46494000D01*
X86528072Y-46418500D01*
X87735433Y-46418500D01*
X87787820Y-46446502D01*
X87904841Y-46482000D01*
X87787820Y-46517498D01*
X87677506Y-46576463D01*
X87637859Y-46609000D01*
X87555750Y-46609000D01*
X87397000Y-46767750D01*
X87393928Y-46807000D01*
X87406188Y-46931482D01*
X87413929Y-46957000D01*
X87406188Y-46982518D01*
X87393928Y-47107000D01*
X87397000Y-47146250D01*
X87555750Y-47305000D01*
X87637859Y-47305000D01*
X87677506Y-47337537D01*
X87787820Y-47396502D01*
X87907518Y-47432812D01*
X88032000Y-47445072D01*
X88276250Y-47442000D01*
X88413250Y-47305000D01*
X88435000Y-47305000D01*
X88435000Y-47285000D01*
X88689000Y-47285000D01*
X88689000Y-47305000D01*
X88709000Y-47305000D01*
X88709000Y-47559000D01*
X88689000Y-47559000D01*
X88689000Y-48233250D01*
X88847750Y-48392000D01*
X89092000Y-48395072D01*
X89216482Y-48382812D01*
X89336180Y-48346502D01*
X89446494Y-48287537D01*
X89543185Y-48208185D01*
X89622537Y-48111494D01*
X89662000Y-48037665D01*
X89701463Y-48111494D01*
X89780815Y-48208185D01*
X89877506Y-48287537D01*
X89987820Y-48346502D01*
X90107518Y-48382812D01*
X90232000Y-48395072D01*
X91292000Y-48395072D01*
X91416482Y-48382812D01*
X91536180Y-48346502D01*
X91646494Y-48287537D01*
X91743185Y-48208185D01*
X91822537Y-48111494D01*
X91881502Y-48001180D01*
X91917812Y-47881482D01*
X91930072Y-47757000D01*
X91930072Y-47107000D01*
X91917812Y-46982518D01*
X91881502Y-46862820D01*
X91822537Y-46752506D01*
X91743185Y-46655815D01*
X91646494Y-46576463D01*
X91536180Y-46517498D01*
X91419159Y-46482000D01*
X91536180Y-46446502D01*
X91583890Y-46421000D01*
X91913141Y-46421000D01*
X92008661Y-46440000D01*
X92212539Y-46440000D01*
X92412498Y-46400226D01*
X92600856Y-46322205D01*
X92610230Y-46315942D01*
X92610230Y-46869806D01*
X92622490Y-46994288D01*
X92658800Y-47113986D01*
X92717765Y-47224300D01*
X92797117Y-47320991D01*
X92893808Y-47400343D01*
X93004122Y-47459308D01*
X93123820Y-47495618D01*
X93248302Y-47507878D01*
X95346698Y-47507878D01*
X95471180Y-47495618D01*
X95590878Y-47459308D01*
X95701192Y-47400343D01*
X95797883Y-47320991D01*
X95877235Y-47224300D01*
X95936200Y-47113986D01*
X95972510Y-46994288D01*
X95984770Y-46869806D01*
X95984770Y-46740753D01*
X96273140Y-46740753D01*
X96316800Y-46745053D01*
X96360460Y-46740753D01*
X96360467Y-46740753D01*
X96491074Y-46727889D01*
X96658651Y-46677056D01*
X96813091Y-46594506D01*
X96927028Y-46501000D01*
X96939439Y-46501000D01*
X97139398Y-46461226D01*
X97327756Y-46383205D01*
X97367723Y-46356500D01*
X97493232Y-46356500D01*
X97502071Y-46446245D01*
X97546916Y-46594082D01*
X97619742Y-46730329D01*
X97717749Y-46849751D01*
X97837171Y-46947758D01*
X97973418Y-47020584D01*
X98121255Y-47065429D01*
X98275000Y-47080572D01*
X98575000Y-47080572D01*
X98728745Y-47065429D01*
X98876582Y-47020584D01*
X99012829Y-46947758D01*
X99060000Y-46909046D01*
X99107171Y-46947758D01*
X99243418Y-47020584D01*
X99375154Y-47060545D01*
X99184003Y-47251696D01*
X99154999Y-47275499D01*
X99123015Y-47314472D01*
X99060026Y-47391224D01*
X99023634Y-47459308D01*
X98989454Y-47523254D01*
X98945997Y-47666515D01*
X98935000Y-47778168D01*
X98935000Y-47778178D01*
X98931324Y-47815500D01*
X98935000Y-47852823D01*
X98935001Y-48842630D01*
X98849482Y-48816688D01*
X98725000Y-48804428D01*
X98710750Y-48807500D01*
X98552000Y-48966250D01*
X98552000Y-50290500D01*
X98572000Y-50290500D01*
X98572000Y-50544500D01*
X98552000Y-50544500D01*
X98552000Y-50564500D01*
X98298000Y-50564500D01*
X98298000Y-50544500D01*
X97648750Y-50544500D01*
X97490000Y-50703250D01*
X97486928Y-51392500D01*
X97499188Y-51516982D01*
X97535498Y-51636680D01*
X97594463Y-51746994D01*
X97673815Y-51843685D01*
X97770506Y-51923037D01*
X97799300Y-51938428D01*
X97404250Y-51938428D01*
X97232215Y-51955372D01*
X97066791Y-52005553D01*
X96914336Y-52087042D01*
X96780708Y-52196708D01*
X96775492Y-52203064D01*
X96711685Y-52125315D01*
X96614994Y-52045963D01*
X96504680Y-51986998D01*
X96384982Y-51950688D01*
X96260500Y-51938428D01*
X96058750Y-51941500D01*
X95900000Y-52100250D01*
X95900000Y-53149500D01*
X95920000Y-53149500D01*
X95920000Y-53403500D01*
X95900000Y-53403500D01*
X95900000Y-54452750D01*
X96058750Y-54611500D01*
X96260500Y-54614572D01*
X96384982Y-54602312D01*
X96504680Y-54566002D01*
X96614994Y-54507037D01*
X96711685Y-54427685D01*
X96759001Y-54370031D01*
X96759000Y-55334659D01*
X96710500Y-55393756D01*
X96640292Y-55308208D01*
X96506664Y-55198542D01*
X96354209Y-55117053D01*
X96188785Y-55066872D01*
X96016750Y-55049928D01*
X95529250Y-55049928D01*
X95357215Y-55066872D01*
X95191791Y-55117053D01*
X95039336Y-55198542D01*
X94905708Y-55308208D01*
X94796042Y-55441836D01*
X94714553Y-55594291D01*
X94664372Y-55759715D01*
X94647428Y-55931750D01*
X94647428Y-56844250D01*
X94664372Y-57016285D01*
X94714553Y-57181709D01*
X94796042Y-57334164D01*
X94883269Y-57440450D01*
X94879700Y-57476685D01*
X94884000Y-57520345D01*
X94884000Y-57520351D01*
X94892905Y-57610764D01*
X94896864Y-57650959D01*
X94902089Y-57668182D01*
X94947697Y-57818535D01*
X95030247Y-57972975D01*
X95141341Y-58108344D01*
X95175265Y-58136185D01*
X95421812Y-58382731D01*
X95449656Y-58416659D01*
X95585024Y-58527753D01*
X95739464Y-58610303D01*
X95829035Y-58637474D01*
X95907039Y-58661136D01*
X95940239Y-58664406D01*
X96037648Y-58674000D01*
X96037654Y-58674000D01*
X96081314Y-58678300D01*
X96115874Y-58674896D01*
X96156744Y-58702205D01*
X96345102Y-58780226D01*
X96545061Y-58820000D01*
X96748939Y-58820000D01*
X96759001Y-58817999D01*
X96759001Y-59344928D01*
X95860500Y-59344928D01*
X95736018Y-59357188D01*
X95616320Y-59393498D01*
X95506006Y-59452463D01*
X95409315Y-59531815D01*
X95329963Y-59628506D01*
X95270998Y-59738820D01*
X95234688Y-59858518D01*
X95222428Y-59983000D01*
X95222428Y-61683000D01*
X95234688Y-61807482D01*
X95270998Y-61927180D01*
X95329963Y-62037494D01*
X95409315Y-62134185D01*
X95506006Y-62213537D01*
X95616320Y-62272502D01*
X95696966Y-62296966D01*
X95612912Y-62372731D01*
X95438859Y-62606080D01*
X95313675Y-62868901D01*
X95269024Y-63016110D01*
X95390345Y-63246000D01*
X96583500Y-63246000D01*
X96583500Y-63226000D01*
X96837500Y-63226000D01*
X96837500Y-63246000D01*
X98030655Y-63246000D01*
X98151976Y-63016110D01*
X98107325Y-62868901D01*
X97982141Y-62606080D01*
X97808088Y-62372731D01*
X97724034Y-62296966D01*
X97804680Y-62272502D01*
X97914994Y-62213537D01*
X98011685Y-62134185D01*
X98091037Y-62037494D01*
X98150002Y-61927180D01*
X98186312Y-61807482D01*
X98198572Y-61683000D01*
X98198572Y-61266000D01*
X99907928Y-61266000D01*
X99920188Y-61390482D01*
X99956498Y-61510180D01*
X100015463Y-61620494D01*
X100094815Y-61717185D01*
X100191506Y-61796537D01*
X100301820Y-61855502D01*
X100421518Y-61891812D01*
X100546000Y-61904072D01*
X101060250Y-61901000D01*
X101219000Y-61742250D01*
X101219000Y-60093000D01*
X101473000Y-60093000D01*
X101473000Y-61742250D01*
X101631750Y-61901000D01*
X102146000Y-61904072D01*
X102270482Y-61891812D01*
X102390180Y-61855502D01*
X102500494Y-61796537D01*
X102597185Y-61717185D01*
X102676537Y-61620494D01*
X102735502Y-61510180D01*
X102771812Y-61390482D01*
X102784072Y-61266000D01*
X102781000Y-60251750D01*
X102622250Y-60093000D01*
X101473000Y-60093000D01*
X101219000Y-60093000D01*
X100069750Y-60093000D01*
X99911000Y-60251750D01*
X99907928Y-61266000D01*
X98198572Y-61266000D01*
X98198572Y-60602164D01*
X98245741Y-60554995D01*
X98279659Y-60527159D01*
X98390753Y-60391791D01*
X98473303Y-60237351D01*
X98510979Y-60113149D01*
X98524136Y-60069776D01*
X98532573Y-59984109D01*
X98537000Y-59939167D01*
X98537000Y-59939161D01*
X98541300Y-59895501D01*
X98537000Y-59851841D01*
X98537000Y-57441341D01*
X98624958Y-57334164D01*
X98706447Y-57181709D01*
X98756628Y-57016285D01*
X98773572Y-56844250D01*
X98773572Y-55931750D01*
X98756628Y-55759715D01*
X98706447Y-55594291D01*
X98624958Y-55441836D01*
X98537000Y-55334659D01*
X98537000Y-54329841D01*
X98624958Y-54222664D01*
X98706447Y-54070209D01*
X98756628Y-53904785D01*
X98764428Y-53825588D01*
X98775501Y-53816501D01*
X98799304Y-53787497D01*
X99297928Y-53288873D01*
X99297928Y-53669250D01*
X99314872Y-53841285D01*
X99365053Y-54006709D01*
X99446542Y-54159164D01*
X99556208Y-54292792D01*
X99689836Y-54402458D01*
X99842291Y-54483947D01*
X100007715Y-54534128D01*
X100179750Y-54551072D01*
X100352235Y-54551072D01*
X100302614Y-54577595D01*
X100168038Y-54688038D01*
X100057595Y-54822614D01*
X99975528Y-54976150D01*
X99924992Y-55142746D01*
X99907928Y-55316000D01*
X99907928Y-57416000D01*
X99924992Y-57589254D01*
X99975528Y-57755850D01*
X100057595Y-57909386D01*
X100168038Y-58043962D01*
X100244813Y-58106969D01*
X100191506Y-58135463D01*
X100094815Y-58214815D01*
X100015463Y-58311506D01*
X99956498Y-58421820D01*
X99920188Y-58541518D01*
X99907928Y-58666000D01*
X99911000Y-59680250D01*
X100069750Y-59839000D01*
X101219000Y-59839000D01*
X101219000Y-59819000D01*
X101473000Y-59819000D01*
X101473000Y-59839000D01*
X102622250Y-59839000D01*
X102781000Y-59680250D01*
X102784072Y-58666000D01*
X102771812Y-58541518D01*
X102735502Y-58421820D01*
X102676537Y-58311506D01*
X102597185Y-58214815D01*
X102500494Y-58135463D01*
X102447187Y-58106969D01*
X102523962Y-58043962D01*
X102634405Y-57909386D01*
X102716472Y-57755850D01*
X102767008Y-57589254D01*
X102784072Y-57416000D01*
X102784072Y-55316000D01*
X102767008Y-55142746D01*
X102716472Y-54976150D01*
X102682201Y-54912034D01*
X102896241Y-54697995D01*
X102930159Y-54670159D01*
X103041253Y-54534791D01*
X103123803Y-54380351D01*
X103145249Y-54309651D01*
X103165792Y-54292792D01*
X103275458Y-54159164D01*
X103356947Y-54006709D01*
X103407128Y-53841285D01*
X103424072Y-53669250D01*
X103424072Y-52756750D01*
X103407128Y-52584715D01*
X103356947Y-52419291D01*
X103275458Y-52266836D01*
X103165792Y-52133208D01*
X103032164Y-52023542D01*
X102879709Y-51942053D01*
X102790556Y-51915009D01*
X102822829Y-51897758D01*
X102942251Y-51799751D01*
X103040258Y-51680329D01*
X103113084Y-51544082D01*
X103157929Y-51396245D01*
X103173072Y-51242500D01*
X103173072Y-49592500D01*
X103157929Y-49438755D01*
X103113084Y-49290918D01*
X103040258Y-49154671D01*
X102995000Y-49099524D01*
X102995000Y-48827827D01*
X103021774Y-48809937D01*
X103165937Y-48665774D01*
X103279205Y-48496256D01*
X103357226Y-48307898D01*
X103397000Y-48107939D01*
X103397000Y-47904061D01*
X103357226Y-47704102D01*
X103279205Y-47515744D01*
X103165937Y-47346226D01*
X103021774Y-47202063D01*
X102852256Y-47088795D01*
X102687018Y-47020351D01*
X102822829Y-46947758D01*
X102942251Y-46849751D01*
X103040258Y-46730329D01*
X103113084Y-46594082D01*
X103157929Y-46446245D01*
X103173072Y-46292500D01*
X103173072Y-44642500D01*
X103157929Y-44488755D01*
X103153757Y-44475000D01*
X103480000Y-44475000D01*
X103480001Y-63801725D01*
X103426168Y-63531088D01*
X103302918Y-63233537D01*
X103123987Y-62965748D01*
X102896252Y-62738013D01*
X102628463Y-62559082D01*
X102330912Y-62435832D01*
X102015033Y-62373000D01*
X101692967Y-62373000D01*
X101377088Y-62435832D01*
X101079537Y-62559082D01*
X100811748Y-62738013D01*
X100584013Y-62965748D01*
X100405082Y-63233537D01*
X100281832Y-63531088D01*
X100219000Y-63846967D01*
X100219000Y-64169033D01*
X100281832Y-64484912D01*
X100405082Y-64782463D01*
X100584013Y-65050252D01*
X100659761Y-65126000D01*
X93717607Y-65126000D01*
X93772458Y-65059164D01*
X93853947Y-64906709D01*
X93904128Y-64741285D01*
X93921072Y-64569250D01*
X93921072Y-64081750D01*
X93904128Y-63909715D01*
X93853947Y-63744291D01*
X93846250Y-63729890D01*
X95269024Y-63729890D01*
X95313675Y-63877099D01*
X95438859Y-64139920D01*
X95612912Y-64373269D01*
X95829145Y-64568178D01*
X96079248Y-64717157D01*
X96353609Y-64814481D01*
X96583500Y-64693814D01*
X96583500Y-63500000D01*
X96837500Y-63500000D01*
X96837500Y-64693814D01*
X97067391Y-64814481D01*
X97341752Y-64717157D01*
X97591855Y-64568178D01*
X97808088Y-64373269D01*
X97982141Y-64139920D01*
X98107325Y-63877099D01*
X98151976Y-63729890D01*
X98030655Y-63500000D01*
X96837500Y-63500000D01*
X96583500Y-63500000D01*
X95390345Y-63500000D01*
X95269024Y-63729890D01*
X93846250Y-63729890D01*
X93772458Y-63591836D01*
X93662792Y-63458208D01*
X93577244Y-63388000D01*
X93662792Y-63317792D01*
X93772458Y-63184164D01*
X93853947Y-63031709D01*
X93904128Y-62866285D01*
X93921072Y-62694250D01*
X93921072Y-62206750D01*
X93904128Y-62034715D01*
X93853947Y-61869291D01*
X93772458Y-61716836D01*
X93666115Y-61587258D01*
X93701386Y-61568405D01*
X93835962Y-61457962D01*
X93946405Y-61323386D01*
X94028472Y-61169850D01*
X94079008Y-61003254D01*
X94096072Y-60830000D01*
X94096072Y-60080000D01*
X94079008Y-59906746D01*
X94028472Y-59740150D01*
X93946405Y-59586614D01*
X93835962Y-59452038D01*
X93701386Y-59341595D01*
X93547850Y-59259528D01*
X93381254Y-59208992D01*
X93208000Y-59191928D01*
X91958000Y-59191928D01*
X91784746Y-59208992D01*
X91618150Y-59259528D01*
X91464614Y-59341595D01*
X91330038Y-59452038D01*
X91219595Y-59586614D01*
X91137528Y-59740150D01*
X91086992Y-59906746D01*
X91069928Y-60080000D01*
X91069928Y-60830000D01*
X91086992Y-61003254D01*
X91137528Y-61169850D01*
X91219595Y-61323386D01*
X91330038Y-61457962D01*
X91464614Y-61568405D01*
X91499885Y-61587258D01*
X91393542Y-61716836D01*
X91312053Y-61869291D01*
X91261872Y-62034715D01*
X91244928Y-62206750D01*
X91244928Y-62694250D01*
X91261872Y-62866285D01*
X91312053Y-63031709D01*
X91393542Y-63184164D01*
X91503208Y-63317792D01*
X91588756Y-63388000D01*
X91529659Y-63436500D01*
X90892547Y-63436500D01*
X90789398Y-63393774D01*
X90589439Y-63354000D01*
X90385561Y-63354000D01*
X90185602Y-63393774D01*
X90001577Y-63470000D01*
X89254841Y-63470000D01*
X89195744Y-63421500D01*
X89281292Y-63351292D01*
X89390958Y-63217664D01*
X89472447Y-63065209D01*
X89522628Y-62899785D01*
X89539572Y-62727750D01*
X89539572Y-62240250D01*
X89522628Y-62068215D01*
X89472447Y-61902791D01*
X89390958Y-61750336D01*
X89291612Y-61629283D01*
X89357986Y-61593805D01*
X89492562Y-61483362D01*
X89603005Y-61348786D01*
X89685072Y-61195250D01*
X89735608Y-61028654D01*
X89752672Y-60855400D01*
X89752672Y-60105400D01*
X89735608Y-59932146D01*
X89685072Y-59765550D01*
X89603005Y-59612014D01*
X89492562Y-59477438D01*
X89357986Y-59366995D01*
X89204450Y-59284928D01*
X89037854Y-59234392D01*
X88864600Y-59217328D01*
X87614600Y-59217328D01*
X87610950Y-59217687D01*
X87610950Y-58943113D01*
X87614600Y-58943472D01*
X88864600Y-58943472D01*
X89037854Y-58926408D01*
X89204450Y-58875872D01*
X89357986Y-58793805D01*
X89492562Y-58683362D01*
X89603005Y-58548786D01*
X89685072Y-58395250D01*
X89735608Y-58228654D01*
X89752672Y-58055400D01*
X89752672Y-57305400D01*
X89735608Y-57132146D01*
X89685072Y-56965550D01*
X89603005Y-56812014D01*
X89492562Y-56677438D01*
X89357986Y-56566995D01*
X89204450Y-56484928D01*
X89037854Y-56434392D01*
X88976200Y-56428320D01*
X88976200Y-56251372D01*
X88988900Y-56251372D01*
X89113382Y-56239112D01*
X89233080Y-56202802D01*
X89343394Y-56143837D01*
X89440085Y-56064485D01*
X89519437Y-55967794D01*
X89578402Y-55857480D01*
X89614712Y-55737782D01*
X89618216Y-55702200D01*
X90083017Y-55702200D01*
X90119200Y-55705764D01*
X90155383Y-55702200D01*
X90155386Y-55702200D01*
X90263599Y-55691542D01*
X90278274Y-55687090D01*
X90322061Y-55695800D01*
X90525939Y-55695800D01*
X90725898Y-55656026D01*
X90914256Y-55578005D01*
X91083774Y-55464737D01*
X91227937Y-55320574D01*
X91245260Y-55294648D01*
X91269598Y-55374880D01*
X91328563Y-55485194D01*
X91353532Y-55515618D01*
X91224100Y-55645050D01*
X91235210Y-55747080D01*
X91273297Y-55866224D01*
X91333896Y-55975649D01*
X91414678Y-56071148D01*
X91512539Y-56149053D01*
X91623719Y-56206370D01*
X91743944Y-56240895D01*
X91868594Y-56251301D01*
X92322650Y-56248300D01*
X92481400Y-56089550D01*
X92481400Y-55768772D01*
X92735400Y-55768772D01*
X92735400Y-56089550D01*
X92894150Y-56248300D01*
X92922701Y-56248489D01*
X92922701Y-56273590D01*
X92804363Y-56391928D01*
X91958000Y-56391928D01*
X91784746Y-56408992D01*
X91618150Y-56459528D01*
X91464614Y-56541595D01*
X91330038Y-56652038D01*
X91219595Y-56786614D01*
X91137528Y-56940150D01*
X91086992Y-57106746D01*
X91069928Y-57280000D01*
X91069928Y-58030000D01*
X91086992Y-58203254D01*
X91137528Y-58369850D01*
X91219595Y-58523386D01*
X91330038Y-58657962D01*
X91464614Y-58768405D01*
X91618150Y-58850472D01*
X91784746Y-58901008D01*
X91958000Y-58918072D01*
X93208000Y-58918072D01*
X93381254Y-58901008D01*
X93547850Y-58850472D01*
X93701386Y-58768405D01*
X93835962Y-58657962D01*
X93946405Y-58523386D01*
X94028472Y-58369850D01*
X94079008Y-58203254D01*
X94096072Y-58030000D01*
X94096072Y-57280000D01*
X94087432Y-57192277D01*
X94154569Y-57125140D01*
X94182675Y-57102074D01*
X94274725Y-56989912D01*
X94343123Y-56861948D01*
X94385243Y-56723098D01*
X94395901Y-56614885D01*
X94395901Y-56614876D01*
X94399464Y-56578700D01*
X94395901Y-56542524D01*
X94395901Y-53976500D01*
X94647428Y-53976500D01*
X94659688Y-54100982D01*
X94695998Y-54220680D01*
X94754963Y-54330994D01*
X94834315Y-54427685D01*
X94931006Y-54507037D01*
X95041320Y-54566002D01*
X95161018Y-54602312D01*
X95285500Y-54614572D01*
X95487250Y-54611500D01*
X95646000Y-54452750D01*
X95646000Y-53403500D01*
X94809250Y-53403500D01*
X94650500Y-53562250D01*
X94647428Y-53976500D01*
X94395901Y-53976500D01*
X94395901Y-53601584D01*
X94399465Y-53565400D01*
X94389773Y-53467000D01*
X94385243Y-53421002D01*
X94343123Y-53282152D01*
X94274725Y-53154188D01*
X94182676Y-53042026D01*
X94154564Y-53018955D01*
X94107346Y-52971737D01*
X94084275Y-52943625D01*
X93972113Y-52851576D01*
X93844149Y-52783178D01*
X93705299Y-52741058D01*
X93644249Y-52735045D01*
X93601880Y-52712398D01*
X93482182Y-52676088D01*
X93357700Y-52663828D01*
X91859100Y-52663828D01*
X91734618Y-52676088D01*
X91614920Y-52712398D01*
X91504606Y-52771363D01*
X91407915Y-52850715D01*
X91328563Y-52947406D01*
X91269598Y-53057720D01*
X91233288Y-53177418D01*
X91221028Y-53301900D01*
X91221028Y-53632100D01*
X91228726Y-53710264D01*
X91227557Y-53721000D01*
X90859707Y-53721000D01*
X90725898Y-53665574D01*
X90525939Y-53625800D01*
X90322061Y-53625800D01*
X90122102Y-53665574D01*
X89933744Y-53743595D01*
X89764226Y-53856863D01*
X89626972Y-53994117D01*
X89626972Y-53784500D01*
X89619467Y-53708300D01*
X89626972Y-53632100D01*
X89626972Y-53301900D01*
X89614712Y-53177418D01*
X89578402Y-53057720D01*
X89519437Y-52947406D01*
X89440085Y-52850715D01*
X89343394Y-52771363D01*
X89233080Y-52712398D01*
X89113382Y-52676088D01*
X88988900Y-52663828D01*
X88835608Y-52663828D01*
X88763940Y-52576500D01*
X94647428Y-52576500D01*
X94650500Y-52990750D01*
X94809250Y-53149500D01*
X95646000Y-53149500D01*
X95646000Y-52100250D01*
X95487250Y-51941500D01*
X95285500Y-51938428D01*
X95161018Y-51950688D01*
X95041320Y-51986998D01*
X94931006Y-52045963D01*
X94834315Y-52125315D01*
X94754963Y-52222006D01*
X94695998Y-52332320D01*
X94659688Y-52452018D01*
X94647428Y-52576500D01*
X88763940Y-52576500D01*
X88762975Y-52575325D01*
X88734869Y-52552259D01*
X88062145Y-51879536D01*
X88039075Y-51851425D01*
X87926913Y-51759376D01*
X87798949Y-51690978D01*
X87660099Y-51648858D01*
X87551886Y-51638200D01*
X87551883Y-51638200D01*
X87515700Y-51634636D01*
X87479517Y-51638200D01*
X87391911Y-51638200D01*
X87324574Y-51570863D01*
X87155056Y-51457595D01*
X86966698Y-51379574D01*
X86766739Y-51339800D01*
X86562861Y-51339800D01*
X86362902Y-51379574D01*
X86174544Y-51457595D01*
X86005026Y-51570863D01*
X85860863Y-51715026D01*
X85747595Y-51884544D01*
X85669574Y-52072902D01*
X85629800Y-52272861D01*
X85629800Y-52476739D01*
X85669574Y-52676698D01*
X85747595Y-52865056D01*
X85860863Y-53034574D01*
X86005026Y-53178737D01*
X86174544Y-53292005D01*
X86362902Y-53370026D01*
X86562861Y-53409800D01*
X86766739Y-53409800D01*
X86789177Y-53405337D01*
X86763725Y-53426225D01*
X86740654Y-53454337D01*
X86379082Y-53815909D01*
X86350975Y-53838976D01*
X86327909Y-53867082D01*
X86327908Y-53867083D01*
X86281033Y-53924200D01*
X86258926Y-53951138D01*
X86190528Y-54079102D01*
X86148408Y-54217952D01*
X86139779Y-54305565D01*
X86134186Y-54362350D01*
X86137750Y-54398533D01*
X86137751Y-62699900D01*
X85427602Y-62699900D01*
X85378206Y-62607486D01*
X85192634Y-62381366D01*
X85162813Y-62356893D01*
X85231680Y-62336002D01*
X85341994Y-62277037D01*
X85438685Y-62197685D01*
X85518037Y-62100994D01*
X85577002Y-61990680D01*
X85613312Y-61870982D01*
X85625572Y-61746500D01*
X85625572Y-60046500D01*
X85613312Y-59922018D01*
X85577002Y-59802320D01*
X85518037Y-59692006D01*
X85438685Y-59595315D01*
X85341994Y-59515963D01*
X85231680Y-59456998D01*
X85111982Y-59420688D01*
X84987500Y-59408428D01*
X83388200Y-59408428D01*
X83388200Y-59170265D01*
X83534250Y-59169300D01*
X83693000Y-59010550D01*
X83693000Y-58689772D01*
X83947000Y-58689772D01*
X83947000Y-59010550D01*
X84105750Y-59169300D01*
X84559806Y-59172301D01*
X84684456Y-59161895D01*
X84804681Y-59127370D01*
X84915861Y-59070053D01*
X85013722Y-58992148D01*
X85094504Y-58896649D01*
X85155103Y-58787224D01*
X85193190Y-58668080D01*
X85204300Y-58566050D01*
X85074868Y-58436618D01*
X85099837Y-58406194D01*
X85158802Y-58295880D01*
X85192780Y-58183870D01*
X85204300Y-58172350D01*
X85199674Y-58129864D01*
X85207372Y-58051700D01*
X85207372Y-57721500D01*
X85198616Y-57632600D01*
X85207372Y-57543700D01*
X85207372Y-57484812D01*
X85318057Y-57393975D01*
X85341128Y-57365863D01*
X85366169Y-57340822D01*
X85394275Y-57317756D01*
X85486325Y-57205594D01*
X85554723Y-57077630D01*
X85596843Y-56938780D01*
X85607501Y-56830567D01*
X85607501Y-56830566D01*
X85611065Y-56794381D01*
X85607501Y-56758195D01*
X85607501Y-56008282D01*
X85611065Y-55972098D01*
X85607091Y-55931750D01*
X85596843Y-55827700D01*
X85554723Y-55688850D01*
X85509458Y-55604164D01*
X85486325Y-55560885D01*
X85446094Y-55511864D01*
X85394276Y-55448724D01*
X85366164Y-55425653D01*
X84944248Y-55003737D01*
X84921177Y-54975625D01*
X84809015Y-54883576D01*
X84681051Y-54815178D01*
X84542201Y-54773058D01*
X84433988Y-54762400D01*
X84433985Y-54762400D01*
X84397802Y-54758836D01*
X84361619Y-54762400D01*
X83871110Y-54762400D01*
X83667600Y-54558891D01*
X83667600Y-54193072D01*
X83781000Y-54193072D01*
X83905482Y-54180812D01*
X84025180Y-54144502D01*
X84135494Y-54085537D01*
X84232185Y-54006185D01*
X84311537Y-53909494D01*
X84370502Y-53799180D01*
X84406812Y-53679482D01*
X84419072Y-53555000D01*
X84419072Y-53370470D01*
X84430742Y-53331999D01*
X84444964Y-53187600D01*
X84430742Y-53043201D01*
X84419072Y-53004730D01*
X84419072Y-51855000D01*
X84406812Y-51730518D01*
X84370502Y-51610820D01*
X84311537Y-51500506D01*
X84232185Y-51403815D01*
X84135494Y-51324463D01*
X84025180Y-51265498D01*
X83905482Y-51229188D01*
X83781000Y-51216928D01*
X82081000Y-51216928D01*
X81956518Y-51229188D01*
X81836820Y-51265498D01*
X81726506Y-51324463D01*
X81629815Y-51403815D01*
X81550463Y-51500506D01*
X81491498Y-51610820D01*
X81470607Y-51679687D01*
X81446134Y-51649866D01*
X81220014Y-51464294D01*
X80962034Y-51326401D01*
X80682111Y-51241487D01*
X80463950Y-51220000D01*
X80318050Y-51220000D01*
X80099889Y-51241487D01*
X79819966Y-51326401D01*
X79561986Y-51464294D01*
X79335866Y-51649866D01*
X79150294Y-51875986D01*
X79012401Y-52133966D01*
X78927487Y-52413889D01*
X78898815Y-52705000D01*
X78927487Y-52996111D01*
X79005199Y-53252292D01*
X78384000Y-53873491D01*
X78384000Y-50344000D01*
X83651928Y-50344000D01*
X83664188Y-50468482D01*
X83700498Y-50588180D01*
X83759463Y-50698494D01*
X83838815Y-50795185D01*
X83935506Y-50874537D01*
X84045820Y-50933502D01*
X84165518Y-50969812D01*
X84290000Y-50982072D01*
X84804250Y-50979000D01*
X84963000Y-50820250D01*
X84963000Y-49171000D01*
X85217000Y-49171000D01*
X85217000Y-50820250D01*
X85375750Y-50979000D01*
X85890000Y-50982072D01*
X86014482Y-50969812D01*
X86134180Y-50933502D01*
X86170294Y-50914198D01*
X92610230Y-50914198D01*
X92622490Y-51038680D01*
X92658800Y-51158378D01*
X92717765Y-51268692D01*
X92797117Y-51365383D01*
X92893808Y-51444735D01*
X93004122Y-51503700D01*
X93123820Y-51540010D01*
X93248302Y-51552270D01*
X94011750Y-51549198D01*
X94170500Y-51390448D01*
X94170500Y-49911000D01*
X94424500Y-49911000D01*
X94424500Y-51390448D01*
X94583250Y-51549198D01*
X95346698Y-51552270D01*
X95471180Y-51540010D01*
X95590878Y-51503700D01*
X95701192Y-51444735D01*
X95797883Y-51365383D01*
X95877235Y-51268692D01*
X95936200Y-51158378D01*
X95972510Y-51038680D01*
X95984770Y-50914198D01*
X95981698Y-50069750D01*
X95822948Y-49911000D01*
X94424500Y-49911000D01*
X94170500Y-49911000D01*
X92772052Y-49911000D01*
X92613302Y-50069750D01*
X92610230Y-50914198D01*
X86170294Y-50914198D01*
X86244494Y-50874537D01*
X86341185Y-50795185D01*
X86420537Y-50698494D01*
X86479502Y-50588180D01*
X86515812Y-50468482D01*
X86528072Y-50344000D01*
X86525000Y-49329750D01*
X86366250Y-49171000D01*
X85217000Y-49171000D01*
X84963000Y-49171000D01*
X83813750Y-49171000D01*
X83655000Y-49329750D01*
X83651928Y-50344000D01*
X78384000Y-50344000D01*
X78384000Y-49237000D01*
X78775928Y-49237000D01*
X78788188Y-49361482D01*
X78824498Y-49481180D01*
X78883463Y-49591494D01*
X78962815Y-49688185D01*
X79059506Y-49767537D01*
X79169820Y-49826502D01*
X79289518Y-49862812D01*
X79414000Y-49875072D01*
X79978250Y-49872000D01*
X80137000Y-49713250D01*
X80137000Y-48514000D01*
X80391000Y-48514000D01*
X80391000Y-49713250D01*
X80549750Y-49872000D01*
X81114000Y-49875072D01*
X81238482Y-49862812D01*
X81358180Y-49826502D01*
X81468494Y-49767537D01*
X81565185Y-49688185D01*
X81644537Y-49591494D01*
X81703502Y-49481180D01*
X81739812Y-49361482D01*
X81752072Y-49237000D01*
X81749000Y-48672750D01*
X81590250Y-48514000D01*
X80391000Y-48514000D01*
X80137000Y-48514000D01*
X78937750Y-48514000D01*
X78779000Y-48672750D01*
X78775928Y-49237000D01*
X78384000Y-49237000D01*
X78384000Y-44475000D01*
X79680620Y-44475000D01*
X79434986Y-44606294D01*
X79434986Y-44606294D01*
G37*
X79434986Y-44606294D02*
X79208866Y-44791866D01*
X79023294Y-45017986D01*
X78885401Y-45275966D01*
X78800487Y-45555889D01*
X78771815Y-45847000D01*
X78800487Y-46138111D01*
X78885401Y-46418034D01*
X79023294Y-46676014D01*
X79208866Y-46902134D01*
X79238687Y-46926607D01*
X79169820Y-46947498D01*
X79059506Y-47006463D01*
X78962815Y-47085815D01*
X78883463Y-47182506D01*
X78824498Y-47292820D01*
X78788188Y-47412518D01*
X78775928Y-47537000D01*
X78779000Y-48101250D01*
X78937750Y-48260000D01*
X80137000Y-48260000D01*
X80137000Y-48240000D01*
X80391000Y-48240000D01*
X80391000Y-48260000D01*
X81590250Y-48260000D01*
X81749000Y-48101250D01*
X81752072Y-47537000D01*
X81739812Y-47412518D01*
X81703502Y-47292820D01*
X81644537Y-47182506D01*
X81565185Y-47085815D01*
X81468494Y-47006463D01*
X81358180Y-46947498D01*
X81289313Y-46926607D01*
X81319134Y-46902134D01*
X81504706Y-46676014D01*
X81642599Y-46418034D01*
X81668394Y-46333000D01*
X83651928Y-46333000D01*
X83651928Y-46494000D01*
X83668992Y-46667254D01*
X83719528Y-46833850D01*
X83801595Y-46987386D01*
X83912038Y-47121962D01*
X83988813Y-47184969D01*
X83935506Y-47213463D01*
X83838815Y-47292815D01*
X83759463Y-47389506D01*
X83700498Y-47499820D01*
X83664188Y-47619518D01*
X83651928Y-47744000D01*
X83655000Y-48758250D01*
X83813750Y-48917000D01*
X84963000Y-48917000D01*
X84963000Y-48897000D01*
X85217000Y-48897000D01*
X85217000Y-48917000D01*
X86366250Y-48917000D01*
X86525000Y-48758250D01*
X86525316Y-48653802D01*
X92610230Y-48653802D01*
X92613302Y-49498250D01*
X92772052Y-49657000D01*
X94170500Y-49657000D01*
X94170500Y-48177552D01*
X94424500Y-48177552D01*
X94424500Y-49657000D01*
X95822948Y-49657000D01*
X95981698Y-49498250D01*
X95981900Y-49442500D01*
X97486928Y-49442500D01*
X97490000Y-50131750D01*
X97648750Y-50290500D01*
X98298000Y-50290500D01*
X98298000Y-48966250D01*
X98139250Y-48807500D01*
X98125000Y-48804428D01*
X98000518Y-48816688D01*
X97880820Y-48852998D01*
X97770506Y-48911963D01*
X97673815Y-48991315D01*
X97594463Y-49088006D01*
X97535498Y-49198320D01*
X97499188Y-49318018D01*
X97486928Y-49442500D01*
X95981900Y-49442500D01*
X95984770Y-48653802D01*
X95972510Y-48529320D01*
X95936200Y-48409622D01*
X95877235Y-48299308D01*
X95797883Y-48202617D01*
X95701192Y-48123265D01*
X95590878Y-48064300D01*
X95471180Y-48027990D01*
X95346698Y-48015730D01*
X94583250Y-48018802D01*
X94424500Y-48177552D01*
X94170500Y-48177552D01*
X94011750Y-48018802D01*
X93248302Y-48015730D01*
X93123820Y-48027990D01*
X93004122Y-48064300D01*
X92893808Y-48123265D01*
X92797117Y-48202617D01*
X92717765Y-48299308D01*
X92658800Y-48409622D01*
X92622490Y-48529320D01*
X92610230Y-48653802D01*
X86525316Y-48653802D01*
X86528032Y-47757000D01*
X87393928Y-47757000D01*
X87406188Y-47881482D01*
X87442498Y-48001180D01*
X87501463Y-48111494D01*
X87580815Y-48208185D01*
X87677506Y-48287537D01*
X87787820Y-48346502D01*
X87907518Y-48382812D01*
X88032000Y-48395072D01*
X88276250Y-48392000D01*
X88435000Y-48233250D01*
X88435000Y-47559000D01*
X87555750Y-47559000D01*
X87397000Y-47717750D01*
X87393928Y-47757000D01*
X86528032Y-47757000D01*
X86528072Y-47744000D01*
X86515812Y-47619518D01*
X86479502Y-47499820D01*
X86420537Y-47389506D01*
X86341185Y-47292815D01*
X86244494Y-47213463D01*
X86191187Y-47184969D01*
X86267962Y-47121962D01*
X86378405Y-46987386D01*
X86460472Y-46833850D01*
X86511008Y-46667254D01*
X86528072Y-46494000D01*
X86528072Y-46418500D01*
X87735433Y-46418500D01*
X87787820Y-46446502D01*
X87904841Y-46482000D01*
X87787820Y-46517498D01*
X87677506Y-46576463D01*
X87637859Y-46609000D01*
X87555750Y-46609000D01*
X87397000Y-46767750D01*
X87393928Y-46807000D01*
X87406188Y-46931482D01*
X87413929Y-46957000D01*
X87406188Y-46982518D01*
X87393928Y-47107000D01*
X87397000Y-47146250D01*
X87555750Y-47305000D01*
X87637859Y-47305000D01*
X87677506Y-47337537D01*
X87787820Y-47396502D01*
X87907518Y-47432812D01*
X88032000Y-47445072D01*
X88276250Y-47442000D01*
X88413250Y-47305000D01*
X88435000Y-47305000D01*
X88435000Y-47285000D01*
X88689000Y-47285000D01*
X88689000Y-47305000D01*
X88709000Y-47305000D01*
X88709000Y-47559000D01*
X88689000Y-47559000D01*
X88689000Y-48233250D01*
X88847750Y-48392000D01*
X89092000Y-48395072D01*
X89216482Y-48382812D01*
X89336180Y-48346502D01*
X89446494Y-48287537D01*
X89543185Y-48208185D01*
X89622537Y-48111494D01*
X89662000Y-48037665D01*
X89701463Y-48111494D01*
X89780815Y-48208185D01*
X89877506Y-48287537D01*
X89987820Y-48346502D01*
X90107518Y-48382812D01*
X90232000Y-48395072D01*
X91292000Y-48395072D01*
X91416482Y-48382812D01*
X91536180Y-48346502D01*
X91646494Y-48287537D01*
X91743185Y-48208185D01*
X91822537Y-48111494D01*
X91881502Y-48001180D01*
X91917812Y-47881482D01*
X91930072Y-47757000D01*
X91930072Y-47107000D01*
X91917812Y-46982518D01*
X91881502Y-46862820D01*
X91822537Y-46752506D01*
X91743185Y-46655815D01*
X91646494Y-46576463D01*
X91536180Y-46517498D01*
X91419159Y-46482000D01*
X91536180Y-46446502D01*
X91583890Y-46421000D01*
X91913141Y-46421000D01*
X92008661Y-46440000D01*
X92212539Y-46440000D01*
X92412498Y-46400226D01*
X92600856Y-46322205D01*
X92610230Y-46315942D01*
X92610230Y-46869806D01*
X92622490Y-46994288D01*
X92658800Y-47113986D01*
X92717765Y-47224300D01*
X92797117Y-47320991D01*
X92893808Y-47400343D01*
X93004122Y-47459308D01*
X93123820Y-47495618D01*
X93248302Y-47507878D01*
X95346698Y-47507878D01*
X95471180Y-47495618D01*
X95590878Y-47459308D01*
X95701192Y-47400343D01*
X95797883Y-47320991D01*
X95877235Y-47224300D01*
X95936200Y-47113986D01*
X95972510Y-46994288D01*
X95984770Y-46869806D01*
X95984770Y-46740753D01*
X96273140Y-46740753D01*
X96316800Y-46745053D01*
X96360460Y-46740753D01*
X96360467Y-46740753D01*
X96491074Y-46727889D01*
X96658651Y-46677056D01*
X96813091Y-46594506D01*
X96927028Y-46501000D01*
X96939439Y-46501000D01*
X97139398Y-46461226D01*
X97327756Y-46383205D01*
X97367723Y-46356500D01*
X97493232Y-46356500D01*
X97502071Y-46446245D01*
X97546916Y-46594082D01*
X97619742Y-46730329D01*
X97717749Y-46849751D01*
X97837171Y-46947758D01*
X97973418Y-47020584D01*
X98121255Y-47065429D01*
X98275000Y-47080572D01*
X98575000Y-47080572D01*
X98728745Y-47065429D01*
X98876582Y-47020584D01*
X99012829Y-46947758D01*
X99060000Y-46909046D01*
X99107171Y-46947758D01*
X99243418Y-47020584D01*
X99375154Y-47060545D01*
X99184003Y-47251696D01*
X99154999Y-47275499D01*
X99123015Y-47314472D01*
X99060026Y-47391224D01*
X99023634Y-47459308D01*
X98989454Y-47523254D01*
X98945997Y-47666515D01*
X98935000Y-47778168D01*
X98935000Y-47778178D01*
X98931324Y-47815500D01*
X98935000Y-47852823D01*
X98935001Y-48842630D01*
X98849482Y-48816688D01*
X98725000Y-48804428D01*
X98710750Y-48807500D01*
X98552000Y-48966250D01*
X98552000Y-50290500D01*
X98572000Y-50290500D01*
X98572000Y-50544500D01*
X98552000Y-50544500D01*
X98552000Y-50564500D01*
X98298000Y-50564500D01*
X98298000Y-50544500D01*
X97648750Y-50544500D01*
X97490000Y-50703250D01*
X97486928Y-51392500D01*
X97499188Y-51516982D01*
X97535498Y-51636680D01*
X97594463Y-51746994D01*
X97673815Y-51843685D01*
X97770506Y-51923037D01*
X97799300Y-51938428D01*
X97404250Y-51938428D01*
X97232215Y-51955372D01*
X97066791Y-52005553D01*
X96914336Y-52087042D01*
X96780708Y-52196708D01*
X96775492Y-52203064D01*
X96711685Y-52125315D01*
X96614994Y-52045963D01*
X96504680Y-51986998D01*
X96384982Y-51950688D01*
X96260500Y-51938428D01*
X96058750Y-51941500D01*
X95900000Y-52100250D01*
X95900000Y-53149500D01*
X95920000Y-53149500D01*
X95920000Y-53403500D01*
X95900000Y-53403500D01*
X95900000Y-54452750D01*
X96058750Y-54611500D01*
X96260500Y-54614572D01*
X96384982Y-54602312D01*
X96504680Y-54566002D01*
X96614994Y-54507037D01*
X96711685Y-54427685D01*
X96759001Y-54370031D01*
X96759000Y-55334659D01*
X96710500Y-55393756D01*
X96640292Y-55308208D01*
X96506664Y-55198542D01*
X96354209Y-55117053D01*
X96188785Y-55066872D01*
X96016750Y-55049928D01*
X95529250Y-55049928D01*
X95357215Y-55066872D01*
X95191791Y-55117053D01*
X95039336Y-55198542D01*
X94905708Y-55308208D01*
X94796042Y-55441836D01*
X94714553Y-55594291D01*
X94664372Y-55759715D01*
X94647428Y-55931750D01*
X94647428Y-56844250D01*
X94664372Y-57016285D01*
X94714553Y-57181709D01*
X94796042Y-57334164D01*
X94883269Y-57440450D01*
X94879700Y-57476685D01*
X94884000Y-57520345D01*
X94884000Y-57520351D01*
X94892905Y-57610764D01*
X94896864Y-57650959D01*
X94902089Y-57668182D01*
X94947697Y-57818535D01*
X95030247Y-57972975D01*
X95141341Y-58108344D01*
X95175265Y-58136185D01*
X95421812Y-58382731D01*
X95449656Y-58416659D01*
X95585024Y-58527753D01*
X95739464Y-58610303D01*
X95829035Y-58637474D01*
X95907039Y-58661136D01*
X95940239Y-58664406D01*
X96037648Y-58674000D01*
X96037654Y-58674000D01*
X96081314Y-58678300D01*
X96115874Y-58674896D01*
X96156744Y-58702205D01*
X96345102Y-58780226D01*
X96545061Y-58820000D01*
X96748939Y-58820000D01*
X96759001Y-58817999D01*
X96759001Y-59344928D01*
X95860500Y-59344928D01*
X95736018Y-59357188D01*
X95616320Y-59393498D01*
X95506006Y-59452463D01*
X95409315Y-59531815D01*
X95329963Y-59628506D01*
X95270998Y-59738820D01*
X95234688Y-59858518D01*
X95222428Y-59983000D01*
X95222428Y-61683000D01*
X95234688Y-61807482D01*
X95270998Y-61927180D01*
X95329963Y-62037494D01*
X95409315Y-62134185D01*
X95506006Y-62213537D01*
X95616320Y-62272502D01*
X95696966Y-62296966D01*
X95612912Y-62372731D01*
X95438859Y-62606080D01*
X95313675Y-62868901D01*
X95269024Y-63016110D01*
X95390345Y-63246000D01*
X96583500Y-63246000D01*
X96583500Y-63226000D01*
X96837500Y-63226000D01*
X96837500Y-63246000D01*
X98030655Y-63246000D01*
X98151976Y-63016110D01*
X98107325Y-62868901D01*
X97982141Y-62606080D01*
X97808088Y-62372731D01*
X97724034Y-62296966D01*
X97804680Y-62272502D01*
X97914994Y-62213537D01*
X98011685Y-62134185D01*
X98091037Y-62037494D01*
X98150002Y-61927180D01*
X98186312Y-61807482D01*
X98198572Y-61683000D01*
X98198572Y-61266000D01*
X99907928Y-61266000D01*
X99920188Y-61390482D01*
X99956498Y-61510180D01*
X100015463Y-61620494D01*
X100094815Y-61717185D01*
X100191506Y-61796537D01*
X100301820Y-61855502D01*
X100421518Y-61891812D01*
X100546000Y-61904072D01*
X101060250Y-61901000D01*
X101219000Y-61742250D01*
X101219000Y-60093000D01*
X101473000Y-60093000D01*
X101473000Y-61742250D01*
X101631750Y-61901000D01*
X102146000Y-61904072D01*
X102270482Y-61891812D01*
X102390180Y-61855502D01*
X102500494Y-61796537D01*
X102597185Y-61717185D01*
X102676537Y-61620494D01*
X102735502Y-61510180D01*
X102771812Y-61390482D01*
X102784072Y-61266000D01*
X102781000Y-60251750D01*
X102622250Y-60093000D01*
X101473000Y-60093000D01*
X101219000Y-60093000D01*
X100069750Y-60093000D01*
X99911000Y-60251750D01*
X99907928Y-61266000D01*
X98198572Y-61266000D01*
X98198572Y-60602164D01*
X98245741Y-60554995D01*
X98279659Y-60527159D01*
X98390753Y-60391791D01*
X98473303Y-60237351D01*
X98510979Y-60113149D01*
X98524136Y-60069776D01*
X98532573Y-59984109D01*
X98537000Y-59939167D01*
X98537000Y-59939161D01*
X98541300Y-59895501D01*
X98537000Y-59851841D01*
X98537000Y-57441341D01*
X98624958Y-57334164D01*
X98706447Y-57181709D01*
X98756628Y-57016285D01*
X98773572Y-56844250D01*
X98773572Y-55931750D01*
X98756628Y-55759715D01*
X98706447Y-55594291D01*
X98624958Y-55441836D01*
X98537000Y-55334659D01*
X98537000Y-54329841D01*
X98624958Y-54222664D01*
X98706447Y-54070209D01*
X98756628Y-53904785D01*
X98764428Y-53825588D01*
X98775501Y-53816501D01*
X98799304Y-53787497D01*
X99297928Y-53288873D01*
X99297928Y-53669250D01*
X99314872Y-53841285D01*
X99365053Y-54006709D01*
X99446542Y-54159164D01*
X99556208Y-54292792D01*
X99689836Y-54402458D01*
X99842291Y-54483947D01*
X100007715Y-54534128D01*
X100179750Y-54551072D01*
X100352235Y-54551072D01*
X100302614Y-54577595D01*
X100168038Y-54688038D01*
X100057595Y-54822614D01*
X99975528Y-54976150D01*
X99924992Y-55142746D01*
X99907928Y-55316000D01*
X99907928Y-57416000D01*
X99924992Y-57589254D01*
X99975528Y-57755850D01*
X100057595Y-57909386D01*
X100168038Y-58043962D01*
X100244813Y-58106969D01*
X100191506Y-58135463D01*
X100094815Y-58214815D01*
X100015463Y-58311506D01*
X99956498Y-58421820D01*
X99920188Y-58541518D01*
X99907928Y-58666000D01*
X99911000Y-59680250D01*
X100069750Y-59839000D01*
X101219000Y-59839000D01*
X101219000Y-59819000D01*
X101473000Y-59819000D01*
X101473000Y-59839000D01*
X102622250Y-59839000D01*
X102781000Y-59680250D01*
X102784072Y-58666000D01*
X102771812Y-58541518D01*
X102735502Y-58421820D01*
X102676537Y-58311506D01*
X102597185Y-58214815D01*
X102500494Y-58135463D01*
X102447187Y-58106969D01*
X102523962Y-58043962D01*
X102634405Y-57909386D01*
X102716472Y-57755850D01*
X102767008Y-57589254D01*
X102784072Y-57416000D01*
X102784072Y-55316000D01*
X102767008Y-55142746D01*
X102716472Y-54976150D01*
X102682201Y-54912034D01*
X102896241Y-54697995D01*
X102930159Y-54670159D01*
X103041253Y-54534791D01*
X103123803Y-54380351D01*
X103145249Y-54309651D01*
X103165792Y-54292792D01*
X103275458Y-54159164D01*
X103356947Y-54006709D01*
X103407128Y-53841285D01*
X103424072Y-53669250D01*
X103424072Y-52756750D01*
X103407128Y-52584715D01*
X103356947Y-52419291D01*
X103275458Y-52266836D01*
X103165792Y-52133208D01*
X103032164Y-52023542D01*
X102879709Y-51942053D01*
X102790556Y-51915009D01*
X102822829Y-51897758D01*
X102942251Y-51799751D01*
X103040258Y-51680329D01*
X103113084Y-51544082D01*
X103157929Y-51396245D01*
X103173072Y-51242500D01*
X103173072Y-49592500D01*
X103157929Y-49438755D01*
X103113084Y-49290918D01*
X103040258Y-49154671D01*
X102995000Y-49099524D01*
X102995000Y-48827827D01*
X103021774Y-48809937D01*
X103165937Y-48665774D01*
X103279205Y-48496256D01*
X103357226Y-48307898D01*
X103397000Y-48107939D01*
X103397000Y-47904061D01*
X103357226Y-47704102D01*
X103279205Y-47515744D01*
X103165937Y-47346226D01*
X103021774Y-47202063D01*
X102852256Y-47088795D01*
X102687018Y-47020351D01*
X102822829Y-46947758D01*
X102942251Y-46849751D01*
X103040258Y-46730329D01*
X103113084Y-46594082D01*
X103157929Y-46446245D01*
X103173072Y-46292500D01*
X103173072Y-44642500D01*
X103157929Y-44488755D01*
X103153757Y-44475000D01*
X103480000Y-44475000D01*
X103480001Y-63801725D01*
X103426168Y-63531088D01*
X103302918Y-63233537D01*
X103123987Y-62965748D01*
X102896252Y-62738013D01*
X102628463Y-62559082D01*
X102330912Y-62435832D01*
X102015033Y-62373000D01*
X101692967Y-62373000D01*
X101377088Y-62435832D01*
X101079537Y-62559082D01*
X100811748Y-62738013D01*
X100584013Y-62965748D01*
X100405082Y-63233537D01*
X100281832Y-63531088D01*
X100219000Y-63846967D01*
X100219000Y-64169033D01*
X100281832Y-64484912D01*
X100405082Y-64782463D01*
X100584013Y-65050252D01*
X100659761Y-65126000D01*
X93717607Y-65126000D01*
X93772458Y-65059164D01*
X93853947Y-64906709D01*
X93904128Y-64741285D01*
X93921072Y-64569250D01*
X93921072Y-64081750D01*
X93904128Y-63909715D01*
X93853947Y-63744291D01*
X93846250Y-63729890D01*
X95269024Y-63729890D01*
X95313675Y-63877099D01*
X95438859Y-64139920D01*
X95612912Y-64373269D01*
X95829145Y-64568178D01*
X96079248Y-64717157D01*
X96353609Y-64814481D01*
X96583500Y-64693814D01*
X96583500Y-63500000D01*
X96837500Y-63500000D01*
X96837500Y-64693814D01*
X97067391Y-64814481D01*
X97341752Y-64717157D01*
X97591855Y-64568178D01*
X97808088Y-64373269D01*
X97982141Y-64139920D01*
X98107325Y-63877099D01*
X98151976Y-63729890D01*
X98030655Y-63500000D01*
X96837500Y-63500000D01*
X96583500Y-63500000D01*
X95390345Y-63500000D01*
X95269024Y-63729890D01*
X93846250Y-63729890D01*
X93772458Y-63591836D01*
X93662792Y-63458208D01*
X93577244Y-63388000D01*
X93662792Y-63317792D01*
X93772458Y-63184164D01*
X93853947Y-63031709D01*
X93904128Y-62866285D01*
X93921072Y-62694250D01*
X93921072Y-62206750D01*
X93904128Y-62034715D01*
X93853947Y-61869291D01*
X93772458Y-61716836D01*
X93666115Y-61587258D01*
X93701386Y-61568405D01*
X93835962Y-61457962D01*
X93946405Y-61323386D01*
X94028472Y-61169850D01*
X94079008Y-61003254D01*
X94096072Y-60830000D01*
X94096072Y-60080000D01*
X94079008Y-59906746D01*
X94028472Y-59740150D01*
X93946405Y-59586614D01*
X93835962Y-59452038D01*
X93701386Y-59341595D01*
X93547850Y-59259528D01*
X93381254Y-59208992D01*
X93208000Y-59191928D01*
X91958000Y-59191928D01*
X91784746Y-59208992D01*
X91618150Y-59259528D01*
X91464614Y-59341595D01*
X91330038Y-59452038D01*
X91219595Y-59586614D01*
X91137528Y-59740150D01*
X91086992Y-59906746D01*
X91069928Y-60080000D01*
X91069928Y-60830000D01*
X91086992Y-61003254D01*
X91137528Y-61169850D01*
X91219595Y-61323386D01*
X91330038Y-61457962D01*
X91464614Y-61568405D01*
X91499885Y-61587258D01*
X91393542Y-61716836D01*
X91312053Y-61869291D01*
X91261872Y-62034715D01*
X91244928Y-62206750D01*
X91244928Y-62694250D01*
X91261872Y-62866285D01*
X91312053Y-63031709D01*
X91393542Y-63184164D01*
X91503208Y-63317792D01*
X91588756Y-63388000D01*
X91529659Y-63436500D01*
X90892547Y-63436500D01*
X90789398Y-63393774D01*
X90589439Y-63354000D01*
X90385561Y-63354000D01*
X90185602Y-63393774D01*
X90001577Y-63470000D01*
X89254841Y-63470000D01*
X89195744Y-63421500D01*
X89281292Y-63351292D01*
X89390958Y-63217664D01*
X89472447Y-63065209D01*
X89522628Y-62899785D01*
X89539572Y-62727750D01*
X89539572Y-62240250D01*
X89522628Y-62068215D01*
X89472447Y-61902791D01*
X89390958Y-61750336D01*
X89291612Y-61629283D01*
X89357986Y-61593805D01*
X89492562Y-61483362D01*
X89603005Y-61348786D01*
X89685072Y-61195250D01*
X89735608Y-61028654D01*
X89752672Y-60855400D01*
X89752672Y-60105400D01*
X89735608Y-59932146D01*
X89685072Y-59765550D01*
X89603005Y-59612014D01*
X89492562Y-59477438D01*
X89357986Y-59366995D01*
X89204450Y-59284928D01*
X89037854Y-59234392D01*
X88864600Y-59217328D01*
X87614600Y-59217328D01*
X87610950Y-59217687D01*
X87610950Y-58943113D01*
X87614600Y-58943472D01*
X88864600Y-58943472D01*
X89037854Y-58926408D01*
X89204450Y-58875872D01*
X89357986Y-58793805D01*
X89492562Y-58683362D01*
X89603005Y-58548786D01*
X89685072Y-58395250D01*
X89735608Y-58228654D01*
X89752672Y-58055400D01*
X89752672Y-57305400D01*
X89735608Y-57132146D01*
X89685072Y-56965550D01*
X89603005Y-56812014D01*
X89492562Y-56677438D01*
X89357986Y-56566995D01*
X89204450Y-56484928D01*
X89037854Y-56434392D01*
X88976200Y-56428320D01*
X88976200Y-56251372D01*
X88988900Y-56251372D01*
X89113382Y-56239112D01*
X89233080Y-56202802D01*
X89343394Y-56143837D01*
X89440085Y-56064485D01*
X89519437Y-55967794D01*
X89578402Y-55857480D01*
X89614712Y-55737782D01*
X89618216Y-55702200D01*
X90083017Y-55702200D01*
X90119200Y-55705764D01*
X90155383Y-55702200D01*
X90155386Y-55702200D01*
X90263599Y-55691542D01*
X90278274Y-55687090D01*
X90322061Y-55695800D01*
X90525939Y-55695800D01*
X90725898Y-55656026D01*
X90914256Y-55578005D01*
X91083774Y-55464737D01*
X91227937Y-55320574D01*
X91245260Y-55294648D01*
X91269598Y-55374880D01*
X91328563Y-55485194D01*
X91353532Y-55515618D01*
X91224100Y-55645050D01*
X91235210Y-55747080D01*
X91273297Y-55866224D01*
X91333896Y-55975649D01*
X91414678Y-56071148D01*
X91512539Y-56149053D01*
X91623719Y-56206370D01*
X91743944Y-56240895D01*
X91868594Y-56251301D01*
X92322650Y-56248300D01*
X92481400Y-56089550D01*
X92481400Y-55768772D01*
X92735400Y-55768772D01*
X92735400Y-56089550D01*
X92894150Y-56248300D01*
X92922701Y-56248489D01*
X92922701Y-56273590D01*
X92804363Y-56391928D01*
X91958000Y-56391928D01*
X91784746Y-56408992D01*
X91618150Y-56459528D01*
X91464614Y-56541595D01*
X91330038Y-56652038D01*
X91219595Y-56786614D01*
X91137528Y-56940150D01*
X91086992Y-57106746D01*
X91069928Y-57280000D01*
X91069928Y-58030000D01*
X91086992Y-58203254D01*
X91137528Y-58369850D01*
X91219595Y-58523386D01*
X91330038Y-58657962D01*
X91464614Y-58768405D01*
X91618150Y-58850472D01*
X91784746Y-58901008D01*
X91958000Y-58918072D01*
X93208000Y-58918072D01*
X93381254Y-58901008D01*
X93547850Y-58850472D01*
X93701386Y-58768405D01*
X93835962Y-58657962D01*
X93946405Y-58523386D01*
X94028472Y-58369850D01*
X94079008Y-58203254D01*
X94096072Y-58030000D01*
X94096072Y-57280000D01*
X94087432Y-57192277D01*
X94154569Y-57125140D01*
X94182675Y-57102074D01*
X94274725Y-56989912D01*
X94343123Y-56861948D01*
X94385243Y-56723098D01*
X94395901Y-56614885D01*
X94395901Y-56614876D01*
X94399464Y-56578700D01*
X94395901Y-56542524D01*
X94395901Y-53976500D01*
X94647428Y-53976500D01*
X94659688Y-54100982D01*
X94695998Y-54220680D01*
X94754963Y-54330994D01*
X94834315Y-54427685D01*
X94931006Y-54507037D01*
X95041320Y-54566002D01*
X95161018Y-54602312D01*
X95285500Y-54614572D01*
X95487250Y-54611500D01*
X95646000Y-54452750D01*
X95646000Y-53403500D01*
X94809250Y-53403500D01*
X94650500Y-53562250D01*
X94647428Y-53976500D01*
X94395901Y-53976500D01*
X94395901Y-53601584D01*
X94399465Y-53565400D01*
X94389773Y-53467000D01*
X94385243Y-53421002D01*
X94343123Y-53282152D01*
X94274725Y-53154188D01*
X94182676Y-53042026D01*
X94154564Y-53018955D01*
X94107346Y-52971737D01*
X94084275Y-52943625D01*
X93972113Y-52851576D01*
X93844149Y-52783178D01*
X93705299Y-52741058D01*
X93644249Y-52735045D01*
X93601880Y-52712398D01*
X93482182Y-52676088D01*
X93357700Y-52663828D01*
X91859100Y-52663828D01*
X91734618Y-52676088D01*
X91614920Y-52712398D01*
X91504606Y-52771363D01*
X91407915Y-52850715D01*
X91328563Y-52947406D01*
X91269598Y-53057720D01*
X91233288Y-53177418D01*
X91221028Y-53301900D01*
X91221028Y-53632100D01*
X91228726Y-53710264D01*
X91227557Y-53721000D01*
X90859707Y-53721000D01*
X90725898Y-53665574D01*
X90525939Y-53625800D01*
X90322061Y-53625800D01*
X90122102Y-53665574D01*
X89933744Y-53743595D01*
X89764226Y-53856863D01*
X89626972Y-53994117D01*
X89626972Y-53784500D01*
X89619467Y-53708300D01*
X89626972Y-53632100D01*
X89626972Y-53301900D01*
X89614712Y-53177418D01*
X89578402Y-53057720D01*
X89519437Y-52947406D01*
X89440085Y-52850715D01*
X89343394Y-52771363D01*
X89233080Y-52712398D01*
X89113382Y-52676088D01*
X88988900Y-52663828D01*
X88835608Y-52663828D01*
X88763940Y-52576500D01*
X94647428Y-52576500D01*
X94650500Y-52990750D01*
X94809250Y-53149500D01*
X95646000Y-53149500D01*
X95646000Y-52100250D01*
X95487250Y-51941500D01*
X95285500Y-51938428D01*
X95161018Y-51950688D01*
X95041320Y-51986998D01*
X94931006Y-52045963D01*
X94834315Y-52125315D01*
X94754963Y-52222006D01*
X94695998Y-52332320D01*
X94659688Y-52452018D01*
X94647428Y-52576500D01*
X88763940Y-52576500D01*
X88762975Y-52575325D01*
X88734869Y-52552259D01*
X88062145Y-51879536D01*
X88039075Y-51851425D01*
X87926913Y-51759376D01*
X87798949Y-51690978D01*
X87660099Y-51648858D01*
X87551886Y-51638200D01*
X87551883Y-51638200D01*
X87515700Y-51634636D01*
X87479517Y-51638200D01*
X87391911Y-51638200D01*
X87324574Y-51570863D01*
X87155056Y-51457595D01*
X86966698Y-51379574D01*
X86766739Y-51339800D01*
X86562861Y-51339800D01*
X86362902Y-51379574D01*
X86174544Y-51457595D01*
X86005026Y-51570863D01*
X85860863Y-51715026D01*
X85747595Y-51884544D01*
X85669574Y-52072902D01*
X85629800Y-52272861D01*
X85629800Y-52476739D01*
X85669574Y-52676698D01*
X85747595Y-52865056D01*
X85860863Y-53034574D01*
X86005026Y-53178737D01*
X86174544Y-53292005D01*
X86362902Y-53370026D01*
X86562861Y-53409800D01*
X86766739Y-53409800D01*
X86789177Y-53405337D01*
X86763725Y-53426225D01*
X86740654Y-53454337D01*
X86379082Y-53815909D01*
X86350975Y-53838976D01*
X86327909Y-53867082D01*
X86327908Y-53867083D01*
X86281033Y-53924200D01*
X86258926Y-53951138D01*
X86190528Y-54079102D01*
X86148408Y-54217952D01*
X86139779Y-54305565D01*
X86134186Y-54362350D01*
X86137750Y-54398533D01*
X86137751Y-62699900D01*
X85427602Y-62699900D01*
X85378206Y-62607486D01*
X85192634Y-62381366D01*
X85162813Y-62356893D01*
X85231680Y-62336002D01*
X85341994Y-62277037D01*
X85438685Y-62197685D01*
X85518037Y-62100994D01*
X85577002Y-61990680D01*
X85613312Y-61870982D01*
X85625572Y-61746500D01*
X85625572Y-60046500D01*
X85613312Y-59922018D01*
X85577002Y-59802320D01*
X85518037Y-59692006D01*
X85438685Y-59595315D01*
X85341994Y-59515963D01*
X85231680Y-59456998D01*
X85111982Y-59420688D01*
X84987500Y-59408428D01*
X83388200Y-59408428D01*
X83388200Y-59170265D01*
X83534250Y-59169300D01*
X83693000Y-59010550D01*
X83693000Y-58689772D01*
X83947000Y-58689772D01*
X83947000Y-59010550D01*
X84105750Y-59169300D01*
X84559806Y-59172301D01*
X84684456Y-59161895D01*
X84804681Y-59127370D01*
X84915861Y-59070053D01*
X85013722Y-58992148D01*
X85094504Y-58896649D01*
X85155103Y-58787224D01*
X85193190Y-58668080D01*
X85204300Y-58566050D01*
X85074868Y-58436618D01*
X85099837Y-58406194D01*
X85158802Y-58295880D01*
X85192780Y-58183870D01*
X85204300Y-58172350D01*
X85199674Y-58129864D01*
X85207372Y-58051700D01*
X85207372Y-57721500D01*
X85198616Y-57632600D01*
X85207372Y-57543700D01*
X85207372Y-57484812D01*
X85318057Y-57393975D01*
X85341128Y-57365863D01*
X85366169Y-57340822D01*
X85394275Y-57317756D01*
X85486325Y-57205594D01*
X85554723Y-57077630D01*
X85596843Y-56938780D01*
X85607501Y-56830567D01*
X85607501Y-56830566D01*
X85611065Y-56794381D01*
X85607501Y-56758195D01*
X85607501Y-56008282D01*
X85611065Y-55972098D01*
X85607091Y-55931750D01*
X85596843Y-55827700D01*
X85554723Y-55688850D01*
X85509458Y-55604164D01*
X85486325Y-55560885D01*
X85446094Y-55511864D01*
X85394276Y-55448724D01*
X85366164Y-55425653D01*
X84944248Y-55003737D01*
X84921177Y-54975625D01*
X84809015Y-54883576D01*
X84681051Y-54815178D01*
X84542201Y-54773058D01*
X84433988Y-54762400D01*
X84433985Y-54762400D01*
X84397802Y-54758836D01*
X84361619Y-54762400D01*
X83871110Y-54762400D01*
X83667600Y-54558891D01*
X83667600Y-54193072D01*
X83781000Y-54193072D01*
X83905482Y-54180812D01*
X84025180Y-54144502D01*
X84135494Y-54085537D01*
X84232185Y-54006185D01*
X84311537Y-53909494D01*
X84370502Y-53799180D01*
X84406812Y-53679482D01*
X84419072Y-53555000D01*
X84419072Y-53370470D01*
X84430742Y-53331999D01*
X84444964Y-53187600D01*
X84430742Y-53043201D01*
X84419072Y-53004730D01*
X84419072Y-51855000D01*
X84406812Y-51730518D01*
X84370502Y-51610820D01*
X84311537Y-51500506D01*
X84232185Y-51403815D01*
X84135494Y-51324463D01*
X84025180Y-51265498D01*
X83905482Y-51229188D01*
X83781000Y-51216928D01*
X82081000Y-51216928D01*
X81956518Y-51229188D01*
X81836820Y-51265498D01*
X81726506Y-51324463D01*
X81629815Y-51403815D01*
X81550463Y-51500506D01*
X81491498Y-51610820D01*
X81470607Y-51679687D01*
X81446134Y-51649866D01*
X81220014Y-51464294D01*
X80962034Y-51326401D01*
X80682111Y-51241487D01*
X80463950Y-51220000D01*
X80318050Y-51220000D01*
X80099889Y-51241487D01*
X79819966Y-51326401D01*
X79561986Y-51464294D01*
X79335866Y-51649866D01*
X79150294Y-51875986D01*
X79012401Y-52133966D01*
X78927487Y-52413889D01*
X78898815Y-52705000D01*
X78927487Y-52996111D01*
X79005199Y-53252292D01*
X78384000Y-53873491D01*
X78384000Y-50344000D01*
X83651928Y-50344000D01*
X83664188Y-50468482D01*
X83700498Y-50588180D01*
X83759463Y-50698494D01*
X83838815Y-50795185D01*
X83935506Y-50874537D01*
X84045820Y-50933502D01*
X84165518Y-50969812D01*
X84290000Y-50982072D01*
X84804250Y-50979000D01*
X84963000Y-50820250D01*
X84963000Y-49171000D01*
X85217000Y-49171000D01*
X85217000Y-50820250D01*
X85375750Y-50979000D01*
X85890000Y-50982072D01*
X86014482Y-50969812D01*
X86134180Y-50933502D01*
X86170294Y-50914198D01*
X92610230Y-50914198D01*
X92622490Y-51038680D01*
X92658800Y-51158378D01*
X92717765Y-51268692D01*
X92797117Y-51365383D01*
X92893808Y-51444735D01*
X93004122Y-51503700D01*
X93123820Y-51540010D01*
X93248302Y-51552270D01*
X94011750Y-51549198D01*
X94170500Y-51390448D01*
X94170500Y-49911000D01*
X94424500Y-49911000D01*
X94424500Y-51390448D01*
X94583250Y-51549198D01*
X95346698Y-51552270D01*
X95471180Y-51540010D01*
X95590878Y-51503700D01*
X95701192Y-51444735D01*
X95797883Y-51365383D01*
X95877235Y-51268692D01*
X95936200Y-51158378D01*
X95972510Y-51038680D01*
X95984770Y-50914198D01*
X95981698Y-50069750D01*
X95822948Y-49911000D01*
X94424500Y-49911000D01*
X94170500Y-49911000D01*
X92772052Y-49911000D01*
X92613302Y-50069750D01*
X92610230Y-50914198D01*
X86170294Y-50914198D01*
X86244494Y-50874537D01*
X86341185Y-50795185D01*
X86420537Y-50698494D01*
X86479502Y-50588180D01*
X86515812Y-50468482D01*
X86528072Y-50344000D01*
X86525000Y-49329750D01*
X86366250Y-49171000D01*
X85217000Y-49171000D01*
X84963000Y-49171000D01*
X83813750Y-49171000D01*
X83655000Y-49329750D01*
X83651928Y-50344000D01*
X78384000Y-50344000D01*
X78384000Y-49237000D01*
X78775928Y-49237000D01*
X78788188Y-49361482D01*
X78824498Y-49481180D01*
X78883463Y-49591494D01*
X78962815Y-49688185D01*
X79059506Y-49767537D01*
X79169820Y-49826502D01*
X79289518Y-49862812D01*
X79414000Y-49875072D01*
X79978250Y-49872000D01*
X80137000Y-49713250D01*
X80137000Y-48514000D01*
X80391000Y-48514000D01*
X80391000Y-49713250D01*
X80549750Y-49872000D01*
X81114000Y-49875072D01*
X81238482Y-49862812D01*
X81358180Y-49826502D01*
X81468494Y-49767537D01*
X81565185Y-49688185D01*
X81644537Y-49591494D01*
X81703502Y-49481180D01*
X81739812Y-49361482D01*
X81752072Y-49237000D01*
X81749000Y-48672750D01*
X81590250Y-48514000D01*
X80391000Y-48514000D01*
X80137000Y-48514000D01*
X78937750Y-48514000D01*
X78779000Y-48672750D01*
X78775928Y-49237000D01*
X78384000Y-49237000D01*
X78384000Y-44475000D01*
X79680620Y-44475000D01*
X79434986Y-44606294D01*
G36*
X88710750Y-46609000D02*
G01*
X88689002Y-46609000D01*
X88689002Y-46495072D01*
X88824678Y-46495072D01*
X88710750Y-46609000D01*
X88710750Y-46609000D01*
G37*
X88710750Y-46609000D02*
X88689002Y-46609000D01*
X88689002Y-46495072D01*
X88824678Y-46495072D01*
X88710750Y-46609000D01*
G36*
X88434998Y-46609000D02*
G01*
X88413250Y-46609000D01*
X88299322Y-46495072D01*
X88434998Y-46495072D01*
X88434998Y-46609000D01*
X88434998Y-46609000D01*
G37*
X88434998Y-46609000D02*
X88413250Y-46609000D01*
X88299322Y-46495072D01*
X88434998Y-46495072D01*
X88434998Y-46609000D01*
M02*
