G04 #@! TF.GenerationSoftware,KiCad,Pcbnew,(5.1.4-0-10_14)*
G04 #@! TF.CreationDate,2019-10-07T20:38:55-07:00*
G04 #@! TF.ProjectId,SoftButtonBoardMux555,536f6674-4275-4747-946f-6e426f617264,rev?*
G04 #@! TF.SameCoordinates,Original*
G04 #@! TF.FileFunction,Legend,Top*
G04 #@! TF.FilePolarity,Positive*
%FSLAX46Y46*%
G04 Gerber Fmt 4.6, Leading zero omitted, Abs format (unit mm)*
G04 Created by KiCad (PCBNEW (5.1.4-0-10_14)) date 2019-10-07 20:38:55*
%MOMM*%
%LPD*%
G04 APERTURE LIST*
%ADD10C,0.150000*%
%ADD11C,0.127000*%
%ADD12C,0.100000*%
%ADD13C,0.120000*%
%ADD14C,0.152400*%
%ADD15C,0.114300*%
%ADD16C,0.121920*%
G04 APERTURE END LIST*
D10*
X95885047Y-44267428D02*
X96646952Y-44267428D01*
X96266000Y-44648380D02*
X96266000Y-43886476D01*
D11*
X78066900Y-48928866D02*
X78033033Y-48996600D01*
X78033033Y-49098200D01*
X78066900Y-49199800D01*
X78134633Y-49267533D01*
X78202366Y-49301400D01*
X78337833Y-49335266D01*
X78439433Y-49335266D01*
X78574900Y-49301400D01*
X78642633Y-49267533D01*
X78710366Y-49199800D01*
X78744233Y-49098200D01*
X78744233Y-49030466D01*
X78710366Y-48928866D01*
X78676500Y-48895000D01*
X78439433Y-48895000D01*
X78439433Y-49030466D01*
X78744233Y-48590200D02*
X78033033Y-48590200D01*
X78744233Y-48183800D01*
X78033033Y-48183800D01*
X78744233Y-47845133D02*
X78033033Y-47845133D01*
X78033033Y-47675800D01*
X78066900Y-47574200D01*
X78134633Y-47506466D01*
X78202366Y-47472600D01*
X78337833Y-47438733D01*
X78439433Y-47438733D01*
X78574900Y-47472600D01*
X78642633Y-47506466D01*
X78710366Y-47574200D01*
X78744233Y-47675800D01*
X78744233Y-47845133D01*
D12*
X103856366Y-64566800D02*
X103890233Y-64465200D01*
X103890233Y-64295866D01*
X103856366Y-64228133D01*
X103822500Y-64194266D01*
X103754766Y-64160400D01*
X103687033Y-64160400D01*
X103619300Y-64194266D01*
X103585433Y-64228133D01*
X103551566Y-64295866D01*
X103517700Y-64431333D01*
X103483833Y-64499066D01*
X103449966Y-64532933D01*
X103382233Y-64566800D01*
X103314500Y-64566800D01*
X103246766Y-64532933D01*
X103212900Y-64499066D01*
X103179033Y-64431333D01*
X103179033Y-64262000D01*
X103212900Y-64160400D01*
X103890233Y-63754000D02*
X103856366Y-63821733D01*
X103822500Y-63855600D01*
X103754766Y-63889466D01*
X103551566Y-63889466D01*
X103483833Y-63855600D01*
X103449966Y-63821733D01*
X103416100Y-63754000D01*
X103416100Y-63652400D01*
X103449966Y-63584666D01*
X103483833Y-63550800D01*
X103551566Y-63516933D01*
X103754766Y-63516933D01*
X103822500Y-63550800D01*
X103856366Y-63584666D01*
X103890233Y-63652400D01*
X103890233Y-63754000D01*
X103416100Y-63313733D02*
X103416100Y-63042800D01*
X103890233Y-63212133D02*
X103280633Y-63212133D01*
X103212900Y-63178266D01*
X103179033Y-63110533D01*
X103179033Y-63042800D01*
X103416100Y-62907333D02*
X103416100Y-62636400D01*
X103179033Y-62805733D02*
X103788633Y-62805733D01*
X103856366Y-62771866D01*
X103890233Y-62704133D01*
X103890233Y-62636400D01*
X103517700Y-61620400D02*
X103551566Y-61518800D01*
X103585433Y-61484933D01*
X103653166Y-61451066D01*
X103754766Y-61451066D01*
X103822500Y-61484933D01*
X103856366Y-61518800D01*
X103890233Y-61586533D01*
X103890233Y-61857466D01*
X103179033Y-61857466D01*
X103179033Y-61620400D01*
X103212900Y-61552666D01*
X103246766Y-61518800D01*
X103314500Y-61484933D01*
X103382233Y-61484933D01*
X103449966Y-61518800D01*
X103483833Y-61552666D01*
X103517700Y-61620400D01*
X103517700Y-61857466D01*
X103416100Y-61247866D02*
X103416100Y-60976933D01*
X103179033Y-61146266D02*
X103788633Y-61146266D01*
X103856366Y-61112400D01*
X103890233Y-61044666D01*
X103890233Y-60976933D01*
X103416100Y-60739866D02*
X103890233Y-60739866D01*
X103483833Y-60739866D02*
X103449966Y-60706000D01*
X103416100Y-60638266D01*
X103416100Y-60536666D01*
X103449966Y-60468933D01*
X103517700Y-60435066D01*
X103890233Y-60435066D01*
X103890233Y-59554533D02*
X103179033Y-59554533D01*
X103687033Y-59317466D01*
X103179033Y-59080400D01*
X103890233Y-59080400D01*
X103416100Y-58436933D02*
X103890233Y-58436933D01*
X103416100Y-58741733D02*
X103788633Y-58741733D01*
X103856366Y-58707866D01*
X103890233Y-58640133D01*
X103890233Y-58538533D01*
X103856366Y-58470800D01*
X103822500Y-58436933D01*
X103890233Y-58166000D02*
X103416100Y-57793466D01*
X103416100Y-58166000D02*
X103890233Y-57793466D01*
X103179033Y-56642000D02*
X103179033Y-56980666D01*
X103517700Y-57014533D01*
X103483833Y-56980666D01*
X103449966Y-56912933D01*
X103449966Y-56743600D01*
X103483833Y-56675866D01*
X103517700Y-56642000D01*
X103585433Y-56608133D01*
X103754766Y-56608133D01*
X103822500Y-56642000D01*
X103856366Y-56675866D01*
X103890233Y-56743600D01*
X103890233Y-56912933D01*
X103856366Y-56980666D01*
X103822500Y-57014533D01*
X103179033Y-55964666D02*
X103179033Y-56303333D01*
X103517700Y-56337200D01*
X103483833Y-56303333D01*
X103449966Y-56235600D01*
X103449966Y-56066266D01*
X103483833Y-55998533D01*
X103517700Y-55964666D01*
X103585433Y-55930800D01*
X103754766Y-55930800D01*
X103822500Y-55964666D01*
X103856366Y-55998533D01*
X103890233Y-56066266D01*
X103890233Y-56235600D01*
X103856366Y-56303333D01*
X103822500Y-56337200D01*
X103179033Y-55287333D02*
X103179033Y-55626000D01*
X103517700Y-55659866D01*
X103483833Y-55626000D01*
X103449966Y-55558266D01*
X103449966Y-55388933D01*
X103483833Y-55321200D01*
X103517700Y-55287333D01*
X103585433Y-55253466D01*
X103754766Y-55253466D01*
X103822500Y-55287333D01*
X103856366Y-55321200D01*
X103890233Y-55388933D01*
X103890233Y-55558266D01*
X103856366Y-55626000D01*
X103822500Y-55659866D01*
X103517700Y-54169733D02*
X103551566Y-54068133D01*
X103585433Y-54034266D01*
X103653166Y-54000400D01*
X103754766Y-54000400D01*
X103822500Y-54034266D01*
X103856366Y-54068133D01*
X103890233Y-54135866D01*
X103890233Y-54406800D01*
X103179033Y-54406800D01*
X103179033Y-54169733D01*
X103212900Y-54102000D01*
X103246766Y-54068133D01*
X103314500Y-54034266D01*
X103382233Y-54034266D01*
X103449966Y-54068133D01*
X103483833Y-54102000D01*
X103517700Y-54169733D01*
X103517700Y-54406800D01*
X103890233Y-53695600D02*
X103416100Y-53695600D01*
X103551566Y-53695600D02*
X103483833Y-53661733D01*
X103449966Y-53627866D01*
X103416100Y-53560133D01*
X103416100Y-53492400D01*
X103890233Y-52950533D02*
X103179033Y-52950533D01*
X103856366Y-52950533D02*
X103890233Y-53018266D01*
X103890233Y-53153733D01*
X103856366Y-53221466D01*
X103822500Y-53255333D01*
X103754766Y-53289200D01*
X103551566Y-53289200D01*
X103483833Y-53255333D01*
X103449966Y-53221466D01*
X103416100Y-53153733D01*
X103416100Y-53018266D01*
X103449966Y-52950533D01*
X103416100Y-52137733D02*
X103890233Y-51968400D01*
X103416100Y-51799066D01*
X103890233Y-51155600D02*
X103890233Y-51562000D01*
X103890233Y-51358800D02*
X103179033Y-51358800D01*
X103280633Y-51426533D01*
X103348366Y-51494266D01*
X103382233Y-51562000D01*
X103822500Y-50850800D02*
X103856366Y-50816933D01*
X103890233Y-50850800D01*
X103856366Y-50884666D01*
X103822500Y-50850800D01*
X103890233Y-50850800D01*
X103179033Y-50579866D02*
X103179033Y-50139600D01*
X103449966Y-50376666D01*
X103449966Y-50275066D01*
X103483833Y-50207333D01*
X103517700Y-50173466D01*
X103585433Y-50139600D01*
X103754766Y-50139600D01*
X103822500Y-50173466D01*
X103856366Y-50207333D01*
X103890233Y-50275066D01*
X103890233Y-50478266D01*
X103856366Y-50546000D01*
X103822500Y-50579866D01*
X103890233Y-48920400D02*
X103890233Y-49326800D01*
X103890233Y-49123600D02*
X103179033Y-49123600D01*
X103280633Y-49191333D01*
X103348366Y-49259066D01*
X103382233Y-49326800D01*
X103179033Y-48480133D02*
X103179033Y-48412400D01*
X103212900Y-48344666D01*
X103246766Y-48310800D01*
X103314500Y-48276933D01*
X103449966Y-48243066D01*
X103619300Y-48243066D01*
X103754766Y-48276933D01*
X103822500Y-48310800D01*
X103856366Y-48344666D01*
X103890233Y-48412400D01*
X103890233Y-48480133D01*
X103856366Y-48547866D01*
X103822500Y-48581733D01*
X103754766Y-48615600D01*
X103619300Y-48649466D01*
X103449966Y-48649466D01*
X103314500Y-48615600D01*
X103246766Y-48581733D01*
X103212900Y-48547866D01*
X103179033Y-48480133D01*
X103619300Y-47938266D02*
X103619300Y-47396400D01*
X103246766Y-47091600D02*
X103212900Y-47057733D01*
X103179033Y-46990000D01*
X103179033Y-46820666D01*
X103212900Y-46752933D01*
X103246766Y-46719066D01*
X103314500Y-46685200D01*
X103382233Y-46685200D01*
X103483833Y-46719066D01*
X103890233Y-47125466D01*
X103890233Y-46685200D01*
X103179033Y-46244933D02*
X103179033Y-46177200D01*
X103212900Y-46109466D01*
X103246766Y-46075600D01*
X103314500Y-46041733D01*
X103449966Y-46007866D01*
X103619300Y-46007866D01*
X103754766Y-46041733D01*
X103822500Y-46075600D01*
X103856366Y-46109466D01*
X103890233Y-46177200D01*
X103890233Y-46244933D01*
X103856366Y-46312666D01*
X103822500Y-46346533D01*
X103754766Y-46380400D01*
X103619300Y-46414266D01*
X103449966Y-46414266D01*
X103314500Y-46380400D01*
X103246766Y-46346533D01*
X103212900Y-46312666D01*
X103179033Y-46244933D01*
X103890233Y-45330533D02*
X103890233Y-45736933D01*
X103890233Y-45533733D02*
X103179033Y-45533733D01*
X103280633Y-45601466D01*
X103348366Y-45669200D01*
X103382233Y-45736933D01*
X103890233Y-44991866D02*
X103890233Y-44856400D01*
X103856366Y-44788666D01*
X103822500Y-44754800D01*
X103720900Y-44687066D01*
X103585433Y-44653200D01*
X103314500Y-44653200D01*
X103246766Y-44687066D01*
X103212900Y-44720933D01*
X103179033Y-44788666D01*
X103179033Y-44924133D01*
X103212900Y-44991866D01*
X103246766Y-45025733D01*
X103314500Y-45059600D01*
X103483833Y-45059600D01*
X103551566Y-45025733D01*
X103585433Y-44991866D01*
X103619300Y-44924133D01*
X103619300Y-44788666D01*
X103585433Y-44720933D01*
X103551566Y-44687066D01*
X103483833Y-44653200D01*
D11*
X78409800Y-46791033D02*
X78409800Y-46249166D01*
X78680733Y-46520100D02*
X78138866Y-46520100D01*
X78680733Y-45876633D02*
X78680733Y-45741166D01*
X78646866Y-45673433D01*
X78613000Y-45639566D01*
X78511400Y-45571833D01*
X78375933Y-45537966D01*
X78105000Y-45537966D01*
X78037266Y-45571833D01*
X78003400Y-45605700D01*
X77969533Y-45673433D01*
X77969533Y-45808900D01*
X78003400Y-45876633D01*
X78037266Y-45910500D01*
X78105000Y-45944366D01*
X78274333Y-45944366D01*
X78342066Y-45910500D01*
X78375933Y-45876633D01*
X78409800Y-45808900D01*
X78409800Y-45673433D01*
X78375933Y-45605700D01*
X78342066Y-45571833D01*
X78274333Y-45537966D01*
X78206600Y-45300900D02*
X78680733Y-45131566D01*
X78206600Y-44962233D01*
X81906533Y-64626066D02*
X81906533Y-64219666D01*
X82617733Y-64422866D02*
X81906533Y-64422866D01*
X82617733Y-63881000D02*
X82583866Y-63948733D01*
X82550000Y-63982600D01*
X82482266Y-64016466D01*
X82279066Y-64016466D01*
X82211333Y-63982600D01*
X82177466Y-63948733D01*
X82143600Y-63881000D01*
X82143600Y-63779400D01*
X82177466Y-63711666D01*
X82211333Y-63677800D01*
X82279066Y-63643933D01*
X82482266Y-63643933D01*
X82550000Y-63677800D01*
X82583866Y-63711666D01*
X82617733Y-63779400D01*
X82617733Y-63881000D01*
X82245200Y-63339133D02*
X82245200Y-63102066D01*
X82617733Y-63000466D02*
X82617733Y-63339133D01*
X81906533Y-63339133D01*
X81906533Y-63000466D01*
X82143600Y-62797266D02*
X82143600Y-62526333D01*
X82617733Y-62695666D02*
X82008133Y-62695666D01*
X81940400Y-62661800D01*
X81906533Y-62594066D01*
X81906533Y-62526333D01*
X82143600Y-62390866D02*
X82143600Y-62119933D01*
X82617733Y-62289266D02*
X82008133Y-62289266D01*
X81940400Y-62255400D01*
X81906533Y-62187666D01*
X81906533Y-62119933D01*
X80029095Y-51161904D02*
X80029095Y-50361904D01*
X80410047Y-50628571D02*
X80410047Y-51161904D01*
X80410047Y-50704761D02*
X80448142Y-50666666D01*
X80524333Y-50628571D01*
X80638619Y-50628571D01*
X80714809Y-50666666D01*
X80752904Y-50742857D01*
X80752904Y-51161904D01*
X80187928Y-60775857D02*
X79921261Y-60775857D01*
X79921261Y-61194904D02*
X79921261Y-60394904D01*
X80302214Y-60394904D01*
X80606976Y-61194904D02*
X80606976Y-60661571D01*
X80606976Y-60813952D02*
X80645071Y-60737761D01*
X80683166Y-60699666D01*
X80759357Y-60661571D01*
X80835547Y-60661571D01*
X81102214Y-61194904D02*
X81102214Y-60661571D01*
X81102214Y-60737761D02*
X81140309Y-60699666D01*
X81216500Y-60661571D01*
X81330785Y-60661571D01*
X81406976Y-60699666D01*
X81445071Y-60775857D01*
X81445071Y-61194904D01*
X81445071Y-60775857D02*
X81483166Y-60699666D01*
X81559357Y-60661571D01*
X81673642Y-60661571D01*
X81749833Y-60699666D01*
X81787928Y-60775857D01*
X81787928Y-61194904D01*
X82168880Y-60775857D02*
X82435547Y-60775857D01*
X82549833Y-61194904D02*
X82168880Y-61194904D01*
X82168880Y-60394904D01*
X82549833Y-60394904D01*
X82200833Y-50361904D02*
X82353214Y-50361904D01*
X82429404Y-50400000D01*
X82505595Y-50476190D01*
X82543690Y-50628571D01*
X82543690Y-50895238D01*
X82505595Y-51047619D01*
X82429404Y-51123809D01*
X82353214Y-51161904D01*
X82200833Y-51161904D01*
X82124642Y-51123809D01*
X82048452Y-51047619D01*
X82010357Y-50895238D01*
X82010357Y-50628571D01*
X82048452Y-50476190D01*
X82124642Y-50400000D01*
X82200833Y-50361904D01*
X83229404Y-50628571D02*
X83229404Y-51161904D01*
X82886547Y-50628571D02*
X82886547Y-51047619D01*
X82924642Y-51123809D01*
X83000833Y-51161904D01*
X83115119Y-51161904D01*
X83191309Y-51123809D01*
X83229404Y-51085714D01*
X83496071Y-50628571D02*
X83800833Y-50628571D01*
X83610357Y-50361904D02*
X83610357Y-51047619D01*
X83648452Y-51123809D01*
X83724642Y-51161904D01*
X83800833Y-51161904D01*
D13*
X97389000Y-52006500D02*
X97389000Y-55456500D01*
X97389000Y-52006500D02*
X97389000Y-50056500D01*
X102509000Y-52006500D02*
X102509000Y-53956500D01*
X102509000Y-52006500D02*
X102509000Y-50056500D01*
X96333000Y-59757000D02*
X97663000Y-59757000D01*
X96333000Y-61087000D02*
X96333000Y-59757000D01*
X96333000Y-62357000D02*
X98993000Y-62357000D01*
X98993000Y-62357000D02*
X98993000Y-64957000D01*
X96333000Y-62357000D02*
X96333000Y-64957000D01*
X96333000Y-64957000D02*
X98993000Y-64957000D01*
X102691000Y-46638978D02*
X102691000Y-46121822D01*
X101271000Y-46638978D02*
X101271000Y-46121822D01*
X98547422Y-46633200D02*
X99064578Y-46633200D01*
X98547422Y-45213200D02*
X99064578Y-45213200D01*
X82807500Y-59566500D02*
X84137500Y-59566500D01*
X82807500Y-60896500D02*
X82807500Y-59566500D01*
X82807500Y-62166500D02*
X85467500Y-62166500D01*
X85467500Y-62166500D02*
X85467500Y-64766500D01*
X82807500Y-62166500D02*
X82807500Y-64766500D01*
X82807500Y-64766500D02*
X85467500Y-64766500D01*
D14*
X95679438Y-50888798D02*
X96024497Y-50888798D01*
X92915562Y-44634810D02*
X92570503Y-44634810D01*
X96024497Y-44634810D02*
X95679438Y-44634810D01*
X96024497Y-50888798D02*
X96024497Y-44634810D01*
X92570503Y-50888798D02*
X92915562Y-50888798D01*
X92570503Y-44634810D02*
X92570503Y-50888798D01*
X94678500Y-43291811D02*
X93916500Y-43291811D01*
X94297500Y-43672811D02*
X94297500Y-42910811D01*
D13*
X81594000Y-49717000D02*
X80264000Y-49717000D01*
X81594000Y-48387000D02*
X81594000Y-49717000D01*
X81594000Y-47117000D02*
X78934000Y-47117000D01*
X78934000Y-47117000D02*
X78934000Y-44517000D01*
X81594000Y-47117000D02*
X81594000Y-44517000D01*
X81594000Y-44517000D02*
X78934000Y-44517000D01*
X84261000Y-51375000D02*
X84261000Y-52705000D01*
X82931000Y-51375000D02*
X84261000Y-51375000D01*
X81661000Y-51375000D02*
X81661000Y-54035000D01*
X81661000Y-54035000D02*
X79061000Y-54035000D01*
X81661000Y-51375000D02*
X79061000Y-51375000D01*
X79061000Y-51375000D02*
X79061000Y-54035000D01*
X91448000Y-56770000D02*
X91448000Y-60655000D01*
X93718000Y-56770000D02*
X91448000Y-56770000D01*
X93718000Y-60655000D02*
X93718000Y-56770000D01*
X87104600Y-56795400D02*
X87104600Y-60680400D01*
X89374600Y-56795400D02*
X87104600Y-56795400D01*
X89374600Y-60680400D02*
X89374600Y-56795400D01*
X93213422Y-64083000D02*
X93730578Y-64083000D01*
X93213422Y-62663000D02*
X93730578Y-62663000D01*
X88895422Y-64083000D02*
X89412578Y-64083000D01*
X88895422Y-62663000D02*
X89412578Y-62663000D01*
X100452422Y-57987000D02*
X100969578Y-57987000D01*
X100452422Y-56567000D02*
X100969578Y-56567000D01*
X86900000Y-44494000D02*
X86400000Y-44494000D01*
X86650000Y-44244000D02*
X86650000Y-44744000D01*
X83894437Y-44984000D02*
X82830000Y-46048437D01*
X86285563Y-44984000D02*
X87350000Y-46048437D01*
X86285563Y-44984000D02*
X86150000Y-44984000D01*
X83894437Y-44984000D02*
X84030000Y-44984000D01*
X82830000Y-46048437D02*
X82830000Y-49504000D01*
X87350000Y-46048437D02*
X87350000Y-49504000D01*
X87350000Y-49504000D02*
X86150000Y-49504000D01*
X82830000Y-49504000D02*
X84030000Y-49504000D01*
D14*
X81940400Y-55829200D02*
G75*
G02X81330800Y-55829200I-304800J0D01*
G01*
X81330800Y-55829200D02*
X80086200Y-55829200D01*
X81940400Y-55829200D02*
X81330800Y-55829200D01*
X83185000Y-55829200D02*
X81940400Y-55829200D01*
X80086200Y-58928000D02*
X83185000Y-58928000D01*
X90728800Y-52908200D02*
G75*
G02X90119200Y-52908200I-304800J0D01*
G01*
X90119200Y-52908200D02*
X88874600Y-52908200D01*
X90728800Y-52908200D02*
X90119200Y-52908200D01*
X91973400Y-52908200D02*
X90728800Y-52908200D01*
X88874600Y-56007000D02*
X91973400Y-56007000D01*
D13*
X90562000Y-44745000D02*
X88112000Y-44745000D01*
X88762000Y-47965000D02*
X90562000Y-47965000D01*
D11*
X98289533Y-52484866D02*
X98865266Y-52484866D01*
X98933000Y-52451000D01*
X98966866Y-52417133D01*
X99000733Y-52349400D01*
X99000733Y-52213933D01*
X98966866Y-52146200D01*
X98933000Y-52112333D01*
X98865266Y-52078466D01*
X98289533Y-52078466D01*
X99000733Y-51367266D02*
X99000733Y-51773666D01*
X99000733Y-51570466D02*
X98289533Y-51570466D01*
X98391133Y-51638200D01*
X98458866Y-51705933D01*
X98492733Y-51773666D01*
X97095733Y-54322133D02*
X96384533Y-54322133D01*
X97095733Y-53915733D01*
X96384533Y-53915733D01*
X96723200Y-53577066D02*
X96723200Y-53340000D01*
X97095733Y-53238400D02*
X97095733Y-53577066D01*
X96384533Y-53577066D01*
X96384533Y-53238400D01*
X96384533Y-52594933D02*
X96384533Y-52933600D01*
X96723200Y-52967466D01*
X96689333Y-52933600D01*
X96655466Y-52865866D01*
X96655466Y-52696533D01*
X96689333Y-52628800D01*
X96723200Y-52594933D01*
X96790933Y-52561066D01*
X96960266Y-52561066D01*
X97028000Y-52594933D01*
X97061866Y-52628800D01*
X97095733Y-52696533D01*
X97095733Y-52865866D01*
X97061866Y-52933600D01*
X97028000Y-52967466D01*
X96384533Y-51917600D02*
X96384533Y-52256266D01*
X96723200Y-52290133D01*
X96689333Y-52256266D01*
X96655466Y-52188533D01*
X96655466Y-52019200D01*
X96689333Y-51951466D01*
X96723200Y-51917600D01*
X96790933Y-51883733D01*
X96960266Y-51883733D01*
X97028000Y-51917600D01*
X97061866Y-51951466D01*
X97095733Y-52019200D01*
X97095733Y-52188533D01*
X97061866Y-52256266D01*
X97028000Y-52290133D01*
X96384533Y-51240266D02*
X96384533Y-51578933D01*
X96723200Y-51612800D01*
X96689333Y-51578933D01*
X96655466Y-51511200D01*
X96655466Y-51341866D01*
X96689333Y-51274133D01*
X96723200Y-51240266D01*
X96790933Y-51206400D01*
X96960266Y-51206400D01*
X97028000Y-51240266D01*
X97061866Y-51274133D01*
X97095733Y-51341866D01*
X97095733Y-51511200D01*
X97061866Y-51578933D01*
X97028000Y-51612800D01*
X97095733Y-50901600D02*
X96384533Y-50901600D01*
X96384533Y-50732266D01*
X96418400Y-50630666D01*
X96486133Y-50562933D01*
X96553866Y-50529066D01*
X96689333Y-50495200D01*
X96790933Y-50495200D01*
X96926400Y-50529066D01*
X96994133Y-50562933D01*
X97061866Y-50630666D01*
X97095733Y-50732266D01*
X97095733Y-50901600D01*
X97095733Y-49784000D02*
X96757066Y-50021066D01*
X97095733Y-50190400D02*
X96384533Y-50190400D01*
X96384533Y-49919466D01*
X96418400Y-49851733D01*
X96452266Y-49817866D01*
X96520000Y-49784000D01*
X96621600Y-49784000D01*
X96689333Y-49817866D01*
X96723200Y-49851733D01*
X96757066Y-49919466D01*
X96757066Y-50190400D01*
X99711933Y-61967533D02*
X99711933Y-62475533D01*
X99678066Y-62577133D01*
X99610333Y-62644866D01*
X99508733Y-62678733D01*
X99441000Y-62678733D01*
X100016733Y-62035266D02*
X100050600Y-62001400D01*
X100118333Y-61967533D01*
X100287666Y-61967533D01*
X100355400Y-62001400D01*
X100389266Y-62035266D01*
X100423133Y-62103000D01*
X100423133Y-62170733D01*
X100389266Y-62272333D01*
X99982866Y-62678733D01*
X100423133Y-62678733D01*
X97009857Y-59553928D02*
X97118714Y-59590214D01*
X97300142Y-59590214D01*
X97372714Y-59553928D01*
X97409000Y-59517642D01*
X97445285Y-59445071D01*
X97445285Y-59372500D01*
X97409000Y-59299928D01*
X97372714Y-59263642D01*
X97300142Y-59227357D01*
X97155000Y-59191071D01*
X97082428Y-59154785D01*
X97046142Y-59118500D01*
X97009857Y-59045928D01*
X97009857Y-58973357D01*
X97046142Y-58900785D01*
X97082428Y-58864500D01*
X97155000Y-58828214D01*
X97336428Y-58828214D01*
X97445285Y-58864500D01*
X97699285Y-58828214D02*
X97880714Y-59590214D01*
X98025857Y-59045928D01*
X98171000Y-59590214D01*
X98352428Y-58828214D01*
X101862466Y-44577000D02*
X101828600Y-44610866D01*
X101727000Y-44644733D01*
X101659266Y-44644733D01*
X101557666Y-44610866D01*
X101489933Y-44543133D01*
X101456066Y-44475400D01*
X101422200Y-44339933D01*
X101422200Y-44238333D01*
X101456066Y-44102866D01*
X101489933Y-44035133D01*
X101557666Y-43967400D01*
X101659266Y-43933533D01*
X101727000Y-43933533D01*
X101828600Y-43967400D01*
X101862466Y-44001266D01*
X102472066Y-44170600D02*
X102472066Y-44644733D01*
X102302733Y-43899666D02*
X102133400Y-44407666D01*
X102573666Y-44407666D01*
X98687466Y-44704000D02*
X98653600Y-44737866D01*
X98552000Y-44771733D01*
X98484266Y-44771733D01*
X98382666Y-44737866D01*
X98314933Y-44670133D01*
X98281066Y-44602400D01*
X98247200Y-44466933D01*
X98247200Y-44365333D01*
X98281066Y-44229866D01*
X98314933Y-44162133D01*
X98382666Y-44094400D01*
X98484266Y-44060533D01*
X98552000Y-44060533D01*
X98653600Y-44094400D01*
X98687466Y-44128266D01*
X98924533Y-44060533D02*
X99364800Y-44060533D01*
X99127733Y-44331466D01*
X99229333Y-44331466D01*
X99297066Y-44365333D01*
X99330933Y-44399200D01*
X99364800Y-44466933D01*
X99364800Y-44636266D01*
X99330933Y-44704000D01*
X99297066Y-44737866D01*
X99229333Y-44771733D01*
X99026133Y-44771733D01*
X98958400Y-44737866D01*
X98924533Y-44704000D01*
X97517857Y-47845342D02*
X97554142Y-47881628D01*
X97517857Y-47917914D01*
X97481571Y-47881628D01*
X97517857Y-47845342D01*
X97517857Y-47917914D01*
X98025857Y-47155914D02*
X98098428Y-47155914D01*
X98171000Y-47192200D01*
X98207285Y-47228485D01*
X98243571Y-47301057D01*
X98279857Y-47446200D01*
X98279857Y-47627628D01*
X98243571Y-47772771D01*
X98207285Y-47845342D01*
X98171000Y-47881628D01*
X98098428Y-47917914D01*
X98025857Y-47917914D01*
X97953285Y-47881628D01*
X97917000Y-47845342D01*
X97880714Y-47772771D01*
X97844428Y-47627628D01*
X97844428Y-47446200D01*
X97880714Y-47301057D01*
X97917000Y-47228485D01*
X97953285Y-47192200D01*
X98025857Y-47155914D01*
X99005571Y-47917914D02*
X98570142Y-47917914D01*
X98787857Y-47917914D02*
X98787857Y-47155914D01*
X98715285Y-47264771D01*
X98642714Y-47337342D01*
X98570142Y-47373628D01*
X99658714Y-47409914D02*
X99658714Y-47917914D01*
X99332142Y-47409914D02*
X99332142Y-47809057D01*
X99368428Y-47881628D01*
X99441000Y-47917914D01*
X99549857Y-47917914D01*
X99622428Y-47881628D01*
X99658714Y-47845342D01*
X99912714Y-47409914D02*
X100203000Y-47409914D01*
X100021571Y-47917914D02*
X100021571Y-47264771D01*
X100057857Y-47192200D01*
X100130428Y-47155914D01*
X100203000Y-47155914D01*
X86866185Y-61912500D02*
X86321900Y-61912500D01*
X86213042Y-61876214D01*
X86140471Y-61803642D01*
X86104185Y-61694785D01*
X86104185Y-61622214D01*
X86866185Y-62202785D02*
X86866185Y-62674500D01*
X86575900Y-62420500D01*
X86575900Y-62529357D01*
X86539614Y-62601928D01*
X86503328Y-62638214D01*
X86430757Y-62674500D01*
X86249328Y-62674500D01*
X86176757Y-62638214D01*
X86140471Y-62601928D01*
X86104185Y-62529357D01*
X86104185Y-62311642D01*
X86140471Y-62239071D01*
X86176757Y-62202785D01*
X96919142Y-47879000D02*
X96955428Y-47915285D01*
X96991714Y-48024142D01*
X96991714Y-48096714D01*
X96955428Y-48205571D01*
X96882857Y-48278142D01*
X96810285Y-48314428D01*
X96665142Y-48350714D01*
X96556285Y-48350714D01*
X96411142Y-48314428D01*
X96338571Y-48278142D01*
X96266000Y-48205571D01*
X96229714Y-48096714D01*
X96229714Y-48024142D01*
X96266000Y-47915285D01*
X96302285Y-47879000D01*
X96302285Y-47588714D02*
X96266000Y-47552428D01*
X96229714Y-47479857D01*
X96229714Y-47298428D01*
X96266000Y-47225857D01*
X96302285Y-47189571D01*
X96374857Y-47153285D01*
X96447428Y-47153285D01*
X96556285Y-47189571D01*
X96991714Y-47625000D01*
X96991714Y-47153285D01*
X91795600Y-50427466D02*
X92269733Y-50427466D01*
X91524666Y-50596800D02*
X92032666Y-50766133D01*
X92032666Y-50325866D01*
X92202000Y-50054933D02*
X92235866Y-50021066D01*
X92269733Y-50054933D01*
X92235866Y-50088800D01*
X92202000Y-50054933D01*
X92269733Y-50054933D01*
X91558533Y-49784000D02*
X91558533Y-49309866D01*
X92269733Y-49614666D01*
X91795600Y-48734133D02*
X92269733Y-48734133D01*
X91795600Y-49038933D02*
X92168133Y-49038933D01*
X92235866Y-49005066D01*
X92269733Y-48937333D01*
X92269733Y-48835733D01*
X92235866Y-48768000D01*
X92202000Y-48734133D01*
X91795600Y-48497066D02*
X91795600Y-48226133D01*
X92269733Y-48395466D02*
X91660133Y-48395466D01*
X91592400Y-48361600D01*
X91558533Y-48293866D01*
X91558533Y-48226133D01*
X82169000Y-44032714D02*
X82169000Y-44577000D01*
X82132714Y-44685857D01*
X82060142Y-44758428D01*
X81951285Y-44794714D01*
X81878714Y-44794714D01*
X82858428Y-44286714D02*
X82858428Y-44794714D01*
X82677000Y-43996428D02*
X82495571Y-44540714D01*
X82967285Y-44540714D01*
X81470500Y-54383214D02*
X81470500Y-54927500D01*
X81434214Y-55036357D01*
X81361642Y-55108928D01*
X81252785Y-55145214D01*
X81180214Y-55145214D01*
X82232500Y-55145214D02*
X81797071Y-55145214D01*
X82014785Y-55145214D02*
X82014785Y-54383214D01*
X81942214Y-54492071D01*
X81869642Y-54564642D01*
X81797071Y-54600928D01*
X94832714Y-59617428D02*
X94070714Y-59617428D01*
X94070714Y-59436000D01*
X94107000Y-59327142D01*
X94179571Y-59254571D01*
X94252142Y-59218285D01*
X94397285Y-59182000D01*
X94506142Y-59182000D01*
X94651285Y-59218285D01*
X94723857Y-59254571D01*
X94796428Y-59327142D01*
X94832714Y-59436000D01*
X94832714Y-59617428D01*
X94143285Y-58891714D02*
X94107000Y-58855428D01*
X94070714Y-58782857D01*
X94070714Y-58601428D01*
X94107000Y-58528857D01*
X94143285Y-58492571D01*
X94215857Y-58456285D01*
X94288428Y-58456285D01*
X94397285Y-58492571D01*
X94832714Y-58928000D01*
X94832714Y-58456285D01*
X90387714Y-59617428D02*
X89625714Y-59617428D01*
X89625714Y-59436000D01*
X89662000Y-59327142D01*
X89734571Y-59254571D01*
X89807142Y-59218285D01*
X89952285Y-59182000D01*
X90061142Y-59182000D01*
X90206285Y-59218285D01*
X90278857Y-59254571D01*
X90351428Y-59327142D01*
X90387714Y-59436000D01*
X90387714Y-59617428D01*
X90387714Y-58456285D02*
X90387714Y-58891714D01*
X90387714Y-58674000D02*
X89625714Y-58674000D01*
X89734571Y-58746571D01*
X89807142Y-58819142D01*
X89843428Y-58891714D01*
X93345000Y-62320714D02*
X93091000Y-61957857D01*
X92909571Y-62320714D02*
X92909571Y-61558714D01*
X93199857Y-61558714D01*
X93272428Y-61595000D01*
X93308714Y-61631285D01*
X93345000Y-61703857D01*
X93345000Y-61812714D01*
X93308714Y-61885285D01*
X93272428Y-61921571D01*
X93199857Y-61957857D01*
X92909571Y-61957857D01*
X93998142Y-61812714D02*
X93998142Y-62320714D01*
X93816714Y-61522428D02*
X93635285Y-62066714D01*
X94107000Y-62066714D01*
X93381285Y-65368714D02*
X92945857Y-65368714D01*
X93163571Y-65368714D02*
X93163571Y-64606714D01*
X93091000Y-64715571D01*
X93018428Y-64788142D01*
X92945857Y-64824428D01*
X93707857Y-65368714D02*
X93707857Y-64606714D01*
X93780428Y-65078428D02*
X93998142Y-65368714D01*
X93998142Y-64860714D02*
X93707857Y-65151000D01*
X89035466Y-62297733D02*
X88798400Y-61959066D01*
X88629066Y-62297733D02*
X88629066Y-61586533D01*
X88900000Y-61586533D01*
X88967733Y-61620400D01*
X89001600Y-61654266D01*
X89035466Y-61722000D01*
X89035466Y-61823600D01*
X89001600Y-61891333D01*
X88967733Y-61925200D01*
X88900000Y-61959066D01*
X88629066Y-61959066D01*
X89272533Y-61586533D02*
X89712800Y-61586533D01*
X89475733Y-61857466D01*
X89577333Y-61857466D01*
X89645066Y-61891333D01*
X89678933Y-61925200D01*
X89712800Y-61992933D01*
X89712800Y-62162266D01*
X89678933Y-62230000D01*
X89645066Y-62263866D01*
X89577333Y-62297733D01*
X89374133Y-62297733D01*
X89306400Y-62263866D01*
X89272533Y-62230000D01*
X89063285Y-65368714D02*
X88627857Y-65368714D01*
X88845571Y-65368714D02*
X88845571Y-64606714D01*
X88773000Y-64715571D01*
X88700428Y-64788142D01*
X88627857Y-64824428D01*
X89389857Y-65368714D02*
X89389857Y-64606714D01*
X89462428Y-65078428D02*
X89680142Y-65368714D01*
X89680142Y-64860714D02*
X89389857Y-65151000D01*
X98298000Y-57621714D02*
X98044000Y-57258857D01*
X97862571Y-57621714D02*
X97862571Y-56859714D01*
X98152857Y-56859714D01*
X98225428Y-56896000D01*
X98261714Y-56932285D01*
X98298000Y-57004857D01*
X98298000Y-57113714D01*
X98261714Y-57186285D01*
X98225428Y-57222571D01*
X98152857Y-57258857D01*
X97862571Y-57258857D01*
X99023714Y-57621714D02*
X98588285Y-57621714D01*
X98806000Y-57621714D02*
X98806000Y-56859714D01*
X98733428Y-56968571D01*
X98660857Y-57041142D01*
X98588285Y-57077428D01*
X100257428Y-59271714D02*
X99822000Y-59271714D01*
X100039714Y-59271714D02*
X100039714Y-58509714D01*
X99967142Y-58618571D01*
X99894571Y-58691142D01*
X99822000Y-58727428D01*
X100729142Y-58509714D02*
X100801714Y-58509714D01*
X100874285Y-58546000D01*
X100910571Y-58582285D01*
X100946857Y-58654857D01*
X100983142Y-58800000D01*
X100983142Y-58981428D01*
X100946857Y-59126571D01*
X100910571Y-59199142D01*
X100874285Y-59235428D01*
X100801714Y-59271714D01*
X100729142Y-59271714D01*
X100656571Y-59235428D01*
X100620285Y-59199142D01*
X100584000Y-59126571D01*
X100547714Y-58981428D01*
X100547714Y-58800000D01*
X100584000Y-58654857D01*
X100620285Y-58582285D01*
X100656571Y-58546000D01*
X100729142Y-58509714D01*
X101309714Y-59271714D02*
X101309714Y-58509714D01*
X101382285Y-58981428D02*
X101600000Y-59271714D01*
X101600000Y-58763714D02*
X101309714Y-59054000D01*
X86886142Y-47371000D02*
X86922428Y-47407285D01*
X86958714Y-47516142D01*
X86958714Y-47588714D01*
X86922428Y-47697571D01*
X86849857Y-47770142D01*
X86777285Y-47806428D01*
X86632142Y-47842714D01*
X86523285Y-47842714D01*
X86378142Y-47806428D01*
X86305571Y-47770142D01*
X86233000Y-47697571D01*
X86196714Y-47588714D01*
X86196714Y-47516142D01*
X86233000Y-47407285D01*
X86269285Y-47371000D01*
X86958714Y-46645285D02*
X86958714Y-47080714D01*
X86958714Y-46863000D02*
X86196714Y-46863000D01*
X86305571Y-46935571D01*
X86378142Y-47008142D01*
X86414428Y-47080714D01*
D10*
X84145380Y-47950380D02*
X84145380Y-48521809D01*
X84145380Y-48236095D02*
X83145380Y-48236095D01*
X83288238Y-48331333D01*
X83383476Y-48426571D01*
X83431095Y-48521809D01*
X83478714Y-47093238D02*
X84145380Y-47093238D01*
X83478714Y-47521809D02*
X84002523Y-47521809D01*
X84097761Y-47474190D01*
X84145380Y-47378952D01*
X84145380Y-47236095D01*
X84097761Y-47140857D01*
X84050142Y-47093238D01*
X83478714Y-46759904D02*
X83478714Y-46378952D01*
X84145380Y-46617047D02*
X83288238Y-46617047D01*
X83193000Y-46569428D01*
X83145380Y-46474190D01*
X83145380Y-46378952D01*
D11*
X80991528Y-57151814D02*
X80991528Y-57768671D01*
X81027814Y-57841242D01*
X81064100Y-57877528D01*
X81136671Y-57913814D01*
X81281814Y-57913814D01*
X81354385Y-57877528D01*
X81390671Y-57841242D01*
X81426957Y-57768671D01*
X81426957Y-57151814D01*
X82116385Y-57405814D02*
X82116385Y-57913814D01*
X81934957Y-57115528D02*
X81753528Y-57659814D01*
X82225242Y-57659814D01*
X89882133Y-55109533D02*
X89882133Y-55685266D01*
X89916000Y-55753000D01*
X89949866Y-55786866D01*
X90017600Y-55820733D01*
X90153066Y-55820733D01*
X90220800Y-55786866D01*
X90254666Y-55753000D01*
X90288533Y-55685266D01*
X90288533Y-55109533D01*
X90559466Y-55109533D02*
X90999733Y-55109533D01*
X90762666Y-55380466D01*
X90864266Y-55380466D01*
X90932000Y-55414333D01*
X90965866Y-55448200D01*
X90999733Y-55515933D01*
X90999733Y-55685266D01*
X90965866Y-55753000D01*
X90932000Y-55786866D01*
X90864266Y-55820733D01*
X90661066Y-55820733D01*
X90593333Y-55786866D01*
X90559466Y-55753000D01*
D15*
X87325200Y-52315533D02*
X87663866Y-52315533D01*
X87257466Y-52518733D02*
X87494533Y-51807533D01*
X87731600Y-52518733D01*
X87968666Y-52518733D02*
X87968666Y-51807533D01*
X88138000Y-51807533D01*
X88239600Y-51841400D01*
X88307333Y-51909133D01*
X88341200Y-51976866D01*
X88375066Y-52112333D01*
X88375066Y-52213933D01*
X88341200Y-52349400D01*
X88307333Y-52417133D01*
X88239600Y-52484866D01*
X88138000Y-52518733D01*
X87968666Y-52518733D01*
X89052400Y-51841400D02*
X88984666Y-51807533D01*
X88883066Y-51807533D01*
X88781466Y-51841400D01*
X88713733Y-51909133D01*
X88679866Y-51976866D01*
X88646000Y-52112333D01*
X88646000Y-52213933D01*
X88679866Y-52349400D01*
X88713733Y-52417133D01*
X88781466Y-52484866D01*
X88883066Y-52518733D01*
X88950800Y-52518733D01*
X89052400Y-52484866D01*
X89086266Y-52451000D01*
X89086266Y-52213933D01*
X88950800Y-52213933D01*
X89492666Y-52112333D02*
X89424933Y-52078466D01*
X89391066Y-52044600D01*
X89357200Y-51976866D01*
X89357200Y-51943000D01*
X89391066Y-51875266D01*
X89424933Y-51841400D01*
X89492666Y-51807533D01*
X89628133Y-51807533D01*
X89695866Y-51841400D01*
X89729733Y-51875266D01*
X89763600Y-51943000D01*
X89763600Y-51976866D01*
X89729733Y-52044600D01*
X89695866Y-52078466D01*
X89628133Y-52112333D01*
X89492666Y-52112333D01*
X89424933Y-52146200D01*
X89391066Y-52180066D01*
X89357200Y-52247800D01*
X89357200Y-52383266D01*
X89391066Y-52451000D01*
X89424933Y-52484866D01*
X89492666Y-52518733D01*
X89628133Y-52518733D01*
X89695866Y-52484866D01*
X89729733Y-52451000D01*
X89763600Y-52383266D01*
X89763600Y-52247800D01*
X89729733Y-52180066D01*
X89695866Y-52146200D01*
X89628133Y-52112333D01*
X90170000Y-52112333D02*
X90102266Y-52078466D01*
X90068400Y-52044600D01*
X90034533Y-51976866D01*
X90034533Y-51943000D01*
X90068400Y-51875266D01*
X90102266Y-51841400D01*
X90170000Y-51807533D01*
X90305466Y-51807533D01*
X90373200Y-51841400D01*
X90407066Y-51875266D01*
X90440933Y-51943000D01*
X90440933Y-51976866D01*
X90407066Y-52044600D01*
X90373200Y-52078466D01*
X90305466Y-52112333D01*
X90170000Y-52112333D01*
X90102266Y-52146200D01*
X90068400Y-52180066D01*
X90034533Y-52247800D01*
X90034533Y-52383266D01*
X90068400Y-52451000D01*
X90102266Y-52484866D01*
X90170000Y-52518733D01*
X90305466Y-52518733D01*
X90373200Y-52484866D01*
X90407066Y-52451000D01*
X90440933Y-52383266D01*
X90440933Y-52247800D01*
X90407066Y-52180066D01*
X90373200Y-52146200D01*
X90305466Y-52112333D01*
X91050533Y-52044600D02*
X91050533Y-52518733D01*
X90881200Y-51773666D02*
X90711866Y-52281666D01*
X91152133Y-52281666D01*
X91660133Y-52146200D02*
X91761733Y-52180066D01*
X91795600Y-52213933D01*
X91829466Y-52281666D01*
X91829466Y-52383266D01*
X91795600Y-52451000D01*
X91761733Y-52484866D01*
X91694000Y-52518733D01*
X91423066Y-52518733D01*
X91423066Y-51807533D01*
X91660133Y-51807533D01*
X91727866Y-51841400D01*
X91761733Y-51875266D01*
X91795600Y-51943000D01*
X91795600Y-52010733D01*
X91761733Y-52078466D01*
X91727866Y-52112333D01*
X91660133Y-52146200D01*
X91423066Y-52146200D01*
X92540666Y-52518733D02*
X92303600Y-52180066D01*
X92134266Y-52518733D02*
X92134266Y-51807533D01*
X92405200Y-51807533D01*
X92472933Y-51841400D01*
X92506800Y-51875266D01*
X92540666Y-51943000D01*
X92540666Y-52044600D01*
X92506800Y-52112333D01*
X92472933Y-52146200D01*
X92405200Y-52180066D01*
X92134266Y-52180066D01*
X92845466Y-52518733D02*
X92845466Y-51807533D01*
X93082533Y-52315533D01*
X93319600Y-51807533D01*
X93319600Y-52518733D01*
X93590533Y-51807533D02*
X94064666Y-51807533D01*
X93590533Y-52518733D01*
X94064666Y-52518733D01*
D10*
X89183633Y-48505533D02*
X89183633Y-49081266D01*
X89217500Y-49149000D01*
X89251366Y-49182866D01*
X89319100Y-49216733D01*
X89454566Y-49216733D01*
X89522300Y-49182866D01*
X89556166Y-49149000D01*
X89590033Y-49081266D01*
X89590033Y-48505533D01*
X89894833Y-48573266D02*
X89928700Y-48539400D01*
X89996433Y-48505533D01*
X90165766Y-48505533D01*
X90233500Y-48539400D01*
X90267366Y-48573266D01*
X90301233Y-48641000D01*
X90301233Y-48708733D01*
X90267366Y-48810333D01*
X89860966Y-49216733D01*
X90301233Y-49216733D01*
D16*
X87163728Y-43883942D02*
X87555614Y-43883942D01*
X87359671Y-44569742D02*
X87359671Y-43883942D01*
X87784214Y-44569742D02*
X87784214Y-43883942D01*
X88045471Y-43883942D01*
X88110785Y-43916600D01*
X88143442Y-43949257D01*
X88176100Y-44014571D01*
X88176100Y-44112542D01*
X88143442Y-44177857D01*
X88110785Y-44210514D01*
X88045471Y-44243171D01*
X87784214Y-44243171D01*
X88437357Y-44537085D02*
X88535328Y-44569742D01*
X88698614Y-44569742D01*
X88763928Y-44537085D01*
X88796585Y-44504428D01*
X88829242Y-44439114D01*
X88829242Y-44373800D01*
X88796585Y-44308485D01*
X88763928Y-44275828D01*
X88698614Y-44243171D01*
X88567985Y-44210514D01*
X88502671Y-44177857D01*
X88470014Y-44145200D01*
X88437357Y-44079885D01*
X88437357Y-44014571D01*
X88470014Y-43949257D01*
X88502671Y-43916600D01*
X88567985Y-43883942D01*
X88731271Y-43883942D01*
X88829242Y-43916600D01*
X89057842Y-43883942D02*
X89515042Y-43883942D01*
X89221128Y-44569742D01*
X90070214Y-43883942D02*
X89939585Y-43883942D01*
X89874271Y-43916600D01*
X89841614Y-43949257D01*
X89776300Y-44047228D01*
X89743642Y-44177857D01*
X89743642Y-44439114D01*
X89776300Y-44504428D01*
X89808957Y-44537085D01*
X89874271Y-44569742D01*
X90004900Y-44569742D01*
X90070214Y-44537085D01*
X90102871Y-44504428D01*
X90135528Y-44439114D01*
X90135528Y-44275828D01*
X90102871Y-44210514D01*
X90070214Y-44177857D01*
X90004900Y-44145200D01*
X89874271Y-44145200D01*
X89808957Y-44177857D01*
X89776300Y-44210514D01*
X89743642Y-44275828D01*
X90462100Y-44569742D02*
X90592728Y-44569742D01*
X90658042Y-44537085D01*
X90690700Y-44504428D01*
X90756014Y-44406457D01*
X90788671Y-44275828D01*
X90788671Y-44014571D01*
X90756014Y-43949257D01*
X90723357Y-43916600D01*
X90658042Y-43883942D01*
X90527414Y-43883942D01*
X90462100Y-43916600D01*
X90429442Y-43949257D01*
X90396785Y-44014571D01*
X90396785Y-44177857D01*
X90429442Y-44243171D01*
X90462100Y-44275828D01*
X90527414Y-44308485D01*
X90658042Y-44308485D01*
X90723357Y-44275828D01*
X90756014Y-44243171D01*
X90788671Y-44177857D01*
X91409157Y-43883942D02*
X91082585Y-43883942D01*
X91049928Y-44210514D01*
X91082585Y-44177857D01*
X91147900Y-44145200D01*
X91311185Y-44145200D01*
X91376500Y-44177857D01*
X91409157Y-44210514D01*
X91441814Y-44275828D01*
X91441814Y-44439114D01*
X91409157Y-44504428D01*
X91376500Y-44537085D01*
X91311185Y-44569742D01*
X91147900Y-44569742D01*
X91082585Y-44537085D01*
X91049928Y-44504428D01*
X91866357Y-43883942D02*
X91931671Y-43883942D01*
X91996985Y-43916600D01*
X92029642Y-43949257D01*
X92062300Y-44014571D01*
X92094957Y-44145200D01*
X92094957Y-44308485D01*
X92062300Y-44439114D01*
X92029642Y-44504428D01*
X91996985Y-44537085D01*
X91931671Y-44569742D01*
X91866357Y-44569742D01*
X91801042Y-44537085D01*
X91768385Y-44504428D01*
X91735728Y-44439114D01*
X91703071Y-44308485D01*
X91703071Y-44145200D01*
X91735728Y-44014571D01*
X91768385Y-43949257D01*
X91801042Y-43916600D01*
X91866357Y-43883942D01*
M02*
