G04 #@! TF.GenerationSoftware,KiCad,Pcbnew,(5.1.4-0-10_14)*
G04 #@! TF.CreationDate,2019-10-07T20:38:55-07:00*
G04 #@! TF.ProjectId,SoftButtonBoardMux555,536f6674-4275-4747-946f-6e426f617264,rev?*
G04 #@! TF.SameCoordinates,Original*
G04 #@! TF.FileFunction,Copper,L1,Top*
G04 #@! TF.FilePolarity,Positive*
%FSLAX46Y46*%
G04 Gerber Fmt 4.6, Leading zero omitted, Abs format (unit mm)*
G04 Created by KiCad (PCBNEW (5.1.4-0-10_14)) date 2019-10-07 20:38:55*
%MOMM*%
%LPD*%
G04 APERTURE LIST*
%ADD10C,0.100000*%
%ADD11C,0.600000*%
%ADD12O,1.700000X1.700000*%
%ADD13R,1.700000X1.700000*%
%ADD14C,0.975000*%
%ADD15R,2.098396X2.260397*%
%ADD16C,1.250000*%
%ADD17C,1.600000*%
%ADD18R,1.498600X0.330200*%
%ADD19R,1.060000X0.650000*%
%ADD20C,0.800000*%
%ADD21C,0.203200*%
%ADD22C,0.250000*%
%ADD23C,0.508000*%
%ADD24C,0.254000*%
G04 APERTURE END LIST*
D10*
G36*
X98208703Y-48557222D02*
G01*
X98223264Y-48559382D01*
X98237543Y-48562959D01*
X98251403Y-48567918D01*
X98264710Y-48574212D01*
X98277336Y-48581780D01*
X98289159Y-48590548D01*
X98300066Y-48600434D01*
X98309952Y-48611341D01*
X98318720Y-48623164D01*
X98326288Y-48635790D01*
X98332582Y-48649097D01*
X98337541Y-48662957D01*
X98341118Y-48677236D01*
X98343278Y-48691797D01*
X98344000Y-48706500D01*
X98344000Y-50356500D01*
X98343278Y-50371203D01*
X98341118Y-50385764D01*
X98337541Y-50400043D01*
X98332582Y-50413903D01*
X98326288Y-50427210D01*
X98318720Y-50439836D01*
X98309952Y-50451659D01*
X98300066Y-50462566D01*
X98289159Y-50472452D01*
X98277336Y-50481220D01*
X98264710Y-50488788D01*
X98251403Y-50495082D01*
X98237543Y-50500041D01*
X98223264Y-50503618D01*
X98208703Y-50505778D01*
X98194000Y-50506500D01*
X97894000Y-50506500D01*
X97879297Y-50505778D01*
X97864736Y-50503618D01*
X97850457Y-50500041D01*
X97836597Y-50495082D01*
X97823290Y-50488788D01*
X97810664Y-50481220D01*
X97798841Y-50472452D01*
X97787934Y-50462566D01*
X97778048Y-50451659D01*
X97769280Y-50439836D01*
X97761712Y-50427210D01*
X97755418Y-50413903D01*
X97750459Y-50400043D01*
X97746882Y-50385764D01*
X97744722Y-50371203D01*
X97744000Y-50356500D01*
X97744000Y-48706500D01*
X97744722Y-48691797D01*
X97746882Y-48677236D01*
X97750459Y-48662957D01*
X97755418Y-48649097D01*
X97761712Y-48635790D01*
X97769280Y-48623164D01*
X97778048Y-48611341D01*
X97787934Y-48600434D01*
X97798841Y-48590548D01*
X97810664Y-48581780D01*
X97823290Y-48574212D01*
X97836597Y-48567918D01*
X97850457Y-48562959D01*
X97864736Y-48559382D01*
X97879297Y-48557222D01*
X97894000Y-48556500D01*
X98194000Y-48556500D01*
X98208703Y-48557222D01*
X98208703Y-48557222D01*
G37*
D11*
X98044000Y-49531500D03*
D10*
G36*
X99478703Y-48557222D02*
G01*
X99493264Y-48559382D01*
X99507543Y-48562959D01*
X99521403Y-48567918D01*
X99534710Y-48574212D01*
X99547336Y-48581780D01*
X99559159Y-48590548D01*
X99570066Y-48600434D01*
X99579952Y-48611341D01*
X99588720Y-48623164D01*
X99596288Y-48635790D01*
X99602582Y-48649097D01*
X99607541Y-48662957D01*
X99611118Y-48677236D01*
X99613278Y-48691797D01*
X99614000Y-48706500D01*
X99614000Y-50356500D01*
X99613278Y-50371203D01*
X99611118Y-50385764D01*
X99607541Y-50400043D01*
X99602582Y-50413903D01*
X99596288Y-50427210D01*
X99588720Y-50439836D01*
X99579952Y-50451659D01*
X99570066Y-50462566D01*
X99559159Y-50472452D01*
X99547336Y-50481220D01*
X99534710Y-50488788D01*
X99521403Y-50495082D01*
X99507543Y-50500041D01*
X99493264Y-50503618D01*
X99478703Y-50505778D01*
X99464000Y-50506500D01*
X99164000Y-50506500D01*
X99149297Y-50505778D01*
X99134736Y-50503618D01*
X99120457Y-50500041D01*
X99106597Y-50495082D01*
X99093290Y-50488788D01*
X99080664Y-50481220D01*
X99068841Y-50472452D01*
X99057934Y-50462566D01*
X99048048Y-50451659D01*
X99039280Y-50439836D01*
X99031712Y-50427210D01*
X99025418Y-50413903D01*
X99020459Y-50400043D01*
X99016882Y-50385764D01*
X99014722Y-50371203D01*
X99014000Y-50356500D01*
X99014000Y-48706500D01*
X99014722Y-48691797D01*
X99016882Y-48677236D01*
X99020459Y-48662957D01*
X99025418Y-48649097D01*
X99031712Y-48635790D01*
X99039280Y-48623164D01*
X99048048Y-48611341D01*
X99057934Y-48600434D01*
X99068841Y-48590548D01*
X99080664Y-48581780D01*
X99093290Y-48574212D01*
X99106597Y-48567918D01*
X99120457Y-48562959D01*
X99134736Y-48559382D01*
X99149297Y-48557222D01*
X99164000Y-48556500D01*
X99464000Y-48556500D01*
X99478703Y-48557222D01*
X99478703Y-48557222D01*
G37*
D11*
X99314000Y-49531500D03*
D10*
G36*
X100748703Y-48557222D02*
G01*
X100763264Y-48559382D01*
X100777543Y-48562959D01*
X100791403Y-48567918D01*
X100804710Y-48574212D01*
X100817336Y-48581780D01*
X100829159Y-48590548D01*
X100840066Y-48600434D01*
X100849952Y-48611341D01*
X100858720Y-48623164D01*
X100866288Y-48635790D01*
X100872582Y-48649097D01*
X100877541Y-48662957D01*
X100881118Y-48677236D01*
X100883278Y-48691797D01*
X100884000Y-48706500D01*
X100884000Y-50356500D01*
X100883278Y-50371203D01*
X100881118Y-50385764D01*
X100877541Y-50400043D01*
X100872582Y-50413903D01*
X100866288Y-50427210D01*
X100858720Y-50439836D01*
X100849952Y-50451659D01*
X100840066Y-50462566D01*
X100829159Y-50472452D01*
X100817336Y-50481220D01*
X100804710Y-50488788D01*
X100791403Y-50495082D01*
X100777543Y-50500041D01*
X100763264Y-50503618D01*
X100748703Y-50505778D01*
X100734000Y-50506500D01*
X100434000Y-50506500D01*
X100419297Y-50505778D01*
X100404736Y-50503618D01*
X100390457Y-50500041D01*
X100376597Y-50495082D01*
X100363290Y-50488788D01*
X100350664Y-50481220D01*
X100338841Y-50472452D01*
X100327934Y-50462566D01*
X100318048Y-50451659D01*
X100309280Y-50439836D01*
X100301712Y-50427210D01*
X100295418Y-50413903D01*
X100290459Y-50400043D01*
X100286882Y-50385764D01*
X100284722Y-50371203D01*
X100284000Y-50356500D01*
X100284000Y-48706500D01*
X100284722Y-48691797D01*
X100286882Y-48677236D01*
X100290459Y-48662957D01*
X100295418Y-48649097D01*
X100301712Y-48635790D01*
X100309280Y-48623164D01*
X100318048Y-48611341D01*
X100327934Y-48600434D01*
X100338841Y-48590548D01*
X100350664Y-48581780D01*
X100363290Y-48574212D01*
X100376597Y-48567918D01*
X100390457Y-48562959D01*
X100404736Y-48559382D01*
X100419297Y-48557222D01*
X100434000Y-48556500D01*
X100734000Y-48556500D01*
X100748703Y-48557222D01*
X100748703Y-48557222D01*
G37*
D11*
X100584000Y-49531500D03*
D10*
G36*
X102018703Y-48557222D02*
G01*
X102033264Y-48559382D01*
X102047543Y-48562959D01*
X102061403Y-48567918D01*
X102074710Y-48574212D01*
X102087336Y-48581780D01*
X102099159Y-48590548D01*
X102110066Y-48600434D01*
X102119952Y-48611341D01*
X102128720Y-48623164D01*
X102136288Y-48635790D01*
X102142582Y-48649097D01*
X102147541Y-48662957D01*
X102151118Y-48677236D01*
X102153278Y-48691797D01*
X102154000Y-48706500D01*
X102154000Y-50356500D01*
X102153278Y-50371203D01*
X102151118Y-50385764D01*
X102147541Y-50400043D01*
X102142582Y-50413903D01*
X102136288Y-50427210D01*
X102128720Y-50439836D01*
X102119952Y-50451659D01*
X102110066Y-50462566D01*
X102099159Y-50472452D01*
X102087336Y-50481220D01*
X102074710Y-50488788D01*
X102061403Y-50495082D01*
X102047543Y-50500041D01*
X102033264Y-50503618D01*
X102018703Y-50505778D01*
X102004000Y-50506500D01*
X101704000Y-50506500D01*
X101689297Y-50505778D01*
X101674736Y-50503618D01*
X101660457Y-50500041D01*
X101646597Y-50495082D01*
X101633290Y-50488788D01*
X101620664Y-50481220D01*
X101608841Y-50472452D01*
X101597934Y-50462566D01*
X101588048Y-50451659D01*
X101579280Y-50439836D01*
X101571712Y-50427210D01*
X101565418Y-50413903D01*
X101560459Y-50400043D01*
X101556882Y-50385764D01*
X101554722Y-50371203D01*
X101554000Y-50356500D01*
X101554000Y-48706500D01*
X101554722Y-48691797D01*
X101556882Y-48677236D01*
X101560459Y-48662957D01*
X101565418Y-48649097D01*
X101571712Y-48635790D01*
X101579280Y-48623164D01*
X101588048Y-48611341D01*
X101597934Y-48600434D01*
X101608841Y-48590548D01*
X101620664Y-48581780D01*
X101633290Y-48574212D01*
X101646597Y-48567918D01*
X101660457Y-48562959D01*
X101674736Y-48559382D01*
X101689297Y-48557222D01*
X101704000Y-48556500D01*
X102004000Y-48556500D01*
X102018703Y-48557222D01*
X102018703Y-48557222D01*
G37*
D11*
X101854000Y-49531500D03*
D10*
G36*
X102018703Y-53507222D02*
G01*
X102033264Y-53509382D01*
X102047543Y-53512959D01*
X102061403Y-53517918D01*
X102074710Y-53524212D01*
X102087336Y-53531780D01*
X102099159Y-53540548D01*
X102110066Y-53550434D01*
X102119952Y-53561341D01*
X102128720Y-53573164D01*
X102136288Y-53585790D01*
X102142582Y-53599097D01*
X102147541Y-53612957D01*
X102151118Y-53627236D01*
X102153278Y-53641797D01*
X102154000Y-53656500D01*
X102154000Y-55306500D01*
X102153278Y-55321203D01*
X102151118Y-55335764D01*
X102147541Y-55350043D01*
X102142582Y-55363903D01*
X102136288Y-55377210D01*
X102128720Y-55389836D01*
X102119952Y-55401659D01*
X102110066Y-55412566D01*
X102099159Y-55422452D01*
X102087336Y-55431220D01*
X102074710Y-55438788D01*
X102061403Y-55445082D01*
X102047543Y-55450041D01*
X102033264Y-55453618D01*
X102018703Y-55455778D01*
X102004000Y-55456500D01*
X101704000Y-55456500D01*
X101689297Y-55455778D01*
X101674736Y-55453618D01*
X101660457Y-55450041D01*
X101646597Y-55445082D01*
X101633290Y-55438788D01*
X101620664Y-55431220D01*
X101608841Y-55422452D01*
X101597934Y-55412566D01*
X101588048Y-55401659D01*
X101579280Y-55389836D01*
X101571712Y-55377210D01*
X101565418Y-55363903D01*
X101560459Y-55350043D01*
X101556882Y-55335764D01*
X101554722Y-55321203D01*
X101554000Y-55306500D01*
X101554000Y-53656500D01*
X101554722Y-53641797D01*
X101556882Y-53627236D01*
X101560459Y-53612957D01*
X101565418Y-53599097D01*
X101571712Y-53585790D01*
X101579280Y-53573164D01*
X101588048Y-53561341D01*
X101597934Y-53550434D01*
X101608841Y-53540548D01*
X101620664Y-53531780D01*
X101633290Y-53524212D01*
X101646597Y-53517918D01*
X101660457Y-53512959D01*
X101674736Y-53509382D01*
X101689297Y-53507222D01*
X101704000Y-53506500D01*
X102004000Y-53506500D01*
X102018703Y-53507222D01*
X102018703Y-53507222D01*
G37*
D11*
X101854000Y-54481500D03*
D10*
G36*
X100748703Y-53507222D02*
G01*
X100763264Y-53509382D01*
X100777543Y-53512959D01*
X100791403Y-53517918D01*
X100804710Y-53524212D01*
X100817336Y-53531780D01*
X100829159Y-53540548D01*
X100840066Y-53550434D01*
X100849952Y-53561341D01*
X100858720Y-53573164D01*
X100866288Y-53585790D01*
X100872582Y-53599097D01*
X100877541Y-53612957D01*
X100881118Y-53627236D01*
X100883278Y-53641797D01*
X100884000Y-53656500D01*
X100884000Y-55306500D01*
X100883278Y-55321203D01*
X100881118Y-55335764D01*
X100877541Y-55350043D01*
X100872582Y-55363903D01*
X100866288Y-55377210D01*
X100858720Y-55389836D01*
X100849952Y-55401659D01*
X100840066Y-55412566D01*
X100829159Y-55422452D01*
X100817336Y-55431220D01*
X100804710Y-55438788D01*
X100791403Y-55445082D01*
X100777543Y-55450041D01*
X100763264Y-55453618D01*
X100748703Y-55455778D01*
X100734000Y-55456500D01*
X100434000Y-55456500D01*
X100419297Y-55455778D01*
X100404736Y-55453618D01*
X100390457Y-55450041D01*
X100376597Y-55445082D01*
X100363290Y-55438788D01*
X100350664Y-55431220D01*
X100338841Y-55422452D01*
X100327934Y-55412566D01*
X100318048Y-55401659D01*
X100309280Y-55389836D01*
X100301712Y-55377210D01*
X100295418Y-55363903D01*
X100290459Y-55350043D01*
X100286882Y-55335764D01*
X100284722Y-55321203D01*
X100284000Y-55306500D01*
X100284000Y-53656500D01*
X100284722Y-53641797D01*
X100286882Y-53627236D01*
X100290459Y-53612957D01*
X100295418Y-53599097D01*
X100301712Y-53585790D01*
X100309280Y-53573164D01*
X100318048Y-53561341D01*
X100327934Y-53550434D01*
X100338841Y-53540548D01*
X100350664Y-53531780D01*
X100363290Y-53524212D01*
X100376597Y-53517918D01*
X100390457Y-53512959D01*
X100404736Y-53509382D01*
X100419297Y-53507222D01*
X100434000Y-53506500D01*
X100734000Y-53506500D01*
X100748703Y-53507222D01*
X100748703Y-53507222D01*
G37*
D11*
X100584000Y-54481500D03*
D10*
G36*
X99478703Y-53507222D02*
G01*
X99493264Y-53509382D01*
X99507543Y-53512959D01*
X99521403Y-53517918D01*
X99534710Y-53524212D01*
X99547336Y-53531780D01*
X99559159Y-53540548D01*
X99570066Y-53550434D01*
X99579952Y-53561341D01*
X99588720Y-53573164D01*
X99596288Y-53585790D01*
X99602582Y-53599097D01*
X99607541Y-53612957D01*
X99611118Y-53627236D01*
X99613278Y-53641797D01*
X99614000Y-53656500D01*
X99614000Y-55306500D01*
X99613278Y-55321203D01*
X99611118Y-55335764D01*
X99607541Y-55350043D01*
X99602582Y-55363903D01*
X99596288Y-55377210D01*
X99588720Y-55389836D01*
X99579952Y-55401659D01*
X99570066Y-55412566D01*
X99559159Y-55422452D01*
X99547336Y-55431220D01*
X99534710Y-55438788D01*
X99521403Y-55445082D01*
X99507543Y-55450041D01*
X99493264Y-55453618D01*
X99478703Y-55455778D01*
X99464000Y-55456500D01*
X99164000Y-55456500D01*
X99149297Y-55455778D01*
X99134736Y-55453618D01*
X99120457Y-55450041D01*
X99106597Y-55445082D01*
X99093290Y-55438788D01*
X99080664Y-55431220D01*
X99068841Y-55422452D01*
X99057934Y-55412566D01*
X99048048Y-55401659D01*
X99039280Y-55389836D01*
X99031712Y-55377210D01*
X99025418Y-55363903D01*
X99020459Y-55350043D01*
X99016882Y-55335764D01*
X99014722Y-55321203D01*
X99014000Y-55306500D01*
X99014000Y-53656500D01*
X99014722Y-53641797D01*
X99016882Y-53627236D01*
X99020459Y-53612957D01*
X99025418Y-53599097D01*
X99031712Y-53585790D01*
X99039280Y-53573164D01*
X99048048Y-53561341D01*
X99057934Y-53550434D01*
X99068841Y-53540548D01*
X99080664Y-53531780D01*
X99093290Y-53524212D01*
X99106597Y-53517918D01*
X99120457Y-53512959D01*
X99134736Y-53509382D01*
X99149297Y-53507222D01*
X99164000Y-53506500D01*
X99464000Y-53506500D01*
X99478703Y-53507222D01*
X99478703Y-53507222D01*
G37*
D11*
X99314000Y-54481500D03*
D10*
G36*
X98208703Y-53507222D02*
G01*
X98223264Y-53509382D01*
X98237543Y-53512959D01*
X98251403Y-53517918D01*
X98264710Y-53524212D01*
X98277336Y-53531780D01*
X98289159Y-53540548D01*
X98300066Y-53550434D01*
X98309952Y-53561341D01*
X98318720Y-53573164D01*
X98326288Y-53585790D01*
X98332582Y-53599097D01*
X98337541Y-53612957D01*
X98341118Y-53627236D01*
X98343278Y-53641797D01*
X98344000Y-53656500D01*
X98344000Y-55306500D01*
X98343278Y-55321203D01*
X98341118Y-55335764D01*
X98337541Y-55350043D01*
X98332582Y-55363903D01*
X98326288Y-55377210D01*
X98318720Y-55389836D01*
X98309952Y-55401659D01*
X98300066Y-55412566D01*
X98289159Y-55422452D01*
X98277336Y-55431220D01*
X98264710Y-55438788D01*
X98251403Y-55445082D01*
X98237543Y-55450041D01*
X98223264Y-55453618D01*
X98208703Y-55455778D01*
X98194000Y-55456500D01*
X97894000Y-55456500D01*
X97879297Y-55455778D01*
X97864736Y-55453618D01*
X97850457Y-55450041D01*
X97836597Y-55445082D01*
X97823290Y-55438788D01*
X97810664Y-55431220D01*
X97798841Y-55422452D01*
X97787934Y-55412566D01*
X97778048Y-55401659D01*
X97769280Y-55389836D01*
X97761712Y-55377210D01*
X97755418Y-55363903D01*
X97750459Y-55350043D01*
X97746882Y-55335764D01*
X97744722Y-55321203D01*
X97744000Y-55306500D01*
X97744000Y-53656500D01*
X97744722Y-53641797D01*
X97746882Y-53627236D01*
X97750459Y-53612957D01*
X97755418Y-53599097D01*
X97761712Y-53585790D01*
X97769280Y-53573164D01*
X97778048Y-53561341D01*
X97787934Y-53550434D01*
X97798841Y-53540548D01*
X97810664Y-53531780D01*
X97823290Y-53524212D01*
X97836597Y-53517918D01*
X97850457Y-53512959D01*
X97864736Y-53509382D01*
X97879297Y-53507222D01*
X97894000Y-53506500D01*
X98194000Y-53506500D01*
X98208703Y-53507222D01*
X98208703Y-53507222D01*
G37*
D11*
X98044000Y-54481500D03*
D12*
X97663000Y-63627000D03*
D13*
X97663000Y-61087000D03*
D10*
G36*
X102461142Y-44956574D02*
G01*
X102484803Y-44960084D01*
X102508007Y-44965896D01*
X102530529Y-44973954D01*
X102552153Y-44984182D01*
X102572670Y-44996479D01*
X102591883Y-45010729D01*
X102609607Y-45026793D01*
X102625671Y-45044517D01*
X102639921Y-45063730D01*
X102652218Y-45084247D01*
X102662446Y-45105871D01*
X102670504Y-45128393D01*
X102676316Y-45151597D01*
X102679826Y-45175258D01*
X102681000Y-45199150D01*
X102681000Y-45686650D01*
X102679826Y-45710542D01*
X102676316Y-45734203D01*
X102670504Y-45757407D01*
X102662446Y-45779929D01*
X102652218Y-45801553D01*
X102639921Y-45822070D01*
X102625671Y-45841283D01*
X102609607Y-45859007D01*
X102591883Y-45875071D01*
X102572670Y-45889321D01*
X102552153Y-45901618D01*
X102530529Y-45911846D01*
X102508007Y-45919904D01*
X102484803Y-45925716D01*
X102461142Y-45929226D01*
X102437250Y-45930400D01*
X101524750Y-45930400D01*
X101500858Y-45929226D01*
X101477197Y-45925716D01*
X101453993Y-45919904D01*
X101431471Y-45911846D01*
X101409847Y-45901618D01*
X101389330Y-45889321D01*
X101370117Y-45875071D01*
X101352393Y-45859007D01*
X101336329Y-45841283D01*
X101322079Y-45822070D01*
X101309782Y-45801553D01*
X101299554Y-45779929D01*
X101291496Y-45757407D01*
X101285684Y-45734203D01*
X101282174Y-45710542D01*
X101281000Y-45686650D01*
X101281000Y-45199150D01*
X101282174Y-45175258D01*
X101285684Y-45151597D01*
X101291496Y-45128393D01*
X101299554Y-45105871D01*
X101309782Y-45084247D01*
X101322079Y-45063730D01*
X101336329Y-45044517D01*
X101352393Y-45026793D01*
X101370117Y-45010729D01*
X101389330Y-44996479D01*
X101409847Y-44984182D01*
X101431471Y-44973954D01*
X101453993Y-44965896D01*
X101477197Y-44960084D01*
X101500858Y-44956574D01*
X101524750Y-44955400D01*
X102437250Y-44955400D01*
X102461142Y-44956574D01*
X102461142Y-44956574D01*
G37*
D14*
X101981000Y-45442900D03*
D10*
G36*
X102461142Y-46831574D02*
G01*
X102484803Y-46835084D01*
X102508007Y-46840896D01*
X102530529Y-46848954D01*
X102552153Y-46859182D01*
X102572670Y-46871479D01*
X102591883Y-46885729D01*
X102609607Y-46901793D01*
X102625671Y-46919517D01*
X102639921Y-46938730D01*
X102652218Y-46959247D01*
X102662446Y-46980871D01*
X102670504Y-47003393D01*
X102676316Y-47026597D01*
X102679826Y-47050258D01*
X102681000Y-47074150D01*
X102681000Y-47561650D01*
X102679826Y-47585542D01*
X102676316Y-47609203D01*
X102670504Y-47632407D01*
X102662446Y-47654929D01*
X102652218Y-47676553D01*
X102639921Y-47697070D01*
X102625671Y-47716283D01*
X102609607Y-47734007D01*
X102591883Y-47750071D01*
X102572670Y-47764321D01*
X102552153Y-47776618D01*
X102530529Y-47786846D01*
X102508007Y-47794904D01*
X102484803Y-47800716D01*
X102461142Y-47804226D01*
X102437250Y-47805400D01*
X101524750Y-47805400D01*
X101500858Y-47804226D01*
X101477197Y-47800716D01*
X101453993Y-47794904D01*
X101431471Y-47786846D01*
X101409847Y-47776618D01*
X101389330Y-47764321D01*
X101370117Y-47750071D01*
X101352393Y-47734007D01*
X101336329Y-47716283D01*
X101322079Y-47697070D01*
X101309782Y-47676553D01*
X101299554Y-47654929D01*
X101291496Y-47632407D01*
X101285684Y-47609203D01*
X101282174Y-47585542D01*
X101281000Y-47561650D01*
X101281000Y-47074150D01*
X101282174Y-47050258D01*
X101285684Y-47026597D01*
X101291496Y-47003393D01*
X101299554Y-46980871D01*
X101309782Y-46959247D01*
X101322079Y-46938730D01*
X101336329Y-46919517D01*
X101352393Y-46901793D01*
X101370117Y-46885729D01*
X101389330Y-46871479D01*
X101409847Y-46859182D01*
X101431471Y-46848954D01*
X101453993Y-46840896D01*
X101477197Y-46835084D01*
X101500858Y-46831574D01*
X101524750Y-46830400D01*
X102437250Y-46830400D01*
X102461142Y-46831574D01*
X102461142Y-46831574D01*
G37*
D14*
X101981000Y-47317900D03*
D10*
G36*
X100011142Y-45224374D02*
G01*
X100034803Y-45227884D01*
X100058007Y-45233696D01*
X100080529Y-45241754D01*
X100102153Y-45251982D01*
X100122670Y-45264279D01*
X100141883Y-45278529D01*
X100159607Y-45294593D01*
X100175671Y-45312317D01*
X100189921Y-45331530D01*
X100202218Y-45352047D01*
X100212446Y-45373671D01*
X100220504Y-45396193D01*
X100226316Y-45419397D01*
X100229826Y-45443058D01*
X100231000Y-45466950D01*
X100231000Y-46379450D01*
X100229826Y-46403342D01*
X100226316Y-46427003D01*
X100220504Y-46450207D01*
X100212446Y-46472729D01*
X100202218Y-46494353D01*
X100189921Y-46514870D01*
X100175671Y-46534083D01*
X100159607Y-46551807D01*
X100141883Y-46567871D01*
X100122670Y-46582121D01*
X100102153Y-46594418D01*
X100080529Y-46604646D01*
X100058007Y-46612704D01*
X100034803Y-46618516D01*
X100011142Y-46622026D01*
X99987250Y-46623200D01*
X99499750Y-46623200D01*
X99475858Y-46622026D01*
X99452197Y-46618516D01*
X99428993Y-46612704D01*
X99406471Y-46604646D01*
X99384847Y-46594418D01*
X99364330Y-46582121D01*
X99345117Y-46567871D01*
X99327393Y-46551807D01*
X99311329Y-46534083D01*
X99297079Y-46514870D01*
X99284782Y-46494353D01*
X99274554Y-46472729D01*
X99266496Y-46450207D01*
X99260684Y-46427003D01*
X99257174Y-46403342D01*
X99256000Y-46379450D01*
X99256000Y-45466950D01*
X99257174Y-45443058D01*
X99260684Y-45419397D01*
X99266496Y-45396193D01*
X99274554Y-45373671D01*
X99284782Y-45352047D01*
X99297079Y-45331530D01*
X99311329Y-45312317D01*
X99327393Y-45294593D01*
X99345117Y-45278529D01*
X99364330Y-45264279D01*
X99384847Y-45251982D01*
X99406471Y-45241754D01*
X99428993Y-45233696D01*
X99452197Y-45227884D01*
X99475858Y-45224374D01*
X99499750Y-45223200D01*
X99987250Y-45223200D01*
X100011142Y-45224374D01*
X100011142Y-45224374D01*
G37*
D14*
X99743500Y-45923200D03*
D10*
G36*
X98136142Y-45224374D02*
G01*
X98159803Y-45227884D01*
X98183007Y-45233696D01*
X98205529Y-45241754D01*
X98227153Y-45251982D01*
X98247670Y-45264279D01*
X98266883Y-45278529D01*
X98284607Y-45294593D01*
X98300671Y-45312317D01*
X98314921Y-45331530D01*
X98327218Y-45352047D01*
X98337446Y-45373671D01*
X98345504Y-45396193D01*
X98351316Y-45419397D01*
X98354826Y-45443058D01*
X98356000Y-45466950D01*
X98356000Y-46379450D01*
X98354826Y-46403342D01*
X98351316Y-46427003D01*
X98345504Y-46450207D01*
X98337446Y-46472729D01*
X98327218Y-46494353D01*
X98314921Y-46514870D01*
X98300671Y-46534083D01*
X98284607Y-46551807D01*
X98266883Y-46567871D01*
X98247670Y-46582121D01*
X98227153Y-46594418D01*
X98205529Y-46604646D01*
X98183007Y-46612704D01*
X98159803Y-46618516D01*
X98136142Y-46622026D01*
X98112250Y-46623200D01*
X97624750Y-46623200D01*
X97600858Y-46622026D01*
X97577197Y-46618516D01*
X97553993Y-46612704D01*
X97531471Y-46604646D01*
X97509847Y-46594418D01*
X97489330Y-46582121D01*
X97470117Y-46567871D01*
X97452393Y-46551807D01*
X97436329Y-46534083D01*
X97422079Y-46514870D01*
X97409782Y-46494353D01*
X97399554Y-46472729D01*
X97391496Y-46450207D01*
X97385684Y-46427003D01*
X97382174Y-46403342D01*
X97381000Y-46379450D01*
X97381000Y-45466950D01*
X97382174Y-45443058D01*
X97385684Y-45419397D01*
X97391496Y-45396193D01*
X97399554Y-45373671D01*
X97409782Y-45352047D01*
X97422079Y-45331530D01*
X97436329Y-45312317D01*
X97452393Y-45294593D01*
X97470117Y-45278529D01*
X97489330Y-45264279D01*
X97509847Y-45251982D01*
X97531471Y-45241754D01*
X97553993Y-45233696D01*
X97577197Y-45227884D01*
X97600858Y-45224374D01*
X97624750Y-45223200D01*
X98112250Y-45223200D01*
X98136142Y-45224374D01*
X98136142Y-45224374D01*
G37*
D14*
X97868500Y-45923200D03*
D12*
X84137500Y-63436500D03*
D13*
X84137500Y-60896500D03*
D15*
X94297500Y-49784000D03*
X94297500Y-45739608D03*
D12*
X80264000Y-45847000D03*
D13*
X80264000Y-48387000D03*
D12*
X80391000Y-52705000D03*
D13*
X82931000Y-52705000D03*
D10*
G36*
X93232504Y-59831204D02*
G01*
X93256773Y-59834804D01*
X93280571Y-59840765D01*
X93303671Y-59849030D01*
X93325849Y-59859520D01*
X93346893Y-59872133D01*
X93366598Y-59886747D01*
X93384777Y-59903223D01*
X93401253Y-59921402D01*
X93415867Y-59941107D01*
X93428480Y-59962151D01*
X93438970Y-59984329D01*
X93447235Y-60007429D01*
X93453196Y-60031227D01*
X93456796Y-60055496D01*
X93458000Y-60080000D01*
X93458000Y-60830000D01*
X93456796Y-60854504D01*
X93453196Y-60878773D01*
X93447235Y-60902571D01*
X93438970Y-60925671D01*
X93428480Y-60947849D01*
X93415867Y-60968893D01*
X93401253Y-60988598D01*
X93384777Y-61006777D01*
X93366598Y-61023253D01*
X93346893Y-61037867D01*
X93325849Y-61050480D01*
X93303671Y-61060970D01*
X93280571Y-61069235D01*
X93256773Y-61075196D01*
X93232504Y-61078796D01*
X93208000Y-61080000D01*
X91958000Y-61080000D01*
X91933496Y-61078796D01*
X91909227Y-61075196D01*
X91885429Y-61069235D01*
X91862329Y-61060970D01*
X91840151Y-61050480D01*
X91819107Y-61037867D01*
X91799402Y-61023253D01*
X91781223Y-61006777D01*
X91764747Y-60988598D01*
X91750133Y-60968893D01*
X91737520Y-60947849D01*
X91727030Y-60925671D01*
X91718765Y-60902571D01*
X91712804Y-60878773D01*
X91709204Y-60854504D01*
X91708000Y-60830000D01*
X91708000Y-60080000D01*
X91709204Y-60055496D01*
X91712804Y-60031227D01*
X91718765Y-60007429D01*
X91727030Y-59984329D01*
X91737520Y-59962151D01*
X91750133Y-59941107D01*
X91764747Y-59921402D01*
X91781223Y-59903223D01*
X91799402Y-59886747D01*
X91819107Y-59872133D01*
X91840151Y-59859520D01*
X91862329Y-59849030D01*
X91885429Y-59840765D01*
X91909227Y-59834804D01*
X91933496Y-59831204D01*
X91958000Y-59830000D01*
X93208000Y-59830000D01*
X93232504Y-59831204D01*
X93232504Y-59831204D01*
G37*
D16*
X92583000Y-60455000D03*
D10*
G36*
X93232504Y-57031204D02*
G01*
X93256773Y-57034804D01*
X93280571Y-57040765D01*
X93303671Y-57049030D01*
X93325849Y-57059520D01*
X93346893Y-57072133D01*
X93366598Y-57086747D01*
X93384777Y-57103223D01*
X93401253Y-57121402D01*
X93415867Y-57141107D01*
X93428480Y-57162151D01*
X93438970Y-57184329D01*
X93447235Y-57207429D01*
X93453196Y-57231227D01*
X93456796Y-57255496D01*
X93458000Y-57280000D01*
X93458000Y-58030000D01*
X93456796Y-58054504D01*
X93453196Y-58078773D01*
X93447235Y-58102571D01*
X93438970Y-58125671D01*
X93428480Y-58147849D01*
X93415867Y-58168893D01*
X93401253Y-58188598D01*
X93384777Y-58206777D01*
X93366598Y-58223253D01*
X93346893Y-58237867D01*
X93325849Y-58250480D01*
X93303671Y-58260970D01*
X93280571Y-58269235D01*
X93256773Y-58275196D01*
X93232504Y-58278796D01*
X93208000Y-58280000D01*
X91958000Y-58280000D01*
X91933496Y-58278796D01*
X91909227Y-58275196D01*
X91885429Y-58269235D01*
X91862329Y-58260970D01*
X91840151Y-58250480D01*
X91819107Y-58237867D01*
X91799402Y-58223253D01*
X91781223Y-58206777D01*
X91764747Y-58188598D01*
X91750133Y-58168893D01*
X91737520Y-58147849D01*
X91727030Y-58125671D01*
X91718765Y-58102571D01*
X91712804Y-58078773D01*
X91709204Y-58054504D01*
X91708000Y-58030000D01*
X91708000Y-57280000D01*
X91709204Y-57255496D01*
X91712804Y-57231227D01*
X91718765Y-57207429D01*
X91727030Y-57184329D01*
X91737520Y-57162151D01*
X91750133Y-57141107D01*
X91764747Y-57121402D01*
X91781223Y-57103223D01*
X91799402Y-57086747D01*
X91819107Y-57072133D01*
X91840151Y-57059520D01*
X91862329Y-57049030D01*
X91885429Y-57040765D01*
X91909227Y-57034804D01*
X91933496Y-57031204D01*
X91958000Y-57030000D01*
X93208000Y-57030000D01*
X93232504Y-57031204D01*
X93232504Y-57031204D01*
G37*
D16*
X92583000Y-57655000D03*
D10*
G36*
X88889104Y-59856604D02*
G01*
X88913373Y-59860204D01*
X88937171Y-59866165D01*
X88960271Y-59874430D01*
X88982449Y-59884920D01*
X89003493Y-59897533D01*
X89023198Y-59912147D01*
X89041377Y-59928623D01*
X89057853Y-59946802D01*
X89072467Y-59966507D01*
X89085080Y-59987551D01*
X89095570Y-60009729D01*
X89103835Y-60032829D01*
X89109796Y-60056627D01*
X89113396Y-60080896D01*
X89114600Y-60105400D01*
X89114600Y-60855400D01*
X89113396Y-60879904D01*
X89109796Y-60904173D01*
X89103835Y-60927971D01*
X89095570Y-60951071D01*
X89085080Y-60973249D01*
X89072467Y-60994293D01*
X89057853Y-61013998D01*
X89041377Y-61032177D01*
X89023198Y-61048653D01*
X89003493Y-61063267D01*
X88982449Y-61075880D01*
X88960271Y-61086370D01*
X88937171Y-61094635D01*
X88913373Y-61100596D01*
X88889104Y-61104196D01*
X88864600Y-61105400D01*
X87614600Y-61105400D01*
X87590096Y-61104196D01*
X87565827Y-61100596D01*
X87542029Y-61094635D01*
X87518929Y-61086370D01*
X87496751Y-61075880D01*
X87475707Y-61063267D01*
X87456002Y-61048653D01*
X87437823Y-61032177D01*
X87421347Y-61013998D01*
X87406733Y-60994293D01*
X87394120Y-60973249D01*
X87383630Y-60951071D01*
X87375365Y-60927971D01*
X87369404Y-60904173D01*
X87365804Y-60879904D01*
X87364600Y-60855400D01*
X87364600Y-60105400D01*
X87365804Y-60080896D01*
X87369404Y-60056627D01*
X87375365Y-60032829D01*
X87383630Y-60009729D01*
X87394120Y-59987551D01*
X87406733Y-59966507D01*
X87421347Y-59946802D01*
X87437823Y-59928623D01*
X87456002Y-59912147D01*
X87475707Y-59897533D01*
X87496751Y-59884920D01*
X87518929Y-59874430D01*
X87542029Y-59866165D01*
X87565827Y-59860204D01*
X87590096Y-59856604D01*
X87614600Y-59855400D01*
X88864600Y-59855400D01*
X88889104Y-59856604D01*
X88889104Y-59856604D01*
G37*
D16*
X88239600Y-60480400D03*
D10*
G36*
X88889104Y-57056604D02*
G01*
X88913373Y-57060204D01*
X88937171Y-57066165D01*
X88960271Y-57074430D01*
X88982449Y-57084920D01*
X89003493Y-57097533D01*
X89023198Y-57112147D01*
X89041377Y-57128623D01*
X89057853Y-57146802D01*
X89072467Y-57166507D01*
X89085080Y-57187551D01*
X89095570Y-57209729D01*
X89103835Y-57232829D01*
X89109796Y-57256627D01*
X89113396Y-57280896D01*
X89114600Y-57305400D01*
X89114600Y-58055400D01*
X89113396Y-58079904D01*
X89109796Y-58104173D01*
X89103835Y-58127971D01*
X89095570Y-58151071D01*
X89085080Y-58173249D01*
X89072467Y-58194293D01*
X89057853Y-58213998D01*
X89041377Y-58232177D01*
X89023198Y-58248653D01*
X89003493Y-58263267D01*
X88982449Y-58275880D01*
X88960271Y-58286370D01*
X88937171Y-58294635D01*
X88913373Y-58300596D01*
X88889104Y-58304196D01*
X88864600Y-58305400D01*
X87614600Y-58305400D01*
X87590096Y-58304196D01*
X87565827Y-58300596D01*
X87542029Y-58294635D01*
X87518929Y-58286370D01*
X87496751Y-58275880D01*
X87475707Y-58263267D01*
X87456002Y-58248653D01*
X87437823Y-58232177D01*
X87421347Y-58213998D01*
X87406733Y-58194293D01*
X87394120Y-58173249D01*
X87383630Y-58151071D01*
X87375365Y-58127971D01*
X87369404Y-58104173D01*
X87365804Y-58079904D01*
X87364600Y-58055400D01*
X87364600Y-57305400D01*
X87365804Y-57280896D01*
X87369404Y-57256627D01*
X87375365Y-57232829D01*
X87383630Y-57209729D01*
X87394120Y-57187551D01*
X87406733Y-57166507D01*
X87421347Y-57146802D01*
X87437823Y-57128623D01*
X87456002Y-57112147D01*
X87475707Y-57097533D01*
X87496751Y-57084920D01*
X87518929Y-57074430D01*
X87542029Y-57066165D01*
X87565827Y-57060204D01*
X87590096Y-57056604D01*
X87614600Y-57055400D01*
X88864600Y-57055400D01*
X88889104Y-57056604D01*
X88889104Y-57056604D01*
G37*
D16*
X88239600Y-57680400D03*
D10*
G36*
X94677142Y-62674174D02*
G01*
X94700803Y-62677684D01*
X94724007Y-62683496D01*
X94746529Y-62691554D01*
X94768153Y-62701782D01*
X94788670Y-62714079D01*
X94807883Y-62728329D01*
X94825607Y-62744393D01*
X94841671Y-62762117D01*
X94855921Y-62781330D01*
X94868218Y-62801847D01*
X94878446Y-62823471D01*
X94886504Y-62845993D01*
X94892316Y-62869197D01*
X94895826Y-62892858D01*
X94897000Y-62916750D01*
X94897000Y-63829250D01*
X94895826Y-63853142D01*
X94892316Y-63876803D01*
X94886504Y-63900007D01*
X94878446Y-63922529D01*
X94868218Y-63944153D01*
X94855921Y-63964670D01*
X94841671Y-63983883D01*
X94825607Y-64001607D01*
X94807883Y-64017671D01*
X94788670Y-64031921D01*
X94768153Y-64044218D01*
X94746529Y-64054446D01*
X94724007Y-64062504D01*
X94700803Y-64068316D01*
X94677142Y-64071826D01*
X94653250Y-64073000D01*
X94165750Y-64073000D01*
X94141858Y-64071826D01*
X94118197Y-64068316D01*
X94094993Y-64062504D01*
X94072471Y-64054446D01*
X94050847Y-64044218D01*
X94030330Y-64031921D01*
X94011117Y-64017671D01*
X93993393Y-64001607D01*
X93977329Y-63983883D01*
X93963079Y-63964670D01*
X93950782Y-63944153D01*
X93940554Y-63922529D01*
X93932496Y-63900007D01*
X93926684Y-63876803D01*
X93923174Y-63853142D01*
X93922000Y-63829250D01*
X93922000Y-62916750D01*
X93923174Y-62892858D01*
X93926684Y-62869197D01*
X93932496Y-62845993D01*
X93940554Y-62823471D01*
X93950782Y-62801847D01*
X93963079Y-62781330D01*
X93977329Y-62762117D01*
X93993393Y-62744393D01*
X94011117Y-62728329D01*
X94030330Y-62714079D01*
X94050847Y-62701782D01*
X94072471Y-62691554D01*
X94094993Y-62683496D01*
X94118197Y-62677684D01*
X94141858Y-62674174D01*
X94165750Y-62673000D01*
X94653250Y-62673000D01*
X94677142Y-62674174D01*
X94677142Y-62674174D01*
G37*
D14*
X94409500Y-63373000D03*
D10*
G36*
X92802142Y-62674174D02*
G01*
X92825803Y-62677684D01*
X92849007Y-62683496D01*
X92871529Y-62691554D01*
X92893153Y-62701782D01*
X92913670Y-62714079D01*
X92932883Y-62728329D01*
X92950607Y-62744393D01*
X92966671Y-62762117D01*
X92980921Y-62781330D01*
X92993218Y-62801847D01*
X93003446Y-62823471D01*
X93011504Y-62845993D01*
X93017316Y-62869197D01*
X93020826Y-62892858D01*
X93022000Y-62916750D01*
X93022000Y-63829250D01*
X93020826Y-63853142D01*
X93017316Y-63876803D01*
X93011504Y-63900007D01*
X93003446Y-63922529D01*
X92993218Y-63944153D01*
X92980921Y-63964670D01*
X92966671Y-63983883D01*
X92950607Y-64001607D01*
X92932883Y-64017671D01*
X92913670Y-64031921D01*
X92893153Y-64044218D01*
X92871529Y-64054446D01*
X92849007Y-64062504D01*
X92825803Y-64068316D01*
X92802142Y-64071826D01*
X92778250Y-64073000D01*
X92290750Y-64073000D01*
X92266858Y-64071826D01*
X92243197Y-64068316D01*
X92219993Y-64062504D01*
X92197471Y-64054446D01*
X92175847Y-64044218D01*
X92155330Y-64031921D01*
X92136117Y-64017671D01*
X92118393Y-64001607D01*
X92102329Y-63983883D01*
X92088079Y-63964670D01*
X92075782Y-63944153D01*
X92065554Y-63922529D01*
X92057496Y-63900007D01*
X92051684Y-63876803D01*
X92048174Y-63853142D01*
X92047000Y-63829250D01*
X92047000Y-62916750D01*
X92048174Y-62892858D01*
X92051684Y-62869197D01*
X92057496Y-62845993D01*
X92065554Y-62823471D01*
X92075782Y-62801847D01*
X92088079Y-62781330D01*
X92102329Y-62762117D01*
X92118393Y-62744393D01*
X92136117Y-62728329D01*
X92155330Y-62714079D01*
X92175847Y-62701782D01*
X92197471Y-62691554D01*
X92219993Y-62683496D01*
X92243197Y-62677684D01*
X92266858Y-62674174D01*
X92290750Y-62673000D01*
X92778250Y-62673000D01*
X92802142Y-62674174D01*
X92802142Y-62674174D01*
G37*
D14*
X92534500Y-63373000D03*
D10*
G36*
X90359142Y-62674174D02*
G01*
X90382803Y-62677684D01*
X90406007Y-62683496D01*
X90428529Y-62691554D01*
X90450153Y-62701782D01*
X90470670Y-62714079D01*
X90489883Y-62728329D01*
X90507607Y-62744393D01*
X90523671Y-62762117D01*
X90537921Y-62781330D01*
X90550218Y-62801847D01*
X90560446Y-62823471D01*
X90568504Y-62845993D01*
X90574316Y-62869197D01*
X90577826Y-62892858D01*
X90579000Y-62916750D01*
X90579000Y-63829250D01*
X90577826Y-63853142D01*
X90574316Y-63876803D01*
X90568504Y-63900007D01*
X90560446Y-63922529D01*
X90550218Y-63944153D01*
X90537921Y-63964670D01*
X90523671Y-63983883D01*
X90507607Y-64001607D01*
X90489883Y-64017671D01*
X90470670Y-64031921D01*
X90450153Y-64044218D01*
X90428529Y-64054446D01*
X90406007Y-64062504D01*
X90382803Y-64068316D01*
X90359142Y-64071826D01*
X90335250Y-64073000D01*
X89847750Y-64073000D01*
X89823858Y-64071826D01*
X89800197Y-64068316D01*
X89776993Y-64062504D01*
X89754471Y-64054446D01*
X89732847Y-64044218D01*
X89712330Y-64031921D01*
X89693117Y-64017671D01*
X89675393Y-64001607D01*
X89659329Y-63983883D01*
X89645079Y-63964670D01*
X89632782Y-63944153D01*
X89622554Y-63922529D01*
X89614496Y-63900007D01*
X89608684Y-63876803D01*
X89605174Y-63853142D01*
X89604000Y-63829250D01*
X89604000Y-62916750D01*
X89605174Y-62892858D01*
X89608684Y-62869197D01*
X89614496Y-62845993D01*
X89622554Y-62823471D01*
X89632782Y-62801847D01*
X89645079Y-62781330D01*
X89659329Y-62762117D01*
X89675393Y-62744393D01*
X89693117Y-62728329D01*
X89712330Y-62714079D01*
X89732847Y-62701782D01*
X89754471Y-62691554D01*
X89776993Y-62683496D01*
X89800197Y-62677684D01*
X89823858Y-62674174D01*
X89847750Y-62673000D01*
X90335250Y-62673000D01*
X90359142Y-62674174D01*
X90359142Y-62674174D01*
G37*
D14*
X90091500Y-63373000D03*
D10*
G36*
X88484142Y-62674174D02*
G01*
X88507803Y-62677684D01*
X88531007Y-62683496D01*
X88553529Y-62691554D01*
X88575153Y-62701782D01*
X88595670Y-62714079D01*
X88614883Y-62728329D01*
X88632607Y-62744393D01*
X88648671Y-62762117D01*
X88662921Y-62781330D01*
X88675218Y-62801847D01*
X88685446Y-62823471D01*
X88693504Y-62845993D01*
X88699316Y-62869197D01*
X88702826Y-62892858D01*
X88704000Y-62916750D01*
X88704000Y-63829250D01*
X88702826Y-63853142D01*
X88699316Y-63876803D01*
X88693504Y-63900007D01*
X88685446Y-63922529D01*
X88675218Y-63944153D01*
X88662921Y-63964670D01*
X88648671Y-63983883D01*
X88632607Y-64001607D01*
X88614883Y-64017671D01*
X88595670Y-64031921D01*
X88575153Y-64044218D01*
X88553529Y-64054446D01*
X88531007Y-64062504D01*
X88507803Y-64068316D01*
X88484142Y-64071826D01*
X88460250Y-64073000D01*
X87972750Y-64073000D01*
X87948858Y-64071826D01*
X87925197Y-64068316D01*
X87901993Y-64062504D01*
X87879471Y-64054446D01*
X87857847Y-64044218D01*
X87837330Y-64031921D01*
X87818117Y-64017671D01*
X87800393Y-64001607D01*
X87784329Y-63983883D01*
X87770079Y-63964670D01*
X87757782Y-63944153D01*
X87747554Y-63922529D01*
X87739496Y-63900007D01*
X87733684Y-63876803D01*
X87730174Y-63853142D01*
X87729000Y-63829250D01*
X87729000Y-62916750D01*
X87730174Y-62892858D01*
X87733684Y-62869197D01*
X87739496Y-62845993D01*
X87747554Y-62823471D01*
X87757782Y-62801847D01*
X87770079Y-62781330D01*
X87784329Y-62762117D01*
X87800393Y-62744393D01*
X87818117Y-62728329D01*
X87837330Y-62714079D01*
X87857847Y-62701782D01*
X87879471Y-62691554D01*
X87901993Y-62683496D01*
X87925197Y-62677684D01*
X87948858Y-62674174D01*
X87972750Y-62673000D01*
X88460250Y-62673000D01*
X88484142Y-62674174D01*
X88484142Y-62674174D01*
G37*
D14*
X88216500Y-63373000D03*
D10*
G36*
X101916142Y-56578174D02*
G01*
X101939803Y-56581684D01*
X101963007Y-56587496D01*
X101985529Y-56595554D01*
X102007153Y-56605782D01*
X102027670Y-56618079D01*
X102046883Y-56632329D01*
X102064607Y-56648393D01*
X102080671Y-56666117D01*
X102094921Y-56685330D01*
X102107218Y-56705847D01*
X102117446Y-56727471D01*
X102125504Y-56749993D01*
X102131316Y-56773197D01*
X102134826Y-56796858D01*
X102136000Y-56820750D01*
X102136000Y-57733250D01*
X102134826Y-57757142D01*
X102131316Y-57780803D01*
X102125504Y-57804007D01*
X102117446Y-57826529D01*
X102107218Y-57848153D01*
X102094921Y-57868670D01*
X102080671Y-57887883D01*
X102064607Y-57905607D01*
X102046883Y-57921671D01*
X102027670Y-57935921D01*
X102007153Y-57948218D01*
X101985529Y-57958446D01*
X101963007Y-57966504D01*
X101939803Y-57972316D01*
X101916142Y-57975826D01*
X101892250Y-57977000D01*
X101404750Y-57977000D01*
X101380858Y-57975826D01*
X101357197Y-57972316D01*
X101333993Y-57966504D01*
X101311471Y-57958446D01*
X101289847Y-57948218D01*
X101269330Y-57935921D01*
X101250117Y-57921671D01*
X101232393Y-57905607D01*
X101216329Y-57887883D01*
X101202079Y-57868670D01*
X101189782Y-57848153D01*
X101179554Y-57826529D01*
X101171496Y-57804007D01*
X101165684Y-57780803D01*
X101162174Y-57757142D01*
X101161000Y-57733250D01*
X101161000Y-56820750D01*
X101162174Y-56796858D01*
X101165684Y-56773197D01*
X101171496Y-56749993D01*
X101179554Y-56727471D01*
X101189782Y-56705847D01*
X101202079Y-56685330D01*
X101216329Y-56666117D01*
X101232393Y-56648393D01*
X101250117Y-56632329D01*
X101269330Y-56618079D01*
X101289847Y-56605782D01*
X101311471Y-56595554D01*
X101333993Y-56587496D01*
X101357197Y-56581684D01*
X101380858Y-56578174D01*
X101404750Y-56577000D01*
X101892250Y-56577000D01*
X101916142Y-56578174D01*
X101916142Y-56578174D01*
G37*
D14*
X101648500Y-57277000D03*
D10*
G36*
X100041142Y-56578174D02*
G01*
X100064803Y-56581684D01*
X100088007Y-56587496D01*
X100110529Y-56595554D01*
X100132153Y-56605782D01*
X100152670Y-56618079D01*
X100171883Y-56632329D01*
X100189607Y-56648393D01*
X100205671Y-56666117D01*
X100219921Y-56685330D01*
X100232218Y-56705847D01*
X100242446Y-56727471D01*
X100250504Y-56749993D01*
X100256316Y-56773197D01*
X100259826Y-56796858D01*
X100261000Y-56820750D01*
X100261000Y-57733250D01*
X100259826Y-57757142D01*
X100256316Y-57780803D01*
X100250504Y-57804007D01*
X100242446Y-57826529D01*
X100232218Y-57848153D01*
X100219921Y-57868670D01*
X100205671Y-57887883D01*
X100189607Y-57905607D01*
X100171883Y-57921671D01*
X100152670Y-57935921D01*
X100132153Y-57948218D01*
X100110529Y-57958446D01*
X100088007Y-57966504D01*
X100064803Y-57972316D01*
X100041142Y-57975826D01*
X100017250Y-57977000D01*
X99529750Y-57977000D01*
X99505858Y-57975826D01*
X99482197Y-57972316D01*
X99458993Y-57966504D01*
X99436471Y-57958446D01*
X99414847Y-57948218D01*
X99394330Y-57935921D01*
X99375117Y-57921671D01*
X99357393Y-57905607D01*
X99341329Y-57887883D01*
X99327079Y-57868670D01*
X99314782Y-57848153D01*
X99304554Y-57826529D01*
X99296496Y-57804007D01*
X99290684Y-57780803D01*
X99287174Y-57757142D01*
X99286000Y-57733250D01*
X99286000Y-56820750D01*
X99287174Y-56796858D01*
X99290684Y-56773197D01*
X99296496Y-56749993D01*
X99304554Y-56727471D01*
X99314782Y-56705847D01*
X99327079Y-56685330D01*
X99341329Y-56666117D01*
X99357393Y-56648393D01*
X99375117Y-56632329D01*
X99394330Y-56618079D01*
X99414847Y-56605782D01*
X99436471Y-56595554D01*
X99458993Y-56587496D01*
X99482197Y-56581684D01*
X99505858Y-56578174D01*
X99529750Y-56577000D01*
X100017250Y-56577000D01*
X100041142Y-56578174D01*
X100041142Y-56578174D01*
G37*
D14*
X99773500Y-57277000D03*
D10*
G36*
X85664504Y-47745204D02*
G01*
X85688773Y-47748804D01*
X85712571Y-47754765D01*
X85735671Y-47763030D01*
X85757849Y-47773520D01*
X85778893Y-47786133D01*
X85798598Y-47800747D01*
X85816777Y-47817223D01*
X85833253Y-47835402D01*
X85847867Y-47855107D01*
X85860480Y-47876151D01*
X85870970Y-47898329D01*
X85879235Y-47921429D01*
X85885196Y-47945227D01*
X85888796Y-47969496D01*
X85890000Y-47994000D01*
X85890000Y-50094000D01*
X85888796Y-50118504D01*
X85885196Y-50142773D01*
X85879235Y-50166571D01*
X85870970Y-50189671D01*
X85860480Y-50211849D01*
X85847867Y-50232893D01*
X85833253Y-50252598D01*
X85816777Y-50270777D01*
X85798598Y-50287253D01*
X85778893Y-50301867D01*
X85757849Y-50314480D01*
X85735671Y-50324970D01*
X85712571Y-50333235D01*
X85688773Y-50339196D01*
X85664504Y-50342796D01*
X85640000Y-50344000D01*
X84540000Y-50344000D01*
X84515496Y-50342796D01*
X84491227Y-50339196D01*
X84467429Y-50333235D01*
X84444329Y-50324970D01*
X84422151Y-50314480D01*
X84401107Y-50301867D01*
X84381402Y-50287253D01*
X84363223Y-50270777D01*
X84346747Y-50252598D01*
X84332133Y-50232893D01*
X84319520Y-50211849D01*
X84309030Y-50189671D01*
X84300765Y-50166571D01*
X84294804Y-50142773D01*
X84291204Y-50118504D01*
X84290000Y-50094000D01*
X84290000Y-47994000D01*
X84291204Y-47969496D01*
X84294804Y-47945227D01*
X84300765Y-47921429D01*
X84309030Y-47898329D01*
X84319520Y-47876151D01*
X84332133Y-47855107D01*
X84346747Y-47835402D01*
X84363223Y-47817223D01*
X84381402Y-47800747D01*
X84401107Y-47786133D01*
X84422151Y-47773520D01*
X84444329Y-47763030D01*
X84467429Y-47754765D01*
X84491227Y-47748804D01*
X84515496Y-47745204D01*
X84540000Y-47744000D01*
X85640000Y-47744000D01*
X85664504Y-47745204D01*
X85664504Y-47745204D01*
G37*
D17*
X85090000Y-49044000D03*
D10*
G36*
X85664504Y-44145204D02*
G01*
X85688773Y-44148804D01*
X85712571Y-44154765D01*
X85735671Y-44163030D01*
X85757849Y-44173520D01*
X85778893Y-44186133D01*
X85798598Y-44200747D01*
X85816777Y-44217223D01*
X85833253Y-44235402D01*
X85847867Y-44255107D01*
X85860480Y-44276151D01*
X85870970Y-44298329D01*
X85879235Y-44321429D01*
X85885196Y-44345227D01*
X85888796Y-44369496D01*
X85890000Y-44394000D01*
X85890000Y-46494000D01*
X85888796Y-46518504D01*
X85885196Y-46542773D01*
X85879235Y-46566571D01*
X85870970Y-46589671D01*
X85860480Y-46611849D01*
X85847867Y-46632893D01*
X85833253Y-46652598D01*
X85816777Y-46670777D01*
X85798598Y-46687253D01*
X85778893Y-46701867D01*
X85757849Y-46714480D01*
X85735671Y-46724970D01*
X85712571Y-46733235D01*
X85688773Y-46739196D01*
X85664504Y-46742796D01*
X85640000Y-46744000D01*
X84540000Y-46744000D01*
X84515496Y-46742796D01*
X84491227Y-46739196D01*
X84467429Y-46733235D01*
X84444329Y-46724970D01*
X84422151Y-46714480D01*
X84401107Y-46701867D01*
X84381402Y-46687253D01*
X84363223Y-46670777D01*
X84346747Y-46652598D01*
X84332133Y-46632893D01*
X84319520Y-46611849D01*
X84309030Y-46589671D01*
X84300765Y-46566571D01*
X84294804Y-46542773D01*
X84291204Y-46518504D01*
X84290000Y-46494000D01*
X84290000Y-44394000D01*
X84291204Y-44369496D01*
X84294804Y-44345227D01*
X84300765Y-44321429D01*
X84309030Y-44298329D01*
X84319520Y-44276151D01*
X84332133Y-44255107D01*
X84346747Y-44235402D01*
X84363223Y-44217223D01*
X84381402Y-44200747D01*
X84401107Y-44186133D01*
X84422151Y-44173520D01*
X84444329Y-44163030D01*
X84467429Y-44154765D01*
X84491227Y-44148804D01*
X84515496Y-44145204D01*
X84540000Y-44144000D01*
X85640000Y-44144000D01*
X85664504Y-44145204D01*
X85664504Y-44145204D01*
G37*
D17*
X85090000Y-45444000D03*
D18*
X83820000Y-56388000D03*
X83820000Y-56870600D03*
X83820000Y-57378600D03*
X83820000Y-57886600D03*
X83820000Y-58369200D03*
X79451200Y-58369200D03*
X79451200Y-57886600D03*
X79451200Y-57378600D03*
X79451200Y-56870600D03*
X79451200Y-56388000D03*
X92608400Y-53467000D03*
X92608400Y-53949600D03*
X92608400Y-54457600D03*
X92608400Y-54965600D03*
X92608400Y-55448200D03*
X88239600Y-55448200D03*
X88239600Y-54965600D03*
X88239600Y-54457600D03*
X88239600Y-53949600D03*
X88239600Y-53467000D03*
D19*
X90762000Y-45405000D03*
X90762000Y-47305000D03*
X88562000Y-47305000D03*
X88562000Y-46355000D03*
X88562000Y-45405000D03*
D20*
X79476600Y-55473600D03*
X96316800Y-45851753D03*
X102108000Y-52578000D03*
X92110600Y-45405000D03*
X86664800Y-52374800D03*
X90106500Y-61722000D03*
X94742000Y-61595000D03*
X81407000Y-57886600D03*
X100584000Y-52565300D03*
X90424000Y-54660800D03*
D21*
X88239600Y-63349900D02*
X88216500Y-63373000D01*
X88239600Y-60480400D02*
X88239600Y-63349900D01*
X88239600Y-55816500D02*
X88239600Y-57680400D01*
X88239600Y-55448200D02*
X88239600Y-55816500D01*
X80403700Y-58369200D02*
X80518000Y-58483500D01*
X79451200Y-58369200D02*
X80403700Y-58369200D01*
X80518000Y-59478519D02*
X80518000Y-58483500D01*
D22*
X80518000Y-59817000D02*
X81978500Y-61277500D01*
X80518000Y-59478519D02*
X80518000Y-59817000D01*
X81978500Y-61277500D02*
X81978500Y-62738000D01*
X82677000Y-63436500D02*
X84137500Y-63436500D01*
X81978500Y-62738000D02*
X82677000Y-63436500D01*
D21*
X86874350Y-54362350D02*
X86874350Y-63239650D01*
X86874350Y-63239650D02*
X86677500Y-63436500D01*
X87287100Y-53949600D02*
X86874350Y-54362350D01*
X86677500Y-63436500D02*
X84137500Y-63436500D01*
X88239600Y-53949600D02*
X87287100Y-53949600D01*
X78498700Y-57378600D02*
X78206600Y-57086500D01*
X79451200Y-57378600D02*
X78498700Y-57378600D01*
X78206600Y-55092600D02*
X80111600Y-53187600D01*
X78206600Y-57086500D02*
X78206600Y-55092600D01*
X82867500Y-57886600D02*
X83820000Y-57886600D01*
X82651600Y-58102500D02*
X82867500Y-57886600D01*
X83084300Y-60896500D02*
X82651600Y-60463800D01*
X82651600Y-60463800D02*
X82651600Y-58102500D01*
X84137500Y-60896500D02*
X83084300Y-60896500D01*
D23*
X88562000Y-47305000D02*
X88562000Y-46355000D01*
D21*
X83820000Y-58369200D02*
X83820000Y-58737500D01*
X83820000Y-58737500D02*
X83820000Y-58877200D01*
X84785200Y-58369200D02*
X85140800Y-58369200D01*
X83820000Y-58369200D02*
X84785200Y-58369200D01*
X91655900Y-53949600D02*
X92608400Y-53949600D01*
X89192100Y-54457600D02*
X89700100Y-53949600D01*
X88239600Y-54457600D02*
X89192100Y-54457600D01*
X92608400Y-55816500D02*
X92290900Y-56134000D01*
X92608400Y-55448200D02*
X92608400Y-55816500D01*
X92290900Y-56134000D02*
X90932000Y-56134000D01*
X89700100Y-53949600D02*
X90068400Y-53949600D01*
X90068400Y-53949600D02*
X90170000Y-53848000D01*
X90805000Y-53848000D02*
X90906600Y-53949600D01*
X90170000Y-53848000D02*
X90805000Y-53848000D01*
X90906600Y-53949600D02*
X91655900Y-53949600D01*
X92608400Y-55448200D02*
X91363800Y-55448200D01*
X83820000Y-56870600D02*
X84772500Y-56870600D01*
X82651600Y-53187600D02*
X83704800Y-53187600D01*
X84794682Y-56870600D02*
X84870901Y-56794381D01*
X83820000Y-56870600D02*
X84794682Y-56870600D01*
X82931000Y-53187600D02*
X82931000Y-54240800D01*
X84870901Y-55972099D02*
X84397802Y-55499000D01*
X84870901Y-56794381D02*
X84870901Y-55972099D01*
X84397802Y-55499000D02*
X83566000Y-55499000D01*
X82931000Y-54864000D02*
X82931000Y-54240800D01*
X83566000Y-55499000D02*
X82931000Y-54864000D01*
D23*
X84494000Y-45405000D02*
X84455000Y-45444000D01*
X88562000Y-45405000D02*
X84494000Y-45405000D01*
X80540000Y-45444000D02*
X80137000Y-45847000D01*
X84455000Y-45444000D02*
X80540000Y-45444000D01*
D21*
X79451200Y-56388000D02*
X79451200Y-55499000D01*
D23*
X94488000Y-45856804D02*
X97604253Y-45851753D01*
X94036196Y-45405000D02*
X94488000Y-45856804D01*
X90762000Y-45405000D02*
X92110600Y-45405000D01*
D21*
X94297500Y-45820608D02*
X94297500Y-45739608D01*
D23*
X92110600Y-45405000D02*
X94036196Y-45405000D01*
D21*
X87515700Y-52374800D02*
X87230485Y-52374800D01*
X87230485Y-52374800D02*
X86664800Y-52374800D01*
X88239600Y-53098700D02*
X87515700Y-52374800D01*
X88239600Y-53467000D02*
X88239600Y-53098700D01*
X90091500Y-61800500D02*
X90297000Y-61595000D01*
X90091500Y-63373000D02*
X90091500Y-61800500D01*
X94409500Y-61927500D02*
X94742000Y-61595000D01*
X94409500Y-63373000D02*
X94409500Y-61927500D01*
X101854000Y-52832000D02*
X102108000Y-52578000D01*
X101854000Y-54481500D02*
X101854000Y-52832000D01*
X101854000Y-57071500D02*
X101648500Y-57277000D01*
X101854000Y-54481500D02*
X101854000Y-55753000D01*
X101648500Y-55958500D02*
X101648500Y-57277000D01*
X101854000Y-55753000D02*
X101648500Y-55958500D01*
D23*
X97917000Y-48329500D02*
X97917000Y-47625000D01*
X98044000Y-48456500D02*
X97917000Y-48329500D01*
X98044000Y-49531500D02*
X98044000Y-48456500D01*
X97917000Y-47625000D02*
X97917000Y-46061800D01*
X97917000Y-47879000D02*
X97917000Y-47625000D01*
D21*
X92534500Y-60503500D02*
X92583000Y-60455000D01*
X92534500Y-63373000D02*
X92534500Y-60503500D01*
X93560900Y-53467000D02*
X92608400Y-53467000D01*
X93659301Y-53565401D02*
X93560900Y-53467000D01*
X93659301Y-56578699D02*
X93659301Y-53565401D01*
X92583000Y-57655000D02*
X93659301Y-56578699D01*
D22*
X100584000Y-54494200D02*
X100584000Y-52578000D01*
D21*
X82867500Y-57378600D02*
X83820000Y-57378600D01*
X82783093Y-57378600D02*
X82867500Y-57378600D01*
X82275093Y-57886600D02*
X82783093Y-57378600D01*
X79451200Y-57886600D02*
X81407000Y-57886600D01*
X81407000Y-57886600D02*
X82275093Y-57886600D01*
X90119200Y-54965600D02*
X90424000Y-54660800D01*
X88239600Y-54965600D02*
X90119200Y-54965600D01*
X90627200Y-54457600D02*
X90424000Y-54660800D01*
X92608400Y-54457600D02*
X90627200Y-54457600D01*
X83857200Y-56388000D02*
X82804000Y-56388000D01*
X83820000Y-56388000D02*
X82118200Y-56388000D01*
X81635600Y-56870600D02*
X82118200Y-56388000D01*
X79451200Y-56870600D02*
X81635600Y-56870600D01*
X99743500Y-45923200D02*
X99743500Y-47038500D01*
X100584000Y-47879000D02*
X100584000Y-49531500D01*
X99743500Y-47038500D02*
X100584000Y-47879000D01*
X101854000Y-47444900D02*
X101981000Y-47317900D01*
X101854000Y-49531500D02*
X101854000Y-47444900D01*
X97409000Y-59641500D02*
X97409000Y-61087000D01*
X99773500Y-57277000D02*
X97409000Y-59641500D01*
X99314000Y-54481500D02*
X99314000Y-55626000D01*
X99773500Y-56085500D02*
X99773500Y-57277000D01*
X99314000Y-55626000D02*
X99773500Y-56085500D01*
D24*
G36*
X79434986Y-44606294D02*
G01*
X79208866Y-44791866D01*
X79023294Y-45017986D01*
X78885401Y-45275966D01*
X78800487Y-45555889D01*
X78771815Y-45847000D01*
X78800487Y-46138111D01*
X78885401Y-46418034D01*
X79023294Y-46676014D01*
X79208866Y-46902134D01*
X79238687Y-46926607D01*
X79169820Y-46947498D01*
X79059506Y-47006463D01*
X78962815Y-47085815D01*
X78883463Y-47182506D01*
X78824498Y-47292820D01*
X78788188Y-47412518D01*
X78775928Y-47537000D01*
X78779000Y-48101250D01*
X78937750Y-48260000D01*
X80137000Y-48260000D01*
X80137000Y-48240000D01*
X80391000Y-48240000D01*
X80391000Y-48260000D01*
X81590250Y-48260000D01*
X81749000Y-48101250D01*
X81752072Y-47537000D01*
X81739812Y-47412518D01*
X81703502Y-47292820D01*
X81644537Y-47182506D01*
X81565185Y-47085815D01*
X81468494Y-47006463D01*
X81358180Y-46947498D01*
X81289313Y-46926607D01*
X81319134Y-46902134D01*
X81504706Y-46676014D01*
X81642599Y-46418034D01*
X81668394Y-46333000D01*
X83651928Y-46333000D01*
X83651928Y-46494000D01*
X83668992Y-46667254D01*
X83719528Y-46833850D01*
X83801595Y-46987386D01*
X83912038Y-47121962D01*
X83988813Y-47184969D01*
X83935506Y-47213463D01*
X83838815Y-47292815D01*
X83759463Y-47389506D01*
X83700498Y-47499820D01*
X83664188Y-47619518D01*
X83651928Y-47744000D01*
X83655000Y-48758250D01*
X83813750Y-48917000D01*
X84963000Y-48917000D01*
X84963000Y-48897000D01*
X85217000Y-48897000D01*
X85217000Y-48917000D01*
X86366250Y-48917000D01*
X86525000Y-48758250D01*
X86525316Y-48653802D01*
X92610230Y-48653802D01*
X92613302Y-49498250D01*
X92772052Y-49657000D01*
X94170500Y-49657000D01*
X94170500Y-48177552D01*
X94424500Y-48177552D01*
X94424500Y-49657000D01*
X95822948Y-49657000D01*
X95981698Y-49498250D01*
X95984770Y-48653802D01*
X95972510Y-48529320D01*
X95936200Y-48409622D01*
X95877235Y-48299308D01*
X95797883Y-48202617D01*
X95701192Y-48123265D01*
X95590878Y-48064300D01*
X95471180Y-48027990D01*
X95346698Y-48015730D01*
X94583250Y-48018802D01*
X94424500Y-48177552D01*
X94170500Y-48177552D01*
X94011750Y-48018802D01*
X93248302Y-48015730D01*
X93123820Y-48027990D01*
X93004122Y-48064300D01*
X92893808Y-48123265D01*
X92797117Y-48202617D01*
X92717765Y-48299308D01*
X92658800Y-48409622D01*
X92622490Y-48529320D01*
X92610230Y-48653802D01*
X86525316Y-48653802D01*
X86528072Y-47744000D01*
X86516845Y-47630000D01*
X87393928Y-47630000D01*
X87406188Y-47754482D01*
X87442498Y-47874180D01*
X87501463Y-47984494D01*
X87580815Y-48081185D01*
X87677506Y-48160537D01*
X87787820Y-48219502D01*
X87907518Y-48255812D01*
X88032000Y-48268072D01*
X88276250Y-48265000D01*
X88435000Y-48106250D01*
X88435000Y-47432000D01*
X87555750Y-47432000D01*
X87397000Y-47590750D01*
X87393928Y-47630000D01*
X86516845Y-47630000D01*
X86515812Y-47619518D01*
X86479502Y-47499820D01*
X86420537Y-47389506D01*
X86341185Y-47292815D01*
X86244494Y-47213463D01*
X86191187Y-47184969D01*
X86267962Y-47121962D01*
X86378405Y-46987386D01*
X86460472Y-46833850D01*
X86511008Y-46667254D01*
X86528072Y-46494000D01*
X86528072Y-46294000D01*
X87740110Y-46294000D01*
X87787820Y-46319502D01*
X87904841Y-46355000D01*
X87787820Y-46390498D01*
X87677506Y-46449463D01*
X87637859Y-46482000D01*
X87555750Y-46482000D01*
X87397000Y-46640750D01*
X87393928Y-46680000D01*
X87406188Y-46804482D01*
X87413929Y-46830000D01*
X87406188Y-46855518D01*
X87393928Y-46980000D01*
X87397000Y-47019250D01*
X87555750Y-47178000D01*
X87637859Y-47178000D01*
X87677506Y-47210537D01*
X87787820Y-47269502D01*
X87907518Y-47305812D01*
X88032000Y-47318072D01*
X88276250Y-47315000D01*
X88413250Y-47178000D01*
X88435000Y-47178000D01*
X88435000Y-47158000D01*
X88689000Y-47158000D01*
X88689000Y-47178000D01*
X88709000Y-47178000D01*
X88709000Y-47432000D01*
X88689000Y-47432000D01*
X88689000Y-48106250D01*
X88847750Y-48265000D01*
X89092000Y-48268072D01*
X89216482Y-48255812D01*
X89336180Y-48219502D01*
X89446494Y-48160537D01*
X89543185Y-48081185D01*
X89622537Y-47984494D01*
X89662000Y-47910665D01*
X89701463Y-47984494D01*
X89780815Y-48081185D01*
X89877506Y-48160537D01*
X89987820Y-48219502D01*
X90107518Y-48255812D01*
X90232000Y-48268072D01*
X91292000Y-48268072D01*
X91416482Y-48255812D01*
X91536180Y-48219502D01*
X91646494Y-48160537D01*
X91743185Y-48081185D01*
X91822537Y-47984494D01*
X91881502Y-47874180D01*
X91917812Y-47754482D01*
X91930072Y-47630000D01*
X91930072Y-46980000D01*
X91917812Y-46855518D01*
X91881502Y-46735820D01*
X91822537Y-46625506D01*
X91743185Y-46528815D01*
X91646494Y-46449463D01*
X91536180Y-46390498D01*
X91419159Y-46355000D01*
X91536180Y-46319502D01*
X91580691Y-46295710D01*
X91620344Y-46322205D01*
X91808702Y-46400226D01*
X92008661Y-46440000D01*
X92212539Y-46440000D01*
X92412498Y-46400226D01*
X92600856Y-46322205D01*
X92610230Y-46315942D01*
X92610230Y-46869806D01*
X92622490Y-46994288D01*
X92658800Y-47113986D01*
X92717765Y-47224300D01*
X92797117Y-47320991D01*
X92893808Y-47400343D01*
X93004122Y-47459308D01*
X93123820Y-47495618D01*
X93248302Y-47507878D01*
X95346698Y-47507878D01*
X95471180Y-47495618D01*
X95590878Y-47459308D01*
X95701192Y-47400343D01*
X95797883Y-47320991D01*
X95877235Y-47224300D01*
X95936200Y-47113986D01*
X95972510Y-46994288D01*
X95984770Y-46869806D01*
X95984770Y-46834498D01*
X96014902Y-46846979D01*
X96214861Y-46886753D01*
X96418739Y-46886753D01*
X96618698Y-46846979D01*
X96807056Y-46768958D01*
X96829764Y-46753785D01*
X96891542Y-46869364D01*
X97001208Y-47002992D01*
X97028000Y-47024980D01*
X97028000Y-48285840D01*
X97023700Y-48329500D01*
X97028000Y-48373160D01*
X97028000Y-48373166D01*
X97040864Y-48503773D01*
X97091697Y-48671350D01*
X97106637Y-48699301D01*
X97105928Y-48706500D01*
X97105928Y-50356500D01*
X97121071Y-50510245D01*
X97165916Y-50658082D01*
X97238742Y-50794329D01*
X97336749Y-50913751D01*
X97456171Y-51011758D01*
X97592418Y-51084584D01*
X97740255Y-51129429D01*
X97894000Y-51144572D01*
X98194000Y-51144572D01*
X98347745Y-51129429D01*
X98495582Y-51084584D01*
X98631829Y-51011758D01*
X98679000Y-50973046D01*
X98726171Y-51011758D01*
X98862418Y-51084584D01*
X99010255Y-51129429D01*
X99164000Y-51144572D01*
X99464000Y-51144572D01*
X99617745Y-51129429D01*
X99765582Y-51084584D01*
X99901829Y-51011758D01*
X99949000Y-50973046D01*
X99996171Y-51011758D01*
X100132418Y-51084584D01*
X100280255Y-51129429D01*
X100434000Y-51144572D01*
X100734000Y-51144572D01*
X100887745Y-51129429D01*
X101035582Y-51084584D01*
X101171829Y-51011758D01*
X101219000Y-50973046D01*
X101266171Y-51011758D01*
X101402418Y-51084584D01*
X101550255Y-51129429D01*
X101704000Y-51144572D01*
X102004000Y-51144572D01*
X102157745Y-51129429D01*
X102305582Y-51084584D01*
X102441829Y-51011758D01*
X102561251Y-50913751D01*
X102659258Y-50794329D01*
X102732084Y-50658082D01*
X102776929Y-50510245D01*
X102792072Y-50356500D01*
X102792072Y-48706500D01*
X102776929Y-48552755D01*
X102732084Y-48404918D01*
X102724890Y-48391459D01*
X102774709Y-48376347D01*
X102927164Y-48294858D01*
X103060792Y-48185192D01*
X103170458Y-48051564D01*
X103251947Y-47899109D01*
X103302128Y-47733685D01*
X103319072Y-47561650D01*
X103319072Y-47074150D01*
X103302128Y-46902115D01*
X103251947Y-46736691D01*
X103170458Y-46584236D01*
X103060792Y-46450608D01*
X103054436Y-46445392D01*
X103132185Y-46381585D01*
X103211537Y-46284894D01*
X103270502Y-46174580D01*
X103306812Y-46054882D01*
X103319072Y-45930400D01*
X103316000Y-45728650D01*
X103157250Y-45569900D01*
X102108000Y-45569900D01*
X102108000Y-45589900D01*
X101854000Y-45589900D01*
X101854000Y-45569900D01*
X101834000Y-45569900D01*
X101834000Y-45315900D01*
X101854000Y-45315900D01*
X101854000Y-45295900D01*
X102108000Y-45295900D01*
X102108000Y-45315900D01*
X103157250Y-45315900D01*
X103316000Y-45157150D01*
X103319072Y-44955400D01*
X103306812Y-44830918D01*
X103270502Y-44711220D01*
X103211537Y-44600906D01*
X103132185Y-44504215D01*
X103096586Y-44475000D01*
X103480000Y-44475000D01*
X103480001Y-63801725D01*
X103426168Y-63531088D01*
X103302918Y-63233537D01*
X103123987Y-62965748D01*
X102896252Y-62738013D01*
X102628463Y-62559082D01*
X102330912Y-62435832D01*
X102015033Y-62373000D01*
X101692967Y-62373000D01*
X101377088Y-62435832D01*
X101079537Y-62559082D01*
X100811748Y-62738013D01*
X100584013Y-62965748D01*
X100405082Y-63233537D01*
X100281832Y-63531088D01*
X100219000Y-63846967D01*
X100219000Y-64169033D01*
X100281832Y-64484912D01*
X100405082Y-64782463D01*
X100584013Y-65050252D01*
X100659761Y-65126000D01*
X80696239Y-65126000D01*
X80771987Y-65050252D01*
X80950918Y-64782463D01*
X81074168Y-64484912D01*
X81137000Y-64169033D01*
X81137000Y-63846967D01*
X81074168Y-63531088D01*
X80950918Y-63233537D01*
X80771987Y-62965748D01*
X80544252Y-62738013D01*
X80276463Y-62559082D01*
X79978912Y-62435832D01*
X79663033Y-62373000D01*
X79340967Y-62373000D01*
X79025088Y-62435832D01*
X78727537Y-62559082D01*
X78459748Y-62738013D01*
X78384000Y-62813761D01*
X78384000Y-59084397D01*
X78457720Y-59123802D01*
X78577418Y-59160112D01*
X78701900Y-59172372D01*
X79781400Y-59172372D01*
X79781400Y-59288645D01*
X79768997Y-59329534D01*
X79758000Y-59441187D01*
X79758000Y-59779678D01*
X79754324Y-59817000D01*
X79758000Y-59854322D01*
X79758000Y-59854333D01*
X79768997Y-59965986D01*
X79812454Y-60109247D01*
X79883026Y-60241276D01*
X79977999Y-60357001D01*
X80007001Y-60380802D01*
X81218500Y-61592302D01*
X81218501Y-62700668D01*
X81214824Y-62738000D01*
X81218501Y-62775333D01*
X81227379Y-62865466D01*
X81229498Y-62886985D01*
X81272954Y-63030246D01*
X81343526Y-63162276D01*
X81397959Y-63228602D01*
X81438500Y-63278001D01*
X81467498Y-63301799D01*
X82113201Y-63947502D01*
X82136999Y-63976501D01*
X82252724Y-64071474D01*
X82384753Y-64142046D01*
X82528014Y-64185503D01*
X82639667Y-64196500D01*
X82639676Y-64196500D01*
X82676999Y-64200176D01*
X82714322Y-64196500D01*
X82859905Y-64196500D01*
X82896794Y-64265514D01*
X83082366Y-64491634D01*
X83308486Y-64677206D01*
X83566466Y-64815099D01*
X83846389Y-64900013D01*
X84064550Y-64921500D01*
X84210450Y-64921500D01*
X84428611Y-64900013D01*
X84708534Y-64815099D01*
X84966514Y-64677206D01*
X85192634Y-64491634D01*
X85378206Y-64265514D01*
X85427602Y-64173100D01*
X86641317Y-64173100D01*
X86677500Y-64176664D01*
X86713683Y-64173100D01*
X86713686Y-64173100D01*
X86821899Y-64162442D01*
X86960749Y-64120322D01*
X87088713Y-64051924D01*
X87116352Y-64029241D01*
X87158053Y-64166709D01*
X87239542Y-64319164D01*
X87349208Y-64452792D01*
X87482836Y-64562458D01*
X87635291Y-64643947D01*
X87800715Y-64694128D01*
X87972750Y-64711072D01*
X88460250Y-64711072D01*
X88632285Y-64694128D01*
X88797709Y-64643947D01*
X88950164Y-64562458D01*
X89083792Y-64452792D01*
X89154000Y-64367244D01*
X89224208Y-64452792D01*
X89357836Y-64562458D01*
X89510291Y-64643947D01*
X89675715Y-64694128D01*
X89847750Y-64711072D01*
X90335250Y-64711072D01*
X90507285Y-64694128D01*
X90672709Y-64643947D01*
X90825164Y-64562458D01*
X90958792Y-64452792D01*
X91068458Y-64319164D01*
X91149947Y-64166709D01*
X91200128Y-64001285D01*
X91217072Y-63829250D01*
X91217072Y-62916750D01*
X91200128Y-62744715D01*
X91149947Y-62579291D01*
X91068458Y-62426836D01*
X90964758Y-62300477D01*
X91023705Y-62212256D01*
X91101726Y-62023898D01*
X91141500Y-61823939D01*
X91141500Y-61620061D01*
X91101726Y-61420102D01*
X91023705Y-61231744D01*
X90910437Y-61062226D01*
X90766274Y-60918063D01*
X90596756Y-60804795D01*
X90408398Y-60726774D01*
X90208439Y-60687000D01*
X90004561Y-60687000D01*
X89804602Y-60726774D01*
X89752672Y-60748284D01*
X89752672Y-60105400D01*
X89750171Y-60080000D01*
X91069928Y-60080000D01*
X91069928Y-60830000D01*
X91086992Y-61003254D01*
X91137528Y-61169850D01*
X91219595Y-61323386D01*
X91330038Y-61457962D01*
X91464614Y-61568405D01*
X91618150Y-61650472D01*
X91784746Y-61701008D01*
X91797901Y-61702304D01*
X91797900Y-62185951D01*
X91667208Y-62293208D01*
X91557542Y-62426836D01*
X91476053Y-62579291D01*
X91425872Y-62744715D01*
X91408928Y-62916750D01*
X91408928Y-63829250D01*
X91425872Y-64001285D01*
X91476053Y-64166709D01*
X91557542Y-64319164D01*
X91667208Y-64452792D01*
X91800836Y-64562458D01*
X91953291Y-64643947D01*
X92118715Y-64694128D01*
X92290750Y-64711072D01*
X92778250Y-64711072D01*
X92950285Y-64694128D01*
X93115709Y-64643947D01*
X93268164Y-64562458D01*
X93401792Y-64452792D01*
X93472000Y-64367244D01*
X93542208Y-64452792D01*
X93675836Y-64562458D01*
X93828291Y-64643947D01*
X93993715Y-64694128D01*
X94165750Y-64711072D01*
X94653250Y-64711072D01*
X94825285Y-64694128D01*
X94990709Y-64643947D01*
X95143164Y-64562458D01*
X95276792Y-64452792D01*
X95386458Y-64319164D01*
X95467947Y-64166709D01*
X95518128Y-64001285D01*
X95519841Y-63983890D01*
X96221524Y-63983890D01*
X96266175Y-64131099D01*
X96391359Y-64393920D01*
X96565412Y-64627269D01*
X96781645Y-64822178D01*
X97031748Y-64971157D01*
X97306109Y-65068481D01*
X97536000Y-64947814D01*
X97536000Y-63754000D01*
X97790000Y-63754000D01*
X97790000Y-64947814D01*
X98019891Y-65068481D01*
X98294252Y-64971157D01*
X98544355Y-64822178D01*
X98760588Y-64627269D01*
X98934641Y-64393920D01*
X99059825Y-64131099D01*
X99104476Y-63983890D01*
X98983155Y-63754000D01*
X97790000Y-63754000D01*
X97536000Y-63754000D01*
X96342845Y-63754000D01*
X96221524Y-63983890D01*
X95519841Y-63983890D01*
X95535072Y-63829250D01*
X95535072Y-62916750D01*
X95518128Y-62744715D01*
X95467947Y-62579291D01*
X95386458Y-62426836D01*
X95377095Y-62415427D01*
X95401774Y-62398937D01*
X95545937Y-62254774D01*
X95659205Y-62085256D01*
X95737226Y-61896898D01*
X95777000Y-61696939D01*
X95777000Y-61493061D01*
X95737226Y-61293102D01*
X95659205Y-61104744D01*
X95545937Y-60935226D01*
X95401774Y-60791063D01*
X95232256Y-60677795D01*
X95043898Y-60599774D01*
X94843939Y-60560000D01*
X94640061Y-60560000D01*
X94440102Y-60599774D01*
X94251744Y-60677795D01*
X94096072Y-60781811D01*
X94096072Y-60237000D01*
X96174928Y-60237000D01*
X96174928Y-61937000D01*
X96187188Y-62061482D01*
X96223498Y-62181180D01*
X96282463Y-62291494D01*
X96361815Y-62388185D01*
X96458506Y-62467537D01*
X96568820Y-62526502D01*
X96649466Y-62550966D01*
X96565412Y-62626731D01*
X96391359Y-62860080D01*
X96266175Y-63122901D01*
X96221524Y-63270110D01*
X96342845Y-63500000D01*
X97536000Y-63500000D01*
X97536000Y-63480000D01*
X97790000Y-63480000D01*
X97790000Y-63500000D01*
X98983155Y-63500000D01*
X99104476Y-63270110D01*
X99059825Y-63122901D01*
X98934641Y-62860080D01*
X98760588Y-62626731D01*
X98676534Y-62550966D01*
X98757180Y-62526502D01*
X98867494Y-62467537D01*
X98964185Y-62388185D01*
X99043537Y-62291494D01*
X99102502Y-62181180D01*
X99138812Y-62061482D01*
X99151072Y-61937000D01*
X99151072Y-60237000D01*
X99138812Y-60112518D01*
X99102502Y-59992820D01*
X99043537Y-59882506D01*
X98964185Y-59785815D01*
X98867494Y-59706463D01*
X98757180Y-59647498D01*
X98637482Y-59611188D01*
X98513000Y-59598928D01*
X98493281Y-59598928D01*
X99481855Y-58610355D01*
X99529750Y-58615072D01*
X100017250Y-58615072D01*
X100189285Y-58598128D01*
X100354709Y-58547947D01*
X100507164Y-58466458D01*
X100640792Y-58356792D01*
X100711000Y-58271244D01*
X100781208Y-58356792D01*
X100914836Y-58466458D01*
X101067291Y-58547947D01*
X101232715Y-58598128D01*
X101404750Y-58615072D01*
X101892250Y-58615072D01*
X102064285Y-58598128D01*
X102229709Y-58547947D01*
X102382164Y-58466458D01*
X102515792Y-58356792D01*
X102625458Y-58223164D01*
X102706947Y-58070709D01*
X102757128Y-57905285D01*
X102774072Y-57733250D01*
X102774072Y-56820750D01*
X102757128Y-56648715D01*
X102706947Y-56483291D01*
X102625458Y-56330836D01*
X102515792Y-56197208D01*
X102471303Y-56160697D01*
X102537822Y-56036249D01*
X102579942Y-55897399D01*
X102586257Y-55833281D01*
X102659258Y-55744329D01*
X102732084Y-55608082D01*
X102776929Y-55460245D01*
X102792072Y-55306500D01*
X102792072Y-53656500D01*
X102776929Y-53502755D01*
X102744913Y-53397212D01*
X102767774Y-53381937D01*
X102911937Y-53237774D01*
X103025205Y-53068256D01*
X103103226Y-52879898D01*
X103143000Y-52679939D01*
X103143000Y-52476061D01*
X103103226Y-52276102D01*
X103025205Y-52087744D01*
X102911937Y-51918226D01*
X102767774Y-51774063D01*
X102598256Y-51660795D01*
X102409898Y-51582774D01*
X102209939Y-51543000D01*
X102006061Y-51543000D01*
X101806102Y-51582774D01*
X101617744Y-51660795D01*
X101448226Y-51774063D01*
X101352350Y-51869939D01*
X101243774Y-51761363D01*
X101074256Y-51648095D01*
X100885898Y-51570074D01*
X100685939Y-51530300D01*
X100482061Y-51530300D01*
X100282102Y-51570074D01*
X100093744Y-51648095D01*
X99924226Y-51761363D01*
X99780063Y-51905526D01*
X99666795Y-52075044D01*
X99588774Y-52263402D01*
X99549000Y-52463361D01*
X99549000Y-52667239D01*
X99588774Y-52867198D01*
X99594612Y-52881293D01*
X99464000Y-52868428D01*
X99164000Y-52868428D01*
X99010255Y-52883571D01*
X98862418Y-52928416D01*
X98728064Y-53000230D01*
X98698494Y-52975963D01*
X98588180Y-52916998D01*
X98468482Y-52880688D01*
X98344000Y-52868428D01*
X98329750Y-52871500D01*
X98171000Y-53030250D01*
X98171000Y-54354500D01*
X98191000Y-54354500D01*
X98191000Y-54608500D01*
X98171000Y-54608500D01*
X98171000Y-55932750D01*
X98329750Y-56091500D01*
X98344000Y-56094572D01*
X98468482Y-56082312D01*
X98588180Y-56046002D01*
X98677699Y-55998153D01*
X98698576Y-56037212D01*
X98763644Y-56116497D01*
X98790626Y-56149375D01*
X98818732Y-56172441D01*
X98877942Y-56231651D01*
X98796542Y-56330836D01*
X98715053Y-56483291D01*
X98664872Y-56648715D01*
X98647928Y-56820750D01*
X98647928Y-57360862D01*
X96913732Y-59095059D01*
X96885625Y-59118126D01*
X96862559Y-59146232D01*
X96862558Y-59146233D01*
X96841165Y-59172301D01*
X96793576Y-59230288D01*
X96725178Y-59358252D01*
X96683058Y-59497102D01*
X96680335Y-59524754D01*
X96671307Y-59616409D01*
X96568820Y-59647498D01*
X96458506Y-59706463D01*
X96361815Y-59785815D01*
X96282463Y-59882506D01*
X96223498Y-59992820D01*
X96187188Y-60112518D01*
X96174928Y-60237000D01*
X94096072Y-60237000D01*
X94096072Y-60080000D01*
X94079008Y-59906746D01*
X94028472Y-59740150D01*
X93946405Y-59586614D01*
X93835962Y-59452038D01*
X93701386Y-59341595D01*
X93547850Y-59259528D01*
X93381254Y-59208992D01*
X93208000Y-59191928D01*
X91958000Y-59191928D01*
X91784746Y-59208992D01*
X91618150Y-59259528D01*
X91464614Y-59341595D01*
X91330038Y-59452038D01*
X91219595Y-59586614D01*
X91137528Y-59740150D01*
X91086992Y-59906746D01*
X91069928Y-60080000D01*
X89750171Y-60080000D01*
X89735608Y-59932146D01*
X89685072Y-59765550D01*
X89603005Y-59612014D01*
X89492562Y-59477438D01*
X89357986Y-59366995D01*
X89204450Y-59284928D01*
X89037854Y-59234392D01*
X88864600Y-59217328D01*
X87614600Y-59217328D01*
X87610950Y-59217687D01*
X87610950Y-58943113D01*
X87614600Y-58943472D01*
X88864600Y-58943472D01*
X89037854Y-58926408D01*
X89204450Y-58875872D01*
X89357986Y-58793805D01*
X89492562Y-58683362D01*
X89603005Y-58548786D01*
X89685072Y-58395250D01*
X89735608Y-58228654D01*
X89752672Y-58055400D01*
X89752672Y-57305400D01*
X89735608Y-57132146D01*
X89685072Y-56965550D01*
X89603005Y-56812014D01*
X89492562Y-56677438D01*
X89357986Y-56566995D01*
X89204450Y-56484928D01*
X89037854Y-56434392D01*
X88976200Y-56428320D01*
X88976200Y-56251372D01*
X88988900Y-56251372D01*
X89113382Y-56239112D01*
X89233080Y-56202802D01*
X89343394Y-56143837D01*
X89440085Y-56064485D01*
X89519437Y-55967794D01*
X89578402Y-55857480D01*
X89614712Y-55737782D01*
X89618216Y-55702200D01*
X90083017Y-55702200D01*
X90119200Y-55705764D01*
X90155383Y-55702200D01*
X90155386Y-55702200D01*
X90263599Y-55691542D01*
X90278274Y-55687090D01*
X90322061Y-55695800D01*
X90525939Y-55695800D01*
X90725898Y-55656026D01*
X90914256Y-55578005D01*
X91083774Y-55464737D01*
X91227937Y-55320574D01*
X91245260Y-55294648D01*
X91269598Y-55374880D01*
X91328563Y-55485194D01*
X91353532Y-55515618D01*
X91224100Y-55645050D01*
X91235210Y-55747080D01*
X91273297Y-55866224D01*
X91333896Y-55975649D01*
X91414678Y-56071148D01*
X91512539Y-56149053D01*
X91623719Y-56206370D01*
X91743944Y-56240895D01*
X91868594Y-56251301D01*
X92322650Y-56248300D01*
X92481400Y-56089550D01*
X92481400Y-55768772D01*
X92735400Y-55768772D01*
X92735400Y-56089550D01*
X92894150Y-56248300D01*
X92922701Y-56248489D01*
X92922701Y-56273590D01*
X92804363Y-56391928D01*
X91958000Y-56391928D01*
X91784746Y-56408992D01*
X91618150Y-56459528D01*
X91464614Y-56541595D01*
X91330038Y-56652038D01*
X91219595Y-56786614D01*
X91137528Y-56940150D01*
X91086992Y-57106746D01*
X91069928Y-57280000D01*
X91069928Y-58030000D01*
X91086992Y-58203254D01*
X91137528Y-58369850D01*
X91219595Y-58523386D01*
X91330038Y-58657962D01*
X91464614Y-58768405D01*
X91618150Y-58850472D01*
X91784746Y-58901008D01*
X91958000Y-58918072D01*
X93208000Y-58918072D01*
X93381254Y-58901008D01*
X93547850Y-58850472D01*
X93701386Y-58768405D01*
X93835962Y-58657962D01*
X93946405Y-58523386D01*
X94028472Y-58369850D01*
X94079008Y-58203254D01*
X94096072Y-58030000D01*
X94096072Y-57280000D01*
X94087432Y-57192277D01*
X94154569Y-57125140D01*
X94182675Y-57102074D01*
X94274725Y-56989912D01*
X94343123Y-56861948D01*
X94385243Y-56723098D01*
X94395901Y-56614885D01*
X94395901Y-56614876D01*
X94399464Y-56578700D01*
X94395901Y-56542524D01*
X94395901Y-55456500D01*
X97105928Y-55456500D01*
X97118188Y-55580982D01*
X97154498Y-55700680D01*
X97213463Y-55810994D01*
X97292815Y-55907685D01*
X97389506Y-55987037D01*
X97499820Y-56046002D01*
X97619518Y-56082312D01*
X97744000Y-56094572D01*
X97758250Y-56091500D01*
X97917000Y-55932750D01*
X97917000Y-54608500D01*
X97267750Y-54608500D01*
X97109000Y-54767250D01*
X97105928Y-55456500D01*
X94395901Y-55456500D01*
X94395901Y-53601584D01*
X94399465Y-53565400D01*
X94394000Y-53509912D01*
X94393664Y-53506500D01*
X97105928Y-53506500D01*
X97109000Y-54195750D01*
X97267750Y-54354500D01*
X97917000Y-54354500D01*
X97917000Y-53030250D01*
X97758250Y-52871500D01*
X97744000Y-52868428D01*
X97619518Y-52880688D01*
X97499820Y-52916998D01*
X97389506Y-52975963D01*
X97292815Y-53055315D01*
X97213463Y-53152006D01*
X97154498Y-53262320D01*
X97118188Y-53382018D01*
X97105928Y-53506500D01*
X94393664Y-53506500D01*
X94385243Y-53421002D01*
X94343123Y-53282152D01*
X94274725Y-53154188D01*
X94182676Y-53042026D01*
X94154564Y-53018955D01*
X94107346Y-52971737D01*
X94084275Y-52943625D01*
X93972113Y-52851576D01*
X93844149Y-52783178D01*
X93705299Y-52741058D01*
X93644249Y-52735045D01*
X93601880Y-52712398D01*
X93482182Y-52676088D01*
X93357700Y-52663828D01*
X91859100Y-52663828D01*
X91734618Y-52676088D01*
X91614920Y-52712398D01*
X91504606Y-52771363D01*
X91407915Y-52850715D01*
X91328563Y-52947406D01*
X91269598Y-53057720D01*
X91233288Y-53177418D01*
X91221028Y-53301900D01*
X91221028Y-53632100D01*
X91228726Y-53710264D01*
X91227557Y-53721000D01*
X90859707Y-53721000D01*
X90725898Y-53665574D01*
X90525939Y-53625800D01*
X90322061Y-53625800D01*
X90122102Y-53665574D01*
X89933744Y-53743595D01*
X89764226Y-53856863D01*
X89626972Y-53994117D01*
X89626972Y-53784500D01*
X89619467Y-53708300D01*
X89626972Y-53632100D01*
X89626972Y-53301900D01*
X89614712Y-53177418D01*
X89578402Y-53057720D01*
X89519437Y-52947406D01*
X89440085Y-52850715D01*
X89343394Y-52771363D01*
X89233080Y-52712398D01*
X89113382Y-52676088D01*
X88988900Y-52663828D01*
X88835608Y-52663828D01*
X88762975Y-52575325D01*
X88734869Y-52552259D01*
X88062145Y-51879536D01*
X88039075Y-51851425D01*
X87926913Y-51759376D01*
X87798949Y-51690978D01*
X87660099Y-51648858D01*
X87551886Y-51638200D01*
X87551883Y-51638200D01*
X87515700Y-51634636D01*
X87479517Y-51638200D01*
X87391911Y-51638200D01*
X87324574Y-51570863D01*
X87155056Y-51457595D01*
X86966698Y-51379574D01*
X86766739Y-51339800D01*
X86562861Y-51339800D01*
X86362902Y-51379574D01*
X86174544Y-51457595D01*
X86005026Y-51570863D01*
X85860863Y-51715026D01*
X85747595Y-51884544D01*
X85669574Y-52072902D01*
X85629800Y-52272861D01*
X85629800Y-52476739D01*
X85669574Y-52676698D01*
X85747595Y-52865056D01*
X85860863Y-53034574D01*
X86005026Y-53178737D01*
X86174544Y-53292005D01*
X86362902Y-53370026D01*
X86562861Y-53409800D01*
X86766739Y-53409800D01*
X86789177Y-53405337D01*
X86763725Y-53426225D01*
X86740654Y-53454337D01*
X86379082Y-53815909D01*
X86350975Y-53838976D01*
X86327909Y-53867082D01*
X86327908Y-53867083D01*
X86281033Y-53924200D01*
X86258926Y-53951138D01*
X86190528Y-54079102D01*
X86148408Y-54217952D01*
X86143265Y-54270172D01*
X86134186Y-54362350D01*
X86137750Y-54398533D01*
X86137751Y-62699900D01*
X85427602Y-62699900D01*
X85378206Y-62607486D01*
X85192634Y-62381366D01*
X85162813Y-62356893D01*
X85231680Y-62336002D01*
X85341994Y-62277037D01*
X85438685Y-62197685D01*
X85518037Y-62100994D01*
X85577002Y-61990680D01*
X85613312Y-61870982D01*
X85625572Y-61746500D01*
X85625572Y-60046500D01*
X85613312Y-59922018D01*
X85577002Y-59802320D01*
X85518037Y-59692006D01*
X85438685Y-59595315D01*
X85341994Y-59515963D01*
X85231680Y-59456998D01*
X85111982Y-59420688D01*
X84987500Y-59408428D01*
X83388200Y-59408428D01*
X83388200Y-59170265D01*
X83534250Y-59169300D01*
X83693000Y-59010550D01*
X83693000Y-58689772D01*
X83947000Y-58689772D01*
X83947000Y-59010550D01*
X84105750Y-59169300D01*
X84559806Y-59172301D01*
X84684456Y-59161895D01*
X84804681Y-59127370D01*
X84915861Y-59070053D01*
X85013722Y-58992148D01*
X85094504Y-58896649D01*
X85155103Y-58787224D01*
X85193190Y-58668080D01*
X85204300Y-58566050D01*
X85074868Y-58436618D01*
X85099837Y-58406194D01*
X85158802Y-58295880D01*
X85192780Y-58183870D01*
X85204300Y-58172350D01*
X85199674Y-58129864D01*
X85207372Y-58051700D01*
X85207372Y-57721500D01*
X85198616Y-57632600D01*
X85207372Y-57543700D01*
X85207372Y-57484812D01*
X85318057Y-57393975D01*
X85341128Y-57365863D01*
X85366169Y-57340822D01*
X85394275Y-57317756D01*
X85486325Y-57205594D01*
X85554723Y-57077630D01*
X85596843Y-56938780D01*
X85607501Y-56830567D01*
X85607501Y-56830566D01*
X85611065Y-56794381D01*
X85607501Y-56758195D01*
X85607501Y-56008282D01*
X85611065Y-55972098D01*
X85607189Y-55932750D01*
X85596843Y-55827700D01*
X85554723Y-55688850D01*
X85509458Y-55604164D01*
X85486325Y-55560885D01*
X85446240Y-55512042D01*
X85394276Y-55448724D01*
X85366164Y-55425653D01*
X84944248Y-55003737D01*
X84921177Y-54975625D01*
X84809015Y-54883576D01*
X84681051Y-54815178D01*
X84542201Y-54773058D01*
X84433988Y-54762400D01*
X84433985Y-54762400D01*
X84397802Y-54758836D01*
X84361619Y-54762400D01*
X83871110Y-54762400D01*
X83667600Y-54558891D01*
X83667600Y-54193072D01*
X83781000Y-54193072D01*
X83905482Y-54180812D01*
X84025180Y-54144502D01*
X84135494Y-54085537D01*
X84232185Y-54006185D01*
X84311537Y-53909494D01*
X84370502Y-53799180D01*
X84406812Y-53679482D01*
X84419072Y-53555000D01*
X84419072Y-53370470D01*
X84430742Y-53331999D01*
X84444964Y-53187600D01*
X84430742Y-53043201D01*
X84419072Y-53004730D01*
X84419072Y-51855000D01*
X84406812Y-51730518D01*
X84370502Y-51610820D01*
X84311537Y-51500506D01*
X84232185Y-51403815D01*
X84135494Y-51324463D01*
X84025180Y-51265498D01*
X83905482Y-51229188D01*
X83781000Y-51216928D01*
X82081000Y-51216928D01*
X81956518Y-51229188D01*
X81836820Y-51265498D01*
X81726506Y-51324463D01*
X81629815Y-51403815D01*
X81550463Y-51500506D01*
X81491498Y-51610820D01*
X81470607Y-51679687D01*
X81446134Y-51649866D01*
X81220014Y-51464294D01*
X80962034Y-51326401D01*
X80682111Y-51241487D01*
X80463950Y-51220000D01*
X80318050Y-51220000D01*
X80099889Y-51241487D01*
X79819966Y-51326401D01*
X79561986Y-51464294D01*
X79335866Y-51649866D01*
X79150294Y-51875986D01*
X79012401Y-52133966D01*
X78927487Y-52413889D01*
X78898815Y-52705000D01*
X78927487Y-52996111D01*
X79005199Y-53252292D01*
X78384000Y-53873491D01*
X78384000Y-50344000D01*
X83651928Y-50344000D01*
X83664188Y-50468482D01*
X83700498Y-50588180D01*
X83759463Y-50698494D01*
X83838815Y-50795185D01*
X83935506Y-50874537D01*
X84045820Y-50933502D01*
X84165518Y-50969812D01*
X84290000Y-50982072D01*
X84804250Y-50979000D01*
X84963000Y-50820250D01*
X84963000Y-49171000D01*
X85217000Y-49171000D01*
X85217000Y-50820250D01*
X85375750Y-50979000D01*
X85890000Y-50982072D01*
X86014482Y-50969812D01*
X86134180Y-50933502D01*
X86170294Y-50914198D01*
X92610230Y-50914198D01*
X92622490Y-51038680D01*
X92658800Y-51158378D01*
X92717765Y-51268692D01*
X92797117Y-51365383D01*
X92893808Y-51444735D01*
X93004122Y-51503700D01*
X93123820Y-51540010D01*
X93248302Y-51552270D01*
X94011750Y-51549198D01*
X94170500Y-51390448D01*
X94170500Y-49911000D01*
X94424500Y-49911000D01*
X94424500Y-51390448D01*
X94583250Y-51549198D01*
X95346698Y-51552270D01*
X95471180Y-51540010D01*
X95590878Y-51503700D01*
X95701192Y-51444735D01*
X95797883Y-51365383D01*
X95877235Y-51268692D01*
X95936200Y-51158378D01*
X95972510Y-51038680D01*
X95984770Y-50914198D01*
X95981698Y-50069750D01*
X95822948Y-49911000D01*
X94424500Y-49911000D01*
X94170500Y-49911000D01*
X92772052Y-49911000D01*
X92613302Y-50069750D01*
X92610230Y-50914198D01*
X86170294Y-50914198D01*
X86244494Y-50874537D01*
X86341185Y-50795185D01*
X86420537Y-50698494D01*
X86479502Y-50588180D01*
X86515812Y-50468482D01*
X86528072Y-50344000D01*
X86525000Y-49329750D01*
X86366250Y-49171000D01*
X85217000Y-49171000D01*
X84963000Y-49171000D01*
X83813750Y-49171000D01*
X83655000Y-49329750D01*
X83651928Y-50344000D01*
X78384000Y-50344000D01*
X78384000Y-49237000D01*
X78775928Y-49237000D01*
X78788188Y-49361482D01*
X78824498Y-49481180D01*
X78883463Y-49591494D01*
X78962815Y-49688185D01*
X79059506Y-49767537D01*
X79169820Y-49826502D01*
X79289518Y-49862812D01*
X79414000Y-49875072D01*
X79978250Y-49872000D01*
X80137000Y-49713250D01*
X80137000Y-48514000D01*
X80391000Y-48514000D01*
X80391000Y-49713250D01*
X80549750Y-49872000D01*
X81114000Y-49875072D01*
X81238482Y-49862812D01*
X81358180Y-49826502D01*
X81468494Y-49767537D01*
X81565185Y-49688185D01*
X81644537Y-49591494D01*
X81703502Y-49481180D01*
X81739812Y-49361482D01*
X81752072Y-49237000D01*
X81749000Y-48672750D01*
X81590250Y-48514000D01*
X80391000Y-48514000D01*
X80137000Y-48514000D01*
X78937750Y-48514000D01*
X78779000Y-48672750D01*
X78775928Y-49237000D01*
X78384000Y-49237000D01*
X78384000Y-44475000D01*
X79680620Y-44475000D01*
X79434986Y-44606294D01*
X79434986Y-44606294D01*
G37*
X79434986Y-44606294D02*
X79208866Y-44791866D01*
X79023294Y-45017986D01*
X78885401Y-45275966D01*
X78800487Y-45555889D01*
X78771815Y-45847000D01*
X78800487Y-46138111D01*
X78885401Y-46418034D01*
X79023294Y-46676014D01*
X79208866Y-46902134D01*
X79238687Y-46926607D01*
X79169820Y-46947498D01*
X79059506Y-47006463D01*
X78962815Y-47085815D01*
X78883463Y-47182506D01*
X78824498Y-47292820D01*
X78788188Y-47412518D01*
X78775928Y-47537000D01*
X78779000Y-48101250D01*
X78937750Y-48260000D01*
X80137000Y-48260000D01*
X80137000Y-48240000D01*
X80391000Y-48240000D01*
X80391000Y-48260000D01*
X81590250Y-48260000D01*
X81749000Y-48101250D01*
X81752072Y-47537000D01*
X81739812Y-47412518D01*
X81703502Y-47292820D01*
X81644537Y-47182506D01*
X81565185Y-47085815D01*
X81468494Y-47006463D01*
X81358180Y-46947498D01*
X81289313Y-46926607D01*
X81319134Y-46902134D01*
X81504706Y-46676014D01*
X81642599Y-46418034D01*
X81668394Y-46333000D01*
X83651928Y-46333000D01*
X83651928Y-46494000D01*
X83668992Y-46667254D01*
X83719528Y-46833850D01*
X83801595Y-46987386D01*
X83912038Y-47121962D01*
X83988813Y-47184969D01*
X83935506Y-47213463D01*
X83838815Y-47292815D01*
X83759463Y-47389506D01*
X83700498Y-47499820D01*
X83664188Y-47619518D01*
X83651928Y-47744000D01*
X83655000Y-48758250D01*
X83813750Y-48917000D01*
X84963000Y-48917000D01*
X84963000Y-48897000D01*
X85217000Y-48897000D01*
X85217000Y-48917000D01*
X86366250Y-48917000D01*
X86525000Y-48758250D01*
X86525316Y-48653802D01*
X92610230Y-48653802D01*
X92613302Y-49498250D01*
X92772052Y-49657000D01*
X94170500Y-49657000D01*
X94170500Y-48177552D01*
X94424500Y-48177552D01*
X94424500Y-49657000D01*
X95822948Y-49657000D01*
X95981698Y-49498250D01*
X95984770Y-48653802D01*
X95972510Y-48529320D01*
X95936200Y-48409622D01*
X95877235Y-48299308D01*
X95797883Y-48202617D01*
X95701192Y-48123265D01*
X95590878Y-48064300D01*
X95471180Y-48027990D01*
X95346698Y-48015730D01*
X94583250Y-48018802D01*
X94424500Y-48177552D01*
X94170500Y-48177552D01*
X94011750Y-48018802D01*
X93248302Y-48015730D01*
X93123820Y-48027990D01*
X93004122Y-48064300D01*
X92893808Y-48123265D01*
X92797117Y-48202617D01*
X92717765Y-48299308D01*
X92658800Y-48409622D01*
X92622490Y-48529320D01*
X92610230Y-48653802D01*
X86525316Y-48653802D01*
X86528072Y-47744000D01*
X86516845Y-47630000D01*
X87393928Y-47630000D01*
X87406188Y-47754482D01*
X87442498Y-47874180D01*
X87501463Y-47984494D01*
X87580815Y-48081185D01*
X87677506Y-48160537D01*
X87787820Y-48219502D01*
X87907518Y-48255812D01*
X88032000Y-48268072D01*
X88276250Y-48265000D01*
X88435000Y-48106250D01*
X88435000Y-47432000D01*
X87555750Y-47432000D01*
X87397000Y-47590750D01*
X87393928Y-47630000D01*
X86516845Y-47630000D01*
X86515812Y-47619518D01*
X86479502Y-47499820D01*
X86420537Y-47389506D01*
X86341185Y-47292815D01*
X86244494Y-47213463D01*
X86191187Y-47184969D01*
X86267962Y-47121962D01*
X86378405Y-46987386D01*
X86460472Y-46833850D01*
X86511008Y-46667254D01*
X86528072Y-46494000D01*
X86528072Y-46294000D01*
X87740110Y-46294000D01*
X87787820Y-46319502D01*
X87904841Y-46355000D01*
X87787820Y-46390498D01*
X87677506Y-46449463D01*
X87637859Y-46482000D01*
X87555750Y-46482000D01*
X87397000Y-46640750D01*
X87393928Y-46680000D01*
X87406188Y-46804482D01*
X87413929Y-46830000D01*
X87406188Y-46855518D01*
X87393928Y-46980000D01*
X87397000Y-47019250D01*
X87555750Y-47178000D01*
X87637859Y-47178000D01*
X87677506Y-47210537D01*
X87787820Y-47269502D01*
X87907518Y-47305812D01*
X88032000Y-47318072D01*
X88276250Y-47315000D01*
X88413250Y-47178000D01*
X88435000Y-47178000D01*
X88435000Y-47158000D01*
X88689000Y-47158000D01*
X88689000Y-47178000D01*
X88709000Y-47178000D01*
X88709000Y-47432000D01*
X88689000Y-47432000D01*
X88689000Y-48106250D01*
X88847750Y-48265000D01*
X89092000Y-48268072D01*
X89216482Y-48255812D01*
X89336180Y-48219502D01*
X89446494Y-48160537D01*
X89543185Y-48081185D01*
X89622537Y-47984494D01*
X89662000Y-47910665D01*
X89701463Y-47984494D01*
X89780815Y-48081185D01*
X89877506Y-48160537D01*
X89987820Y-48219502D01*
X90107518Y-48255812D01*
X90232000Y-48268072D01*
X91292000Y-48268072D01*
X91416482Y-48255812D01*
X91536180Y-48219502D01*
X91646494Y-48160537D01*
X91743185Y-48081185D01*
X91822537Y-47984494D01*
X91881502Y-47874180D01*
X91917812Y-47754482D01*
X91930072Y-47630000D01*
X91930072Y-46980000D01*
X91917812Y-46855518D01*
X91881502Y-46735820D01*
X91822537Y-46625506D01*
X91743185Y-46528815D01*
X91646494Y-46449463D01*
X91536180Y-46390498D01*
X91419159Y-46355000D01*
X91536180Y-46319502D01*
X91580691Y-46295710D01*
X91620344Y-46322205D01*
X91808702Y-46400226D01*
X92008661Y-46440000D01*
X92212539Y-46440000D01*
X92412498Y-46400226D01*
X92600856Y-46322205D01*
X92610230Y-46315942D01*
X92610230Y-46869806D01*
X92622490Y-46994288D01*
X92658800Y-47113986D01*
X92717765Y-47224300D01*
X92797117Y-47320991D01*
X92893808Y-47400343D01*
X93004122Y-47459308D01*
X93123820Y-47495618D01*
X93248302Y-47507878D01*
X95346698Y-47507878D01*
X95471180Y-47495618D01*
X95590878Y-47459308D01*
X95701192Y-47400343D01*
X95797883Y-47320991D01*
X95877235Y-47224300D01*
X95936200Y-47113986D01*
X95972510Y-46994288D01*
X95984770Y-46869806D01*
X95984770Y-46834498D01*
X96014902Y-46846979D01*
X96214861Y-46886753D01*
X96418739Y-46886753D01*
X96618698Y-46846979D01*
X96807056Y-46768958D01*
X96829764Y-46753785D01*
X96891542Y-46869364D01*
X97001208Y-47002992D01*
X97028000Y-47024980D01*
X97028000Y-48285840D01*
X97023700Y-48329500D01*
X97028000Y-48373160D01*
X97028000Y-48373166D01*
X97040864Y-48503773D01*
X97091697Y-48671350D01*
X97106637Y-48699301D01*
X97105928Y-48706500D01*
X97105928Y-50356500D01*
X97121071Y-50510245D01*
X97165916Y-50658082D01*
X97238742Y-50794329D01*
X97336749Y-50913751D01*
X97456171Y-51011758D01*
X97592418Y-51084584D01*
X97740255Y-51129429D01*
X97894000Y-51144572D01*
X98194000Y-51144572D01*
X98347745Y-51129429D01*
X98495582Y-51084584D01*
X98631829Y-51011758D01*
X98679000Y-50973046D01*
X98726171Y-51011758D01*
X98862418Y-51084584D01*
X99010255Y-51129429D01*
X99164000Y-51144572D01*
X99464000Y-51144572D01*
X99617745Y-51129429D01*
X99765582Y-51084584D01*
X99901829Y-51011758D01*
X99949000Y-50973046D01*
X99996171Y-51011758D01*
X100132418Y-51084584D01*
X100280255Y-51129429D01*
X100434000Y-51144572D01*
X100734000Y-51144572D01*
X100887745Y-51129429D01*
X101035582Y-51084584D01*
X101171829Y-51011758D01*
X101219000Y-50973046D01*
X101266171Y-51011758D01*
X101402418Y-51084584D01*
X101550255Y-51129429D01*
X101704000Y-51144572D01*
X102004000Y-51144572D01*
X102157745Y-51129429D01*
X102305582Y-51084584D01*
X102441829Y-51011758D01*
X102561251Y-50913751D01*
X102659258Y-50794329D01*
X102732084Y-50658082D01*
X102776929Y-50510245D01*
X102792072Y-50356500D01*
X102792072Y-48706500D01*
X102776929Y-48552755D01*
X102732084Y-48404918D01*
X102724890Y-48391459D01*
X102774709Y-48376347D01*
X102927164Y-48294858D01*
X103060792Y-48185192D01*
X103170458Y-48051564D01*
X103251947Y-47899109D01*
X103302128Y-47733685D01*
X103319072Y-47561650D01*
X103319072Y-47074150D01*
X103302128Y-46902115D01*
X103251947Y-46736691D01*
X103170458Y-46584236D01*
X103060792Y-46450608D01*
X103054436Y-46445392D01*
X103132185Y-46381585D01*
X103211537Y-46284894D01*
X103270502Y-46174580D01*
X103306812Y-46054882D01*
X103319072Y-45930400D01*
X103316000Y-45728650D01*
X103157250Y-45569900D01*
X102108000Y-45569900D01*
X102108000Y-45589900D01*
X101854000Y-45589900D01*
X101854000Y-45569900D01*
X101834000Y-45569900D01*
X101834000Y-45315900D01*
X101854000Y-45315900D01*
X101854000Y-45295900D01*
X102108000Y-45295900D01*
X102108000Y-45315900D01*
X103157250Y-45315900D01*
X103316000Y-45157150D01*
X103319072Y-44955400D01*
X103306812Y-44830918D01*
X103270502Y-44711220D01*
X103211537Y-44600906D01*
X103132185Y-44504215D01*
X103096586Y-44475000D01*
X103480000Y-44475000D01*
X103480001Y-63801725D01*
X103426168Y-63531088D01*
X103302918Y-63233537D01*
X103123987Y-62965748D01*
X102896252Y-62738013D01*
X102628463Y-62559082D01*
X102330912Y-62435832D01*
X102015033Y-62373000D01*
X101692967Y-62373000D01*
X101377088Y-62435832D01*
X101079537Y-62559082D01*
X100811748Y-62738013D01*
X100584013Y-62965748D01*
X100405082Y-63233537D01*
X100281832Y-63531088D01*
X100219000Y-63846967D01*
X100219000Y-64169033D01*
X100281832Y-64484912D01*
X100405082Y-64782463D01*
X100584013Y-65050252D01*
X100659761Y-65126000D01*
X80696239Y-65126000D01*
X80771987Y-65050252D01*
X80950918Y-64782463D01*
X81074168Y-64484912D01*
X81137000Y-64169033D01*
X81137000Y-63846967D01*
X81074168Y-63531088D01*
X80950918Y-63233537D01*
X80771987Y-62965748D01*
X80544252Y-62738013D01*
X80276463Y-62559082D01*
X79978912Y-62435832D01*
X79663033Y-62373000D01*
X79340967Y-62373000D01*
X79025088Y-62435832D01*
X78727537Y-62559082D01*
X78459748Y-62738013D01*
X78384000Y-62813761D01*
X78384000Y-59084397D01*
X78457720Y-59123802D01*
X78577418Y-59160112D01*
X78701900Y-59172372D01*
X79781400Y-59172372D01*
X79781400Y-59288645D01*
X79768997Y-59329534D01*
X79758000Y-59441187D01*
X79758000Y-59779678D01*
X79754324Y-59817000D01*
X79758000Y-59854322D01*
X79758000Y-59854333D01*
X79768997Y-59965986D01*
X79812454Y-60109247D01*
X79883026Y-60241276D01*
X79977999Y-60357001D01*
X80007001Y-60380802D01*
X81218500Y-61592302D01*
X81218501Y-62700668D01*
X81214824Y-62738000D01*
X81218501Y-62775333D01*
X81227379Y-62865466D01*
X81229498Y-62886985D01*
X81272954Y-63030246D01*
X81343526Y-63162276D01*
X81397959Y-63228602D01*
X81438500Y-63278001D01*
X81467498Y-63301799D01*
X82113201Y-63947502D01*
X82136999Y-63976501D01*
X82252724Y-64071474D01*
X82384753Y-64142046D01*
X82528014Y-64185503D01*
X82639667Y-64196500D01*
X82639676Y-64196500D01*
X82676999Y-64200176D01*
X82714322Y-64196500D01*
X82859905Y-64196500D01*
X82896794Y-64265514D01*
X83082366Y-64491634D01*
X83308486Y-64677206D01*
X83566466Y-64815099D01*
X83846389Y-64900013D01*
X84064550Y-64921500D01*
X84210450Y-64921500D01*
X84428611Y-64900013D01*
X84708534Y-64815099D01*
X84966514Y-64677206D01*
X85192634Y-64491634D01*
X85378206Y-64265514D01*
X85427602Y-64173100D01*
X86641317Y-64173100D01*
X86677500Y-64176664D01*
X86713683Y-64173100D01*
X86713686Y-64173100D01*
X86821899Y-64162442D01*
X86960749Y-64120322D01*
X87088713Y-64051924D01*
X87116352Y-64029241D01*
X87158053Y-64166709D01*
X87239542Y-64319164D01*
X87349208Y-64452792D01*
X87482836Y-64562458D01*
X87635291Y-64643947D01*
X87800715Y-64694128D01*
X87972750Y-64711072D01*
X88460250Y-64711072D01*
X88632285Y-64694128D01*
X88797709Y-64643947D01*
X88950164Y-64562458D01*
X89083792Y-64452792D01*
X89154000Y-64367244D01*
X89224208Y-64452792D01*
X89357836Y-64562458D01*
X89510291Y-64643947D01*
X89675715Y-64694128D01*
X89847750Y-64711072D01*
X90335250Y-64711072D01*
X90507285Y-64694128D01*
X90672709Y-64643947D01*
X90825164Y-64562458D01*
X90958792Y-64452792D01*
X91068458Y-64319164D01*
X91149947Y-64166709D01*
X91200128Y-64001285D01*
X91217072Y-63829250D01*
X91217072Y-62916750D01*
X91200128Y-62744715D01*
X91149947Y-62579291D01*
X91068458Y-62426836D01*
X90964758Y-62300477D01*
X91023705Y-62212256D01*
X91101726Y-62023898D01*
X91141500Y-61823939D01*
X91141500Y-61620061D01*
X91101726Y-61420102D01*
X91023705Y-61231744D01*
X90910437Y-61062226D01*
X90766274Y-60918063D01*
X90596756Y-60804795D01*
X90408398Y-60726774D01*
X90208439Y-60687000D01*
X90004561Y-60687000D01*
X89804602Y-60726774D01*
X89752672Y-60748284D01*
X89752672Y-60105400D01*
X89750171Y-60080000D01*
X91069928Y-60080000D01*
X91069928Y-60830000D01*
X91086992Y-61003254D01*
X91137528Y-61169850D01*
X91219595Y-61323386D01*
X91330038Y-61457962D01*
X91464614Y-61568405D01*
X91618150Y-61650472D01*
X91784746Y-61701008D01*
X91797901Y-61702304D01*
X91797900Y-62185951D01*
X91667208Y-62293208D01*
X91557542Y-62426836D01*
X91476053Y-62579291D01*
X91425872Y-62744715D01*
X91408928Y-62916750D01*
X91408928Y-63829250D01*
X91425872Y-64001285D01*
X91476053Y-64166709D01*
X91557542Y-64319164D01*
X91667208Y-64452792D01*
X91800836Y-64562458D01*
X91953291Y-64643947D01*
X92118715Y-64694128D01*
X92290750Y-64711072D01*
X92778250Y-64711072D01*
X92950285Y-64694128D01*
X93115709Y-64643947D01*
X93268164Y-64562458D01*
X93401792Y-64452792D01*
X93472000Y-64367244D01*
X93542208Y-64452792D01*
X93675836Y-64562458D01*
X93828291Y-64643947D01*
X93993715Y-64694128D01*
X94165750Y-64711072D01*
X94653250Y-64711072D01*
X94825285Y-64694128D01*
X94990709Y-64643947D01*
X95143164Y-64562458D01*
X95276792Y-64452792D01*
X95386458Y-64319164D01*
X95467947Y-64166709D01*
X95518128Y-64001285D01*
X95519841Y-63983890D01*
X96221524Y-63983890D01*
X96266175Y-64131099D01*
X96391359Y-64393920D01*
X96565412Y-64627269D01*
X96781645Y-64822178D01*
X97031748Y-64971157D01*
X97306109Y-65068481D01*
X97536000Y-64947814D01*
X97536000Y-63754000D01*
X97790000Y-63754000D01*
X97790000Y-64947814D01*
X98019891Y-65068481D01*
X98294252Y-64971157D01*
X98544355Y-64822178D01*
X98760588Y-64627269D01*
X98934641Y-64393920D01*
X99059825Y-64131099D01*
X99104476Y-63983890D01*
X98983155Y-63754000D01*
X97790000Y-63754000D01*
X97536000Y-63754000D01*
X96342845Y-63754000D01*
X96221524Y-63983890D01*
X95519841Y-63983890D01*
X95535072Y-63829250D01*
X95535072Y-62916750D01*
X95518128Y-62744715D01*
X95467947Y-62579291D01*
X95386458Y-62426836D01*
X95377095Y-62415427D01*
X95401774Y-62398937D01*
X95545937Y-62254774D01*
X95659205Y-62085256D01*
X95737226Y-61896898D01*
X95777000Y-61696939D01*
X95777000Y-61493061D01*
X95737226Y-61293102D01*
X95659205Y-61104744D01*
X95545937Y-60935226D01*
X95401774Y-60791063D01*
X95232256Y-60677795D01*
X95043898Y-60599774D01*
X94843939Y-60560000D01*
X94640061Y-60560000D01*
X94440102Y-60599774D01*
X94251744Y-60677795D01*
X94096072Y-60781811D01*
X94096072Y-60237000D01*
X96174928Y-60237000D01*
X96174928Y-61937000D01*
X96187188Y-62061482D01*
X96223498Y-62181180D01*
X96282463Y-62291494D01*
X96361815Y-62388185D01*
X96458506Y-62467537D01*
X96568820Y-62526502D01*
X96649466Y-62550966D01*
X96565412Y-62626731D01*
X96391359Y-62860080D01*
X96266175Y-63122901D01*
X96221524Y-63270110D01*
X96342845Y-63500000D01*
X97536000Y-63500000D01*
X97536000Y-63480000D01*
X97790000Y-63480000D01*
X97790000Y-63500000D01*
X98983155Y-63500000D01*
X99104476Y-63270110D01*
X99059825Y-63122901D01*
X98934641Y-62860080D01*
X98760588Y-62626731D01*
X98676534Y-62550966D01*
X98757180Y-62526502D01*
X98867494Y-62467537D01*
X98964185Y-62388185D01*
X99043537Y-62291494D01*
X99102502Y-62181180D01*
X99138812Y-62061482D01*
X99151072Y-61937000D01*
X99151072Y-60237000D01*
X99138812Y-60112518D01*
X99102502Y-59992820D01*
X99043537Y-59882506D01*
X98964185Y-59785815D01*
X98867494Y-59706463D01*
X98757180Y-59647498D01*
X98637482Y-59611188D01*
X98513000Y-59598928D01*
X98493281Y-59598928D01*
X99481855Y-58610355D01*
X99529750Y-58615072D01*
X100017250Y-58615072D01*
X100189285Y-58598128D01*
X100354709Y-58547947D01*
X100507164Y-58466458D01*
X100640792Y-58356792D01*
X100711000Y-58271244D01*
X100781208Y-58356792D01*
X100914836Y-58466458D01*
X101067291Y-58547947D01*
X101232715Y-58598128D01*
X101404750Y-58615072D01*
X101892250Y-58615072D01*
X102064285Y-58598128D01*
X102229709Y-58547947D01*
X102382164Y-58466458D01*
X102515792Y-58356792D01*
X102625458Y-58223164D01*
X102706947Y-58070709D01*
X102757128Y-57905285D01*
X102774072Y-57733250D01*
X102774072Y-56820750D01*
X102757128Y-56648715D01*
X102706947Y-56483291D01*
X102625458Y-56330836D01*
X102515792Y-56197208D01*
X102471303Y-56160697D01*
X102537822Y-56036249D01*
X102579942Y-55897399D01*
X102586257Y-55833281D01*
X102659258Y-55744329D01*
X102732084Y-55608082D01*
X102776929Y-55460245D01*
X102792072Y-55306500D01*
X102792072Y-53656500D01*
X102776929Y-53502755D01*
X102744913Y-53397212D01*
X102767774Y-53381937D01*
X102911937Y-53237774D01*
X103025205Y-53068256D01*
X103103226Y-52879898D01*
X103143000Y-52679939D01*
X103143000Y-52476061D01*
X103103226Y-52276102D01*
X103025205Y-52087744D01*
X102911937Y-51918226D01*
X102767774Y-51774063D01*
X102598256Y-51660795D01*
X102409898Y-51582774D01*
X102209939Y-51543000D01*
X102006061Y-51543000D01*
X101806102Y-51582774D01*
X101617744Y-51660795D01*
X101448226Y-51774063D01*
X101352350Y-51869939D01*
X101243774Y-51761363D01*
X101074256Y-51648095D01*
X100885898Y-51570074D01*
X100685939Y-51530300D01*
X100482061Y-51530300D01*
X100282102Y-51570074D01*
X100093744Y-51648095D01*
X99924226Y-51761363D01*
X99780063Y-51905526D01*
X99666795Y-52075044D01*
X99588774Y-52263402D01*
X99549000Y-52463361D01*
X99549000Y-52667239D01*
X99588774Y-52867198D01*
X99594612Y-52881293D01*
X99464000Y-52868428D01*
X99164000Y-52868428D01*
X99010255Y-52883571D01*
X98862418Y-52928416D01*
X98728064Y-53000230D01*
X98698494Y-52975963D01*
X98588180Y-52916998D01*
X98468482Y-52880688D01*
X98344000Y-52868428D01*
X98329750Y-52871500D01*
X98171000Y-53030250D01*
X98171000Y-54354500D01*
X98191000Y-54354500D01*
X98191000Y-54608500D01*
X98171000Y-54608500D01*
X98171000Y-55932750D01*
X98329750Y-56091500D01*
X98344000Y-56094572D01*
X98468482Y-56082312D01*
X98588180Y-56046002D01*
X98677699Y-55998153D01*
X98698576Y-56037212D01*
X98763644Y-56116497D01*
X98790626Y-56149375D01*
X98818732Y-56172441D01*
X98877942Y-56231651D01*
X98796542Y-56330836D01*
X98715053Y-56483291D01*
X98664872Y-56648715D01*
X98647928Y-56820750D01*
X98647928Y-57360862D01*
X96913732Y-59095059D01*
X96885625Y-59118126D01*
X96862559Y-59146232D01*
X96862558Y-59146233D01*
X96841165Y-59172301D01*
X96793576Y-59230288D01*
X96725178Y-59358252D01*
X96683058Y-59497102D01*
X96680335Y-59524754D01*
X96671307Y-59616409D01*
X96568820Y-59647498D01*
X96458506Y-59706463D01*
X96361815Y-59785815D01*
X96282463Y-59882506D01*
X96223498Y-59992820D01*
X96187188Y-60112518D01*
X96174928Y-60237000D01*
X94096072Y-60237000D01*
X94096072Y-60080000D01*
X94079008Y-59906746D01*
X94028472Y-59740150D01*
X93946405Y-59586614D01*
X93835962Y-59452038D01*
X93701386Y-59341595D01*
X93547850Y-59259528D01*
X93381254Y-59208992D01*
X93208000Y-59191928D01*
X91958000Y-59191928D01*
X91784746Y-59208992D01*
X91618150Y-59259528D01*
X91464614Y-59341595D01*
X91330038Y-59452038D01*
X91219595Y-59586614D01*
X91137528Y-59740150D01*
X91086992Y-59906746D01*
X91069928Y-60080000D01*
X89750171Y-60080000D01*
X89735608Y-59932146D01*
X89685072Y-59765550D01*
X89603005Y-59612014D01*
X89492562Y-59477438D01*
X89357986Y-59366995D01*
X89204450Y-59284928D01*
X89037854Y-59234392D01*
X88864600Y-59217328D01*
X87614600Y-59217328D01*
X87610950Y-59217687D01*
X87610950Y-58943113D01*
X87614600Y-58943472D01*
X88864600Y-58943472D01*
X89037854Y-58926408D01*
X89204450Y-58875872D01*
X89357986Y-58793805D01*
X89492562Y-58683362D01*
X89603005Y-58548786D01*
X89685072Y-58395250D01*
X89735608Y-58228654D01*
X89752672Y-58055400D01*
X89752672Y-57305400D01*
X89735608Y-57132146D01*
X89685072Y-56965550D01*
X89603005Y-56812014D01*
X89492562Y-56677438D01*
X89357986Y-56566995D01*
X89204450Y-56484928D01*
X89037854Y-56434392D01*
X88976200Y-56428320D01*
X88976200Y-56251372D01*
X88988900Y-56251372D01*
X89113382Y-56239112D01*
X89233080Y-56202802D01*
X89343394Y-56143837D01*
X89440085Y-56064485D01*
X89519437Y-55967794D01*
X89578402Y-55857480D01*
X89614712Y-55737782D01*
X89618216Y-55702200D01*
X90083017Y-55702200D01*
X90119200Y-55705764D01*
X90155383Y-55702200D01*
X90155386Y-55702200D01*
X90263599Y-55691542D01*
X90278274Y-55687090D01*
X90322061Y-55695800D01*
X90525939Y-55695800D01*
X90725898Y-55656026D01*
X90914256Y-55578005D01*
X91083774Y-55464737D01*
X91227937Y-55320574D01*
X91245260Y-55294648D01*
X91269598Y-55374880D01*
X91328563Y-55485194D01*
X91353532Y-55515618D01*
X91224100Y-55645050D01*
X91235210Y-55747080D01*
X91273297Y-55866224D01*
X91333896Y-55975649D01*
X91414678Y-56071148D01*
X91512539Y-56149053D01*
X91623719Y-56206370D01*
X91743944Y-56240895D01*
X91868594Y-56251301D01*
X92322650Y-56248300D01*
X92481400Y-56089550D01*
X92481400Y-55768772D01*
X92735400Y-55768772D01*
X92735400Y-56089550D01*
X92894150Y-56248300D01*
X92922701Y-56248489D01*
X92922701Y-56273590D01*
X92804363Y-56391928D01*
X91958000Y-56391928D01*
X91784746Y-56408992D01*
X91618150Y-56459528D01*
X91464614Y-56541595D01*
X91330038Y-56652038D01*
X91219595Y-56786614D01*
X91137528Y-56940150D01*
X91086992Y-57106746D01*
X91069928Y-57280000D01*
X91069928Y-58030000D01*
X91086992Y-58203254D01*
X91137528Y-58369850D01*
X91219595Y-58523386D01*
X91330038Y-58657962D01*
X91464614Y-58768405D01*
X91618150Y-58850472D01*
X91784746Y-58901008D01*
X91958000Y-58918072D01*
X93208000Y-58918072D01*
X93381254Y-58901008D01*
X93547850Y-58850472D01*
X93701386Y-58768405D01*
X93835962Y-58657962D01*
X93946405Y-58523386D01*
X94028472Y-58369850D01*
X94079008Y-58203254D01*
X94096072Y-58030000D01*
X94096072Y-57280000D01*
X94087432Y-57192277D01*
X94154569Y-57125140D01*
X94182675Y-57102074D01*
X94274725Y-56989912D01*
X94343123Y-56861948D01*
X94385243Y-56723098D01*
X94395901Y-56614885D01*
X94395901Y-56614876D01*
X94399464Y-56578700D01*
X94395901Y-56542524D01*
X94395901Y-55456500D01*
X97105928Y-55456500D01*
X97118188Y-55580982D01*
X97154498Y-55700680D01*
X97213463Y-55810994D01*
X97292815Y-55907685D01*
X97389506Y-55987037D01*
X97499820Y-56046002D01*
X97619518Y-56082312D01*
X97744000Y-56094572D01*
X97758250Y-56091500D01*
X97917000Y-55932750D01*
X97917000Y-54608500D01*
X97267750Y-54608500D01*
X97109000Y-54767250D01*
X97105928Y-55456500D01*
X94395901Y-55456500D01*
X94395901Y-53601584D01*
X94399465Y-53565400D01*
X94394000Y-53509912D01*
X94393664Y-53506500D01*
X97105928Y-53506500D01*
X97109000Y-54195750D01*
X97267750Y-54354500D01*
X97917000Y-54354500D01*
X97917000Y-53030250D01*
X97758250Y-52871500D01*
X97744000Y-52868428D01*
X97619518Y-52880688D01*
X97499820Y-52916998D01*
X97389506Y-52975963D01*
X97292815Y-53055315D01*
X97213463Y-53152006D01*
X97154498Y-53262320D01*
X97118188Y-53382018D01*
X97105928Y-53506500D01*
X94393664Y-53506500D01*
X94385243Y-53421002D01*
X94343123Y-53282152D01*
X94274725Y-53154188D01*
X94182676Y-53042026D01*
X94154564Y-53018955D01*
X94107346Y-52971737D01*
X94084275Y-52943625D01*
X93972113Y-52851576D01*
X93844149Y-52783178D01*
X93705299Y-52741058D01*
X93644249Y-52735045D01*
X93601880Y-52712398D01*
X93482182Y-52676088D01*
X93357700Y-52663828D01*
X91859100Y-52663828D01*
X91734618Y-52676088D01*
X91614920Y-52712398D01*
X91504606Y-52771363D01*
X91407915Y-52850715D01*
X91328563Y-52947406D01*
X91269598Y-53057720D01*
X91233288Y-53177418D01*
X91221028Y-53301900D01*
X91221028Y-53632100D01*
X91228726Y-53710264D01*
X91227557Y-53721000D01*
X90859707Y-53721000D01*
X90725898Y-53665574D01*
X90525939Y-53625800D01*
X90322061Y-53625800D01*
X90122102Y-53665574D01*
X89933744Y-53743595D01*
X89764226Y-53856863D01*
X89626972Y-53994117D01*
X89626972Y-53784500D01*
X89619467Y-53708300D01*
X89626972Y-53632100D01*
X89626972Y-53301900D01*
X89614712Y-53177418D01*
X89578402Y-53057720D01*
X89519437Y-52947406D01*
X89440085Y-52850715D01*
X89343394Y-52771363D01*
X89233080Y-52712398D01*
X89113382Y-52676088D01*
X88988900Y-52663828D01*
X88835608Y-52663828D01*
X88762975Y-52575325D01*
X88734869Y-52552259D01*
X88062145Y-51879536D01*
X88039075Y-51851425D01*
X87926913Y-51759376D01*
X87798949Y-51690978D01*
X87660099Y-51648858D01*
X87551886Y-51638200D01*
X87551883Y-51638200D01*
X87515700Y-51634636D01*
X87479517Y-51638200D01*
X87391911Y-51638200D01*
X87324574Y-51570863D01*
X87155056Y-51457595D01*
X86966698Y-51379574D01*
X86766739Y-51339800D01*
X86562861Y-51339800D01*
X86362902Y-51379574D01*
X86174544Y-51457595D01*
X86005026Y-51570863D01*
X85860863Y-51715026D01*
X85747595Y-51884544D01*
X85669574Y-52072902D01*
X85629800Y-52272861D01*
X85629800Y-52476739D01*
X85669574Y-52676698D01*
X85747595Y-52865056D01*
X85860863Y-53034574D01*
X86005026Y-53178737D01*
X86174544Y-53292005D01*
X86362902Y-53370026D01*
X86562861Y-53409800D01*
X86766739Y-53409800D01*
X86789177Y-53405337D01*
X86763725Y-53426225D01*
X86740654Y-53454337D01*
X86379082Y-53815909D01*
X86350975Y-53838976D01*
X86327909Y-53867082D01*
X86327908Y-53867083D01*
X86281033Y-53924200D01*
X86258926Y-53951138D01*
X86190528Y-54079102D01*
X86148408Y-54217952D01*
X86143265Y-54270172D01*
X86134186Y-54362350D01*
X86137750Y-54398533D01*
X86137751Y-62699900D01*
X85427602Y-62699900D01*
X85378206Y-62607486D01*
X85192634Y-62381366D01*
X85162813Y-62356893D01*
X85231680Y-62336002D01*
X85341994Y-62277037D01*
X85438685Y-62197685D01*
X85518037Y-62100994D01*
X85577002Y-61990680D01*
X85613312Y-61870982D01*
X85625572Y-61746500D01*
X85625572Y-60046500D01*
X85613312Y-59922018D01*
X85577002Y-59802320D01*
X85518037Y-59692006D01*
X85438685Y-59595315D01*
X85341994Y-59515963D01*
X85231680Y-59456998D01*
X85111982Y-59420688D01*
X84987500Y-59408428D01*
X83388200Y-59408428D01*
X83388200Y-59170265D01*
X83534250Y-59169300D01*
X83693000Y-59010550D01*
X83693000Y-58689772D01*
X83947000Y-58689772D01*
X83947000Y-59010550D01*
X84105750Y-59169300D01*
X84559806Y-59172301D01*
X84684456Y-59161895D01*
X84804681Y-59127370D01*
X84915861Y-59070053D01*
X85013722Y-58992148D01*
X85094504Y-58896649D01*
X85155103Y-58787224D01*
X85193190Y-58668080D01*
X85204300Y-58566050D01*
X85074868Y-58436618D01*
X85099837Y-58406194D01*
X85158802Y-58295880D01*
X85192780Y-58183870D01*
X85204300Y-58172350D01*
X85199674Y-58129864D01*
X85207372Y-58051700D01*
X85207372Y-57721500D01*
X85198616Y-57632600D01*
X85207372Y-57543700D01*
X85207372Y-57484812D01*
X85318057Y-57393975D01*
X85341128Y-57365863D01*
X85366169Y-57340822D01*
X85394275Y-57317756D01*
X85486325Y-57205594D01*
X85554723Y-57077630D01*
X85596843Y-56938780D01*
X85607501Y-56830567D01*
X85607501Y-56830566D01*
X85611065Y-56794381D01*
X85607501Y-56758195D01*
X85607501Y-56008282D01*
X85611065Y-55972098D01*
X85607189Y-55932750D01*
X85596843Y-55827700D01*
X85554723Y-55688850D01*
X85509458Y-55604164D01*
X85486325Y-55560885D01*
X85446240Y-55512042D01*
X85394276Y-55448724D01*
X85366164Y-55425653D01*
X84944248Y-55003737D01*
X84921177Y-54975625D01*
X84809015Y-54883576D01*
X84681051Y-54815178D01*
X84542201Y-54773058D01*
X84433988Y-54762400D01*
X84433985Y-54762400D01*
X84397802Y-54758836D01*
X84361619Y-54762400D01*
X83871110Y-54762400D01*
X83667600Y-54558891D01*
X83667600Y-54193072D01*
X83781000Y-54193072D01*
X83905482Y-54180812D01*
X84025180Y-54144502D01*
X84135494Y-54085537D01*
X84232185Y-54006185D01*
X84311537Y-53909494D01*
X84370502Y-53799180D01*
X84406812Y-53679482D01*
X84419072Y-53555000D01*
X84419072Y-53370470D01*
X84430742Y-53331999D01*
X84444964Y-53187600D01*
X84430742Y-53043201D01*
X84419072Y-53004730D01*
X84419072Y-51855000D01*
X84406812Y-51730518D01*
X84370502Y-51610820D01*
X84311537Y-51500506D01*
X84232185Y-51403815D01*
X84135494Y-51324463D01*
X84025180Y-51265498D01*
X83905482Y-51229188D01*
X83781000Y-51216928D01*
X82081000Y-51216928D01*
X81956518Y-51229188D01*
X81836820Y-51265498D01*
X81726506Y-51324463D01*
X81629815Y-51403815D01*
X81550463Y-51500506D01*
X81491498Y-51610820D01*
X81470607Y-51679687D01*
X81446134Y-51649866D01*
X81220014Y-51464294D01*
X80962034Y-51326401D01*
X80682111Y-51241487D01*
X80463950Y-51220000D01*
X80318050Y-51220000D01*
X80099889Y-51241487D01*
X79819966Y-51326401D01*
X79561986Y-51464294D01*
X79335866Y-51649866D01*
X79150294Y-51875986D01*
X79012401Y-52133966D01*
X78927487Y-52413889D01*
X78898815Y-52705000D01*
X78927487Y-52996111D01*
X79005199Y-53252292D01*
X78384000Y-53873491D01*
X78384000Y-50344000D01*
X83651928Y-50344000D01*
X83664188Y-50468482D01*
X83700498Y-50588180D01*
X83759463Y-50698494D01*
X83838815Y-50795185D01*
X83935506Y-50874537D01*
X84045820Y-50933502D01*
X84165518Y-50969812D01*
X84290000Y-50982072D01*
X84804250Y-50979000D01*
X84963000Y-50820250D01*
X84963000Y-49171000D01*
X85217000Y-49171000D01*
X85217000Y-50820250D01*
X85375750Y-50979000D01*
X85890000Y-50982072D01*
X86014482Y-50969812D01*
X86134180Y-50933502D01*
X86170294Y-50914198D01*
X92610230Y-50914198D01*
X92622490Y-51038680D01*
X92658800Y-51158378D01*
X92717765Y-51268692D01*
X92797117Y-51365383D01*
X92893808Y-51444735D01*
X93004122Y-51503700D01*
X93123820Y-51540010D01*
X93248302Y-51552270D01*
X94011750Y-51549198D01*
X94170500Y-51390448D01*
X94170500Y-49911000D01*
X94424500Y-49911000D01*
X94424500Y-51390448D01*
X94583250Y-51549198D01*
X95346698Y-51552270D01*
X95471180Y-51540010D01*
X95590878Y-51503700D01*
X95701192Y-51444735D01*
X95797883Y-51365383D01*
X95877235Y-51268692D01*
X95936200Y-51158378D01*
X95972510Y-51038680D01*
X95984770Y-50914198D01*
X95981698Y-50069750D01*
X95822948Y-49911000D01*
X94424500Y-49911000D01*
X94170500Y-49911000D01*
X92772052Y-49911000D01*
X92613302Y-50069750D01*
X92610230Y-50914198D01*
X86170294Y-50914198D01*
X86244494Y-50874537D01*
X86341185Y-50795185D01*
X86420537Y-50698494D01*
X86479502Y-50588180D01*
X86515812Y-50468482D01*
X86528072Y-50344000D01*
X86525000Y-49329750D01*
X86366250Y-49171000D01*
X85217000Y-49171000D01*
X84963000Y-49171000D01*
X83813750Y-49171000D01*
X83655000Y-49329750D01*
X83651928Y-50344000D01*
X78384000Y-50344000D01*
X78384000Y-49237000D01*
X78775928Y-49237000D01*
X78788188Y-49361482D01*
X78824498Y-49481180D01*
X78883463Y-49591494D01*
X78962815Y-49688185D01*
X79059506Y-49767537D01*
X79169820Y-49826502D01*
X79289518Y-49862812D01*
X79414000Y-49875072D01*
X79978250Y-49872000D01*
X80137000Y-49713250D01*
X80137000Y-48514000D01*
X80391000Y-48514000D01*
X80391000Y-49713250D01*
X80549750Y-49872000D01*
X81114000Y-49875072D01*
X81238482Y-49862812D01*
X81358180Y-49826502D01*
X81468494Y-49767537D01*
X81565185Y-49688185D01*
X81644537Y-49591494D01*
X81703502Y-49481180D01*
X81739812Y-49361482D01*
X81752072Y-49237000D01*
X81749000Y-48672750D01*
X81590250Y-48514000D01*
X80391000Y-48514000D01*
X80137000Y-48514000D01*
X78937750Y-48514000D01*
X78779000Y-48672750D01*
X78775928Y-49237000D01*
X78384000Y-49237000D01*
X78384000Y-44475000D01*
X79680620Y-44475000D01*
X79434986Y-44606294D01*
G36*
X88710750Y-46482000D02*
G01*
X88689002Y-46482000D01*
X88689002Y-46368072D01*
X88824678Y-46368072D01*
X88710750Y-46482000D01*
X88710750Y-46482000D01*
G37*
X88710750Y-46482000D02*
X88689002Y-46482000D01*
X88689002Y-46368072D01*
X88824678Y-46368072D01*
X88710750Y-46482000D01*
G36*
X88434998Y-46482000D02*
G01*
X88413250Y-46482000D01*
X88299322Y-46368072D01*
X88434998Y-46368072D01*
X88434998Y-46482000D01*
X88434998Y-46482000D01*
G37*
X88434998Y-46482000D02*
X88413250Y-46482000D01*
X88299322Y-46368072D01*
X88434998Y-46368072D01*
X88434998Y-46482000D01*
M02*
