G04 #@! TF.GenerationSoftware,KiCad,Pcbnew,(5.1.4-0-10_14)*
G04 #@! TF.CreationDate,2019-11-02T18:26:44-07:00*
G04 #@! TF.ProjectId,SoftButtonBoardMux555,536f6674-4275-4747-946f-6e426f617264,rev?*
G04 #@! TF.SameCoordinates,Original*
G04 #@! TF.FileFunction,Copper,L2,Bot*
G04 #@! TF.FilePolarity,Positive*
%FSLAX46Y46*%
G04 Gerber Fmt 4.6, Leading zero omitted, Abs format (unit mm)*
G04 Created by KiCad (PCBNEW (5.1.4-0-10_14)) date 2019-11-02 18:26:44*
%MOMM*%
%LPD*%
G04 APERTURE LIST*
%ADD10O,1.700000X1.700000*%
%ADD11R,1.700000X1.700000*%
%ADD12C,0.800000*%
%ADD13C,0.203200*%
%ADD14C,0.250000*%
%ADD15C,0.254000*%
G04 APERTURE END LIST*
D10*
X96710500Y-63373000D03*
D11*
X96710500Y-60833000D03*
D10*
X84137500Y-63436500D03*
D11*
X84137500Y-60896500D03*
D10*
X80264000Y-45847000D03*
D11*
X80264000Y-48387000D03*
D10*
X80391000Y-52705000D03*
D11*
X82931000Y-52705000D03*
D12*
X79476600Y-55473600D03*
X96837500Y-45466000D03*
X102362000Y-48006000D03*
X92110600Y-45405000D03*
X86664800Y-52374800D03*
X90487500Y-64389000D03*
X96647000Y-57785000D03*
X81407000Y-57886600D03*
X100901500Y-48006000D03*
X90424000Y-54660800D03*
D13*
X81407000Y-57886600D02*
X83527900Y-57886600D01*
X87153801Y-54260801D02*
X87153750Y-54260750D01*
X90024001Y-54260801D02*
X87153801Y-54260801D01*
X90424000Y-54660800D02*
X90024001Y-54260801D01*
X83527900Y-57886600D02*
X87153750Y-54260750D01*
D14*
X90823999Y-54260801D02*
X90823999Y-53130501D01*
X90424000Y-54660800D02*
X90823999Y-54260801D01*
X92202000Y-51752500D02*
X97155000Y-51752500D01*
X90823999Y-53130501D02*
X92202000Y-51752500D01*
X100901500Y-48006000D02*
X97155000Y-51752500D01*
D15*
G36*
X79434986Y-44606294D02*
G01*
X79208866Y-44791866D01*
X79023294Y-45017986D01*
X78885401Y-45275966D01*
X78800487Y-45555889D01*
X78771815Y-45847000D01*
X78800487Y-46138111D01*
X78885401Y-46418034D01*
X79023294Y-46676014D01*
X79208866Y-46902134D01*
X79238687Y-46926607D01*
X79169820Y-46947498D01*
X79059506Y-47006463D01*
X78962815Y-47085815D01*
X78883463Y-47182506D01*
X78824498Y-47292820D01*
X78788188Y-47412518D01*
X78775928Y-47537000D01*
X78775928Y-49237000D01*
X78788188Y-49361482D01*
X78824498Y-49481180D01*
X78883463Y-49591494D01*
X78962815Y-49688185D01*
X79059506Y-49767537D01*
X79169820Y-49826502D01*
X79289518Y-49862812D01*
X79414000Y-49875072D01*
X81114000Y-49875072D01*
X81238482Y-49862812D01*
X81358180Y-49826502D01*
X81468494Y-49767537D01*
X81565185Y-49688185D01*
X81644537Y-49591494D01*
X81703502Y-49481180D01*
X81739812Y-49361482D01*
X81752072Y-49237000D01*
X81752072Y-47537000D01*
X81739812Y-47412518D01*
X81703502Y-47292820D01*
X81644537Y-47182506D01*
X81565185Y-47085815D01*
X81468494Y-47006463D01*
X81358180Y-46947498D01*
X81289313Y-46926607D01*
X81319134Y-46902134D01*
X81504706Y-46676014D01*
X81642599Y-46418034D01*
X81727513Y-46138111D01*
X81756185Y-45847000D01*
X81727513Y-45555889D01*
X81642599Y-45275966D01*
X81504706Y-45017986D01*
X81319134Y-44791866D01*
X81093014Y-44606294D01*
X80847380Y-44475000D01*
X103480000Y-44475000D01*
X103480001Y-63801725D01*
X103426168Y-63531088D01*
X103302918Y-63233537D01*
X103123987Y-62965748D01*
X102896252Y-62738013D01*
X102628463Y-62559082D01*
X102330912Y-62435832D01*
X102015033Y-62373000D01*
X101692967Y-62373000D01*
X101377088Y-62435832D01*
X101079537Y-62559082D01*
X100811748Y-62738013D01*
X100584013Y-62965748D01*
X100405082Y-63233537D01*
X100281832Y-63531088D01*
X100219000Y-63846967D01*
X100219000Y-64169033D01*
X100281832Y-64484912D01*
X100405082Y-64782463D01*
X100584013Y-65050252D01*
X100659761Y-65126000D01*
X80696239Y-65126000D01*
X80771987Y-65050252D01*
X80950918Y-64782463D01*
X81074168Y-64484912D01*
X81137000Y-64169033D01*
X81137000Y-63846967D01*
X81074168Y-63531088D01*
X81034989Y-63436500D01*
X82645315Y-63436500D01*
X82673987Y-63727611D01*
X82758901Y-64007534D01*
X82896794Y-64265514D01*
X83082366Y-64491634D01*
X83308486Y-64677206D01*
X83566466Y-64815099D01*
X83846389Y-64900013D01*
X84064550Y-64921500D01*
X84210450Y-64921500D01*
X84428611Y-64900013D01*
X84708534Y-64815099D01*
X84966514Y-64677206D01*
X85192634Y-64491634D01*
X85378206Y-64265514D01*
X85516099Y-64007534D01*
X85601013Y-63727611D01*
X85629685Y-63436500D01*
X85623431Y-63373000D01*
X95218315Y-63373000D01*
X95246987Y-63664111D01*
X95331901Y-63944034D01*
X95469794Y-64202014D01*
X95655366Y-64428134D01*
X95881486Y-64613706D01*
X96139466Y-64751599D01*
X96419389Y-64836513D01*
X96637550Y-64858000D01*
X96783450Y-64858000D01*
X97001611Y-64836513D01*
X97281534Y-64751599D01*
X97539514Y-64613706D01*
X97765634Y-64428134D01*
X97951206Y-64202014D01*
X98089099Y-63944034D01*
X98174013Y-63664111D01*
X98202685Y-63373000D01*
X98174013Y-63081889D01*
X98089099Y-62801966D01*
X97951206Y-62543986D01*
X97765634Y-62317866D01*
X97735813Y-62293393D01*
X97804680Y-62272502D01*
X97914994Y-62213537D01*
X98011685Y-62134185D01*
X98091037Y-62037494D01*
X98150002Y-61927180D01*
X98186312Y-61807482D01*
X98198572Y-61683000D01*
X98198572Y-59983000D01*
X98186312Y-59858518D01*
X98150002Y-59738820D01*
X98091037Y-59628506D01*
X98011685Y-59531815D01*
X97914994Y-59452463D01*
X97804680Y-59393498D01*
X97684982Y-59357188D01*
X97560500Y-59344928D01*
X95860500Y-59344928D01*
X95736018Y-59357188D01*
X95616320Y-59393498D01*
X95506006Y-59452463D01*
X95409315Y-59531815D01*
X95329963Y-59628506D01*
X95270998Y-59738820D01*
X95234688Y-59858518D01*
X95222428Y-59983000D01*
X95222428Y-61683000D01*
X95234688Y-61807482D01*
X95270998Y-61927180D01*
X95329963Y-62037494D01*
X95409315Y-62134185D01*
X95506006Y-62213537D01*
X95616320Y-62272502D01*
X95685187Y-62293393D01*
X95655366Y-62317866D01*
X95469794Y-62543986D01*
X95331901Y-62801966D01*
X95246987Y-63081889D01*
X95218315Y-63373000D01*
X85623431Y-63373000D01*
X85601013Y-63145389D01*
X85516099Y-62865466D01*
X85378206Y-62607486D01*
X85192634Y-62381366D01*
X85162813Y-62356893D01*
X85231680Y-62336002D01*
X85341994Y-62277037D01*
X85438685Y-62197685D01*
X85518037Y-62100994D01*
X85577002Y-61990680D01*
X85613312Y-61870982D01*
X85625572Y-61746500D01*
X85625572Y-60046500D01*
X85613312Y-59922018D01*
X85577002Y-59802320D01*
X85518037Y-59692006D01*
X85438685Y-59595315D01*
X85341994Y-59515963D01*
X85231680Y-59456998D01*
X85111982Y-59420688D01*
X84987500Y-59408428D01*
X83287500Y-59408428D01*
X83163018Y-59420688D01*
X83043320Y-59456998D01*
X82933006Y-59515963D01*
X82836315Y-59595315D01*
X82756963Y-59692006D01*
X82697998Y-59802320D01*
X82661688Y-59922018D01*
X82649428Y-60046500D01*
X82649428Y-61746500D01*
X82661688Y-61870982D01*
X82697998Y-61990680D01*
X82756963Y-62100994D01*
X82836315Y-62197685D01*
X82933006Y-62277037D01*
X83043320Y-62336002D01*
X83112187Y-62356893D01*
X83082366Y-62381366D01*
X82896794Y-62607486D01*
X82758901Y-62865466D01*
X82673987Y-63145389D01*
X82645315Y-63436500D01*
X81034989Y-63436500D01*
X80950918Y-63233537D01*
X80771987Y-62965748D01*
X80544252Y-62738013D01*
X80276463Y-62559082D01*
X79978912Y-62435832D01*
X79663033Y-62373000D01*
X79340967Y-62373000D01*
X79025088Y-62435832D01*
X78727537Y-62559082D01*
X78459748Y-62738013D01*
X78384000Y-62813761D01*
X78384000Y-57784661D01*
X80372000Y-57784661D01*
X80372000Y-57988539D01*
X80411774Y-58188498D01*
X80489795Y-58376856D01*
X80603063Y-58546374D01*
X80747226Y-58690537D01*
X80916744Y-58803805D01*
X81105102Y-58881826D01*
X81305061Y-58921600D01*
X81508939Y-58921600D01*
X81708898Y-58881826D01*
X81897256Y-58803805D01*
X82066774Y-58690537D01*
X82134111Y-58623200D01*
X83491717Y-58623200D01*
X83527900Y-58626764D01*
X83564083Y-58623200D01*
X83564086Y-58623200D01*
X83672299Y-58612542D01*
X83811149Y-58570422D01*
X83939113Y-58502024D01*
X84051275Y-58409975D01*
X84074346Y-58381863D01*
X87458809Y-54997401D01*
X89443149Y-54997401D01*
X89506795Y-55151056D01*
X89620063Y-55320574D01*
X89764226Y-55464737D01*
X89933744Y-55578005D01*
X90122102Y-55656026D01*
X90322061Y-55695800D01*
X90525939Y-55695800D01*
X90725898Y-55656026D01*
X90914256Y-55578005D01*
X91083774Y-55464737D01*
X91227937Y-55320574D01*
X91341205Y-55151056D01*
X91419226Y-54962698D01*
X91459000Y-54762739D01*
X91459000Y-54685026D01*
X91529545Y-54553048D01*
X91573002Y-54409787D01*
X91583999Y-54298134D01*
X91583999Y-54298124D01*
X91587675Y-54260802D01*
X91583999Y-54223479D01*
X91583999Y-53445302D01*
X92516802Y-52512500D01*
X97117678Y-52512500D01*
X97155000Y-52516176D01*
X97192322Y-52512500D01*
X97192333Y-52512500D01*
X97303986Y-52501503D01*
X97447247Y-52458046D01*
X97579276Y-52387474D01*
X97695001Y-52292501D01*
X97718804Y-52263497D01*
X100941302Y-49041000D01*
X101003439Y-49041000D01*
X101203398Y-49001226D01*
X101391756Y-48923205D01*
X101561274Y-48809937D01*
X101705437Y-48665774D01*
X101818705Y-48496256D01*
X101896726Y-48307898D01*
X101936500Y-48107939D01*
X101936500Y-47904061D01*
X101896726Y-47704102D01*
X101818705Y-47515744D01*
X101705437Y-47346226D01*
X101561274Y-47202063D01*
X101391756Y-47088795D01*
X101203398Y-47010774D01*
X101003439Y-46971000D01*
X100799561Y-46971000D01*
X100599602Y-47010774D01*
X100411244Y-47088795D01*
X100241726Y-47202063D01*
X100097563Y-47346226D01*
X99984295Y-47515744D01*
X99906274Y-47704102D01*
X99866500Y-47904061D01*
X99866500Y-47966198D01*
X96840199Y-50992500D01*
X92239325Y-50992500D01*
X92202000Y-50988824D01*
X92164675Y-50992500D01*
X92164667Y-50992500D01*
X92053014Y-51003497D01*
X91909753Y-51046954D01*
X91777724Y-51117526D01*
X91661999Y-51212499D01*
X91638201Y-51241497D01*
X90312997Y-52566702D01*
X90283999Y-52590500D01*
X90260201Y-52619498D01*
X90260200Y-52619499D01*
X90189025Y-52706225D01*
X90118453Y-52838255D01*
X90074997Y-52981516D01*
X90060323Y-53130501D01*
X90064000Y-53167833D01*
X90064000Y-53524577D01*
X90060187Y-53524201D01*
X90060184Y-53524201D01*
X90024001Y-53520637D01*
X89987818Y-53524201D01*
X87190451Y-53524201D01*
X87153750Y-53520586D01*
X87035246Y-53532259D01*
X87009350Y-53534809D01*
X86870501Y-53576928D01*
X86742536Y-53645327D01*
X86658482Y-53714308D01*
X86658472Y-53714318D01*
X86630376Y-53737376D01*
X86607318Y-53765472D01*
X83222791Y-57150000D01*
X82134111Y-57150000D01*
X82066774Y-57082663D01*
X81897256Y-56969395D01*
X81708898Y-56891374D01*
X81508939Y-56851600D01*
X81305061Y-56851600D01*
X81105102Y-56891374D01*
X80916744Y-56969395D01*
X80747226Y-57082663D01*
X80603063Y-57226826D01*
X80489795Y-57396344D01*
X80411774Y-57584702D01*
X80372000Y-57784661D01*
X78384000Y-57784661D01*
X78384000Y-52705000D01*
X78898815Y-52705000D01*
X78927487Y-52996111D01*
X79012401Y-53276034D01*
X79150294Y-53534014D01*
X79335866Y-53760134D01*
X79561986Y-53945706D01*
X79819966Y-54083599D01*
X80099889Y-54168513D01*
X80318050Y-54190000D01*
X80463950Y-54190000D01*
X80682111Y-54168513D01*
X80962034Y-54083599D01*
X81220014Y-53945706D01*
X81446134Y-53760134D01*
X81470607Y-53730313D01*
X81491498Y-53799180D01*
X81550463Y-53909494D01*
X81629815Y-54006185D01*
X81726506Y-54085537D01*
X81836820Y-54144502D01*
X81956518Y-54180812D01*
X82081000Y-54193072D01*
X83781000Y-54193072D01*
X83905482Y-54180812D01*
X84025180Y-54144502D01*
X84135494Y-54085537D01*
X84232185Y-54006185D01*
X84311537Y-53909494D01*
X84370502Y-53799180D01*
X84406812Y-53679482D01*
X84419072Y-53555000D01*
X84419072Y-51855000D01*
X84406812Y-51730518D01*
X84370502Y-51610820D01*
X84311537Y-51500506D01*
X84232185Y-51403815D01*
X84135494Y-51324463D01*
X84025180Y-51265498D01*
X83905482Y-51229188D01*
X83781000Y-51216928D01*
X82081000Y-51216928D01*
X81956518Y-51229188D01*
X81836820Y-51265498D01*
X81726506Y-51324463D01*
X81629815Y-51403815D01*
X81550463Y-51500506D01*
X81491498Y-51610820D01*
X81470607Y-51679687D01*
X81446134Y-51649866D01*
X81220014Y-51464294D01*
X80962034Y-51326401D01*
X80682111Y-51241487D01*
X80463950Y-51220000D01*
X80318050Y-51220000D01*
X80099889Y-51241487D01*
X79819966Y-51326401D01*
X79561986Y-51464294D01*
X79335866Y-51649866D01*
X79150294Y-51875986D01*
X79012401Y-52133966D01*
X78927487Y-52413889D01*
X78898815Y-52705000D01*
X78384000Y-52705000D01*
X78384000Y-44475000D01*
X79680620Y-44475000D01*
X79434986Y-44606294D01*
X79434986Y-44606294D01*
G37*
X79434986Y-44606294D02*
X79208866Y-44791866D01*
X79023294Y-45017986D01*
X78885401Y-45275966D01*
X78800487Y-45555889D01*
X78771815Y-45847000D01*
X78800487Y-46138111D01*
X78885401Y-46418034D01*
X79023294Y-46676014D01*
X79208866Y-46902134D01*
X79238687Y-46926607D01*
X79169820Y-46947498D01*
X79059506Y-47006463D01*
X78962815Y-47085815D01*
X78883463Y-47182506D01*
X78824498Y-47292820D01*
X78788188Y-47412518D01*
X78775928Y-47537000D01*
X78775928Y-49237000D01*
X78788188Y-49361482D01*
X78824498Y-49481180D01*
X78883463Y-49591494D01*
X78962815Y-49688185D01*
X79059506Y-49767537D01*
X79169820Y-49826502D01*
X79289518Y-49862812D01*
X79414000Y-49875072D01*
X81114000Y-49875072D01*
X81238482Y-49862812D01*
X81358180Y-49826502D01*
X81468494Y-49767537D01*
X81565185Y-49688185D01*
X81644537Y-49591494D01*
X81703502Y-49481180D01*
X81739812Y-49361482D01*
X81752072Y-49237000D01*
X81752072Y-47537000D01*
X81739812Y-47412518D01*
X81703502Y-47292820D01*
X81644537Y-47182506D01*
X81565185Y-47085815D01*
X81468494Y-47006463D01*
X81358180Y-46947498D01*
X81289313Y-46926607D01*
X81319134Y-46902134D01*
X81504706Y-46676014D01*
X81642599Y-46418034D01*
X81727513Y-46138111D01*
X81756185Y-45847000D01*
X81727513Y-45555889D01*
X81642599Y-45275966D01*
X81504706Y-45017986D01*
X81319134Y-44791866D01*
X81093014Y-44606294D01*
X80847380Y-44475000D01*
X103480000Y-44475000D01*
X103480001Y-63801725D01*
X103426168Y-63531088D01*
X103302918Y-63233537D01*
X103123987Y-62965748D01*
X102896252Y-62738013D01*
X102628463Y-62559082D01*
X102330912Y-62435832D01*
X102015033Y-62373000D01*
X101692967Y-62373000D01*
X101377088Y-62435832D01*
X101079537Y-62559082D01*
X100811748Y-62738013D01*
X100584013Y-62965748D01*
X100405082Y-63233537D01*
X100281832Y-63531088D01*
X100219000Y-63846967D01*
X100219000Y-64169033D01*
X100281832Y-64484912D01*
X100405082Y-64782463D01*
X100584013Y-65050252D01*
X100659761Y-65126000D01*
X80696239Y-65126000D01*
X80771987Y-65050252D01*
X80950918Y-64782463D01*
X81074168Y-64484912D01*
X81137000Y-64169033D01*
X81137000Y-63846967D01*
X81074168Y-63531088D01*
X81034989Y-63436500D01*
X82645315Y-63436500D01*
X82673987Y-63727611D01*
X82758901Y-64007534D01*
X82896794Y-64265514D01*
X83082366Y-64491634D01*
X83308486Y-64677206D01*
X83566466Y-64815099D01*
X83846389Y-64900013D01*
X84064550Y-64921500D01*
X84210450Y-64921500D01*
X84428611Y-64900013D01*
X84708534Y-64815099D01*
X84966514Y-64677206D01*
X85192634Y-64491634D01*
X85378206Y-64265514D01*
X85516099Y-64007534D01*
X85601013Y-63727611D01*
X85629685Y-63436500D01*
X85623431Y-63373000D01*
X95218315Y-63373000D01*
X95246987Y-63664111D01*
X95331901Y-63944034D01*
X95469794Y-64202014D01*
X95655366Y-64428134D01*
X95881486Y-64613706D01*
X96139466Y-64751599D01*
X96419389Y-64836513D01*
X96637550Y-64858000D01*
X96783450Y-64858000D01*
X97001611Y-64836513D01*
X97281534Y-64751599D01*
X97539514Y-64613706D01*
X97765634Y-64428134D01*
X97951206Y-64202014D01*
X98089099Y-63944034D01*
X98174013Y-63664111D01*
X98202685Y-63373000D01*
X98174013Y-63081889D01*
X98089099Y-62801966D01*
X97951206Y-62543986D01*
X97765634Y-62317866D01*
X97735813Y-62293393D01*
X97804680Y-62272502D01*
X97914994Y-62213537D01*
X98011685Y-62134185D01*
X98091037Y-62037494D01*
X98150002Y-61927180D01*
X98186312Y-61807482D01*
X98198572Y-61683000D01*
X98198572Y-59983000D01*
X98186312Y-59858518D01*
X98150002Y-59738820D01*
X98091037Y-59628506D01*
X98011685Y-59531815D01*
X97914994Y-59452463D01*
X97804680Y-59393498D01*
X97684982Y-59357188D01*
X97560500Y-59344928D01*
X95860500Y-59344928D01*
X95736018Y-59357188D01*
X95616320Y-59393498D01*
X95506006Y-59452463D01*
X95409315Y-59531815D01*
X95329963Y-59628506D01*
X95270998Y-59738820D01*
X95234688Y-59858518D01*
X95222428Y-59983000D01*
X95222428Y-61683000D01*
X95234688Y-61807482D01*
X95270998Y-61927180D01*
X95329963Y-62037494D01*
X95409315Y-62134185D01*
X95506006Y-62213537D01*
X95616320Y-62272502D01*
X95685187Y-62293393D01*
X95655366Y-62317866D01*
X95469794Y-62543986D01*
X95331901Y-62801966D01*
X95246987Y-63081889D01*
X95218315Y-63373000D01*
X85623431Y-63373000D01*
X85601013Y-63145389D01*
X85516099Y-62865466D01*
X85378206Y-62607486D01*
X85192634Y-62381366D01*
X85162813Y-62356893D01*
X85231680Y-62336002D01*
X85341994Y-62277037D01*
X85438685Y-62197685D01*
X85518037Y-62100994D01*
X85577002Y-61990680D01*
X85613312Y-61870982D01*
X85625572Y-61746500D01*
X85625572Y-60046500D01*
X85613312Y-59922018D01*
X85577002Y-59802320D01*
X85518037Y-59692006D01*
X85438685Y-59595315D01*
X85341994Y-59515963D01*
X85231680Y-59456998D01*
X85111982Y-59420688D01*
X84987500Y-59408428D01*
X83287500Y-59408428D01*
X83163018Y-59420688D01*
X83043320Y-59456998D01*
X82933006Y-59515963D01*
X82836315Y-59595315D01*
X82756963Y-59692006D01*
X82697998Y-59802320D01*
X82661688Y-59922018D01*
X82649428Y-60046500D01*
X82649428Y-61746500D01*
X82661688Y-61870982D01*
X82697998Y-61990680D01*
X82756963Y-62100994D01*
X82836315Y-62197685D01*
X82933006Y-62277037D01*
X83043320Y-62336002D01*
X83112187Y-62356893D01*
X83082366Y-62381366D01*
X82896794Y-62607486D01*
X82758901Y-62865466D01*
X82673987Y-63145389D01*
X82645315Y-63436500D01*
X81034989Y-63436500D01*
X80950918Y-63233537D01*
X80771987Y-62965748D01*
X80544252Y-62738013D01*
X80276463Y-62559082D01*
X79978912Y-62435832D01*
X79663033Y-62373000D01*
X79340967Y-62373000D01*
X79025088Y-62435832D01*
X78727537Y-62559082D01*
X78459748Y-62738013D01*
X78384000Y-62813761D01*
X78384000Y-57784661D01*
X80372000Y-57784661D01*
X80372000Y-57988539D01*
X80411774Y-58188498D01*
X80489795Y-58376856D01*
X80603063Y-58546374D01*
X80747226Y-58690537D01*
X80916744Y-58803805D01*
X81105102Y-58881826D01*
X81305061Y-58921600D01*
X81508939Y-58921600D01*
X81708898Y-58881826D01*
X81897256Y-58803805D01*
X82066774Y-58690537D01*
X82134111Y-58623200D01*
X83491717Y-58623200D01*
X83527900Y-58626764D01*
X83564083Y-58623200D01*
X83564086Y-58623200D01*
X83672299Y-58612542D01*
X83811149Y-58570422D01*
X83939113Y-58502024D01*
X84051275Y-58409975D01*
X84074346Y-58381863D01*
X87458809Y-54997401D01*
X89443149Y-54997401D01*
X89506795Y-55151056D01*
X89620063Y-55320574D01*
X89764226Y-55464737D01*
X89933744Y-55578005D01*
X90122102Y-55656026D01*
X90322061Y-55695800D01*
X90525939Y-55695800D01*
X90725898Y-55656026D01*
X90914256Y-55578005D01*
X91083774Y-55464737D01*
X91227937Y-55320574D01*
X91341205Y-55151056D01*
X91419226Y-54962698D01*
X91459000Y-54762739D01*
X91459000Y-54685026D01*
X91529545Y-54553048D01*
X91573002Y-54409787D01*
X91583999Y-54298134D01*
X91583999Y-54298124D01*
X91587675Y-54260802D01*
X91583999Y-54223479D01*
X91583999Y-53445302D01*
X92516802Y-52512500D01*
X97117678Y-52512500D01*
X97155000Y-52516176D01*
X97192322Y-52512500D01*
X97192333Y-52512500D01*
X97303986Y-52501503D01*
X97447247Y-52458046D01*
X97579276Y-52387474D01*
X97695001Y-52292501D01*
X97718804Y-52263497D01*
X100941302Y-49041000D01*
X101003439Y-49041000D01*
X101203398Y-49001226D01*
X101391756Y-48923205D01*
X101561274Y-48809937D01*
X101705437Y-48665774D01*
X101818705Y-48496256D01*
X101896726Y-48307898D01*
X101936500Y-48107939D01*
X101936500Y-47904061D01*
X101896726Y-47704102D01*
X101818705Y-47515744D01*
X101705437Y-47346226D01*
X101561274Y-47202063D01*
X101391756Y-47088795D01*
X101203398Y-47010774D01*
X101003439Y-46971000D01*
X100799561Y-46971000D01*
X100599602Y-47010774D01*
X100411244Y-47088795D01*
X100241726Y-47202063D01*
X100097563Y-47346226D01*
X99984295Y-47515744D01*
X99906274Y-47704102D01*
X99866500Y-47904061D01*
X99866500Y-47966198D01*
X96840199Y-50992500D01*
X92239325Y-50992500D01*
X92202000Y-50988824D01*
X92164675Y-50992500D01*
X92164667Y-50992500D01*
X92053014Y-51003497D01*
X91909753Y-51046954D01*
X91777724Y-51117526D01*
X91661999Y-51212499D01*
X91638201Y-51241497D01*
X90312997Y-52566702D01*
X90283999Y-52590500D01*
X90260201Y-52619498D01*
X90260200Y-52619499D01*
X90189025Y-52706225D01*
X90118453Y-52838255D01*
X90074997Y-52981516D01*
X90060323Y-53130501D01*
X90064000Y-53167833D01*
X90064000Y-53524577D01*
X90060187Y-53524201D01*
X90060184Y-53524201D01*
X90024001Y-53520637D01*
X89987818Y-53524201D01*
X87190451Y-53524201D01*
X87153750Y-53520586D01*
X87035246Y-53532259D01*
X87009350Y-53534809D01*
X86870501Y-53576928D01*
X86742536Y-53645327D01*
X86658482Y-53714308D01*
X86658472Y-53714318D01*
X86630376Y-53737376D01*
X86607318Y-53765472D01*
X83222791Y-57150000D01*
X82134111Y-57150000D01*
X82066774Y-57082663D01*
X81897256Y-56969395D01*
X81708898Y-56891374D01*
X81508939Y-56851600D01*
X81305061Y-56851600D01*
X81105102Y-56891374D01*
X80916744Y-56969395D01*
X80747226Y-57082663D01*
X80603063Y-57226826D01*
X80489795Y-57396344D01*
X80411774Y-57584702D01*
X80372000Y-57784661D01*
X78384000Y-57784661D01*
X78384000Y-52705000D01*
X78898815Y-52705000D01*
X78927487Y-52996111D01*
X79012401Y-53276034D01*
X79150294Y-53534014D01*
X79335866Y-53760134D01*
X79561986Y-53945706D01*
X79819966Y-54083599D01*
X80099889Y-54168513D01*
X80318050Y-54190000D01*
X80463950Y-54190000D01*
X80682111Y-54168513D01*
X80962034Y-54083599D01*
X81220014Y-53945706D01*
X81446134Y-53760134D01*
X81470607Y-53730313D01*
X81491498Y-53799180D01*
X81550463Y-53909494D01*
X81629815Y-54006185D01*
X81726506Y-54085537D01*
X81836820Y-54144502D01*
X81956518Y-54180812D01*
X82081000Y-54193072D01*
X83781000Y-54193072D01*
X83905482Y-54180812D01*
X84025180Y-54144502D01*
X84135494Y-54085537D01*
X84232185Y-54006185D01*
X84311537Y-53909494D01*
X84370502Y-53799180D01*
X84406812Y-53679482D01*
X84419072Y-53555000D01*
X84419072Y-51855000D01*
X84406812Y-51730518D01*
X84370502Y-51610820D01*
X84311537Y-51500506D01*
X84232185Y-51403815D01*
X84135494Y-51324463D01*
X84025180Y-51265498D01*
X83905482Y-51229188D01*
X83781000Y-51216928D01*
X82081000Y-51216928D01*
X81956518Y-51229188D01*
X81836820Y-51265498D01*
X81726506Y-51324463D01*
X81629815Y-51403815D01*
X81550463Y-51500506D01*
X81491498Y-51610820D01*
X81470607Y-51679687D01*
X81446134Y-51649866D01*
X81220014Y-51464294D01*
X80962034Y-51326401D01*
X80682111Y-51241487D01*
X80463950Y-51220000D01*
X80318050Y-51220000D01*
X80099889Y-51241487D01*
X79819966Y-51326401D01*
X79561986Y-51464294D01*
X79335866Y-51649866D01*
X79150294Y-51875986D01*
X79012401Y-52133966D01*
X78927487Y-52413889D01*
X78898815Y-52705000D01*
X78384000Y-52705000D01*
X78384000Y-44475000D01*
X79680620Y-44475000D01*
X79434986Y-44606294D01*
M02*
