G04 #@! TF.GenerationSoftware,KiCad,Pcbnew,(5.1.4-0-10_14)*
G04 #@! TF.CreationDate,2019-11-02T18:26:44-07:00*
G04 #@! TF.ProjectId,SoftButtonBoardMux555,536f6674-4275-4747-946f-6e426f617264,rev?*
G04 #@! TF.SameCoordinates,Original*
G04 #@! TF.FileFunction,Soldermask,Top*
G04 #@! TF.FilePolarity,Negative*
%FSLAX46Y46*%
G04 Gerber Fmt 4.6, Leading zero omitted, Abs format (unit mm)*
G04 Created by KiCad (PCBNEW (5.1.4-0-10_14)) date 2019-11-02 18:26:44*
%MOMM*%
%LPD*%
G04 APERTURE LIST*
%ADD10C,0.100000*%
G04 APERTURE END LIST*
D10*
G36*
X102160564Y-62997389D02*
G01*
X102351833Y-63076615D01*
X102351835Y-63076616D01*
X102523973Y-63191635D01*
X102670365Y-63338027D01*
X102736163Y-63436500D01*
X102785385Y-63510167D01*
X102864611Y-63701436D01*
X102905000Y-63904484D01*
X102905000Y-64111516D01*
X102864611Y-64314564D01*
X102785385Y-64505833D01*
X102785384Y-64505835D01*
X102670365Y-64677973D01*
X102523973Y-64824365D01*
X102351835Y-64939384D01*
X102351834Y-64939385D01*
X102351833Y-64939385D01*
X102160564Y-65018611D01*
X101957516Y-65059000D01*
X101750484Y-65059000D01*
X101547436Y-65018611D01*
X101356167Y-64939385D01*
X101356166Y-64939385D01*
X101356165Y-64939384D01*
X101184027Y-64824365D01*
X101037635Y-64677973D01*
X100922616Y-64505835D01*
X100922615Y-64505833D01*
X100843389Y-64314564D01*
X100803000Y-64111516D01*
X100803000Y-63904484D01*
X100843389Y-63701436D01*
X100922615Y-63510167D01*
X100971838Y-63436500D01*
X101037635Y-63338027D01*
X101184027Y-63191635D01*
X101356165Y-63076616D01*
X101356167Y-63076615D01*
X101547436Y-62997389D01*
X101750484Y-62957000D01*
X101957516Y-62957000D01*
X102160564Y-62997389D01*
X102160564Y-62997389D01*
G37*
G36*
X79808564Y-62997389D02*
G01*
X79999833Y-63076615D01*
X79999835Y-63076616D01*
X80171973Y-63191635D01*
X80318365Y-63338027D01*
X80384163Y-63436500D01*
X80433385Y-63510167D01*
X80512611Y-63701436D01*
X80553000Y-63904484D01*
X80553000Y-64111516D01*
X80512611Y-64314564D01*
X80433385Y-64505833D01*
X80433384Y-64505835D01*
X80318365Y-64677973D01*
X80171973Y-64824365D01*
X79999835Y-64939384D01*
X79999834Y-64939385D01*
X79999833Y-64939385D01*
X79808564Y-65018611D01*
X79605516Y-65059000D01*
X79398484Y-65059000D01*
X79195436Y-65018611D01*
X79004167Y-64939385D01*
X79004166Y-64939385D01*
X79004165Y-64939384D01*
X78832027Y-64824365D01*
X78685635Y-64677973D01*
X78570616Y-64505835D01*
X78570615Y-64505833D01*
X78491389Y-64314564D01*
X78451000Y-64111516D01*
X78451000Y-63904484D01*
X78491389Y-63701436D01*
X78570615Y-63510167D01*
X78619838Y-63436500D01*
X78685635Y-63338027D01*
X78832027Y-63191635D01*
X79004165Y-63076616D01*
X79004167Y-63076615D01*
X79195436Y-62997389D01*
X79398484Y-62957000D01*
X79605516Y-62957000D01*
X79808564Y-62997389D01*
X79808564Y-62997389D01*
G37*
G36*
X88785968Y-63825065D02*
G01*
X88824638Y-63836796D01*
X88860277Y-63855846D01*
X88891517Y-63881483D01*
X88917154Y-63912723D01*
X88936204Y-63948362D01*
X88947935Y-63987032D01*
X88952500Y-64033388D01*
X88952500Y-64684612D01*
X88947935Y-64730968D01*
X88936204Y-64769638D01*
X88917154Y-64805277D01*
X88891517Y-64836517D01*
X88860277Y-64862154D01*
X88824638Y-64881204D01*
X88785968Y-64892935D01*
X88739612Y-64897500D01*
X87663388Y-64897500D01*
X87617032Y-64892935D01*
X87578362Y-64881204D01*
X87542723Y-64862154D01*
X87511483Y-64836517D01*
X87485846Y-64805277D01*
X87466796Y-64769638D01*
X87455065Y-64730968D01*
X87450500Y-64684612D01*
X87450500Y-64033388D01*
X87455065Y-63987032D01*
X87466796Y-63948362D01*
X87485846Y-63912723D01*
X87511483Y-63881483D01*
X87542723Y-63855846D01*
X87578362Y-63836796D01*
X87617032Y-63825065D01*
X87663388Y-63820500D01*
X88739612Y-63820500D01*
X88785968Y-63825065D01*
X88785968Y-63825065D01*
G37*
G36*
X93167468Y-63791565D02*
G01*
X93206138Y-63803296D01*
X93241777Y-63822346D01*
X93273017Y-63847983D01*
X93298654Y-63879223D01*
X93317704Y-63914862D01*
X93329435Y-63953532D01*
X93334000Y-63999888D01*
X93334000Y-64651112D01*
X93329435Y-64697468D01*
X93317704Y-64736138D01*
X93298654Y-64771777D01*
X93273017Y-64803017D01*
X93241777Y-64828654D01*
X93206138Y-64847704D01*
X93167468Y-64859435D01*
X93121112Y-64864000D01*
X92044888Y-64864000D01*
X91998532Y-64859435D01*
X91959862Y-64847704D01*
X91924223Y-64828654D01*
X91892983Y-64803017D01*
X91867346Y-64771777D01*
X91848296Y-64736138D01*
X91836565Y-64697468D01*
X91832000Y-64651112D01*
X91832000Y-63999888D01*
X91836565Y-63953532D01*
X91848296Y-63914862D01*
X91867346Y-63879223D01*
X91892983Y-63847983D01*
X91924223Y-63822346D01*
X91959862Y-63803296D01*
X91998532Y-63791565D01*
X92044888Y-63787000D01*
X93121112Y-63787000D01*
X93167468Y-63791565D01*
X93167468Y-63791565D01*
G37*
G36*
X84247943Y-62542019D02*
G01*
X84314127Y-62548537D01*
X84483966Y-62600057D01*
X84640491Y-62683722D01*
X84676229Y-62713052D01*
X84777686Y-62796314D01*
X84858377Y-62894638D01*
X84890278Y-62933509D01*
X84973943Y-63090034D01*
X85025463Y-63259873D01*
X85042859Y-63436500D01*
X85025463Y-63613127D01*
X84973943Y-63782966D01*
X84890278Y-63939491D01*
X84860948Y-63975229D01*
X84777686Y-64076686D01*
X84676229Y-64159948D01*
X84640491Y-64189278D01*
X84483966Y-64272943D01*
X84314127Y-64324463D01*
X84247942Y-64330982D01*
X84181760Y-64337500D01*
X84093240Y-64337500D01*
X84027058Y-64330982D01*
X83960873Y-64324463D01*
X83791034Y-64272943D01*
X83634509Y-64189278D01*
X83598771Y-64159948D01*
X83497314Y-64076686D01*
X83414052Y-63975229D01*
X83384722Y-63939491D01*
X83301057Y-63782966D01*
X83249537Y-63613127D01*
X83232141Y-63436500D01*
X83249537Y-63259873D01*
X83301057Y-63090034D01*
X83384722Y-62933509D01*
X83416623Y-62894638D01*
X83497314Y-62796314D01*
X83598771Y-62713052D01*
X83634509Y-62683722D01*
X83791034Y-62600057D01*
X83960873Y-62548537D01*
X84027057Y-62542019D01*
X84093240Y-62535500D01*
X84181760Y-62535500D01*
X84247943Y-62542019D01*
X84247943Y-62542019D01*
G37*
G36*
X96820943Y-62478519D02*
G01*
X96887127Y-62485037D01*
X97056966Y-62536557D01*
X97213491Y-62620222D01*
X97249229Y-62649552D01*
X97350686Y-62732814D01*
X97433948Y-62834271D01*
X97463278Y-62870009D01*
X97546943Y-63026534D01*
X97598463Y-63196373D01*
X97615859Y-63373000D01*
X97598463Y-63549627D01*
X97546943Y-63719466D01*
X97463278Y-63875991D01*
X97438106Y-63906663D01*
X97350686Y-64013186D01*
X97257391Y-64089750D01*
X97213491Y-64125778D01*
X97056966Y-64209443D01*
X96887127Y-64260963D01*
X96820943Y-64267481D01*
X96754760Y-64274000D01*
X96666240Y-64274000D01*
X96600057Y-64267481D01*
X96533873Y-64260963D01*
X96364034Y-64209443D01*
X96207509Y-64125778D01*
X96163609Y-64089750D01*
X96070314Y-64013186D01*
X95982894Y-63906663D01*
X95957722Y-63875991D01*
X95874057Y-63719466D01*
X95822537Y-63549627D01*
X95805141Y-63373000D01*
X95822537Y-63196373D01*
X95874057Y-63026534D01*
X95957722Y-62870009D01*
X95987052Y-62834271D01*
X96070314Y-62732814D01*
X96171771Y-62649552D01*
X96207509Y-62620222D01*
X96364034Y-62536557D01*
X96533873Y-62485037D01*
X96600057Y-62478519D01*
X96666240Y-62472000D01*
X96754760Y-62472000D01*
X96820943Y-62478519D01*
X96820943Y-62478519D01*
G37*
G36*
X88785968Y-61950065D02*
G01*
X88824638Y-61961796D01*
X88860277Y-61980846D01*
X88891517Y-62006483D01*
X88917154Y-62037723D01*
X88936204Y-62073362D01*
X88947935Y-62112032D01*
X88952500Y-62158388D01*
X88952500Y-62809612D01*
X88947935Y-62855968D01*
X88936204Y-62894638D01*
X88917154Y-62930277D01*
X88891517Y-62961517D01*
X88860277Y-62987154D01*
X88824638Y-63006204D01*
X88785968Y-63017935D01*
X88739612Y-63022500D01*
X87663388Y-63022500D01*
X87617032Y-63017935D01*
X87578362Y-63006204D01*
X87542723Y-62987154D01*
X87511483Y-62961517D01*
X87485846Y-62930277D01*
X87466796Y-62894638D01*
X87455065Y-62855968D01*
X87450500Y-62809612D01*
X87450500Y-62158388D01*
X87455065Y-62112032D01*
X87466796Y-62073362D01*
X87485846Y-62037723D01*
X87511483Y-62006483D01*
X87542723Y-61980846D01*
X87578362Y-61961796D01*
X87617032Y-61950065D01*
X87663388Y-61945500D01*
X88739612Y-61945500D01*
X88785968Y-61950065D01*
X88785968Y-61950065D01*
G37*
G36*
X93167468Y-61916565D02*
G01*
X93206138Y-61928296D01*
X93241777Y-61947346D01*
X93273017Y-61972983D01*
X93298654Y-62004223D01*
X93317704Y-62039862D01*
X93329435Y-62078532D01*
X93334000Y-62124888D01*
X93334000Y-62776112D01*
X93329435Y-62822468D01*
X93317704Y-62861138D01*
X93298654Y-62896777D01*
X93273017Y-62928017D01*
X93241777Y-62953654D01*
X93206138Y-62972704D01*
X93167468Y-62984435D01*
X93121112Y-62989000D01*
X92044888Y-62989000D01*
X91998532Y-62984435D01*
X91959862Y-62972704D01*
X91924223Y-62953654D01*
X91892983Y-62928017D01*
X91867346Y-62896777D01*
X91848296Y-62861138D01*
X91836565Y-62822468D01*
X91832000Y-62776112D01*
X91832000Y-62124888D01*
X91836565Y-62078532D01*
X91848296Y-62039862D01*
X91867346Y-62004223D01*
X91892983Y-61972983D01*
X91924223Y-61947346D01*
X91959862Y-61928296D01*
X91998532Y-61916565D01*
X92044888Y-61912000D01*
X93121112Y-61912000D01*
X93167468Y-61916565D01*
X93167468Y-61916565D01*
G37*
G36*
X85038500Y-61797500D02*
G01*
X83236500Y-61797500D01*
X83236500Y-59995500D01*
X85038500Y-59995500D01*
X85038500Y-61797500D01*
X85038500Y-61797500D01*
G37*
G36*
X97611500Y-61734000D02*
G01*
X95809500Y-61734000D01*
X95809500Y-59932000D01*
X97611500Y-59932000D01*
X97611500Y-61734000D01*
X97611500Y-61734000D01*
G37*
G36*
X102051997Y-58619051D02*
G01*
X102085652Y-58629261D01*
X102116665Y-58645838D01*
X102143851Y-58668149D01*
X102166162Y-58695335D01*
X102182739Y-58726348D01*
X102192949Y-58760003D01*
X102197000Y-58801138D01*
X102197000Y-61130862D01*
X102192949Y-61171997D01*
X102182739Y-61205652D01*
X102166162Y-61236665D01*
X102143851Y-61263851D01*
X102116665Y-61286162D01*
X102085652Y-61302739D01*
X102051997Y-61312949D01*
X102010862Y-61317000D01*
X100681138Y-61317000D01*
X100640003Y-61312949D01*
X100606348Y-61302739D01*
X100575335Y-61286162D01*
X100548149Y-61263851D01*
X100525838Y-61236665D01*
X100509261Y-61205652D01*
X100499051Y-61171997D01*
X100495000Y-61130862D01*
X100495000Y-58801138D01*
X100499051Y-58760003D01*
X100509261Y-58726348D01*
X100525838Y-58695335D01*
X100548149Y-58668149D01*
X100575335Y-58645838D01*
X100606348Y-58629261D01*
X100640003Y-58619051D01*
X100681138Y-58615000D01*
X102010862Y-58615000D01*
X102051997Y-58619051D01*
X102051997Y-58619051D01*
G37*
G36*
X89008204Y-59808747D02*
G01*
X89044744Y-59819832D01*
X89078421Y-59837833D01*
X89107941Y-59862059D01*
X89132167Y-59891579D01*
X89150168Y-59925256D01*
X89161253Y-59961796D01*
X89165600Y-60005938D01*
X89165600Y-60954862D01*
X89161253Y-60999004D01*
X89150168Y-61035544D01*
X89132167Y-61069221D01*
X89107941Y-61098741D01*
X89078421Y-61122967D01*
X89044744Y-61140968D01*
X89008204Y-61152053D01*
X88964062Y-61156400D01*
X87515138Y-61156400D01*
X87470996Y-61152053D01*
X87434456Y-61140968D01*
X87400779Y-61122967D01*
X87371259Y-61098741D01*
X87347033Y-61069221D01*
X87329032Y-61035544D01*
X87317947Y-60999004D01*
X87313600Y-60954862D01*
X87313600Y-60005938D01*
X87317947Y-59961796D01*
X87329032Y-59925256D01*
X87347033Y-59891579D01*
X87371259Y-59862059D01*
X87400779Y-59837833D01*
X87434456Y-59819832D01*
X87470996Y-59808747D01*
X87515138Y-59804400D01*
X88964062Y-59804400D01*
X89008204Y-59808747D01*
X89008204Y-59808747D01*
G37*
G36*
X93351604Y-59783347D02*
G01*
X93388144Y-59794432D01*
X93421821Y-59812433D01*
X93451341Y-59836659D01*
X93475567Y-59866179D01*
X93493568Y-59899856D01*
X93504653Y-59936396D01*
X93509000Y-59980538D01*
X93509000Y-60929462D01*
X93504653Y-60973604D01*
X93493568Y-61010144D01*
X93475567Y-61043821D01*
X93451341Y-61073341D01*
X93421821Y-61097567D01*
X93388144Y-61115568D01*
X93351604Y-61126653D01*
X93307462Y-61131000D01*
X91858538Y-61131000D01*
X91814396Y-61126653D01*
X91777856Y-61115568D01*
X91744179Y-61097567D01*
X91714659Y-61073341D01*
X91690433Y-61043821D01*
X91672432Y-61010144D01*
X91661347Y-60973604D01*
X91657000Y-60929462D01*
X91657000Y-59980538D01*
X91661347Y-59936396D01*
X91672432Y-59899856D01*
X91690433Y-59866179D01*
X91714659Y-59836659D01*
X91744179Y-59812433D01*
X91777856Y-59794432D01*
X91814396Y-59783347D01*
X91858538Y-59779000D01*
X93307462Y-59779000D01*
X93351604Y-59783347D01*
X93351604Y-59783347D01*
G37*
G36*
X84620300Y-58585300D02*
G01*
X83019700Y-58585300D01*
X83019700Y-56171900D01*
X84620300Y-56171900D01*
X84620300Y-58585300D01*
X84620300Y-58585300D01*
G37*
G36*
X80251500Y-58585300D02*
G01*
X78650900Y-58585300D01*
X78650900Y-56171900D01*
X80251500Y-56171900D01*
X80251500Y-58585300D01*
X80251500Y-58585300D01*
G37*
G36*
X89008204Y-57008747D02*
G01*
X89044744Y-57019832D01*
X89078421Y-57037833D01*
X89107941Y-57062059D01*
X89132167Y-57091579D01*
X89150168Y-57125256D01*
X89161253Y-57161796D01*
X89165600Y-57205938D01*
X89165600Y-58154862D01*
X89161253Y-58199004D01*
X89150168Y-58235544D01*
X89132167Y-58269221D01*
X89107941Y-58298741D01*
X89078421Y-58322967D01*
X89044744Y-58340968D01*
X89008204Y-58352053D01*
X88964062Y-58356400D01*
X87515138Y-58356400D01*
X87470996Y-58352053D01*
X87434456Y-58340968D01*
X87400779Y-58322967D01*
X87371259Y-58298741D01*
X87347033Y-58269221D01*
X87329032Y-58235544D01*
X87317947Y-58199004D01*
X87313600Y-58154862D01*
X87313600Y-57205938D01*
X87317947Y-57161796D01*
X87329032Y-57125256D01*
X87347033Y-57091579D01*
X87371259Y-57062059D01*
X87400779Y-57037833D01*
X87434456Y-57019832D01*
X87470996Y-57008747D01*
X87515138Y-57004400D01*
X88964062Y-57004400D01*
X89008204Y-57008747D01*
X89008204Y-57008747D01*
G37*
G36*
X93351604Y-56983347D02*
G01*
X93388144Y-56994432D01*
X93421821Y-57012433D01*
X93451341Y-57036659D01*
X93475567Y-57066179D01*
X93493568Y-57099856D01*
X93504653Y-57136396D01*
X93509000Y-57180538D01*
X93509000Y-58129462D01*
X93504653Y-58173604D01*
X93493568Y-58210144D01*
X93475567Y-58243821D01*
X93451341Y-58273341D01*
X93421821Y-58297567D01*
X93388144Y-58315568D01*
X93351604Y-58326653D01*
X93307462Y-58331000D01*
X91858538Y-58331000D01*
X91814396Y-58326653D01*
X91777856Y-58315568D01*
X91744179Y-58297567D01*
X91714659Y-58273341D01*
X91690433Y-58243821D01*
X91672432Y-58210144D01*
X91661347Y-58173604D01*
X91657000Y-58129462D01*
X91657000Y-57180538D01*
X91661347Y-57136396D01*
X91672432Y-57099856D01*
X91690433Y-57066179D01*
X91714659Y-57036659D01*
X91744179Y-57012433D01*
X91777856Y-56994432D01*
X91814396Y-56983347D01*
X91858538Y-56979000D01*
X93307462Y-56979000D01*
X93351604Y-56983347D01*
X93351604Y-56983347D01*
G37*
G36*
X102051997Y-55019051D02*
G01*
X102085652Y-55029261D01*
X102116665Y-55045838D01*
X102143851Y-55068149D01*
X102166162Y-55095335D01*
X102182739Y-55126348D01*
X102192949Y-55160003D01*
X102197000Y-55201138D01*
X102197000Y-57530862D01*
X102192949Y-57571997D01*
X102182739Y-57605652D01*
X102166162Y-57636665D01*
X102143851Y-57663851D01*
X102116665Y-57686162D01*
X102085652Y-57702739D01*
X102051997Y-57712949D01*
X102010862Y-57717000D01*
X100681138Y-57717000D01*
X100640003Y-57712949D01*
X100606348Y-57702739D01*
X100575335Y-57686162D01*
X100548149Y-57663851D01*
X100525838Y-57636665D01*
X100509261Y-57605652D01*
X100499051Y-57571997D01*
X100495000Y-57530862D01*
X100495000Y-55201138D01*
X100499051Y-55160003D01*
X100509261Y-55126348D01*
X100525838Y-55095335D01*
X100548149Y-55068149D01*
X100575335Y-55045838D01*
X100606348Y-55029261D01*
X100640003Y-55019051D01*
X100681138Y-55015000D01*
X102010862Y-55015000D01*
X102051997Y-55019051D01*
X102051997Y-55019051D01*
G37*
G36*
X96144968Y-55641565D02*
G01*
X96183638Y-55653296D01*
X96219277Y-55672346D01*
X96250517Y-55697983D01*
X96276154Y-55729223D01*
X96295204Y-55764862D01*
X96306935Y-55803532D01*
X96311500Y-55849888D01*
X96311500Y-56926112D01*
X96306935Y-56972468D01*
X96295204Y-57011138D01*
X96276154Y-57046777D01*
X96250517Y-57078017D01*
X96219277Y-57103654D01*
X96183638Y-57122704D01*
X96144968Y-57134435D01*
X96098612Y-57139000D01*
X95447388Y-57139000D01*
X95401032Y-57134435D01*
X95362362Y-57122704D01*
X95326723Y-57103654D01*
X95295483Y-57078017D01*
X95269846Y-57046777D01*
X95250796Y-57011138D01*
X95239065Y-56972468D01*
X95234500Y-56926112D01*
X95234500Y-55849888D01*
X95239065Y-55803532D01*
X95250796Y-55764862D01*
X95269846Y-55729223D01*
X95295483Y-55697983D01*
X95326723Y-55672346D01*
X95362362Y-55653296D01*
X95401032Y-55641565D01*
X95447388Y-55637000D01*
X96098612Y-55637000D01*
X96144968Y-55641565D01*
X96144968Y-55641565D01*
G37*
G36*
X98019968Y-55641565D02*
G01*
X98058638Y-55653296D01*
X98094277Y-55672346D01*
X98125517Y-55697983D01*
X98151154Y-55729223D01*
X98170204Y-55764862D01*
X98181935Y-55803532D01*
X98186500Y-55849888D01*
X98186500Y-56926112D01*
X98181935Y-56972468D01*
X98170204Y-57011138D01*
X98151154Y-57046777D01*
X98125517Y-57078017D01*
X98094277Y-57103654D01*
X98058638Y-57122704D01*
X98019968Y-57134435D01*
X97973612Y-57139000D01*
X97322388Y-57139000D01*
X97276032Y-57134435D01*
X97237362Y-57122704D01*
X97201723Y-57103654D01*
X97170483Y-57078017D01*
X97144846Y-57046777D01*
X97125796Y-57011138D01*
X97114065Y-56972468D01*
X97109500Y-56926112D01*
X97109500Y-55849888D01*
X97114065Y-55803532D01*
X97125796Y-55764862D01*
X97144846Y-55729223D01*
X97170483Y-55697983D01*
X97201723Y-55672346D01*
X97237362Y-55653296D01*
X97276032Y-55641565D01*
X97322388Y-55637000D01*
X97973612Y-55637000D01*
X98019968Y-55641565D01*
X98019968Y-55641565D01*
G37*
G36*
X93408700Y-55664300D02*
G01*
X91808100Y-55664300D01*
X91808100Y-53250900D01*
X93408700Y-53250900D01*
X93408700Y-55664300D01*
X93408700Y-55664300D01*
G37*
G36*
X89039900Y-55664300D02*
G01*
X87439300Y-55664300D01*
X87439300Y-53250900D01*
X89039900Y-53250900D01*
X89039900Y-55664300D01*
X89039900Y-55664300D01*
G37*
G36*
X98019968Y-52530065D02*
G01*
X98058638Y-52541796D01*
X98094277Y-52560846D01*
X98125517Y-52586483D01*
X98151154Y-52617723D01*
X98170204Y-52653362D01*
X98181935Y-52692032D01*
X98186500Y-52738388D01*
X98186500Y-53814612D01*
X98181935Y-53860968D01*
X98170204Y-53899638D01*
X98151154Y-53935277D01*
X98125517Y-53966517D01*
X98094277Y-53992154D01*
X98058638Y-54011204D01*
X98019968Y-54022935D01*
X97973612Y-54027500D01*
X97322388Y-54027500D01*
X97276032Y-54022935D01*
X97237362Y-54011204D01*
X97201723Y-53992154D01*
X97170483Y-53966517D01*
X97144846Y-53935277D01*
X97125796Y-53899638D01*
X97114065Y-53860968D01*
X97109500Y-53814612D01*
X97109500Y-52738388D01*
X97114065Y-52692032D01*
X97125796Y-52653362D01*
X97144846Y-52617723D01*
X97170483Y-52586483D01*
X97201723Y-52560846D01*
X97237362Y-52541796D01*
X97276032Y-52530065D01*
X97322388Y-52525500D01*
X97973612Y-52525500D01*
X98019968Y-52530065D01*
X98019968Y-52530065D01*
G37*
G36*
X96144968Y-52530065D02*
G01*
X96183638Y-52541796D01*
X96219277Y-52560846D01*
X96250517Y-52586483D01*
X96276154Y-52617723D01*
X96295204Y-52653362D01*
X96306935Y-52692032D01*
X96311500Y-52738388D01*
X96311500Y-53814612D01*
X96306935Y-53860968D01*
X96295204Y-53899638D01*
X96276154Y-53935277D01*
X96250517Y-53966517D01*
X96219277Y-53992154D01*
X96183638Y-54011204D01*
X96144968Y-54022935D01*
X96098612Y-54027500D01*
X95447388Y-54027500D01*
X95401032Y-54022935D01*
X95362362Y-54011204D01*
X95326723Y-53992154D01*
X95295483Y-53966517D01*
X95269846Y-53935277D01*
X95250796Y-53899638D01*
X95239065Y-53860968D01*
X95234500Y-53814612D01*
X95234500Y-52738388D01*
X95239065Y-52692032D01*
X95250796Y-52653362D01*
X95269846Y-52617723D01*
X95295483Y-52586483D01*
X95326723Y-52560846D01*
X95362362Y-52541796D01*
X95401032Y-52530065D01*
X95447388Y-52525500D01*
X96098612Y-52525500D01*
X96144968Y-52530065D01*
X96144968Y-52530065D01*
G37*
G36*
X102670468Y-52466565D02*
G01*
X102709138Y-52478296D01*
X102744777Y-52497346D01*
X102776017Y-52522983D01*
X102801654Y-52554223D01*
X102820704Y-52589862D01*
X102832435Y-52628532D01*
X102837000Y-52674888D01*
X102837000Y-53751112D01*
X102832435Y-53797468D01*
X102820704Y-53836138D01*
X102801654Y-53871777D01*
X102776017Y-53903017D01*
X102744777Y-53928654D01*
X102709138Y-53947704D01*
X102670468Y-53959435D01*
X102624112Y-53964000D01*
X101972888Y-53964000D01*
X101926532Y-53959435D01*
X101887862Y-53947704D01*
X101852223Y-53928654D01*
X101820983Y-53903017D01*
X101795346Y-53871777D01*
X101776296Y-53836138D01*
X101764565Y-53797468D01*
X101760000Y-53751112D01*
X101760000Y-52674888D01*
X101764565Y-52628532D01*
X101776296Y-52589862D01*
X101795346Y-52554223D01*
X101820983Y-52522983D01*
X101852223Y-52497346D01*
X101887862Y-52478296D01*
X101926532Y-52466565D01*
X101972888Y-52462000D01*
X102624112Y-52462000D01*
X102670468Y-52466565D01*
X102670468Y-52466565D01*
G37*
G36*
X100795468Y-52466565D02*
G01*
X100834138Y-52478296D01*
X100869777Y-52497346D01*
X100901017Y-52522983D01*
X100926654Y-52554223D01*
X100945704Y-52589862D01*
X100957435Y-52628532D01*
X100962000Y-52674888D01*
X100962000Y-53751112D01*
X100957435Y-53797468D01*
X100945704Y-53836138D01*
X100926654Y-53871777D01*
X100901017Y-53903017D01*
X100869777Y-53928654D01*
X100834138Y-53947704D01*
X100795468Y-53959435D01*
X100749112Y-53964000D01*
X100097888Y-53964000D01*
X100051532Y-53959435D01*
X100012862Y-53947704D01*
X99977223Y-53928654D01*
X99945983Y-53903017D01*
X99920346Y-53871777D01*
X99901296Y-53836138D01*
X99889565Y-53797468D01*
X99885000Y-53751112D01*
X99885000Y-52674888D01*
X99889565Y-52628532D01*
X99901296Y-52589862D01*
X99920346Y-52554223D01*
X99945983Y-52522983D01*
X99977223Y-52497346D01*
X100012862Y-52478296D01*
X100051532Y-52466565D01*
X100097888Y-52462000D01*
X100749112Y-52462000D01*
X100795468Y-52466565D01*
X100795468Y-52466565D01*
G37*
G36*
X83832000Y-53606000D02*
G01*
X82030000Y-53606000D01*
X82030000Y-51804000D01*
X83832000Y-51804000D01*
X83832000Y-53606000D01*
X83832000Y-53606000D01*
G37*
G36*
X80501442Y-51810518D02*
G01*
X80567627Y-51817037D01*
X80737466Y-51868557D01*
X80893991Y-51952222D01*
X80929729Y-51981552D01*
X81031186Y-52064814D01*
X81114448Y-52166271D01*
X81143778Y-52202009D01*
X81227443Y-52358534D01*
X81278963Y-52528373D01*
X81296359Y-52705000D01*
X81278963Y-52881627D01*
X81227443Y-53051466D01*
X81143778Y-53207991D01*
X81114448Y-53243729D01*
X81031186Y-53345186D01*
X80929729Y-53428448D01*
X80893991Y-53457778D01*
X80737466Y-53541443D01*
X80567627Y-53592963D01*
X80501442Y-53599482D01*
X80435260Y-53606000D01*
X80346740Y-53606000D01*
X80280558Y-53599482D01*
X80214373Y-53592963D01*
X80044534Y-53541443D01*
X79888009Y-53457778D01*
X79852271Y-53428448D01*
X79750814Y-53345186D01*
X79667552Y-53243729D01*
X79638222Y-53207991D01*
X79554557Y-53051466D01*
X79503037Y-52881627D01*
X79485641Y-52705000D01*
X79503037Y-52528373D01*
X79554557Y-52358534D01*
X79638222Y-52202009D01*
X79667552Y-52166271D01*
X79750814Y-52064814D01*
X79852271Y-51981552D01*
X79888009Y-51952222D01*
X80044534Y-51868557D01*
X80214373Y-51817037D01*
X80280558Y-51810518D01*
X80346740Y-51804000D01*
X80435260Y-51804000D01*
X80501442Y-51810518D01*
X80501442Y-51810518D01*
G37*
G36*
X102494928Y-49394264D02*
G01*
X102516009Y-49400660D01*
X102535445Y-49411048D01*
X102552476Y-49425024D01*
X102566452Y-49442055D01*
X102576840Y-49461491D01*
X102583236Y-49482572D01*
X102586000Y-49510640D01*
X102586000Y-51324360D01*
X102583236Y-51352428D01*
X102576840Y-51373509D01*
X102566452Y-51392945D01*
X102552476Y-51409976D01*
X102535445Y-51423952D01*
X102516009Y-51434340D01*
X102494928Y-51440736D01*
X102466860Y-51443500D01*
X102003140Y-51443500D01*
X101975072Y-51440736D01*
X101953991Y-51434340D01*
X101934555Y-51423952D01*
X101917524Y-51409976D01*
X101903548Y-51392945D01*
X101893160Y-51373509D01*
X101886764Y-51352428D01*
X101884000Y-51324360D01*
X101884000Y-49510640D01*
X101886764Y-49482572D01*
X101893160Y-49461491D01*
X101903548Y-49442055D01*
X101917524Y-49425024D01*
X101934555Y-49411048D01*
X101953991Y-49400660D01*
X101975072Y-49394264D01*
X102003140Y-49391500D01*
X102466860Y-49391500D01*
X102494928Y-49394264D01*
X102494928Y-49394264D01*
G37*
G36*
X101224928Y-49394264D02*
G01*
X101246009Y-49400660D01*
X101265445Y-49411048D01*
X101282476Y-49425024D01*
X101296452Y-49442055D01*
X101306840Y-49461491D01*
X101313236Y-49482572D01*
X101316000Y-49510640D01*
X101316000Y-51324360D01*
X101313236Y-51352428D01*
X101306840Y-51373509D01*
X101296452Y-51392945D01*
X101282476Y-51409976D01*
X101265445Y-51423952D01*
X101246009Y-51434340D01*
X101224928Y-51440736D01*
X101196860Y-51443500D01*
X100733140Y-51443500D01*
X100705072Y-51440736D01*
X100683991Y-51434340D01*
X100664555Y-51423952D01*
X100647524Y-51409976D01*
X100633548Y-51392945D01*
X100623160Y-51373509D01*
X100616764Y-51352428D01*
X100614000Y-51324360D01*
X100614000Y-49510640D01*
X100616764Y-49482572D01*
X100623160Y-49461491D01*
X100633548Y-49442055D01*
X100647524Y-49425024D01*
X100664555Y-49411048D01*
X100683991Y-49400660D01*
X100705072Y-49394264D01*
X100733140Y-49391500D01*
X101196860Y-49391500D01*
X101224928Y-49394264D01*
X101224928Y-49394264D01*
G37*
G36*
X99954928Y-49394264D02*
G01*
X99976009Y-49400660D01*
X99995445Y-49411048D01*
X100012476Y-49425024D01*
X100026452Y-49442055D01*
X100036840Y-49461491D01*
X100043236Y-49482572D01*
X100046000Y-49510640D01*
X100046000Y-51324360D01*
X100043236Y-51352428D01*
X100036840Y-51373509D01*
X100026452Y-51392945D01*
X100012476Y-51409976D01*
X99995445Y-51423952D01*
X99976009Y-51434340D01*
X99954928Y-51440736D01*
X99926860Y-51443500D01*
X99463140Y-51443500D01*
X99435072Y-51440736D01*
X99413991Y-51434340D01*
X99394555Y-51423952D01*
X99377524Y-51409976D01*
X99363548Y-51392945D01*
X99353160Y-51373509D01*
X99346764Y-51352428D01*
X99344000Y-51324360D01*
X99344000Y-49510640D01*
X99346764Y-49482572D01*
X99353160Y-49461491D01*
X99363548Y-49442055D01*
X99377524Y-49425024D01*
X99394555Y-49411048D01*
X99413991Y-49400660D01*
X99435072Y-49394264D01*
X99463140Y-49391500D01*
X99926860Y-49391500D01*
X99954928Y-49394264D01*
X99954928Y-49394264D01*
G37*
G36*
X98684928Y-49394264D02*
G01*
X98706009Y-49400660D01*
X98725445Y-49411048D01*
X98742476Y-49425024D01*
X98756452Y-49442055D01*
X98766840Y-49461491D01*
X98773236Y-49482572D01*
X98776000Y-49510640D01*
X98776000Y-51324360D01*
X98773236Y-51352428D01*
X98766840Y-51373509D01*
X98756452Y-51392945D01*
X98742476Y-51409976D01*
X98725445Y-51423952D01*
X98706009Y-51434340D01*
X98684928Y-51440736D01*
X98656860Y-51443500D01*
X98193140Y-51443500D01*
X98165072Y-51440736D01*
X98143991Y-51434340D01*
X98124555Y-51423952D01*
X98107524Y-51409976D01*
X98093548Y-51392945D01*
X98083160Y-51373509D01*
X98076764Y-51352428D01*
X98074000Y-51324360D01*
X98074000Y-49510640D01*
X98076764Y-49482572D01*
X98083160Y-49461491D01*
X98093548Y-49442055D01*
X98107524Y-49425024D01*
X98124555Y-49411048D01*
X98143991Y-49400660D01*
X98165072Y-49394264D01*
X98193140Y-49391500D01*
X98656860Y-49391500D01*
X98684928Y-49394264D01*
X98684928Y-49394264D01*
G37*
G36*
X95397698Y-50965198D02*
G01*
X93197302Y-50965198D01*
X93197302Y-48602802D01*
X95397698Y-48602802D01*
X95397698Y-50965198D01*
X95397698Y-50965198D01*
G37*
G36*
X85795997Y-47697051D02*
G01*
X85829652Y-47707261D01*
X85860665Y-47723838D01*
X85887851Y-47746149D01*
X85910162Y-47773335D01*
X85926739Y-47804348D01*
X85936949Y-47838003D01*
X85941000Y-47879138D01*
X85941000Y-50208862D01*
X85936949Y-50249997D01*
X85926739Y-50283652D01*
X85910162Y-50314665D01*
X85887851Y-50341851D01*
X85860665Y-50364162D01*
X85829652Y-50380739D01*
X85795997Y-50390949D01*
X85754862Y-50395000D01*
X84425138Y-50395000D01*
X84384003Y-50390949D01*
X84350348Y-50380739D01*
X84319335Y-50364162D01*
X84292149Y-50341851D01*
X84269838Y-50314665D01*
X84253261Y-50283652D01*
X84243051Y-50249997D01*
X84239000Y-50208862D01*
X84239000Y-47879138D01*
X84243051Y-47838003D01*
X84253261Y-47804348D01*
X84269838Y-47773335D01*
X84292149Y-47746149D01*
X84319335Y-47723838D01*
X84350348Y-47707261D01*
X84384003Y-47697051D01*
X84425138Y-47693000D01*
X85754862Y-47693000D01*
X85795997Y-47697051D01*
X85795997Y-47697051D01*
G37*
G36*
X81165000Y-49288000D02*
G01*
X79363000Y-49288000D01*
X79363000Y-47486000D01*
X81165000Y-47486000D01*
X81165000Y-49288000D01*
X81165000Y-49288000D01*
G37*
G36*
X89143000Y-47808000D02*
G01*
X87981000Y-47808000D01*
X87981000Y-45156000D01*
X89143000Y-45156000D01*
X89143000Y-47808000D01*
X89143000Y-47808000D01*
G37*
G36*
X91343000Y-47808000D02*
G01*
X90181000Y-47808000D01*
X90181000Y-47056000D01*
X91343000Y-47056000D01*
X91343000Y-47808000D01*
X91343000Y-47808000D01*
G37*
G36*
X95397698Y-46920806D02*
G01*
X93197302Y-46920806D01*
X93197302Y-44558410D01*
X95397698Y-44558410D01*
X95397698Y-46920806D01*
X95397698Y-46920806D01*
G37*
G36*
X85795997Y-44097051D02*
G01*
X85829652Y-44107261D01*
X85860665Y-44123838D01*
X85887851Y-44146149D01*
X85910162Y-44173335D01*
X85926739Y-44204348D01*
X85936949Y-44238003D01*
X85941000Y-44279138D01*
X85941000Y-46608862D01*
X85936949Y-46649997D01*
X85926739Y-46683652D01*
X85910162Y-46714665D01*
X85887851Y-46741851D01*
X85860665Y-46764162D01*
X85829652Y-46780739D01*
X85795997Y-46790949D01*
X85754862Y-46795000D01*
X84425138Y-46795000D01*
X84384003Y-46790949D01*
X84350348Y-46780739D01*
X84319335Y-46764162D01*
X84292149Y-46741851D01*
X84269838Y-46714665D01*
X84253261Y-46683652D01*
X84243051Y-46649997D01*
X84239000Y-46608862D01*
X84239000Y-44279138D01*
X84243051Y-44238003D01*
X84253261Y-44204348D01*
X84269838Y-44173335D01*
X84292149Y-44146149D01*
X84319335Y-44123838D01*
X84350348Y-44107261D01*
X84384003Y-44097051D01*
X84425138Y-44093000D01*
X85754862Y-44093000D01*
X85795997Y-44097051D01*
X85795997Y-44097051D01*
G37*
G36*
X80374442Y-44952518D02*
G01*
X80440627Y-44959037D01*
X80610466Y-45010557D01*
X80766991Y-45094222D01*
X80802729Y-45123552D01*
X80904186Y-45206814D01*
X80987448Y-45308271D01*
X81016778Y-45344009D01*
X81100443Y-45500534D01*
X81151963Y-45670373D01*
X81169359Y-45847000D01*
X81151963Y-46023627D01*
X81100443Y-46193466D01*
X81016778Y-46349991D01*
X80996779Y-46374360D01*
X80904186Y-46487186D01*
X80802729Y-46570448D01*
X80766991Y-46599778D01*
X80610466Y-46683443D01*
X80440627Y-46734963D01*
X80374443Y-46741481D01*
X80308260Y-46748000D01*
X80219740Y-46748000D01*
X80153557Y-46741481D01*
X80087373Y-46734963D01*
X79917534Y-46683443D01*
X79761009Y-46599778D01*
X79725271Y-46570448D01*
X79623814Y-46487186D01*
X79531221Y-46374360D01*
X79511222Y-46349991D01*
X79427557Y-46193466D01*
X79376037Y-46023627D01*
X79358641Y-45847000D01*
X79376037Y-45670373D01*
X79427557Y-45500534D01*
X79511222Y-45344009D01*
X79540552Y-45308271D01*
X79623814Y-45206814D01*
X79725271Y-45123552D01*
X79761009Y-45094222D01*
X79917534Y-45010557D01*
X80087373Y-44959037D01*
X80153558Y-44952518D01*
X80219740Y-44946000D01*
X80308260Y-44946000D01*
X80374442Y-44952518D01*
X80374442Y-44952518D01*
G37*
G36*
X102494928Y-44444264D02*
G01*
X102516009Y-44450660D01*
X102535445Y-44461048D01*
X102552476Y-44475024D01*
X102566452Y-44492055D01*
X102576840Y-44511491D01*
X102583236Y-44532572D01*
X102586000Y-44560640D01*
X102586000Y-46374360D01*
X102583236Y-46402428D01*
X102576840Y-46423509D01*
X102566452Y-46442945D01*
X102552476Y-46459976D01*
X102535445Y-46473952D01*
X102516009Y-46484340D01*
X102494928Y-46490736D01*
X102466860Y-46493500D01*
X102003140Y-46493500D01*
X101975072Y-46490736D01*
X101953991Y-46484340D01*
X101934555Y-46473952D01*
X101917524Y-46459976D01*
X101903548Y-46442945D01*
X101893160Y-46423509D01*
X101886764Y-46402428D01*
X101884000Y-46374360D01*
X101884000Y-44560640D01*
X101886764Y-44532572D01*
X101893160Y-44511491D01*
X101903548Y-44492055D01*
X101917524Y-44475024D01*
X101934555Y-44461048D01*
X101953991Y-44450660D01*
X101975072Y-44444264D01*
X102003140Y-44441500D01*
X102466860Y-44441500D01*
X102494928Y-44444264D01*
X102494928Y-44444264D01*
G37*
G36*
X101224928Y-44444264D02*
G01*
X101246009Y-44450660D01*
X101265445Y-44461048D01*
X101282476Y-44475024D01*
X101296452Y-44492055D01*
X101306840Y-44511491D01*
X101313236Y-44532572D01*
X101316000Y-44560640D01*
X101316000Y-46374360D01*
X101313236Y-46402428D01*
X101306840Y-46423509D01*
X101296452Y-46442945D01*
X101282476Y-46459976D01*
X101265445Y-46473952D01*
X101246009Y-46484340D01*
X101224928Y-46490736D01*
X101196860Y-46493500D01*
X100733140Y-46493500D01*
X100705072Y-46490736D01*
X100683991Y-46484340D01*
X100664555Y-46473952D01*
X100647524Y-46459976D01*
X100633548Y-46442945D01*
X100623160Y-46423509D01*
X100616764Y-46402428D01*
X100614000Y-46374360D01*
X100614000Y-44560640D01*
X100616764Y-44532572D01*
X100623160Y-44511491D01*
X100633548Y-44492055D01*
X100647524Y-44475024D01*
X100664555Y-44461048D01*
X100683991Y-44450660D01*
X100705072Y-44444264D01*
X100733140Y-44441500D01*
X101196860Y-44441500D01*
X101224928Y-44444264D01*
X101224928Y-44444264D01*
G37*
G36*
X99954928Y-44444264D02*
G01*
X99976009Y-44450660D01*
X99995445Y-44461048D01*
X100012476Y-44475024D01*
X100026452Y-44492055D01*
X100036840Y-44511491D01*
X100043236Y-44532572D01*
X100046000Y-44560640D01*
X100046000Y-46374360D01*
X100043236Y-46402428D01*
X100036840Y-46423509D01*
X100026452Y-46442945D01*
X100012476Y-46459976D01*
X99995445Y-46473952D01*
X99976009Y-46484340D01*
X99954928Y-46490736D01*
X99926860Y-46493500D01*
X99463140Y-46493500D01*
X99435072Y-46490736D01*
X99413991Y-46484340D01*
X99394555Y-46473952D01*
X99377524Y-46459976D01*
X99363548Y-46442945D01*
X99353160Y-46423509D01*
X99346764Y-46402428D01*
X99344000Y-46374360D01*
X99344000Y-44560640D01*
X99346764Y-44532572D01*
X99353160Y-44511491D01*
X99363548Y-44492055D01*
X99377524Y-44475024D01*
X99394555Y-44461048D01*
X99413991Y-44450660D01*
X99435072Y-44444264D01*
X99463140Y-44441500D01*
X99926860Y-44441500D01*
X99954928Y-44444264D01*
X99954928Y-44444264D01*
G37*
G36*
X98684928Y-44444264D02*
G01*
X98706009Y-44450660D01*
X98725445Y-44461048D01*
X98742476Y-44475024D01*
X98756452Y-44492055D01*
X98766840Y-44511491D01*
X98773236Y-44532572D01*
X98776000Y-44560640D01*
X98776000Y-46374360D01*
X98773236Y-46402428D01*
X98766840Y-46423509D01*
X98756452Y-46442945D01*
X98742476Y-46459976D01*
X98725445Y-46473952D01*
X98706009Y-46484340D01*
X98684928Y-46490736D01*
X98656860Y-46493500D01*
X98193140Y-46493500D01*
X98165072Y-46490736D01*
X98143991Y-46484340D01*
X98124555Y-46473952D01*
X98107524Y-46459976D01*
X98093548Y-46442945D01*
X98083160Y-46423509D01*
X98076764Y-46402428D01*
X98074000Y-46374360D01*
X98074000Y-44560640D01*
X98076764Y-44532572D01*
X98083160Y-44511491D01*
X98093548Y-44492055D01*
X98107524Y-44475024D01*
X98124555Y-44461048D01*
X98143991Y-44450660D01*
X98165072Y-44444264D01*
X98193140Y-44441500D01*
X98656860Y-44441500D01*
X98684928Y-44444264D01*
X98684928Y-44444264D01*
G37*
G36*
X91343000Y-45908000D02*
G01*
X90181000Y-45908000D01*
X90181000Y-45156000D01*
X91343000Y-45156000D01*
X91343000Y-45908000D01*
X91343000Y-45908000D01*
G37*
M02*
