G04 #@! TF.GenerationSoftware,KiCad,Pcbnew,(5.1.4-0-10_14)*
G04 #@! TF.CreationDate,2019-11-02T18:26:44-07:00*
G04 #@! TF.ProjectId,SoftButtonBoardMux555,536f6674-4275-4747-946f-6e426f617264,rev?*
G04 #@! TF.SameCoordinates,Original*
G04 #@! TF.FileFunction,Paste,Top*
G04 #@! TF.FilePolarity,Positive*
%FSLAX46Y46*%
G04 Gerber Fmt 4.6, Leading zero omitted, Abs format (unit mm)*
G04 Created by KiCad (PCBNEW (5.1.4-0-10_14)) date 2019-11-02 18:26:44*
%MOMM*%
%LPD*%
G04 APERTURE LIST*
%ADD10R,1.498600X0.330200*%
%ADD11C,0.100000*%
%ADD12C,0.975000*%
%ADD13C,1.600000*%
%ADD14C,0.600000*%
%ADD15R,2.098396X2.260397*%
%ADD16C,1.250000*%
%ADD17R,1.060000X0.650000*%
G04 APERTURE END LIST*
D10*
X92608400Y-53467000D03*
X92608400Y-53949600D03*
X92608400Y-54457600D03*
X92608400Y-54965600D03*
X92608400Y-55448200D03*
X88239600Y-55448200D03*
X88239600Y-54965600D03*
X88239600Y-54457600D03*
X88239600Y-53949600D03*
X88239600Y-53467000D03*
D11*
G36*
X102566142Y-52514174D02*
G01*
X102589803Y-52517684D01*
X102613007Y-52523496D01*
X102635529Y-52531554D01*
X102657153Y-52541782D01*
X102677670Y-52554079D01*
X102696883Y-52568329D01*
X102714607Y-52584393D01*
X102730671Y-52602117D01*
X102744921Y-52621330D01*
X102757218Y-52641847D01*
X102767446Y-52663471D01*
X102775504Y-52685993D01*
X102781316Y-52709197D01*
X102784826Y-52732858D01*
X102786000Y-52756750D01*
X102786000Y-53669250D01*
X102784826Y-53693142D01*
X102781316Y-53716803D01*
X102775504Y-53740007D01*
X102767446Y-53762529D01*
X102757218Y-53784153D01*
X102744921Y-53804670D01*
X102730671Y-53823883D01*
X102714607Y-53841607D01*
X102696883Y-53857671D01*
X102677670Y-53871921D01*
X102657153Y-53884218D01*
X102635529Y-53894446D01*
X102613007Y-53902504D01*
X102589803Y-53908316D01*
X102566142Y-53911826D01*
X102542250Y-53913000D01*
X102054750Y-53913000D01*
X102030858Y-53911826D01*
X102007197Y-53908316D01*
X101983993Y-53902504D01*
X101961471Y-53894446D01*
X101939847Y-53884218D01*
X101919330Y-53871921D01*
X101900117Y-53857671D01*
X101882393Y-53841607D01*
X101866329Y-53823883D01*
X101852079Y-53804670D01*
X101839782Y-53784153D01*
X101829554Y-53762529D01*
X101821496Y-53740007D01*
X101815684Y-53716803D01*
X101812174Y-53693142D01*
X101811000Y-53669250D01*
X101811000Y-52756750D01*
X101812174Y-52732858D01*
X101815684Y-52709197D01*
X101821496Y-52685993D01*
X101829554Y-52663471D01*
X101839782Y-52641847D01*
X101852079Y-52621330D01*
X101866329Y-52602117D01*
X101882393Y-52584393D01*
X101900117Y-52568329D01*
X101919330Y-52554079D01*
X101939847Y-52541782D01*
X101961471Y-52531554D01*
X101983993Y-52523496D01*
X102007197Y-52517684D01*
X102030858Y-52514174D01*
X102054750Y-52513000D01*
X102542250Y-52513000D01*
X102566142Y-52514174D01*
X102566142Y-52514174D01*
G37*
D12*
X102298500Y-53213000D03*
D11*
G36*
X100691142Y-52514174D02*
G01*
X100714803Y-52517684D01*
X100738007Y-52523496D01*
X100760529Y-52531554D01*
X100782153Y-52541782D01*
X100802670Y-52554079D01*
X100821883Y-52568329D01*
X100839607Y-52584393D01*
X100855671Y-52602117D01*
X100869921Y-52621330D01*
X100882218Y-52641847D01*
X100892446Y-52663471D01*
X100900504Y-52685993D01*
X100906316Y-52709197D01*
X100909826Y-52732858D01*
X100911000Y-52756750D01*
X100911000Y-53669250D01*
X100909826Y-53693142D01*
X100906316Y-53716803D01*
X100900504Y-53740007D01*
X100892446Y-53762529D01*
X100882218Y-53784153D01*
X100869921Y-53804670D01*
X100855671Y-53823883D01*
X100839607Y-53841607D01*
X100821883Y-53857671D01*
X100802670Y-53871921D01*
X100782153Y-53884218D01*
X100760529Y-53894446D01*
X100738007Y-53902504D01*
X100714803Y-53908316D01*
X100691142Y-53911826D01*
X100667250Y-53913000D01*
X100179750Y-53913000D01*
X100155858Y-53911826D01*
X100132197Y-53908316D01*
X100108993Y-53902504D01*
X100086471Y-53894446D01*
X100064847Y-53884218D01*
X100044330Y-53871921D01*
X100025117Y-53857671D01*
X100007393Y-53841607D01*
X99991329Y-53823883D01*
X99977079Y-53804670D01*
X99964782Y-53784153D01*
X99954554Y-53762529D01*
X99946496Y-53740007D01*
X99940684Y-53716803D01*
X99937174Y-53693142D01*
X99936000Y-53669250D01*
X99936000Y-52756750D01*
X99937174Y-52732858D01*
X99940684Y-52709197D01*
X99946496Y-52685993D01*
X99954554Y-52663471D01*
X99964782Y-52641847D01*
X99977079Y-52621330D01*
X99991329Y-52602117D01*
X100007393Y-52584393D01*
X100025117Y-52568329D01*
X100044330Y-52554079D01*
X100064847Y-52541782D01*
X100086471Y-52531554D01*
X100108993Y-52523496D01*
X100132197Y-52517684D01*
X100155858Y-52514174D01*
X100179750Y-52513000D01*
X100667250Y-52513000D01*
X100691142Y-52514174D01*
X100691142Y-52514174D01*
G37*
D12*
X100423500Y-53213000D03*
D11*
G36*
X96040642Y-52577674D02*
G01*
X96064303Y-52581184D01*
X96087507Y-52586996D01*
X96110029Y-52595054D01*
X96131653Y-52605282D01*
X96152170Y-52617579D01*
X96171383Y-52631829D01*
X96189107Y-52647893D01*
X96205171Y-52665617D01*
X96219421Y-52684830D01*
X96231718Y-52705347D01*
X96241946Y-52726971D01*
X96250004Y-52749493D01*
X96255816Y-52772697D01*
X96259326Y-52796358D01*
X96260500Y-52820250D01*
X96260500Y-53732750D01*
X96259326Y-53756642D01*
X96255816Y-53780303D01*
X96250004Y-53803507D01*
X96241946Y-53826029D01*
X96231718Y-53847653D01*
X96219421Y-53868170D01*
X96205171Y-53887383D01*
X96189107Y-53905107D01*
X96171383Y-53921171D01*
X96152170Y-53935421D01*
X96131653Y-53947718D01*
X96110029Y-53957946D01*
X96087507Y-53966004D01*
X96064303Y-53971816D01*
X96040642Y-53975326D01*
X96016750Y-53976500D01*
X95529250Y-53976500D01*
X95505358Y-53975326D01*
X95481697Y-53971816D01*
X95458493Y-53966004D01*
X95435971Y-53957946D01*
X95414347Y-53947718D01*
X95393830Y-53935421D01*
X95374617Y-53921171D01*
X95356893Y-53905107D01*
X95340829Y-53887383D01*
X95326579Y-53868170D01*
X95314282Y-53847653D01*
X95304054Y-53826029D01*
X95295996Y-53803507D01*
X95290184Y-53780303D01*
X95286674Y-53756642D01*
X95285500Y-53732750D01*
X95285500Y-52820250D01*
X95286674Y-52796358D01*
X95290184Y-52772697D01*
X95295996Y-52749493D01*
X95304054Y-52726971D01*
X95314282Y-52705347D01*
X95326579Y-52684830D01*
X95340829Y-52665617D01*
X95356893Y-52647893D01*
X95374617Y-52631829D01*
X95393830Y-52617579D01*
X95414347Y-52605282D01*
X95435971Y-52595054D01*
X95458493Y-52586996D01*
X95481697Y-52581184D01*
X95505358Y-52577674D01*
X95529250Y-52576500D01*
X96016750Y-52576500D01*
X96040642Y-52577674D01*
X96040642Y-52577674D01*
G37*
D12*
X95773000Y-53276500D03*
D11*
G36*
X97915642Y-52577674D02*
G01*
X97939303Y-52581184D01*
X97962507Y-52586996D01*
X97985029Y-52595054D01*
X98006653Y-52605282D01*
X98027170Y-52617579D01*
X98046383Y-52631829D01*
X98064107Y-52647893D01*
X98080171Y-52665617D01*
X98094421Y-52684830D01*
X98106718Y-52705347D01*
X98116946Y-52726971D01*
X98125004Y-52749493D01*
X98130816Y-52772697D01*
X98134326Y-52796358D01*
X98135500Y-52820250D01*
X98135500Y-53732750D01*
X98134326Y-53756642D01*
X98130816Y-53780303D01*
X98125004Y-53803507D01*
X98116946Y-53826029D01*
X98106718Y-53847653D01*
X98094421Y-53868170D01*
X98080171Y-53887383D01*
X98064107Y-53905107D01*
X98046383Y-53921171D01*
X98027170Y-53935421D01*
X98006653Y-53947718D01*
X97985029Y-53957946D01*
X97962507Y-53966004D01*
X97939303Y-53971816D01*
X97915642Y-53975326D01*
X97891750Y-53976500D01*
X97404250Y-53976500D01*
X97380358Y-53975326D01*
X97356697Y-53971816D01*
X97333493Y-53966004D01*
X97310971Y-53957946D01*
X97289347Y-53947718D01*
X97268830Y-53935421D01*
X97249617Y-53921171D01*
X97231893Y-53905107D01*
X97215829Y-53887383D01*
X97201579Y-53868170D01*
X97189282Y-53847653D01*
X97179054Y-53826029D01*
X97170996Y-53803507D01*
X97165184Y-53780303D01*
X97161674Y-53756642D01*
X97160500Y-53732750D01*
X97160500Y-52820250D01*
X97161674Y-52796358D01*
X97165184Y-52772697D01*
X97170996Y-52749493D01*
X97179054Y-52726971D01*
X97189282Y-52705347D01*
X97201579Y-52684830D01*
X97215829Y-52665617D01*
X97231893Y-52647893D01*
X97249617Y-52631829D01*
X97268830Y-52617579D01*
X97289347Y-52605282D01*
X97310971Y-52595054D01*
X97333493Y-52586996D01*
X97356697Y-52581184D01*
X97380358Y-52577674D01*
X97404250Y-52576500D01*
X97891750Y-52576500D01*
X97915642Y-52577674D01*
X97915642Y-52577674D01*
G37*
D12*
X97648000Y-53276500D03*
D11*
G36*
X101920504Y-58667204D02*
G01*
X101944773Y-58670804D01*
X101968571Y-58676765D01*
X101991671Y-58685030D01*
X102013849Y-58695520D01*
X102034893Y-58708133D01*
X102054598Y-58722747D01*
X102072777Y-58739223D01*
X102089253Y-58757402D01*
X102103867Y-58777107D01*
X102116480Y-58798151D01*
X102126970Y-58820329D01*
X102135235Y-58843429D01*
X102141196Y-58867227D01*
X102144796Y-58891496D01*
X102146000Y-58916000D01*
X102146000Y-61016000D01*
X102144796Y-61040504D01*
X102141196Y-61064773D01*
X102135235Y-61088571D01*
X102126970Y-61111671D01*
X102116480Y-61133849D01*
X102103867Y-61154893D01*
X102089253Y-61174598D01*
X102072777Y-61192777D01*
X102054598Y-61209253D01*
X102034893Y-61223867D01*
X102013849Y-61236480D01*
X101991671Y-61246970D01*
X101968571Y-61255235D01*
X101944773Y-61261196D01*
X101920504Y-61264796D01*
X101896000Y-61266000D01*
X100796000Y-61266000D01*
X100771496Y-61264796D01*
X100747227Y-61261196D01*
X100723429Y-61255235D01*
X100700329Y-61246970D01*
X100678151Y-61236480D01*
X100657107Y-61223867D01*
X100637402Y-61209253D01*
X100619223Y-61192777D01*
X100602747Y-61174598D01*
X100588133Y-61154893D01*
X100575520Y-61133849D01*
X100565030Y-61111671D01*
X100556765Y-61088571D01*
X100550804Y-61064773D01*
X100547204Y-61040504D01*
X100546000Y-61016000D01*
X100546000Y-58916000D01*
X100547204Y-58891496D01*
X100550804Y-58867227D01*
X100556765Y-58843429D01*
X100565030Y-58820329D01*
X100575520Y-58798151D01*
X100588133Y-58777107D01*
X100602747Y-58757402D01*
X100619223Y-58739223D01*
X100637402Y-58722747D01*
X100657107Y-58708133D01*
X100678151Y-58695520D01*
X100700329Y-58685030D01*
X100723429Y-58676765D01*
X100747227Y-58670804D01*
X100771496Y-58667204D01*
X100796000Y-58666000D01*
X101896000Y-58666000D01*
X101920504Y-58667204D01*
X101920504Y-58667204D01*
G37*
D13*
X101346000Y-59966000D03*
D11*
G36*
X101920504Y-55067204D02*
G01*
X101944773Y-55070804D01*
X101968571Y-55076765D01*
X101991671Y-55085030D01*
X102013849Y-55095520D01*
X102034893Y-55108133D01*
X102054598Y-55122747D01*
X102072777Y-55139223D01*
X102089253Y-55157402D01*
X102103867Y-55177107D01*
X102116480Y-55198151D01*
X102126970Y-55220329D01*
X102135235Y-55243429D01*
X102141196Y-55267227D01*
X102144796Y-55291496D01*
X102146000Y-55316000D01*
X102146000Y-57416000D01*
X102144796Y-57440504D01*
X102141196Y-57464773D01*
X102135235Y-57488571D01*
X102126970Y-57511671D01*
X102116480Y-57533849D01*
X102103867Y-57554893D01*
X102089253Y-57574598D01*
X102072777Y-57592777D01*
X102054598Y-57609253D01*
X102034893Y-57623867D01*
X102013849Y-57636480D01*
X101991671Y-57646970D01*
X101968571Y-57655235D01*
X101944773Y-57661196D01*
X101920504Y-57664796D01*
X101896000Y-57666000D01*
X100796000Y-57666000D01*
X100771496Y-57664796D01*
X100747227Y-57661196D01*
X100723429Y-57655235D01*
X100700329Y-57646970D01*
X100678151Y-57636480D01*
X100657107Y-57623867D01*
X100637402Y-57609253D01*
X100619223Y-57592777D01*
X100602747Y-57574598D01*
X100588133Y-57554893D01*
X100575520Y-57533849D01*
X100565030Y-57511671D01*
X100556765Y-57488571D01*
X100550804Y-57464773D01*
X100547204Y-57440504D01*
X100546000Y-57416000D01*
X100546000Y-55316000D01*
X100547204Y-55291496D01*
X100550804Y-55267227D01*
X100556765Y-55243429D01*
X100565030Y-55220329D01*
X100575520Y-55198151D01*
X100588133Y-55177107D01*
X100602747Y-55157402D01*
X100619223Y-55139223D01*
X100637402Y-55122747D01*
X100657107Y-55108133D01*
X100678151Y-55095520D01*
X100700329Y-55085030D01*
X100723429Y-55076765D01*
X100747227Y-55070804D01*
X100771496Y-55067204D01*
X100796000Y-55066000D01*
X101896000Y-55066000D01*
X101920504Y-55067204D01*
X101920504Y-55067204D01*
G37*
D13*
X101346000Y-56366000D03*
D11*
G36*
X98589703Y-44493222D02*
G01*
X98604264Y-44495382D01*
X98618543Y-44498959D01*
X98632403Y-44503918D01*
X98645710Y-44510212D01*
X98658336Y-44517780D01*
X98670159Y-44526548D01*
X98681066Y-44536434D01*
X98690952Y-44547341D01*
X98699720Y-44559164D01*
X98707288Y-44571790D01*
X98713582Y-44585097D01*
X98718541Y-44598957D01*
X98722118Y-44613236D01*
X98724278Y-44627797D01*
X98725000Y-44642500D01*
X98725000Y-46292500D01*
X98724278Y-46307203D01*
X98722118Y-46321764D01*
X98718541Y-46336043D01*
X98713582Y-46349903D01*
X98707288Y-46363210D01*
X98699720Y-46375836D01*
X98690952Y-46387659D01*
X98681066Y-46398566D01*
X98670159Y-46408452D01*
X98658336Y-46417220D01*
X98645710Y-46424788D01*
X98632403Y-46431082D01*
X98618543Y-46436041D01*
X98604264Y-46439618D01*
X98589703Y-46441778D01*
X98575000Y-46442500D01*
X98275000Y-46442500D01*
X98260297Y-46441778D01*
X98245736Y-46439618D01*
X98231457Y-46436041D01*
X98217597Y-46431082D01*
X98204290Y-46424788D01*
X98191664Y-46417220D01*
X98179841Y-46408452D01*
X98168934Y-46398566D01*
X98159048Y-46387659D01*
X98150280Y-46375836D01*
X98142712Y-46363210D01*
X98136418Y-46349903D01*
X98131459Y-46336043D01*
X98127882Y-46321764D01*
X98125722Y-46307203D01*
X98125000Y-46292500D01*
X98125000Y-44642500D01*
X98125722Y-44627797D01*
X98127882Y-44613236D01*
X98131459Y-44598957D01*
X98136418Y-44585097D01*
X98142712Y-44571790D01*
X98150280Y-44559164D01*
X98159048Y-44547341D01*
X98168934Y-44536434D01*
X98179841Y-44526548D01*
X98191664Y-44517780D01*
X98204290Y-44510212D01*
X98217597Y-44503918D01*
X98231457Y-44498959D01*
X98245736Y-44495382D01*
X98260297Y-44493222D01*
X98275000Y-44492500D01*
X98575000Y-44492500D01*
X98589703Y-44493222D01*
X98589703Y-44493222D01*
G37*
D14*
X98425000Y-45467500D03*
D11*
G36*
X99859703Y-44493222D02*
G01*
X99874264Y-44495382D01*
X99888543Y-44498959D01*
X99902403Y-44503918D01*
X99915710Y-44510212D01*
X99928336Y-44517780D01*
X99940159Y-44526548D01*
X99951066Y-44536434D01*
X99960952Y-44547341D01*
X99969720Y-44559164D01*
X99977288Y-44571790D01*
X99983582Y-44585097D01*
X99988541Y-44598957D01*
X99992118Y-44613236D01*
X99994278Y-44627797D01*
X99995000Y-44642500D01*
X99995000Y-46292500D01*
X99994278Y-46307203D01*
X99992118Y-46321764D01*
X99988541Y-46336043D01*
X99983582Y-46349903D01*
X99977288Y-46363210D01*
X99969720Y-46375836D01*
X99960952Y-46387659D01*
X99951066Y-46398566D01*
X99940159Y-46408452D01*
X99928336Y-46417220D01*
X99915710Y-46424788D01*
X99902403Y-46431082D01*
X99888543Y-46436041D01*
X99874264Y-46439618D01*
X99859703Y-46441778D01*
X99845000Y-46442500D01*
X99545000Y-46442500D01*
X99530297Y-46441778D01*
X99515736Y-46439618D01*
X99501457Y-46436041D01*
X99487597Y-46431082D01*
X99474290Y-46424788D01*
X99461664Y-46417220D01*
X99449841Y-46408452D01*
X99438934Y-46398566D01*
X99429048Y-46387659D01*
X99420280Y-46375836D01*
X99412712Y-46363210D01*
X99406418Y-46349903D01*
X99401459Y-46336043D01*
X99397882Y-46321764D01*
X99395722Y-46307203D01*
X99395000Y-46292500D01*
X99395000Y-44642500D01*
X99395722Y-44627797D01*
X99397882Y-44613236D01*
X99401459Y-44598957D01*
X99406418Y-44585097D01*
X99412712Y-44571790D01*
X99420280Y-44559164D01*
X99429048Y-44547341D01*
X99438934Y-44536434D01*
X99449841Y-44526548D01*
X99461664Y-44517780D01*
X99474290Y-44510212D01*
X99487597Y-44503918D01*
X99501457Y-44498959D01*
X99515736Y-44495382D01*
X99530297Y-44493222D01*
X99545000Y-44492500D01*
X99845000Y-44492500D01*
X99859703Y-44493222D01*
X99859703Y-44493222D01*
G37*
D14*
X99695000Y-45467500D03*
D11*
G36*
X101129703Y-44493222D02*
G01*
X101144264Y-44495382D01*
X101158543Y-44498959D01*
X101172403Y-44503918D01*
X101185710Y-44510212D01*
X101198336Y-44517780D01*
X101210159Y-44526548D01*
X101221066Y-44536434D01*
X101230952Y-44547341D01*
X101239720Y-44559164D01*
X101247288Y-44571790D01*
X101253582Y-44585097D01*
X101258541Y-44598957D01*
X101262118Y-44613236D01*
X101264278Y-44627797D01*
X101265000Y-44642500D01*
X101265000Y-46292500D01*
X101264278Y-46307203D01*
X101262118Y-46321764D01*
X101258541Y-46336043D01*
X101253582Y-46349903D01*
X101247288Y-46363210D01*
X101239720Y-46375836D01*
X101230952Y-46387659D01*
X101221066Y-46398566D01*
X101210159Y-46408452D01*
X101198336Y-46417220D01*
X101185710Y-46424788D01*
X101172403Y-46431082D01*
X101158543Y-46436041D01*
X101144264Y-46439618D01*
X101129703Y-46441778D01*
X101115000Y-46442500D01*
X100815000Y-46442500D01*
X100800297Y-46441778D01*
X100785736Y-46439618D01*
X100771457Y-46436041D01*
X100757597Y-46431082D01*
X100744290Y-46424788D01*
X100731664Y-46417220D01*
X100719841Y-46408452D01*
X100708934Y-46398566D01*
X100699048Y-46387659D01*
X100690280Y-46375836D01*
X100682712Y-46363210D01*
X100676418Y-46349903D01*
X100671459Y-46336043D01*
X100667882Y-46321764D01*
X100665722Y-46307203D01*
X100665000Y-46292500D01*
X100665000Y-44642500D01*
X100665722Y-44627797D01*
X100667882Y-44613236D01*
X100671459Y-44598957D01*
X100676418Y-44585097D01*
X100682712Y-44571790D01*
X100690280Y-44559164D01*
X100699048Y-44547341D01*
X100708934Y-44536434D01*
X100719841Y-44526548D01*
X100731664Y-44517780D01*
X100744290Y-44510212D01*
X100757597Y-44503918D01*
X100771457Y-44498959D01*
X100785736Y-44495382D01*
X100800297Y-44493222D01*
X100815000Y-44492500D01*
X101115000Y-44492500D01*
X101129703Y-44493222D01*
X101129703Y-44493222D01*
G37*
D14*
X100965000Y-45467500D03*
D11*
G36*
X102399703Y-44493222D02*
G01*
X102414264Y-44495382D01*
X102428543Y-44498959D01*
X102442403Y-44503918D01*
X102455710Y-44510212D01*
X102468336Y-44517780D01*
X102480159Y-44526548D01*
X102491066Y-44536434D01*
X102500952Y-44547341D01*
X102509720Y-44559164D01*
X102517288Y-44571790D01*
X102523582Y-44585097D01*
X102528541Y-44598957D01*
X102532118Y-44613236D01*
X102534278Y-44627797D01*
X102535000Y-44642500D01*
X102535000Y-46292500D01*
X102534278Y-46307203D01*
X102532118Y-46321764D01*
X102528541Y-46336043D01*
X102523582Y-46349903D01*
X102517288Y-46363210D01*
X102509720Y-46375836D01*
X102500952Y-46387659D01*
X102491066Y-46398566D01*
X102480159Y-46408452D01*
X102468336Y-46417220D01*
X102455710Y-46424788D01*
X102442403Y-46431082D01*
X102428543Y-46436041D01*
X102414264Y-46439618D01*
X102399703Y-46441778D01*
X102385000Y-46442500D01*
X102085000Y-46442500D01*
X102070297Y-46441778D01*
X102055736Y-46439618D01*
X102041457Y-46436041D01*
X102027597Y-46431082D01*
X102014290Y-46424788D01*
X102001664Y-46417220D01*
X101989841Y-46408452D01*
X101978934Y-46398566D01*
X101969048Y-46387659D01*
X101960280Y-46375836D01*
X101952712Y-46363210D01*
X101946418Y-46349903D01*
X101941459Y-46336043D01*
X101937882Y-46321764D01*
X101935722Y-46307203D01*
X101935000Y-46292500D01*
X101935000Y-44642500D01*
X101935722Y-44627797D01*
X101937882Y-44613236D01*
X101941459Y-44598957D01*
X101946418Y-44585097D01*
X101952712Y-44571790D01*
X101960280Y-44559164D01*
X101969048Y-44547341D01*
X101978934Y-44536434D01*
X101989841Y-44526548D01*
X102001664Y-44517780D01*
X102014290Y-44510212D01*
X102027597Y-44503918D01*
X102041457Y-44498959D01*
X102055736Y-44495382D01*
X102070297Y-44493222D01*
X102085000Y-44492500D01*
X102385000Y-44492500D01*
X102399703Y-44493222D01*
X102399703Y-44493222D01*
G37*
D14*
X102235000Y-45467500D03*
D11*
G36*
X102399703Y-49443222D02*
G01*
X102414264Y-49445382D01*
X102428543Y-49448959D01*
X102442403Y-49453918D01*
X102455710Y-49460212D01*
X102468336Y-49467780D01*
X102480159Y-49476548D01*
X102491066Y-49486434D01*
X102500952Y-49497341D01*
X102509720Y-49509164D01*
X102517288Y-49521790D01*
X102523582Y-49535097D01*
X102528541Y-49548957D01*
X102532118Y-49563236D01*
X102534278Y-49577797D01*
X102535000Y-49592500D01*
X102535000Y-51242500D01*
X102534278Y-51257203D01*
X102532118Y-51271764D01*
X102528541Y-51286043D01*
X102523582Y-51299903D01*
X102517288Y-51313210D01*
X102509720Y-51325836D01*
X102500952Y-51337659D01*
X102491066Y-51348566D01*
X102480159Y-51358452D01*
X102468336Y-51367220D01*
X102455710Y-51374788D01*
X102442403Y-51381082D01*
X102428543Y-51386041D01*
X102414264Y-51389618D01*
X102399703Y-51391778D01*
X102385000Y-51392500D01*
X102085000Y-51392500D01*
X102070297Y-51391778D01*
X102055736Y-51389618D01*
X102041457Y-51386041D01*
X102027597Y-51381082D01*
X102014290Y-51374788D01*
X102001664Y-51367220D01*
X101989841Y-51358452D01*
X101978934Y-51348566D01*
X101969048Y-51337659D01*
X101960280Y-51325836D01*
X101952712Y-51313210D01*
X101946418Y-51299903D01*
X101941459Y-51286043D01*
X101937882Y-51271764D01*
X101935722Y-51257203D01*
X101935000Y-51242500D01*
X101935000Y-49592500D01*
X101935722Y-49577797D01*
X101937882Y-49563236D01*
X101941459Y-49548957D01*
X101946418Y-49535097D01*
X101952712Y-49521790D01*
X101960280Y-49509164D01*
X101969048Y-49497341D01*
X101978934Y-49486434D01*
X101989841Y-49476548D01*
X102001664Y-49467780D01*
X102014290Y-49460212D01*
X102027597Y-49453918D01*
X102041457Y-49448959D01*
X102055736Y-49445382D01*
X102070297Y-49443222D01*
X102085000Y-49442500D01*
X102385000Y-49442500D01*
X102399703Y-49443222D01*
X102399703Y-49443222D01*
G37*
D14*
X102235000Y-50417500D03*
D11*
G36*
X101129703Y-49443222D02*
G01*
X101144264Y-49445382D01*
X101158543Y-49448959D01*
X101172403Y-49453918D01*
X101185710Y-49460212D01*
X101198336Y-49467780D01*
X101210159Y-49476548D01*
X101221066Y-49486434D01*
X101230952Y-49497341D01*
X101239720Y-49509164D01*
X101247288Y-49521790D01*
X101253582Y-49535097D01*
X101258541Y-49548957D01*
X101262118Y-49563236D01*
X101264278Y-49577797D01*
X101265000Y-49592500D01*
X101265000Y-51242500D01*
X101264278Y-51257203D01*
X101262118Y-51271764D01*
X101258541Y-51286043D01*
X101253582Y-51299903D01*
X101247288Y-51313210D01*
X101239720Y-51325836D01*
X101230952Y-51337659D01*
X101221066Y-51348566D01*
X101210159Y-51358452D01*
X101198336Y-51367220D01*
X101185710Y-51374788D01*
X101172403Y-51381082D01*
X101158543Y-51386041D01*
X101144264Y-51389618D01*
X101129703Y-51391778D01*
X101115000Y-51392500D01*
X100815000Y-51392500D01*
X100800297Y-51391778D01*
X100785736Y-51389618D01*
X100771457Y-51386041D01*
X100757597Y-51381082D01*
X100744290Y-51374788D01*
X100731664Y-51367220D01*
X100719841Y-51358452D01*
X100708934Y-51348566D01*
X100699048Y-51337659D01*
X100690280Y-51325836D01*
X100682712Y-51313210D01*
X100676418Y-51299903D01*
X100671459Y-51286043D01*
X100667882Y-51271764D01*
X100665722Y-51257203D01*
X100665000Y-51242500D01*
X100665000Y-49592500D01*
X100665722Y-49577797D01*
X100667882Y-49563236D01*
X100671459Y-49548957D01*
X100676418Y-49535097D01*
X100682712Y-49521790D01*
X100690280Y-49509164D01*
X100699048Y-49497341D01*
X100708934Y-49486434D01*
X100719841Y-49476548D01*
X100731664Y-49467780D01*
X100744290Y-49460212D01*
X100757597Y-49453918D01*
X100771457Y-49448959D01*
X100785736Y-49445382D01*
X100800297Y-49443222D01*
X100815000Y-49442500D01*
X101115000Y-49442500D01*
X101129703Y-49443222D01*
X101129703Y-49443222D01*
G37*
D14*
X100965000Y-50417500D03*
D11*
G36*
X99859703Y-49443222D02*
G01*
X99874264Y-49445382D01*
X99888543Y-49448959D01*
X99902403Y-49453918D01*
X99915710Y-49460212D01*
X99928336Y-49467780D01*
X99940159Y-49476548D01*
X99951066Y-49486434D01*
X99960952Y-49497341D01*
X99969720Y-49509164D01*
X99977288Y-49521790D01*
X99983582Y-49535097D01*
X99988541Y-49548957D01*
X99992118Y-49563236D01*
X99994278Y-49577797D01*
X99995000Y-49592500D01*
X99995000Y-51242500D01*
X99994278Y-51257203D01*
X99992118Y-51271764D01*
X99988541Y-51286043D01*
X99983582Y-51299903D01*
X99977288Y-51313210D01*
X99969720Y-51325836D01*
X99960952Y-51337659D01*
X99951066Y-51348566D01*
X99940159Y-51358452D01*
X99928336Y-51367220D01*
X99915710Y-51374788D01*
X99902403Y-51381082D01*
X99888543Y-51386041D01*
X99874264Y-51389618D01*
X99859703Y-51391778D01*
X99845000Y-51392500D01*
X99545000Y-51392500D01*
X99530297Y-51391778D01*
X99515736Y-51389618D01*
X99501457Y-51386041D01*
X99487597Y-51381082D01*
X99474290Y-51374788D01*
X99461664Y-51367220D01*
X99449841Y-51358452D01*
X99438934Y-51348566D01*
X99429048Y-51337659D01*
X99420280Y-51325836D01*
X99412712Y-51313210D01*
X99406418Y-51299903D01*
X99401459Y-51286043D01*
X99397882Y-51271764D01*
X99395722Y-51257203D01*
X99395000Y-51242500D01*
X99395000Y-49592500D01*
X99395722Y-49577797D01*
X99397882Y-49563236D01*
X99401459Y-49548957D01*
X99406418Y-49535097D01*
X99412712Y-49521790D01*
X99420280Y-49509164D01*
X99429048Y-49497341D01*
X99438934Y-49486434D01*
X99449841Y-49476548D01*
X99461664Y-49467780D01*
X99474290Y-49460212D01*
X99487597Y-49453918D01*
X99501457Y-49448959D01*
X99515736Y-49445382D01*
X99530297Y-49443222D01*
X99545000Y-49442500D01*
X99845000Y-49442500D01*
X99859703Y-49443222D01*
X99859703Y-49443222D01*
G37*
D14*
X99695000Y-50417500D03*
D11*
G36*
X98589703Y-49443222D02*
G01*
X98604264Y-49445382D01*
X98618543Y-49448959D01*
X98632403Y-49453918D01*
X98645710Y-49460212D01*
X98658336Y-49467780D01*
X98670159Y-49476548D01*
X98681066Y-49486434D01*
X98690952Y-49497341D01*
X98699720Y-49509164D01*
X98707288Y-49521790D01*
X98713582Y-49535097D01*
X98718541Y-49548957D01*
X98722118Y-49563236D01*
X98724278Y-49577797D01*
X98725000Y-49592500D01*
X98725000Y-51242500D01*
X98724278Y-51257203D01*
X98722118Y-51271764D01*
X98718541Y-51286043D01*
X98713582Y-51299903D01*
X98707288Y-51313210D01*
X98699720Y-51325836D01*
X98690952Y-51337659D01*
X98681066Y-51348566D01*
X98670159Y-51358452D01*
X98658336Y-51367220D01*
X98645710Y-51374788D01*
X98632403Y-51381082D01*
X98618543Y-51386041D01*
X98604264Y-51389618D01*
X98589703Y-51391778D01*
X98575000Y-51392500D01*
X98275000Y-51392500D01*
X98260297Y-51391778D01*
X98245736Y-51389618D01*
X98231457Y-51386041D01*
X98217597Y-51381082D01*
X98204290Y-51374788D01*
X98191664Y-51367220D01*
X98179841Y-51358452D01*
X98168934Y-51348566D01*
X98159048Y-51337659D01*
X98150280Y-51325836D01*
X98142712Y-51313210D01*
X98136418Y-51299903D01*
X98131459Y-51286043D01*
X98127882Y-51271764D01*
X98125722Y-51257203D01*
X98125000Y-51242500D01*
X98125000Y-49592500D01*
X98125722Y-49577797D01*
X98127882Y-49563236D01*
X98131459Y-49548957D01*
X98136418Y-49535097D01*
X98142712Y-49521790D01*
X98150280Y-49509164D01*
X98159048Y-49497341D01*
X98168934Y-49486434D01*
X98179841Y-49476548D01*
X98191664Y-49467780D01*
X98204290Y-49460212D01*
X98217597Y-49453918D01*
X98231457Y-49448959D01*
X98245736Y-49445382D01*
X98260297Y-49443222D01*
X98275000Y-49442500D01*
X98575000Y-49442500D01*
X98589703Y-49443222D01*
X98589703Y-49443222D01*
G37*
D14*
X98425000Y-50417500D03*
D15*
X94297500Y-49784000D03*
X94297500Y-45739608D03*
D11*
G36*
X93232504Y-59831204D02*
G01*
X93256773Y-59834804D01*
X93280571Y-59840765D01*
X93303671Y-59849030D01*
X93325849Y-59859520D01*
X93346893Y-59872133D01*
X93366598Y-59886747D01*
X93384777Y-59903223D01*
X93401253Y-59921402D01*
X93415867Y-59941107D01*
X93428480Y-59962151D01*
X93438970Y-59984329D01*
X93447235Y-60007429D01*
X93453196Y-60031227D01*
X93456796Y-60055496D01*
X93458000Y-60080000D01*
X93458000Y-60830000D01*
X93456796Y-60854504D01*
X93453196Y-60878773D01*
X93447235Y-60902571D01*
X93438970Y-60925671D01*
X93428480Y-60947849D01*
X93415867Y-60968893D01*
X93401253Y-60988598D01*
X93384777Y-61006777D01*
X93366598Y-61023253D01*
X93346893Y-61037867D01*
X93325849Y-61050480D01*
X93303671Y-61060970D01*
X93280571Y-61069235D01*
X93256773Y-61075196D01*
X93232504Y-61078796D01*
X93208000Y-61080000D01*
X91958000Y-61080000D01*
X91933496Y-61078796D01*
X91909227Y-61075196D01*
X91885429Y-61069235D01*
X91862329Y-61060970D01*
X91840151Y-61050480D01*
X91819107Y-61037867D01*
X91799402Y-61023253D01*
X91781223Y-61006777D01*
X91764747Y-60988598D01*
X91750133Y-60968893D01*
X91737520Y-60947849D01*
X91727030Y-60925671D01*
X91718765Y-60902571D01*
X91712804Y-60878773D01*
X91709204Y-60854504D01*
X91708000Y-60830000D01*
X91708000Y-60080000D01*
X91709204Y-60055496D01*
X91712804Y-60031227D01*
X91718765Y-60007429D01*
X91727030Y-59984329D01*
X91737520Y-59962151D01*
X91750133Y-59941107D01*
X91764747Y-59921402D01*
X91781223Y-59903223D01*
X91799402Y-59886747D01*
X91819107Y-59872133D01*
X91840151Y-59859520D01*
X91862329Y-59849030D01*
X91885429Y-59840765D01*
X91909227Y-59834804D01*
X91933496Y-59831204D01*
X91958000Y-59830000D01*
X93208000Y-59830000D01*
X93232504Y-59831204D01*
X93232504Y-59831204D01*
G37*
D16*
X92583000Y-60455000D03*
D11*
G36*
X93232504Y-57031204D02*
G01*
X93256773Y-57034804D01*
X93280571Y-57040765D01*
X93303671Y-57049030D01*
X93325849Y-57059520D01*
X93346893Y-57072133D01*
X93366598Y-57086747D01*
X93384777Y-57103223D01*
X93401253Y-57121402D01*
X93415867Y-57141107D01*
X93428480Y-57162151D01*
X93438970Y-57184329D01*
X93447235Y-57207429D01*
X93453196Y-57231227D01*
X93456796Y-57255496D01*
X93458000Y-57280000D01*
X93458000Y-58030000D01*
X93456796Y-58054504D01*
X93453196Y-58078773D01*
X93447235Y-58102571D01*
X93438970Y-58125671D01*
X93428480Y-58147849D01*
X93415867Y-58168893D01*
X93401253Y-58188598D01*
X93384777Y-58206777D01*
X93366598Y-58223253D01*
X93346893Y-58237867D01*
X93325849Y-58250480D01*
X93303671Y-58260970D01*
X93280571Y-58269235D01*
X93256773Y-58275196D01*
X93232504Y-58278796D01*
X93208000Y-58280000D01*
X91958000Y-58280000D01*
X91933496Y-58278796D01*
X91909227Y-58275196D01*
X91885429Y-58269235D01*
X91862329Y-58260970D01*
X91840151Y-58250480D01*
X91819107Y-58237867D01*
X91799402Y-58223253D01*
X91781223Y-58206777D01*
X91764747Y-58188598D01*
X91750133Y-58168893D01*
X91737520Y-58147849D01*
X91727030Y-58125671D01*
X91718765Y-58102571D01*
X91712804Y-58078773D01*
X91709204Y-58054504D01*
X91708000Y-58030000D01*
X91708000Y-57280000D01*
X91709204Y-57255496D01*
X91712804Y-57231227D01*
X91718765Y-57207429D01*
X91727030Y-57184329D01*
X91737520Y-57162151D01*
X91750133Y-57141107D01*
X91764747Y-57121402D01*
X91781223Y-57103223D01*
X91799402Y-57086747D01*
X91819107Y-57072133D01*
X91840151Y-57059520D01*
X91862329Y-57049030D01*
X91885429Y-57040765D01*
X91909227Y-57034804D01*
X91933496Y-57031204D01*
X91958000Y-57030000D01*
X93208000Y-57030000D01*
X93232504Y-57031204D01*
X93232504Y-57031204D01*
G37*
D16*
X92583000Y-57655000D03*
D11*
G36*
X88889104Y-59856604D02*
G01*
X88913373Y-59860204D01*
X88937171Y-59866165D01*
X88960271Y-59874430D01*
X88982449Y-59884920D01*
X89003493Y-59897533D01*
X89023198Y-59912147D01*
X89041377Y-59928623D01*
X89057853Y-59946802D01*
X89072467Y-59966507D01*
X89085080Y-59987551D01*
X89095570Y-60009729D01*
X89103835Y-60032829D01*
X89109796Y-60056627D01*
X89113396Y-60080896D01*
X89114600Y-60105400D01*
X89114600Y-60855400D01*
X89113396Y-60879904D01*
X89109796Y-60904173D01*
X89103835Y-60927971D01*
X89095570Y-60951071D01*
X89085080Y-60973249D01*
X89072467Y-60994293D01*
X89057853Y-61013998D01*
X89041377Y-61032177D01*
X89023198Y-61048653D01*
X89003493Y-61063267D01*
X88982449Y-61075880D01*
X88960271Y-61086370D01*
X88937171Y-61094635D01*
X88913373Y-61100596D01*
X88889104Y-61104196D01*
X88864600Y-61105400D01*
X87614600Y-61105400D01*
X87590096Y-61104196D01*
X87565827Y-61100596D01*
X87542029Y-61094635D01*
X87518929Y-61086370D01*
X87496751Y-61075880D01*
X87475707Y-61063267D01*
X87456002Y-61048653D01*
X87437823Y-61032177D01*
X87421347Y-61013998D01*
X87406733Y-60994293D01*
X87394120Y-60973249D01*
X87383630Y-60951071D01*
X87375365Y-60927971D01*
X87369404Y-60904173D01*
X87365804Y-60879904D01*
X87364600Y-60855400D01*
X87364600Y-60105400D01*
X87365804Y-60080896D01*
X87369404Y-60056627D01*
X87375365Y-60032829D01*
X87383630Y-60009729D01*
X87394120Y-59987551D01*
X87406733Y-59966507D01*
X87421347Y-59946802D01*
X87437823Y-59928623D01*
X87456002Y-59912147D01*
X87475707Y-59897533D01*
X87496751Y-59884920D01*
X87518929Y-59874430D01*
X87542029Y-59866165D01*
X87565827Y-59860204D01*
X87590096Y-59856604D01*
X87614600Y-59855400D01*
X88864600Y-59855400D01*
X88889104Y-59856604D01*
X88889104Y-59856604D01*
G37*
D16*
X88239600Y-60480400D03*
D11*
G36*
X88889104Y-57056604D02*
G01*
X88913373Y-57060204D01*
X88937171Y-57066165D01*
X88960271Y-57074430D01*
X88982449Y-57084920D01*
X89003493Y-57097533D01*
X89023198Y-57112147D01*
X89041377Y-57128623D01*
X89057853Y-57146802D01*
X89072467Y-57166507D01*
X89085080Y-57187551D01*
X89095570Y-57209729D01*
X89103835Y-57232829D01*
X89109796Y-57256627D01*
X89113396Y-57280896D01*
X89114600Y-57305400D01*
X89114600Y-58055400D01*
X89113396Y-58079904D01*
X89109796Y-58104173D01*
X89103835Y-58127971D01*
X89095570Y-58151071D01*
X89085080Y-58173249D01*
X89072467Y-58194293D01*
X89057853Y-58213998D01*
X89041377Y-58232177D01*
X89023198Y-58248653D01*
X89003493Y-58263267D01*
X88982449Y-58275880D01*
X88960271Y-58286370D01*
X88937171Y-58294635D01*
X88913373Y-58300596D01*
X88889104Y-58304196D01*
X88864600Y-58305400D01*
X87614600Y-58305400D01*
X87590096Y-58304196D01*
X87565827Y-58300596D01*
X87542029Y-58294635D01*
X87518929Y-58286370D01*
X87496751Y-58275880D01*
X87475707Y-58263267D01*
X87456002Y-58248653D01*
X87437823Y-58232177D01*
X87421347Y-58213998D01*
X87406733Y-58194293D01*
X87394120Y-58173249D01*
X87383630Y-58151071D01*
X87375365Y-58127971D01*
X87369404Y-58104173D01*
X87365804Y-58079904D01*
X87364600Y-58055400D01*
X87364600Y-57305400D01*
X87365804Y-57280896D01*
X87369404Y-57256627D01*
X87375365Y-57232829D01*
X87383630Y-57209729D01*
X87394120Y-57187551D01*
X87406733Y-57166507D01*
X87421347Y-57146802D01*
X87437823Y-57128623D01*
X87456002Y-57112147D01*
X87475707Y-57097533D01*
X87496751Y-57084920D01*
X87518929Y-57074430D01*
X87542029Y-57066165D01*
X87565827Y-57060204D01*
X87590096Y-57056604D01*
X87614600Y-57055400D01*
X88864600Y-57055400D01*
X88889104Y-57056604D01*
X88889104Y-57056604D01*
G37*
D16*
X88239600Y-57680400D03*
D11*
G36*
X93063142Y-63839174D02*
G01*
X93086803Y-63842684D01*
X93110007Y-63848496D01*
X93132529Y-63856554D01*
X93154153Y-63866782D01*
X93174670Y-63879079D01*
X93193883Y-63893329D01*
X93211607Y-63909393D01*
X93227671Y-63927117D01*
X93241921Y-63946330D01*
X93254218Y-63966847D01*
X93264446Y-63988471D01*
X93272504Y-64010993D01*
X93278316Y-64034197D01*
X93281826Y-64057858D01*
X93283000Y-64081750D01*
X93283000Y-64569250D01*
X93281826Y-64593142D01*
X93278316Y-64616803D01*
X93272504Y-64640007D01*
X93264446Y-64662529D01*
X93254218Y-64684153D01*
X93241921Y-64704670D01*
X93227671Y-64723883D01*
X93211607Y-64741607D01*
X93193883Y-64757671D01*
X93174670Y-64771921D01*
X93154153Y-64784218D01*
X93132529Y-64794446D01*
X93110007Y-64802504D01*
X93086803Y-64808316D01*
X93063142Y-64811826D01*
X93039250Y-64813000D01*
X92126750Y-64813000D01*
X92102858Y-64811826D01*
X92079197Y-64808316D01*
X92055993Y-64802504D01*
X92033471Y-64794446D01*
X92011847Y-64784218D01*
X91991330Y-64771921D01*
X91972117Y-64757671D01*
X91954393Y-64741607D01*
X91938329Y-64723883D01*
X91924079Y-64704670D01*
X91911782Y-64684153D01*
X91901554Y-64662529D01*
X91893496Y-64640007D01*
X91887684Y-64616803D01*
X91884174Y-64593142D01*
X91883000Y-64569250D01*
X91883000Y-64081750D01*
X91884174Y-64057858D01*
X91887684Y-64034197D01*
X91893496Y-64010993D01*
X91901554Y-63988471D01*
X91911782Y-63966847D01*
X91924079Y-63946330D01*
X91938329Y-63927117D01*
X91954393Y-63909393D01*
X91972117Y-63893329D01*
X91991330Y-63879079D01*
X92011847Y-63866782D01*
X92033471Y-63856554D01*
X92055993Y-63848496D01*
X92079197Y-63842684D01*
X92102858Y-63839174D01*
X92126750Y-63838000D01*
X93039250Y-63838000D01*
X93063142Y-63839174D01*
X93063142Y-63839174D01*
G37*
D12*
X92583000Y-64325500D03*
D11*
G36*
X93063142Y-61964174D02*
G01*
X93086803Y-61967684D01*
X93110007Y-61973496D01*
X93132529Y-61981554D01*
X93154153Y-61991782D01*
X93174670Y-62004079D01*
X93193883Y-62018329D01*
X93211607Y-62034393D01*
X93227671Y-62052117D01*
X93241921Y-62071330D01*
X93254218Y-62091847D01*
X93264446Y-62113471D01*
X93272504Y-62135993D01*
X93278316Y-62159197D01*
X93281826Y-62182858D01*
X93283000Y-62206750D01*
X93283000Y-62694250D01*
X93281826Y-62718142D01*
X93278316Y-62741803D01*
X93272504Y-62765007D01*
X93264446Y-62787529D01*
X93254218Y-62809153D01*
X93241921Y-62829670D01*
X93227671Y-62848883D01*
X93211607Y-62866607D01*
X93193883Y-62882671D01*
X93174670Y-62896921D01*
X93154153Y-62909218D01*
X93132529Y-62919446D01*
X93110007Y-62927504D01*
X93086803Y-62933316D01*
X93063142Y-62936826D01*
X93039250Y-62938000D01*
X92126750Y-62938000D01*
X92102858Y-62936826D01*
X92079197Y-62933316D01*
X92055993Y-62927504D01*
X92033471Y-62919446D01*
X92011847Y-62909218D01*
X91991330Y-62896921D01*
X91972117Y-62882671D01*
X91954393Y-62866607D01*
X91938329Y-62848883D01*
X91924079Y-62829670D01*
X91911782Y-62809153D01*
X91901554Y-62787529D01*
X91893496Y-62765007D01*
X91887684Y-62741803D01*
X91884174Y-62718142D01*
X91883000Y-62694250D01*
X91883000Y-62206750D01*
X91884174Y-62182858D01*
X91887684Y-62159197D01*
X91893496Y-62135993D01*
X91901554Y-62113471D01*
X91911782Y-62091847D01*
X91924079Y-62071330D01*
X91938329Y-62052117D01*
X91954393Y-62034393D01*
X91972117Y-62018329D01*
X91991330Y-62004079D01*
X92011847Y-61991782D01*
X92033471Y-61981554D01*
X92055993Y-61973496D01*
X92079197Y-61967684D01*
X92102858Y-61964174D01*
X92126750Y-61963000D01*
X93039250Y-61963000D01*
X93063142Y-61964174D01*
X93063142Y-61964174D01*
G37*
D12*
X92583000Y-62450500D03*
D11*
G36*
X88681642Y-63872674D02*
G01*
X88705303Y-63876184D01*
X88728507Y-63881996D01*
X88751029Y-63890054D01*
X88772653Y-63900282D01*
X88793170Y-63912579D01*
X88812383Y-63926829D01*
X88830107Y-63942893D01*
X88846171Y-63960617D01*
X88860421Y-63979830D01*
X88872718Y-64000347D01*
X88882946Y-64021971D01*
X88891004Y-64044493D01*
X88896816Y-64067697D01*
X88900326Y-64091358D01*
X88901500Y-64115250D01*
X88901500Y-64602750D01*
X88900326Y-64626642D01*
X88896816Y-64650303D01*
X88891004Y-64673507D01*
X88882946Y-64696029D01*
X88872718Y-64717653D01*
X88860421Y-64738170D01*
X88846171Y-64757383D01*
X88830107Y-64775107D01*
X88812383Y-64791171D01*
X88793170Y-64805421D01*
X88772653Y-64817718D01*
X88751029Y-64827946D01*
X88728507Y-64836004D01*
X88705303Y-64841816D01*
X88681642Y-64845326D01*
X88657750Y-64846500D01*
X87745250Y-64846500D01*
X87721358Y-64845326D01*
X87697697Y-64841816D01*
X87674493Y-64836004D01*
X87651971Y-64827946D01*
X87630347Y-64817718D01*
X87609830Y-64805421D01*
X87590617Y-64791171D01*
X87572893Y-64775107D01*
X87556829Y-64757383D01*
X87542579Y-64738170D01*
X87530282Y-64717653D01*
X87520054Y-64696029D01*
X87511996Y-64673507D01*
X87506184Y-64650303D01*
X87502674Y-64626642D01*
X87501500Y-64602750D01*
X87501500Y-64115250D01*
X87502674Y-64091358D01*
X87506184Y-64067697D01*
X87511996Y-64044493D01*
X87520054Y-64021971D01*
X87530282Y-64000347D01*
X87542579Y-63979830D01*
X87556829Y-63960617D01*
X87572893Y-63942893D01*
X87590617Y-63926829D01*
X87609830Y-63912579D01*
X87630347Y-63900282D01*
X87651971Y-63890054D01*
X87674493Y-63881996D01*
X87697697Y-63876184D01*
X87721358Y-63872674D01*
X87745250Y-63871500D01*
X88657750Y-63871500D01*
X88681642Y-63872674D01*
X88681642Y-63872674D01*
G37*
D12*
X88201500Y-64359000D03*
D11*
G36*
X88681642Y-61997674D02*
G01*
X88705303Y-62001184D01*
X88728507Y-62006996D01*
X88751029Y-62015054D01*
X88772653Y-62025282D01*
X88793170Y-62037579D01*
X88812383Y-62051829D01*
X88830107Y-62067893D01*
X88846171Y-62085617D01*
X88860421Y-62104830D01*
X88872718Y-62125347D01*
X88882946Y-62146971D01*
X88891004Y-62169493D01*
X88896816Y-62192697D01*
X88900326Y-62216358D01*
X88901500Y-62240250D01*
X88901500Y-62727750D01*
X88900326Y-62751642D01*
X88896816Y-62775303D01*
X88891004Y-62798507D01*
X88882946Y-62821029D01*
X88872718Y-62842653D01*
X88860421Y-62863170D01*
X88846171Y-62882383D01*
X88830107Y-62900107D01*
X88812383Y-62916171D01*
X88793170Y-62930421D01*
X88772653Y-62942718D01*
X88751029Y-62952946D01*
X88728507Y-62961004D01*
X88705303Y-62966816D01*
X88681642Y-62970326D01*
X88657750Y-62971500D01*
X87745250Y-62971500D01*
X87721358Y-62970326D01*
X87697697Y-62966816D01*
X87674493Y-62961004D01*
X87651971Y-62952946D01*
X87630347Y-62942718D01*
X87609830Y-62930421D01*
X87590617Y-62916171D01*
X87572893Y-62900107D01*
X87556829Y-62882383D01*
X87542579Y-62863170D01*
X87530282Y-62842653D01*
X87520054Y-62821029D01*
X87511996Y-62798507D01*
X87506184Y-62775303D01*
X87502674Y-62751642D01*
X87501500Y-62727750D01*
X87501500Y-62240250D01*
X87502674Y-62216358D01*
X87506184Y-62192697D01*
X87511996Y-62169493D01*
X87520054Y-62146971D01*
X87530282Y-62125347D01*
X87542579Y-62104830D01*
X87556829Y-62085617D01*
X87572893Y-62067893D01*
X87590617Y-62051829D01*
X87609830Y-62037579D01*
X87630347Y-62025282D01*
X87651971Y-62015054D01*
X87674493Y-62006996D01*
X87697697Y-62001184D01*
X87721358Y-61997674D01*
X87745250Y-61996500D01*
X88657750Y-61996500D01*
X88681642Y-61997674D01*
X88681642Y-61997674D01*
G37*
D12*
X88201500Y-62484000D03*
D11*
G36*
X96040642Y-55689174D02*
G01*
X96064303Y-55692684D01*
X96087507Y-55698496D01*
X96110029Y-55706554D01*
X96131653Y-55716782D01*
X96152170Y-55729079D01*
X96171383Y-55743329D01*
X96189107Y-55759393D01*
X96205171Y-55777117D01*
X96219421Y-55796330D01*
X96231718Y-55816847D01*
X96241946Y-55838471D01*
X96250004Y-55860993D01*
X96255816Y-55884197D01*
X96259326Y-55907858D01*
X96260500Y-55931750D01*
X96260500Y-56844250D01*
X96259326Y-56868142D01*
X96255816Y-56891803D01*
X96250004Y-56915007D01*
X96241946Y-56937529D01*
X96231718Y-56959153D01*
X96219421Y-56979670D01*
X96205171Y-56998883D01*
X96189107Y-57016607D01*
X96171383Y-57032671D01*
X96152170Y-57046921D01*
X96131653Y-57059218D01*
X96110029Y-57069446D01*
X96087507Y-57077504D01*
X96064303Y-57083316D01*
X96040642Y-57086826D01*
X96016750Y-57088000D01*
X95529250Y-57088000D01*
X95505358Y-57086826D01*
X95481697Y-57083316D01*
X95458493Y-57077504D01*
X95435971Y-57069446D01*
X95414347Y-57059218D01*
X95393830Y-57046921D01*
X95374617Y-57032671D01*
X95356893Y-57016607D01*
X95340829Y-56998883D01*
X95326579Y-56979670D01*
X95314282Y-56959153D01*
X95304054Y-56937529D01*
X95295996Y-56915007D01*
X95290184Y-56891803D01*
X95286674Y-56868142D01*
X95285500Y-56844250D01*
X95285500Y-55931750D01*
X95286674Y-55907858D01*
X95290184Y-55884197D01*
X95295996Y-55860993D01*
X95304054Y-55838471D01*
X95314282Y-55816847D01*
X95326579Y-55796330D01*
X95340829Y-55777117D01*
X95356893Y-55759393D01*
X95374617Y-55743329D01*
X95393830Y-55729079D01*
X95414347Y-55716782D01*
X95435971Y-55706554D01*
X95458493Y-55698496D01*
X95481697Y-55692684D01*
X95505358Y-55689174D01*
X95529250Y-55688000D01*
X96016750Y-55688000D01*
X96040642Y-55689174D01*
X96040642Y-55689174D01*
G37*
D12*
X95773000Y-56388000D03*
D11*
G36*
X97915642Y-55689174D02*
G01*
X97939303Y-55692684D01*
X97962507Y-55698496D01*
X97985029Y-55706554D01*
X98006653Y-55716782D01*
X98027170Y-55729079D01*
X98046383Y-55743329D01*
X98064107Y-55759393D01*
X98080171Y-55777117D01*
X98094421Y-55796330D01*
X98106718Y-55816847D01*
X98116946Y-55838471D01*
X98125004Y-55860993D01*
X98130816Y-55884197D01*
X98134326Y-55907858D01*
X98135500Y-55931750D01*
X98135500Y-56844250D01*
X98134326Y-56868142D01*
X98130816Y-56891803D01*
X98125004Y-56915007D01*
X98116946Y-56937529D01*
X98106718Y-56959153D01*
X98094421Y-56979670D01*
X98080171Y-56998883D01*
X98064107Y-57016607D01*
X98046383Y-57032671D01*
X98027170Y-57046921D01*
X98006653Y-57059218D01*
X97985029Y-57069446D01*
X97962507Y-57077504D01*
X97939303Y-57083316D01*
X97915642Y-57086826D01*
X97891750Y-57088000D01*
X97404250Y-57088000D01*
X97380358Y-57086826D01*
X97356697Y-57083316D01*
X97333493Y-57077504D01*
X97310971Y-57069446D01*
X97289347Y-57059218D01*
X97268830Y-57046921D01*
X97249617Y-57032671D01*
X97231893Y-57016607D01*
X97215829Y-56998883D01*
X97201579Y-56979670D01*
X97189282Y-56959153D01*
X97179054Y-56937529D01*
X97170996Y-56915007D01*
X97165184Y-56891803D01*
X97161674Y-56868142D01*
X97160500Y-56844250D01*
X97160500Y-55931750D01*
X97161674Y-55907858D01*
X97165184Y-55884197D01*
X97170996Y-55860993D01*
X97179054Y-55838471D01*
X97189282Y-55816847D01*
X97201579Y-55796330D01*
X97215829Y-55777117D01*
X97231893Y-55759393D01*
X97249617Y-55743329D01*
X97268830Y-55729079D01*
X97289347Y-55716782D01*
X97310971Y-55706554D01*
X97333493Y-55698496D01*
X97356697Y-55692684D01*
X97380358Y-55689174D01*
X97404250Y-55688000D01*
X97891750Y-55688000D01*
X97915642Y-55689174D01*
X97915642Y-55689174D01*
G37*
D12*
X97648000Y-56388000D03*
D11*
G36*
X85664504Y-47745204D02*
G01*
X85688773Y-47748804D01*
X85712571Y-47754765D01*
X85735671Y-47763030D01*
X85757849Y-47773520D01*
X85778893Y-47786133D01*
X85798598Y-47800747D01*
X85816777Y-47817223D01*
X85833253Y-47835402D01*
X85847867Y-47855107D01*
X85860480Y-47876151D01*
X85870970Y-47898329D01*
X85879235Y-47921429D01*
X85885196Y-47945227D01*
X85888796Y-47969496D01*
X85890000Y-47994000D01*
X85890000Y-50094000D01*
X85888796Y-50118504D01*
X85885196Y-50142773D01*
X85879235Y-50166571D01*
X85870970Y-50189671D01*
X85860480Y-50211849D01*
X85847867Y-50232893D01*
X85833253Y-50252598D01*
X85816777Y-50270777D01*
X85798598Y-50287253D01*
X85778893Y-50301867D01*
X85757849Y-50314480D01*
X85735671Y-50324970D01*
X85712571Y-50333235D01*
X85688773Y-50339196D01*
X85664504Y-50342796D01*
X85640000Y-50344000D01*
X84540000Y-50344000D01*
X84515496Y-50342796D01*
X84491227Y-50339196D01*
X84467429Y-50333235D01*
X84444329Y-50324970D01*
X84422151Y-50314480D01*
X84401107Y-50301867D01*
X84381402Y-50287253D01*
X84363223Y-50270777D01*
X84346747Y-50252598D01*
X84332133Y-50232893D01*
X84319520Y-50211849D01*
X84309030Y-50189671D01*
X84300765Y-50166571D01*
X84294804Y-50142773D01*
X84291204Y-50118504D01*
X84290000Y-50094000D01*
X84290000Y-47994000D01*
X84291204Y-47969496D01*
X84294804Y-47945227D01*
X84300765Y-47921429D01*
X84309030Y-47898329D01*
X84319520Y-47876151D01*
X84332133Y-47855107D01*
X84346747Y-47835402D01*
X84363223Y-47817223D01*
X84381402Y-47800747D01*
X84401107Y-47786133D01*
X84422151Y-47773520D01*
X84444329Y-47763030D01*
X84467429Y-47754765D01*
X84491227Y-47748804D01*
X84515496Y-47745204D01*
X84540000Y-47744000D01*
X85640000Y-47744000D01*
X85664504Y-47745204D01*
X85664504Y-47745204D01*
G37*
D13*
X85090000Y-49044000D03*
D11*
G36*
X85664504Y-44145204D02*
G01*
X85688773Y-44148804D01*
X85712571Y-44154765D01*
X85735671Y-44163030D01*
X85757849Y-44173520D01*
X85778893Y-44186133D01*
X85798598Y-44200747D01*
X85816777Y-44217223D01*
X85833253Y-44235402D01*
X85847867Y-44255107D01*
X85860480Y-44276151D01*
X85870970Y-44298329D01*
X85879235Y-44321429D01*
X85885196Y-44345227D01*
X85888796Y-44369496D01*
X85890000Y-44394000D01*
X85890000Y-46494000D01*
X85888796Y-46518504D01*
X85885196Y-46542773D01*
X85879235Y-46566571D01*
X85870970Y-46589671D01*
X85860480Y-46611849D01*
X85847867Y-46632893D01*
X85833253Y-46652598D01*
X85816777Y-46670777D01*
X85798598Y-46687253D01*
X85778893Y-46701867D01*
X85757849Y-46714480D01*
X85735671Y-46724970D01*
X85712571Y-46733235D01*
X85688773Y-46739196D01*
X85664504Y-46742796D01*
X85640000Y-46744000D01*
X84540000Y-46744000D01*
X84515496Y-46742796D01*
X84491227Y-46739196D01*
X84467429Y-46733235D01*
X84444329Y-46724970D01*
X84422151Y-46714480D01*
X84401107Y-46701867D01*
X84381402Y-46687253D01*
X84363223Y-46670777D01*
X84346747Y-46652598D01*
X84332133Y-46632893D01*
X84319520Y-46611849D01*
X84309030Y-46589671D01*
X84300765Y-46566571D01*
X84294804Y-46542773D01*
X84291204Y-46518504D01*
X84290000Y-46494000D01*
X84290000Y-44394000D01*
X84291204Y-44369496D01*
X84294804Y-44345227D01*
X84300765Y-44321429D01*
X84309030Y-44298329D01*
X84319520Y-44276151D01*
X84332133Y-44255107D01*
X84346747Y-44235402D01*
X84363223Y-44217223D01*
X84381402Y-44200747D01*
X84401107Y-44186133D01*
X84422151Y-44173520D01*
X84444329Y-44163030D01*
X84467429Y-44154765D01*
X84491227Y-44148804D01*
X84515496Y-44145204D01*
X84540000Y-44144000D01*
X85640000Y-44144000D01*
X85664504Y-44145204D01*
X85664504Y-44145204D01*
G37*
D13*
X85090000Y-45444000D03*
D10*
X83820000Y-56388000D03*
X83820000Y-56870600D03*
X83820000Y-57378600D03*
X83820000Y-57886600D03*
X83820000Y-58369200D03*
X79451200Y-58369200D03*
X79451200Y-57886600D03*
X79451200Y-57378600D03*
X79451200Y-56870600D03*
X79451200Y-56388000D03*
D17*
X90762000Y-45532000D03*
X90762000Y-47432000D03*
X88562000Y-47432000D03*
X88562000Y-46482000D03*
X88562000Y-45532000D03*
M02*
